<?xml version="1.0" encoding="UTF-8" standalone="no"?>
<!-- Created with Inkscape (http://www.inkscape.org/) -->

<svg
   width="68.177116mm"
   height="2.4011765mm"
   viewBox="0 0 68.177116 2.4011765"
   version="1.1"
   id="svg5"
   xmlns:inkscape="http://www.inkscape.org/namespaces/inkscape"
   xmlns:sodipodi="http://sodipodi.sourceforge.net/DTD/sodipodi-0.dtd"
   xmlns="http://www.w3.org/2000/svg"
   xmlns:svg="http://www.w3.org/2000/svg">
  <sodipodi:namedview
     id="namedview7"
     pagecolor="#ffffff"
     bordercolor="#000000"
     borderopacity="0.25"
     inkscape:showpageshadow="2"
     inkscape:pageopacity="0.0"
     inkscape:pagecheckerboard="0"
     inkscape:deskcolor="#d1d1d1"
     inkscape:document-units="mm"
     showgrid="false" />
  <defs
     id="defs2" />
  <g
     inkscape:label="Layer 1"
     inkscape:groupmode="layer"
     id="layer1"
     transform="translate(-54.21985,-93.384481)">
    <path
       style="fill:#ffffff;stroke-width:0.308231"
       id="path3732"
       d="m 54.25066,95.495455 c 0.02831,-0.132185 0.228698,-0.237991 0.405695,-0.267949 0.16159,-0.02734 0.308693,0.0918 0.470098,0.119727 0.191798,0.03319 0.392253,0.09332 0.584862,0.0628 0.25266,-0.04004 0.42957,-0.25009 0.687281,-0.264403 0.263362,-0.01464 0.501158,0.122983 0.751738,0.184475 0.293366,-0.02542 0.586728,-0.05084 0.880092,-0.07625 0.33043,0.01494 0.660412,0.05277 0.991282,0.0448 0.376594,-0.0091 0.746098,-0.09582 1.122894,-0.09575 0.421268,1.02e-4 0.836103,0.08399 1.257045,0.09617 0.461884,0.0134 0.925599,-0.04599 1.386459,-0.0197 3.528879,0.201276 -0.585827,0.258307 3.180865,0.127312 0.602079,-0.07338 1.196098,-0.229279 1.806232,-0.220152 0.645955,0.0097 1.258362,0.232799 1.901831,0.275623 0.692702,0.0461 3.327848,-0.07573 4.002451,-0.05915 4.414691,0.108477 -0.07998,0.289059 4.589017,-0.0055 3.942058,0.562192 1.521586,0.447609 5.58087,0.0745 0.93336,-0.08579 1.874228,-0.122261 2.807723,-0.207228 0.882447,-0.08032 1.74947,-0.281503 2.638576,-0.288495 3.117414,0.321777 1.599276,0.262698 4.551668,0.212087 3.576731,0.384898 0.333958,0.186382 3.69954,-0.01435 0.555382,-0.03312 1.117939,-0.02943 1.671423,0.01792 0.54974,0.04703 1.069968,0.299628 1.621258,0.263745 3.6525,-0.237739 -0.53036,-0.981643 3.13003,-0.0864 0.52834,-0.08384 1.04456,-0.250674 1.58502,-0.251537 0.56743,-9.13e-4 1.10362,0.212206 1.66916,0.246337 3.15685,0.190525 0.26005,-0.242412 3.59047,-0.289466 0.63542,-0.009 1.25562,0.149927 1.88829,0.194325 0.60951,0.04277 1.22304,0.04463 1.83456,0.06693 0.79602,0.07238 2.60508,0.263106 3.4332,0.237903 1.04989,-0.03196 1.96439,-0.33016 3.02812,-0.247094 0.44713,0.03491 0.96768,0.237899 1.39856,0.332623 l -10e-4,-1.640149 v 0 c -1.83387,0.118347 -0.91669,0.221575 -2.73037,-0.398872 -0.59201,0.01108 -1.02597,0.533059 -1.6181,0.540546 -1.17266,0.01484 -2.11537,-1.169095 -3.45854,-0.476615 -4.03189,-0.563563 0.38675,-0.138611 -3.76187,0.08205 -0.63,0.03351 -1.25412,-0.141751 -1.88573,-0.137364 -0.58042,0.0041 -1.14831,0.132207 -1.72729,0.162466 -1.6858,0.0881 -1.61963,0.02205 -3.24612,-0.19122 -5.184935,-0.26639 2.03321,-0.0046 -3.14777,0.168581 -0.5495,0.01837 -1.089463,-0.163852 -1.638788,-0.142789 -0.571088,0.0219 -1.108444,0.218418 -1.67602,0.269894 -1.571289,0.142503 -2.127128,0.0076 -3.711796,-0.148747 -0.71362,0.08473 -1.420105,0.213947 -2.140867,0.254182 -0.494584,0.02761 -4.668573,-0.02626 -5.042973,-0.02014 -0.931574,0.01524 -1.859741,0.106981 -2.791543,0.108313 -0.94546,0.0014 -1.889829,-0.147424 -2.83312,-0.100263 -0.912445,0.04562 -1.797051,0.251134 -2.69558,0.3767 -4.303643,-0.912598 -0.425218,-0.412995 -4.55925,-0.06249 -1.57944,0.133918 -2.457773,-0.2165 -3.986135,-0.373495 -0.633535,-0.06508 -1.274158,-0.104433 -1.913817,-0.103686 -0.606941,7.24e-4 -1.209934,0.07206 -1.814906,0.108081 -0.55455,-0.03325 -1.108976,-0.06763 -1.66365,-0.09974 -0.507315,-0.02936 -1.017449,-0.0376 -1.522304,-0.08467 -0.465723,-0.04342 -0.916401,-0.171407 -1.385393,-0.186427 -0.423803,-0.01356 -0.843018,0.132601 -1.265118,0.101542 -0.389911,-0.02869 -0.724225,-0.246898 -1.113993,-0.276603 -0.330207,-0.02517 -0.655477,0.07786 -0.983217,0.116775 -0.842202,0.06846 -0.781621,0.09473 -1.59277,0.0468 -0.218632,-0.01296 -0.436605,-0.03367 -0.652769,-0.06107 -0.188667,-0.02389 -0.369489,-0.08196 -0.56038,-0.09261 -0.961991,-0.05366 -0.3675,0.184739 -1.046543,0.02512 l -0.0094,2.2167 z"
       inkscape:export-filename="default.svg"
       inkscape:export-xdpi="96"
       inkscape:export-ydpi="96"
       sodipodi:nodetypes="sssssccccccccsccssccssscsssscssccscscscscssscsscscssscssssscccsccs" />
  </g>
</svg>
