<?xml version="1.0" encoding="UTF-8" standalone="no"?>
<!-- Created with Inkscape (http://www.inkscape.org/) -->

<svg
   width="67.18306mm"
   height="3.8064651mm"
   viewBox="0 0 67.18306 3.8064651"
   version="1.1"
   id="svg5"
   xmlns:inkscape="http://www.inkscape.org/namespaces/inkscape"
   xmlns:sodipodi="http://sodipodi.sourceforge.net/DTD/sodipodi-0.dtd"
   xmlns="http://www.w3.org/2000/svg"
   xmlns:svg="http://www.w3.org/2000/svg">
  <sodipodi:namedview
     id="namedview7"
     pagecolor="#ffffff"
     bordercolor="#000000"
     borderopacity="0.25"
     inkscape:showpageshadow="2"
     inkscape:pageopacity="0.0"
     inkscape:pagecheckerboard="0"
     inkscape:deskcolor="#d1d1d1"
     inkscape:document-units="mm"
     showgrid="false" />
  <defs
     id="defs2" />
  <g
     inkscape:label="Layer 1"
     inkscape:groupmode="layer"
     id="layer1"
     transform="translate(-54.44692,-105.57424)">
    <g
       id="g5507"
       style="fill:#ffffff">
      <path
         style="fill:#ffffff;stroke-width:0.292367"
         id="path5024"
         d="m 55.02113,108.64851 c -0.004,-0.0752 -0.0081,-0.15041 -0.01214,-0.22561 0.03483,-0.13061 0.103071,-0.25446 0.104481,-0.3918 0.0016,-0.16539 -0.06556,-0.32103 -0.0955,-0.48235 -0.03313,-0.1785 -0.07126,-0.35605 -0.0937,-0.537 -0.145685,-1.17469 0.08012,0.075 -0.129122,-0.99144 -0.04288,-0.12368 -0.08575,-0.24738 -0.12863,-0.37107 0,0 0.03131,-3e-4 0.03131,-3e-4 v 0 c -0.02722,0.12476 -0.05445,0.24952 -0.08167,0.37427 -0.0414,0.15589 -0.100007,0.30645 -0.124187,0.46762 -0.02655,0.17699 -0.0195,0.35906 -0.02679,0.53875 -0.02719,0.6687 -0.02402,0.42165 0.0095,1.05981 0.007,0.13303 0.0031,0.2675 0.02019,0.39917 0.0105,0.0812 0.04118,0.15649 0.06176,0.23473 0,0 0.464519,-0.0747 0.464519,-0.0747 z" />
      <path
         style="fill:#ffffff;stroke-width:0.292367"
         id="path5026"
         d="m 56.081458,108.69044 c -0.02627,-0.15626 -0.07593,-0.41753 -0.06843,-0.56382 0.04116,-0.80241 0.125582,-0.0974 0.118192,-0.97741 -0.0044,-0.52114 -0.07027,-0.5971 -0.224076,-1.07436 -0.03709,-0.14784 -0.07418,-0.29569 -0.111268,-0.44355 0,0 0.08211,0.01 0.08211,0.01 v 0 c -0.09416,0.13464 -0.188314,0.26926 -0.282474,0.40389 -0.03464,0.17147 -0.08655,0.33909 -0.103928,0.51442 -0.01873,0.18908 -0.0024,0.38089 -0.0037,0.57135 -0.01069,0.18401 -0.01341,0.36898 -0.03211,0.55204 -0.01627,0.15939 -0.07417,0.31303 -0.07264,0.47366 0.0019,0.19788 0.139314,0.37569 0.08534,0.58448 0,0 0.612971,-0.0502 0.612971,-0.0502 z" />
      <path
         style="fill:#ffffff;stroke-width:0.292367"
         id="path5032"
         d="m 57.203985,108.0674 c -0.0028,-0.0348 -0.01172,-0.0696 -0.0083,-0.1044 0.06106,-0.60946 0.06054,0.19901 -0.01945,-0.58315 -0.01484,-0.14527 0.01696,-0.29841 -0.01746,-0.43863 -0.03957,-0.16118 -0.132881,-0.29487 -0.198884,-0.44259 -0.06068,-0.13582 -0.120788,-0.27203 -0.181182,-0.40805 0,0 -0.02901,10e-4 -0.02901,10e-4 v 0 c -0.01823,0.14135 -0.02495,0.28562 -0.05471,0.424 -0.03612,0.16796 -0.127971,0.31845 -0.142119,0.49127 -0.02148,0.26226 0.108498,0.60258 0.169569,0.84633 0.02098,0.0838 0.03574,0.16956 0.05265,0.25465 0.01146,0.0576 0.02164,0.11575 0.03247,0.17356 0,0 0.396389,-0.21424 0.396389,-0.21424 z" />
      <path
         style="fill:#ffffff;stroke-width:0.292367"
         id="path5034"
         d="m 58.290946,108.71504 c -0.0021,-0.0869 -0.0045,-0.1739 -0.0067,-0.26085 0.0054,-0.13595 0.01947,-0.27182 0.01609,-0.40787 -0.0046,-0.18637 -0.03955,-0.37077 -0.04012,-0.55721 -7.93e-4,-0.21588 0.0306,-0.43036 0.03642,-0.64613 0.01661,-0.61662 -7.94e-4,-0.64749 -0.04771,-1.2408 0,0 -0.05601,-0.01 -0.05601,-0.01 v 0 c -0.09671,0.7347 -0.03875,0.45322 -0.232913,1.21525 -0.05626,0.22078 -0.141647,0.43239 -0.174601,0.66008 -0.02803,0.19368 0.0055,0.39384 -0.0063,0.58999 -0.0089,0.14755 -0.06817,0.29144 -0.05575,0.43861 0.0089,0.10526 0.07781,0.18898 0.116721,0.28347 0,0 0.450877,-0.065 0.450877,-0.065 z" />
      <path
         style="fill:#ffffff;stroke-width:0.292367"
         id="path5036"
         d="m 59.469533,108.00575 c -0.01331,-0.18621 0.04165,-0.37654 0.01958,-0.56213 -0.01646,-0.13832 -0.06581,-0.26772 -0.09976,-0.40121 -0.140372,-0.55191 -0.05379,-0.30957 -0.29718,-0.80362 0,0 -0.02458,0.002 -0.02458,0.002 v 0 c -0.09187,0.14073 -0.210876,0.2605 -0.275617,0.42218 -0.126187,0.31514 -0.071,0.57177 -0.02985,0.89254 0.04625,0.36053 0.03505,0.28489 0.114666,0.57747 0,0 0.592761,-0.12711 0.592761,-0.12711 z" />
      <path
         style="fill:#ffffff;stroke-width:0.292367"
         id="path5038"
         d="m 60.689873,108.06083 c 0.07543,-0.35574 0.0441,-0.0916 0.0076,-0.53123 -0.01093,-0.13164 0.01283,-0.2703 -0.02061,-0.39616 -0.316735,-1.1919 -0.132615,0.26168 -0.239313,-0.84256 0,0 -0.0027,-5e-5 -0.0027,-5e-5 v 0 c -1.11e-4,0.13643 0.02577,0.27663 -2.65e-4,0.40928 -0.03063,0.15571 -0.115374,0.28784 -0.165891,0.43563 -0.04501,0.13166 -0.102486,0.26097 -0.120428,0.40195 -0.02474,0.19431 0.04193,0.36963 0.09245,0.54369 0,0 0.449226,-0.0205 0.449226,-0.0205 z" />
      <path
         style="fill:#ffffff;stroke-width:0.292367"
         id="path5042"
         d="m 62.007352,108.17479 c 0.127193,-0.55486 7.94e-4,0.1373 -0.0063,-0.59143 -0.0013,-0.148 0.0676,-0.29237 0.05303,-0.43931 -0.01722,-0.17389 -0.11067,-0.32458 -0.145587,-0.49447 -0.03142,-0.15289 -0.0349,-0.31236 -0.05235,-0.46853 0,0 -0.06766,-0.004 -0.06766,-0.004 v 0 c -0.117633,0.63324 -0.03187,0.31755 -0.266599,0.9432 -0.07368,0.35814 0.053,0.71605 0.01111,1.07425 0,0 0.47438,-0.0195 0.47438,-0.0195 z" />
      <path
         style="fill:#ffffff;stroke-width:0.292367"
         id="path5046"
         d="m 63.060706,108.33947 c -7.94e-4,-0.0491 -0.0082,-0.0987 -0.0026,-0.14729 0.01003,-0.0865 0.03107,-0.17038 0.04924,-0.25476 0.02535,-0.11771 0.102788,-0.23256 0.08132,-0.35143 -0.02749,-0.15224 -0.175588,-0.23891 -0.214706,-0.38731 -0.03775,-0.14321 0.0069,-0.30171 -0.0063,-0.45129 -0.01297,-0.14628 -0.04798,-0.28837 -0.07197,-0.43255 -0.06018,-0.12409 -0.120351,-0.24816 -0.180525,-0.37222 0,0 -0.05974,0.002 -0.05974,0.002 v 0 c -0.04344,0.13116 -0.08687,0.26233 -0.13031,0.3935 -0.0058,0.15067 -0.0079,0.30162 -0.0173,0.45201 -0.04126,0.66008 -0.05106,0.2765 -0.04168,0.91415 0.0019,0.11735 -0.0049,0.23638 0.01281,0.35169 0.02627,0.17037 0.08046,0.24474 0.153337,0.37318 0,0 0.428447,-0.0905 0.428447,-0.0905 z" />
      <path
         style="fill:#ffffff;stroke-width:0.255028"
         id="path5024-4"
         d="m 70.720521,108.48511 c 0.0034,-0.0668 0.0069,-0.1336 0.0104,-0.2004 -0.02984,-0.116 -0.08829,-0.22603 -0.0895,-0.34802 -0.0014,-0.14692 0.05616,-0.28516 0.08181,-0.42846 0.02838,-0.15854 0.06104,-0.31625 0.08026,-0.47698 0.124793,-1.04344 -0.06863,0.0666 0.110605,-0.88066 0.03673,-0.10989 0.07345,-0.21974 0.110184,-0.32961 0,0 -0.02682,-2.8e-4 -0.02682,-2.8e-4 v 0 c 0.02332,0.11087 0.04664,0.22165 0.06996,0.33246 0.03546,0.13845 0.08567,0.27219 0.106379,0.41536 0.02274,0.1572 0.0167,0.31895 0.02295,0.47854 0.02329,0.59398 0.02057,0.37455 -0.0081,0.9414 -0.006,0.1182 -0.0027,0.23761 -0.0173,0.35457 -0.009,0.0722 -0.03527,0.139 -0.0529,0.20849 0,0 -0.397906,-0.0664 -0.397906,-0.0664 z" />
      <path
         style="fill:#ffffff;stroke-width:0.255028"
         id="path5026-9"
         d="m 69.812248,108.52241 c 0.0225,-0.1388 0.06504,-0.37087 0.05862,-0.50081 -0.03526,-0.71275 -0.107574,-0.0866 -0.101243,-0.86821 0.0038,-0.46288 0.06019,-0.53036 0.191942,-0.9543 0.03177,-0.13132 0.06354,-0.26264 0.09531,-0.39398 0,0 -0.07034,0.009 -0.07034,0.009 v 0 c 0.08066,0.11954 0.161309,0.23916 0.241967,0.35875 0.02967,0.1523 0.07414,0.3012 0.08902,0.45693 0.01604,0.16796 0.0021,0.33833 0.0032,0.50751 0.0092,0.16346 0.01149,0.32775 0.02751,0.49036 0.01394,0.14158 0.06353,0.27805 0.06222,0.42073 -0.0016,0.17577 -0.119336,0.33371 -0.0731,0.51916 0,0 -0.525069,-0.0446 -0.525069,-0.0446 z" />
      <path
         style="fill:#ffffff;stroke-width:0.255028"
         id="path5032-4"
         d="m 68.764557,108.91434 c 0.0024,-0.0309 0.01004,-0.0618 0.0071,-0.0927 -0.0523,-0.54136 -0.05186,0.17676 0.01666,-0.518 0.01271,-0.12903 -0.01453,-0.26505 0.01496,-0.3896 0.0339,-0.14318 0.113826,-0.26193 0.170364,-0.39314 0.05198,-0.12064 0.103466,-0.24162 0.1552,-0.36246 0,0 0.02485,0.001 0.02485,0.001 v 0 c 0.01562,0.12555 0.02137,0.2537 0.04687,0.37662 0.03094,0.1492 0.109619,0.28287 0.121739,0.43637 0.0184,0.23296 -0.09294,0.53526 -0.145253,0.75176 -0.01797,0.0744 -0.03061,0.15063 -0.0451,0.2262 -0.0098,0.0512 -0.01854,0.10281 -0.02781,0.15417 0,0 -0.339546,-0.1903 -0.339546,-0.1903 z" />
      <path
         style="fill:#ffffff;stroke-width:0.255028"
         id="path5034-4"
         d="m 67.83347,108.54407 c 0.0018,-0.0772 0.0039,-0.15447 0.0057,-0.2317 -0.0046,-0.12077 -0.01668,-0.24145 -0.01378,-0.3623 0.0039,-0.16554 0.03388,-0.32934 0.03437,-0.49494 6.79e-4,-0.19177 -0.02621,-0.38228 -0.0312,-0.57395 -0.01423,-0.54771 6.8e-4,-0.57512 0.04087,-1.10214 0,0 0.04798,-0.009 0.04798,-0.009 v 0 c 0.08284,0.65259 0.03319,0.40257 0.199513,1.07946 0.04819,0.1961 0.121334,0.38407 0.149562,0.58631 0.02401,0.17205 -0.0047,0.34983 0.0054,0.52406 0.0076,0.13107 0.05839,0.25888 0.04776,0.38961 -0.0076,0.0935 -0.06665,0.16787 -0.09998,0.25179 0,0 -0.38622,-0.0578 -0.38622,-0.0578 z" />
      <path
         style="fill:#ffffff;stroke-width:0.255028"
         id="path5036-0"
         d="m 66.823896,107.91403 c 0.0114,-0.1654 -0.03568,-0.33447 -0.01677,-0.49931 0.0141,-0.12286 0.05637,-0.23782 0.08545,-0.35639 0.120242,-0.49022 0.04608,-0.27498 0.254563,-0.71381 0,0 0.02105,0.002 0.02105,0.002 v 0 c 0.0787,0.125 0.180636,0.23139 0.236093,0.37501 0.108091,0.27993 0.06082,0.50787 0.02557,0.79281 -0.03962,0.32023 -0.03002,0.25307 -0.09822,0.51293 0,0 -0.507757,-0.11294 -0.507757,-0.11294 z" />
      <path
         style="fill:#ffffff;stroke-width:0.255028"
         id="path5038-6"
         d="m 65.778556,107.96308 c -0.06461,-0.31599 -0.03778,-0.0813 -0.0065,-0.47187 0.0094,-0.11698 -0.01099,-0.2401 0.01765,-0.35188 0.271315,-1.05873 0.113598,0.23244 0.204995,-0.74842 0,0 0.0023,-4e-5 0.0023,-4e-5 v 0 c 9.5e-5,0.12113 -0.02207,0.24571 2.27e-4,0.36354 0.02624,0.13831 0.09883,0.25568 0.142102,0.38696 0.03856,0.11697 0.08779,0.2318 0.103158,0.35703 0.02119,0.1726 -0.03592,0.32833 -0.07919,0.48294 0,0 -0.384806,-0.0182 -0.384806,-0.0182 z" />
      <path
         style="fill:#ffffff;stroke-width:0.255028"
         id="path5042-2"
         d="m 64.650008,108.06471 c -0.108954,-0.49285 -6.81e-4,0.12199 0.0054,-0.52533 0.0011,-0.13148 -0.05791,-0.25971 -0.04543,-0.39022 0.01475,-0.15447 0.0948,-0.28833 0.124709,-0.43923 0.02691,-0.1358 0.02989,-0.27746 0.04484,-0.41617 0,0 0.05796,-0.004 0.05796,-0.004 v 0 c 0.100764,0.56246 0.0273,0.28206 0.228368,0.8378 0.06311,0.31811 -0.0454,0.63604 -0.0095,0.95421 0,0 -0.406352,-0.0173 -0.406352,-0.0173 z" />
      <path
         style="fill:#ffffff;stroke-width:0.255028"
         id="path5046-0"
         d="m 63.747708,108.21046 c 6.8e-4,-0.0436 0.007,-0.0877 0.0022,-0.13085 -0.0086,-0.0768 -0.02661,-0.15133 -0.04218,-0.22629 -0.02172,-0.10452 -0.08805,-0.20657 -0.06966,-0.31216 0.02355,-0.13523 0.150409,-0.21222 0.183917,-0.34403 0.03234,-0.12721 -0.0059,-0.26799 0.0054,-0.40086 0.01111,-0.12993 0.0411,-0.25615 0.06165,-0.38423 0.05155,-0.11026 0.103092,-0.22042 0.154637,-0.33061 0,0 0.05117,0.002 0.05117,0.002 v 0 c 0.03721,0.11649 0.07441,0.23303 0.111623,0.34954 0.005,0.13383 0.0068,0.26791 0.01482,0.40151 0.03534,0.58631 0.04374,0.2456 0.0357,0.812 -0.0016,0.10428 0.0042,0.20996 -0.01097,0.31239 -0.0225,0.15134 -0.06892,0.21739 -0.131348,0.33148 0,0 -0.367006,-0.0803 -0.367006,-0.0803 z" />
      <path
         style="fill:#ffffff;stroke-width:0.292367"
         id="path5024-8"
         d="m 72.255713,109.15608 c -0.004,-0.0752 -0.0081,-0.15041 -0.01214,-0.22562 0.03483,-0.1306 0.103071,-0.25447 0.104481,-0.3918 0.0016,-0.1654 -0.06556,-0.32102 -0.0955,-0.48235 -0.03313,-0.17849 -0.07126,-0.35604 -0.0937,-0.53699 -0.145685,-1.17469 0.08012,0.075 -0.129122,-0.99145 -0.04288,-0.12369 -0.08575,-0.24737 -0.12863,-0.37106 0,0 0.03131,-3.2e-4 0.03131,-3.2e-4 v 0 c -0.02722,0.12477 -0.05445,0.24952 -0.08167,0.37429 -0.0414,0.15588 -0.100007,0.30643 -0.124187,0.46761 -0.02655,0.17698 -0.0195,0.35907 -0.02679,0.53876 -0.02719,0.66869 -0.02402,0.42165 0.0095,1.05981 0.007,0.13303 0.0031,0.26749 0.02019,0.39917 0.0105,0.0812 0.04118,0.15649 0.06176,0.23472 0,0 0.464519,-0.0747 0.464519,-0.0747 z" />
      <path
         style="fill:#ffffff;stroke-width:0.292367"
         id="path5026-0"
         d="m 73.316041,109.009 c -0.02627,-0.15626 -0.07593,-0.41753 -0.06843,-0.56382 0.04116,-0.80241 0.125582,-0.0974 0.118192,-0.97741 -0.0044,-0.52114 -0.07027,-0.5971 -0.224075,-1.07436 -0.03709,-0.14784 -0.07418,-0.29569 -0.111269,-0.44355 0,0 0.08211,0.01 0.08211,0.01 v 0 c -0.09416,0.13464 -0.188314,0.26926 -0.282474,0.40389 -0.03464,0.17147 -0.08655,0.33909 -0.103928,0.51442 -0.01873,0.18908 -0.0024,0.38089 -0.0037,0.57135 -0.01069,0.18401 -0.01341,0.36898 -0.03211,0.55204 -0.01627,0.15939 -0.07417,0.31303 -0.07264,0.47366 0.0019,0.19788 0.139314,0.37569 0.08534,0.58448 0,0 0.612971,-0.0502 0.612971,-0.0502 z" />
      <path
         style="fill:#ffffff;stroke-width:0.292367"
         id="path5032-9"
         d="m 74.438569,108.0674 c -0.0028,-0.0348 -0.01172,-0.0696 -0.0083,-0.1044 0.06106,-0.60946 0.06054,0.19901 -0.01945,-0.58315 -0.01484,-0.14527 0.01696,-0.29841 -0.01746,-0.43863 -0.03957,-0.16118 -0.132881,-0.29487 -0.198884,-0.44259 -0.06068,-0.13582 -0.120788,-0.27203 -0.181182,-0.40805 0,0 -0.02901,10e-4 -0.02901,10e-4 v 0 c -0.01823,0.14135 -0.02495,0.28562 -0.05471,0.424 -0.03612,0.16796 -0.127971,0.31845 -0.142119,0.49127 -0.02148,0.26226 0.108498,0.60258 0.169569,0.84633 0.02098,0.0838 0.03574,0.16956 0.05265,0.25465 0.01146,0.0576 0.02164,0.11575 0.03247,0.17356 0,0 0.396389,-0.21424 0.396389,-0.21424 z" />
      <path
         style="fill:#ffffff;stroke-width:0.292367"
         id="path5034-6"
         d="m 75.525529,108.71504 c -0.0021,-0.0869 -0.0045,-0.1739 -0.0067,-0.26085 0.0054,-0.13595 0.01947,-0.27182 0.01609,-0.40787 -0.0046,-0.18637 -0.03955,-0.37077 -0.04012,-0.55721 -7.93e-4,-0.21588 0.0306,-0.43036 0.03642,-0.64613 0.01661,-0.61662 -7.94e-4,-0.64749 -0.04771,-1.2408 0,0 -0.05601,-0.01 -0.05601,-0.01 v 0 c -0.09671,0.7347 -0.03875,0.45322 -0.232913,1.21525 -0.05626,0.22078 -0.141647,0.43239 -0.174601,0.66008 -0.02803,0.19368 0.0055,0.39384 -0.0063,0.58999 -0.0089,0.14755 -0.06817,0.29144 -0.05575,0.43861 0.0089,0.10526 0.07781,0.18898 0.116721,0.28347 0,0 0.450877,-0.065 0.450877,-0.065 z" />
      <path
         style="fill:#ffffff;stroke-width:0.292367"
         id="path5036-8"
         d="m 76.704116,108.00575 c -0.01331,-0.18621 0.04165,-0.37654 0.01958,-0.56213 -0.01646,-0.13832 -0.06581,-0.26772 -0.09976,-0.40121 -0.140372,-0.55191 -0.05379,-0.30957 -0.29718,-0.80362 0,0 -0.02458,0.002 -0.02458,0.002 v 0 c -0.09187,0.14073 -0.210876,0.2605 -0.275617,0.42218 -0.126187,0.31514 -0.071,0.57177 -0.02985,0.89254 0.04625,0.36053 0.03505,0.28489 0.114666,0.57747 0,0 0.592761,-0.12711 0.592761,-0.12711 z" />
      <path
         style="fill:#ffffff;stroke-width:0.381748"
         id="path5038-2"
         d="m 77.967524,108.67741 c 0.07543,-0.60649 0.0441,-0.15612 0.0076,-0.90568 -0.01093,-0.22444 0.01283,-0.46083 -0.02061,-0.67541 -0.316735,-2.03205 -0.132615,0.44615 -0.239313,-1.43647 0,0 -0.0027,-8e-5 -0.0027,-8e-5 v 0 c -1.11e-4,0.2326 0.02577,0.47163 -2.65e-4,0.69779 -0.03063,0.26546 -0.115374,0.49073 -0.165891,0.74268 -0.04501,0.22448 -0.102486,0.44493 -0.120428,0.68529 -0.02474,0.33127 0.04193,0.63017 0.09245,0.92693 0,0 0.449227,-0.0349 0.449227,-0.0349 z" />
      <path
         style="fill:#ffffff;stroke-width:0.292367"
         id="path5042-8"
         d="m 94.699129,108.17479 c -0.127193,-0.55486 -7.94e-4,0.1373 0.0063,-0.59143 0.0013,-0.14801 -0.0676,-0.29237 -0.05303,-0.43931 0.01722,-0.17389 0.11067,-0.32459 0.145587,-0.49447 0.03142,-0.15289 0.0349,-0.31236 0.05235,-0.46853 0,0 0.06766,-0.004 0.06766,-0.004 v 0 c 0.117632,0.63323 0.03187,0.31755 0.266598,0.94319 0.07368,0.35814 -0.053,0.71606 -0.01111,1.07426 0,0 -0.47438,-0.0195 -0.47438,-0.0195 z" />
      <path
         style="fill:#ffffff;stroke-width:0.332842"
         id="path5046-4"
         d="m 93.645774,108.68066 c 7.94e-4,-0.0636 0.0082,-0.12787 0.0026,-0.1909 -0.01003,-0.11209 -0.03107,-0.22081 -0.04924,-0.33018 -0.02535,-0.15256 -0.102788,-0.30141 -0.08132,-0.45547 0.02749,-0.19731 0.175588,-0.30964 0.214706,-0.50196 0.03775,-0.18562 -0.0069,-0.39103 0.0063,-0.5849 0.01297,-0.18958 0.04798,-0.37373 0.07197,-0.5606 0.06018,-0.16082 0.120351,-0.32162 0.180525,-0.48241 0,0 0.05974,0.004 0.05974,0.004 v 0 c 0.04344,0.16999 0.08687,0.33999 0.13031,0.51001 0.0058,0.19525 0.0079,0.39089 0.0173,0.58581 0.04126,0.85549 0.05106,0.35835 0.04168,1.18478 -0.0019,0.15209 0.0049,0.30634 -0.01281,0.4558 -0.02627,0.22081 -0.08046,0.31719 -0.153337,0.48366 0,0 -0.428447,-0.11723 -0.428447,-0.11723 z" />
      <path
         style="fill:#ffffff;stroke-width:0.255028"
         id="path5024-4-2"
         d="m 85.985959,108.48511 c -0.0034,-0.0668 -0.0069,-0.1336 -0.0104,-0.2004 0.02984,-0.116 0.08829,-0.22603 0.0895,-0.34802 0.0014,-0.14692 -0.05616,-0.28516 -0.08181,-0.42846 -0.02838,-0.15854 -0.06104,-0.31625 -0.08026,-0.47698 -0.124793,-1.04344 0.06863,0.0666 -0.110605,-0.88067 -0.03673,-0.10989 -0.07345,-0.21973 -0.110184,-0.32961 0,0 0.02682,-2.8e-4 0.02682,-2.8e-4 v 0 c -0.02332,0.11087 -0.04664,0.22164 -0.06996,0.33247 -0.03546,0.13845 -0.08567,0.27219 -0.106379,0.41536 -0.02274,0.1572 -0.0167,0.31894 -0.02295,0.47854 -0.02329,0.59398 -0.02057,0.37455 0.0081,0.9414 0.006,0.1182 0.0027,0.2376 0.0173,0.35457 0.009,0.0722 0.03527,0.139 0.0529,0.20849 0,0 0.397906,-0.0664 0.397906,-0.0664 z" />
      <path
         style="fill:#ffffff;stroke-width:0.255028"
         id="path5026-9-5"
         d="m 86.894233,108.52241 c -0.0225,-0.1388 -0.06504,-0.37087 -0.05862,-0.50081 0.03526,-0.71275 0.107573,-0.0866 0.101242,-0.86821 -0.0038,-0.46288 -0.06019,-0.53036 -0.191942,-0.9543 -0.03177,-0.13132 -0.06354,-0.26264 -0.09531,-0.39398 0,0 0.07034,0.009 0.07034,0.009 v 0 c -0.08066,0.11954 -0.161309,0.23916 -0.241967,0.35875 -0.02967,0.1523 -0.07414,0.3012 -0.08902,0.45693 -0.01604,0.16796 -0.0021,0.33833 -0.0032,0.50751 -0.0092,0.16346 -0.01149,0.32775 -0.02751,0.49036 -0.01394,0.14158 -0.06353,0.27805 -0.06222,0.42073 0.0016,0.17577 0.119336,0.33371 0.0731,0.51916 0,0 0.525069,-0.0446 0.525069,-0.0446 z" />
      <path
         style="fill:#ffffff;stroke-width:0.255028"
         id="path5032-4-7"
         d="m 87.941924,107.96887 c -0.0024,-0.0309 -0.01004,-0.0618 -0.0071,-0.0927 0.0523,-0.54135 0.05186,0.17676 -0.01666,-0.51799 -0.01271,-0.12903 0.01453,-0.26505 -0.01496,-0.3896 -0.0339,-0.14318 -0.113826,-0.26193 -0.170364,-0.39314 -0.05198,-0.12064 -0.103466,-0.24162 -0.1552,-0.36246 0,0 -0.02485,0.001 -0.02485,0.001 v 0 c -0.01562,0.12555 -0.02137,0.2537 -0.04687,0.37662 -0.03094,0.1492 -0.109619,0.28288 -0.121739,0.43637 -0.0184,0.23297 0.09294,0.53527 0.145252,0.75176 0.01797,0.0744 0.03061,0.15063 0.0451,0.2262 0.0098,0.0512 0.01854,0.10281 0.02781,0.15417 0,0 0.339546,-0.1903 0.339546,-0.1903 z" />
      <path
         style="fill:#ffffff;stroke-width:0.255028"
         id="path5034-4-9"
         d="m 88.87301,108.54407 c -0.0018,-0.0772 -0.0039,-0.15447 -0.0057,-0.2317 0.0046,-0.12077 0.01668,-0.24145 0.01378,-0.3623 -0.0039,-0.16554 -0.03388,-0.32934 -0.03437,-0.49494 -6.79e-4,-0.19177 0.02621,-0.38228 0.0312,-0.57395 0.01423,-0.54771 -6.8e-4,-0.57512 -0.04087,-1.10214 0,0 -0.04798,-0.009 -0.04798,-0.009 v 0 c -0.08284,0.65259 -0.03319,0.40257 -0.199512,1.07946 -0.04819,0.1961 -0.121335,0.38407 -0.149563,0.58631 -0.02401,0.17205 0.0047,0.34983 -0.0054,0.52406 -0.0076,0.13107 -0.05839,0.25888 -0.04776,0.38961 0.0076,0.0935 0.06665,0.16787 0.09998,0.25179 0,0 0.38622,-0.0578 0.38622,-0.0578 z" />
      <path
         style="fill:#ffffff;stroke-width:0.255028"
         id="path5036-0-9"
         d="m 89.882584,107.91403 c -0.0114,-0.1654 0.03568,-0.33447 0.01677,-0.49931 -0.0141,-0.12287 -0.05637,-0.23782 -0.08545,-0.35639 -0.120242,-0.49024 -0.04608,-0.27498 -0.254563,-0.71382 0,0 -0.02105,0.002 -0.02105,0.002 v 0 c -0.0787,0.125 -0.180636,0.23139 -0.236093,0.37501 -0.108091,0.27993 -0.06082,0.50787 -0.02557,0.7928 0.03962,0.32024 0.03002,0.25307 0.09822,0.51294 0,0 0.507757,-0.11294 0.507757,-0.11294 z" />
      <path
         style="fill:#ffffff;stroke-width:0.255028"
         id="path5038-6-5"
         d="m 90.927925,107.96308 c 0.06461,-0.31599 0.03778,-0.0813 0.0065,-0.47187 -0.0094,-0.11698 0.01099,-0.2401 -0.01765,-0.35188 -0.271315,-1.05873 -0.113598,0.23244 -0.204995,-0.74842 0,0 -0.0023,-4e-5 -0.0023,-4e-5 v 0 c -9.5e-5,0.12113 0.02207,0.24571 -2.27e-4,0.36354 -0.02624,0.13831 -0.09883,0.25568 -0.142102,0.38696 -0.03856,0.11697 -0.08779,0.2318 -0.103158,0.35703 -0.02119,0.1726 0.03592,0.32833 0.07919,0.48294 0,0 0.384806,-0.0182 0.384806,-0.0182 z" />
      <path
         style="fill:#ffffff;stroke-width:0.255028"
         id="path5042-2-9"
         d="m 92.056473,108.06471 c 0.108953,-0.49285 6.81e-4,0.12199 -0.0054,-0.52532 -0.0011,-0.13148 0.05791,-0.2597 0.04543,-0.39022 -0.01475,-0.15446 -0.0948,-0.28834 -0.124709,-0.43924 -0.02691,-0.1358 -0.02989,-0.27746 -0.04484,-0.41617 0,0 -0.05796,-0.004 -0.05796,-0.004 v 0 c -0.100764,0.56246 -0.0273,0.28206 -0.228368,0.83781 -0.06311,0.31811 0.0454,0.63605 0.0095,0.95421 0,0 0.406352,-0.0173 0.406352,-0.0173 z" />
      <path
         style="fill:#ffffff;stroke-width:0.255028"
         id="path5046-0-2"
         d="m 92.958772,108.21046 c -6.8e-4,-0.0436 -0.007,-0.0877 -0.0022,-0.13085 0.0086,-0.0768 0.02661,-0.15133 0.04218,-0.22629 0.02172,-0.10452 0.08805,-0.20657 0.06966,-0.31216 -0.02355,-0.13523 -0.150409,-0.21222 -0.183917,-0.34403 -0.03234,-0.12721 0.0059,-0.26799 -0.0054,-0.40086 -0.01111,-0.12993 -0.0411,-0.25615 -0.06165,-0.38423 -0.05155,-0.11026 -0.103092,-0.22042 -0.154636,-0.33061 0,0 -0.05117,0.002 -0.05117,0.002 v 0 c -0.03721,0.11649 -0.07441,0.23303 -0.111623,0.34954 -0.005,0.13383 -0.0068,0.26791 -0.01482,0.40151 -0.03534,0.58631 -0.04374,0.2456 -0.0357,0.812 0.0016,0.10428 -0.0042,0.20996 0.01097,0.31239 0.0225,0.15134 0.06892,0.21739 0.131348,0.33148 0,0 0.367006,-0.0803 0.367006,-0.0803 z" />
      <path
         style="fill:#ffffff;stroke-width:0.292367"
         id="path5024-3"
         d="m 84.447906,109.30592 c 0.004,-0.0752 0.0081,-0.15041 0.01214,-0.22561 -0.03483,-0.1306 -0.103071,-0.25447 -0.104481,-0.3918 -0.0016,-0.1654 0.06556,-0.32103 0.0955,-0.48235 0.03313,-0.17849 0.07126,-0.35605 0.0937,-0.53699 0.145685,-1.17469 -0.08012,0.075 0.129122,-0.99145 0.04288,-0.12369 0.08575,-0.24737 0.12863,-0.37106 0,0 -0.03131,-3.2e-4 -0.03131,-3.2e-4 v 0 c 0.02722,0.12477 0.05445,0.24952 0.08167,0.37429 0.0414,0.15588 0.100007,0.30643 0.124187,0.46761 0.02655,0.17698 0.0195,0.35906 0.02679,0.53875 0.02719,0.6687 0.02402,0.42166 -0.0095,1.05981 -0.007,0.13304 -0.0031,0.2675 -0.02019,0.39918 -0.0105,0.0812 -0.04118,0.15649 -0.06176,0.23472 0,0 -0.464519,-0.0747 -0.464519,-0.0747 z" />
      <path
         style="fill:#ffffff;stroke-width:0.292367"
         id="path5026-8"
         d="m 83.387578,109.15885 c 0.02627,-0.15626 0.07593,-0.41753 0.06843,-0.56382 -0.04116,-0.80242 -0.125582,-0.0974 -0.118192,-0.97742 0.0044,-0.52113 0.07027,-0.59709 0.224076,-1.07435 0.03709,-0.14785 0.07418,-0.29569 0.111268,-0.44355 0,0 -0.08211,0.01 -0.08211,0.01 v 0 c 0.09416,0.13463 0.188314,0.26925 0.282474,0.40389 0.03464,0.17147 0.08655,0.33908 0.103928,0.51441 0.01873,0.18908 0.0024,0.3809 0.0037,0.57136 0.01069,0.18401 0.01341,0.36898 0.03211,0.55204 0.01627,0.15939 0.07417,0.31302 0.07264,0.47365 -0.0019,0.19789 -0.139314,0.3757 -0.08534,0.58448 0,0 -0.612971,-0.0502 -0.612971,-0.0502 z" />
      <path
         style="fill:#ffffff;stroke-width:0.292367"
         id="path5032-6"
         d="m 82.265051,108.0674 c 0.0028,-0.0348 0.01172,-0.0696 0.0083,-0.1044 -0.06106,-0.60946 -0.06054,0.19901 0.01945,-0.58315 0.01484,-0.14527 -0.01696,-0.29841 0.01746,-0.43863 0.03957,-0.16118 0.132881,-0.29487 0.198884,-0.44259 0.06068,-0.13582 0.120788,-0.27203 0.181182,-0.40805 0,0 0.02901,10e-4 0.02901,10e-4 v 0 c 0.01823,0.14135 0.02495,0.28562 0.05471,0.424 0.03612,0.16796 0.127971,0.31845 0.142119,0.49127 0.02148,0.26226 -0.108498,0.60258 -0.169569,0.84633 -0.02098,0.0838 -0.03574,0.16956 -0.05265,0.25465 -0.01146,0.0576 -0.02164,0.11575 -0.03247,0.17356 0,0 -0.396389,-0.21424 -0.396389,-0.21424 z" />
      <path
         style="fill:#ffffff;stroke-width:0.292367"
         id="path5034-7"
         d="m 81.17809,108.71504 c 0.0021,-0.0869 0.0045,-0.1739 0.0067,-0.26085 -0.0054,-0.13595 -0.01947,-0.27182 -0.01609,-0.40787 0.0046,-0.18637 0.03955,-0.37077 0.04012,-0.55721 7.93e-4,-0.21588 -0.0306,-0.43036 -0.03642,-0.64613 -0.01661,-0.61662 7.94e-4,-0.64749 0.04771,-1.2408 0,0 0.05601,-0.01 0.05601,-0.01 v 0 c 0.09671,0.7347 0.03875,0.45322 0.232913,1.21525 0.05626,0.22078 0.141647,0.43239 0.174601,0.66008 0.02803,0.19368 -0.0055,0.39384 0.0063,0.58999 0.0089,0.14755 0.06817,0.29144 0.05575,0.43861 -0.0089,0.10526 -0.07781,0.18898 -0.116721,0.28347 0,0 -0.450877,-0.065 -0.450877,-0.065 z" />
      <path
         style="fill:#ffffff;stroke-width:0.292367"
         id="path5036-4"
         d="m 79.999503,108.00575 c 0.01331,-0.18621 -0.04165,-0.37654 -0.01958,-0.56213 0.01646,-0.13832 0.06581,-0.26772 0.09976,-0.40121 0.140372,-0.55191 0.05379,-0.30957 0.29718,-0.80362 0,0 0.02458,0.002 0.02458,0.002 v 0 c 0.09187,0.14073 0.210876,0.2605 0.275617,0.42218 0.126187,0.31514 0.071,0.57177 0.02985,0.89254 -0.04625,0.36053 -0.03505,0.28489 -0.114666,0.57747 0,0 -0.592761,-0.12711 -0.592761,-0.12711 z" />
      <path
         style="fill:#ffffff;stroke-width:0.292367"
         id="path5038-7"
         d="m 78.779163,108.06083 c -0.07543,-0.35574 -0.0441,-0.0916 -0.0076,-0.53123 0.01093,-0.13164 -0.01283,-0.2703 0.02061,-0.39616 0.316735,-1.1919 0.132615,0.26168 0.239313,-0.84256 0,0 0.0027,-5e-5 0.0027,-5e-5 v 0 c 1.11e-4,0.13643 -0.02577,0.27663 2.65e-4,0.40928 0.03063,0.15571 0.115374,0.28784 0.165891,0.43563 0.04501,0.13166 0.102486,0.26097 0.120428,0.40195 0.02474,0.19431 -0.04193,0.36963 -0.09245,0.54369 0,0 -0.449226,-0.0205 -0.449226,-0.0205 z" />
      <path
         style="fill:#ffffff;stroke-width:0.292367"
         id="path5042-7"
         d="m 96.47938,108.17479 c 0.127193,-0.55486 7.94e-4,0.1373 -0.0063,-0.59143 -0.0013,-0.14801 0.0676,-0.29237 0.05303,-0.43931 -0.01722,-0.17389 -0.11067,-0.32459 -0.145587,-0.49447 -0.03142,-0.15289 -0.0349,-0.31236 -0.05235,-0.46853 0,0 -0.06766,-0.004 -0.06766,-0.004 v 0 c -0.117633,0.63323 -0.03187,0.31755 -0.266599,0.94319 -0.07368,0.35814 0.053,0.71606 0.01111,1.07426 0,0 0.47438,-0.0195 0.47438,-0.0195 z" />
      <path
         style="fill:#ffffff;stroke-width:0.292367"
         id="path5046-3"
         d="m 97.532734,108.33947 c -7.94e-4,-0.0491 -0.0082,-0.0987 -0.0026,-0.14729 0.01003,-0.0865 0.03107,-0.17038 0.04924,-0.25476 0.02535,-0.11771 0.102788,-0.23256 0.08132,-0.35143 -0.02749,-0.15224 -0.175588,-0.23891 -0.214706,-0.38731 -0.03775,-0.14321 0.0069,-0.30171 -0.0063,-0.45129 -0.01297,-0.14628 -0.04798,-0.28837 -0.07197,-0.43255 -0.06018,-0.12409 -0.120351,-0.24816 -0.180525,-0.37222 0,0 -0.05974,0.002 -0.05974,0.002 v 0 c -0.04344,0.13116 -0.08687,0.26233 -0.13031,0.3935 -0.0058,0.15067 -0.0079,0.30162 -0.0173,0.45201 -0.04126,0.66008 -0.05106,0.2765 -0.04168,0.91415 0.0019,0.11735 -0.0049,0.23638 0.01281,0.35169 0.02627,0.17037 0.08046,0.24474 0.153337,0.37318 0,0 0.428447,-0.0905 0.428447,-0.0905 z" />
      <path
         style="fill:#ffffff;stroke-width:0.255028"
         id="path5024-4-9"
         d="m 105.19255,108.48511 c 0.003,-0.0668 0.007,-0.1336 0.0104,-0.2004 -0.0298,-0.116 -0.0883,-0.22603 -0.0895,-0.34802 -0.001,-0.14692 0.0562,-0.28516 0.0818,-0.42846 0.0284,-0.15854 0.061,-0.31625 0.0803,-0.47698 0.12479,-1.04344 -0.0686,0.0666 0.1106,-0.88066 0.0367,-0.10989 0.0734,-0.21974 0.11019,-0.32961 0,0 -0.0268,-2.8e-4 -0.0268,-2.8e-4 v 0 c 0.0233,0.11087 0.0466,0.22165 0.07,0.33246 0.0355,0.13845 0.0857,0.27219 0.10638,0.41536 0.0227,0.1572 0.0167,0.31895 0.0229,0.47854 0.0233,0.59398 0.0206,0.37455 -0.008,0.9414 -0.006,0.1182 -0.003,0.23761 -0.0173,0.35457 -0.009,0.0722 -0.0353,0.139 -0.0529,0.20849 0,0 -0.39791,-0.0664 -0.39791,-0.0664 z" />
      <path
         style="fill:#ffffff;stroke-width:0.255028"
         id="path5026-9-53"
         d="m 104.28428,108.52241 c 0.0225,-0.1388 0.065,-0.37087 0.0586,-0.50081 -0.0353,-0.71275 -0.10758,-0.0866 -0.10125,-0.86821 0.004,-0.46288 0.0602,-0.53036 0.19195,-0.9543 0.0318,-0.13132 0.0635,-0.26264 0.0953,-0.39398 0,0 -0.0703,0.009 -0.0703,0.009 v 0 c 0.0807,0.11954 0.1613,0.23916 0.24196,0.35875 0.0297,0.1523 0.0741,0.3012 0.089,0.45693 0.016,0.16796 0.002,0.33833 0.003,0.50751 0.009,0.16346 0.0115,0.32775 0.0275,0.49036 0.0139,0.14158 0.0635,0.27805 0.0622,0.42073 -0.002,0.17577 -0.11933,0.33371 -0.0731,0.51916 0,0 -0.52507,-0.0446 -0.52507,-0.0446 z" />
      <path
         style="fill:#ffffff;stroke-width:0.255028"
         id="path5032-4-6"
         d="m 103.23659,108.91799 c 0.002,-0.0309 0.01,-0.0618 0.007,-0.0927 -0.0523,-0.54136 -0.0519,0.17676 0.0167,-0.518 0.0127,-0.12903 -0.0145,-0.26505 0.015,-0.3896 0.0339,-0.14318 0.11382,-0.26193 0.17036,-0.39314 0.052,-0.12064 0.10347,-0.24162 0.1552,-0.36246 0,0 0.0249,10e-4 0.0249,10e-4 v 0 c 0.0156,0.12555 0.0214,0.2537 0.0469,0.37662 0.0309,0.1492 0.10962,0.28287 0.12174,0.43637 0.0184,0.23296 -0.0929,0.53526 -0.14525,0.75176 -0.018,0.0744 -0.0306,0.15063 -0.0451,0.2262 -0.01,0.0512 -0.0185,0.10281 -0.0278,0.15417 0,0 -0.33955,-0.1903 -0.33955,-0.1903 z" />
      <path
         style="fill:#ffffff;stroke-width:0.255028"
         id="path5034-4-8"
         d="m 102.3055,108.54407 c 0.002,-0.0772 0.004,-0.15447 0.006,-0.2317 -0.005,-0.12077 -0.0167,-0.24145 -0.0138,-0.3623 0.004,-0.16554 0.0339,-0.32934 0.0344,-0.49494 6.8e-4,-0.19177 -0.0262,-0.38228 -0.0312,-0.57395 -0.0142,-0.54771 6.8e-4,-0.57512 0.0409,-1.10214 0,0 0.048,-0.009 0.048,-0.009 v 0 c 0.0828,0.65259 0.0332,0.40257 0.19951,1.07946 0.0482,0.1961 0.12134,0.38407 0.14956,0.58631 0.024,0.17205 -0.005,0.34983 0.005,0.52406 0.008,0.13107 0.0584,0.25888 0.0478,0.38961 -0.008,0.0935 -0.0666,0.16787 -0.1,0.25179 0,0 -0.38622,-0.0578 -0.38622,-0.0578 z" />
      <path
         style="fill:#ffffff;stroke-width:0.255028"
         id="path5036-0-92"
         d="m 101.29592,107.91403 c 0.0114,-0.1654 -0.0357,-0.33447 -0.0168,-0.49931 0.0141,-0.12287 0.0564,-0.23782 0.0854,-0.35639 0.12025,-0.49024 0.0461,-0.27498 0.25457,-0.71382 0,0 0.0211,0.002 0.0211,0.002 v 0 c 0.0787,0.125 0.18063,0.23139 0.23609,0.37501 0.10809,0.27993 0.0608,0.50787 0.0256,0.7928 -0.0396,0.32024 -0.03,0.25307 -0.0982,0.51294 0,0 -0.50776,-0.11294 -0.50776,-0.11294 z" />
      <path
         style="fill:#ffffff;stroke-width:0.255028"
         id="path5038-6-9"
         d="m 100.25058,107.96308 c -0.0646,-0.31599 -0.0378,-0.0813 -0.007,-0.47187 0.009,-0.11698 -0.011,-0.2401 0.0177,-0.35188 0.27132,-1.05873 0.1136,0.23244 0.205,-0.74842 0,0 0.002,-4e-5 0.002,-4e-5 v 0 c 9e-5,0.12113 -0.0221,0.24571 2.3e-4,0.36354 0.0262,0.13831 0.0988,0.25568 0.1421,0.38696 0.0386,0.11697 0.0878,0.2318 0.10316,0.35703 0.0212,0.1726 -0.0359,0.32833 -0.0792,0.48294 0,0 -0.38481,-0.0182 -0.38481,-0.0182 z" />
      <path
         style="fill:#ffffff;stroke-width:0.255028"
         id="path5042-2-94"
         d="m 99.122036,108.06471 c -0.108954,-0.49285 -6.81e-4,0.12199 0.0054,-0.52532 0.0011,-0.13148 -0.05791,-0.2597 -0.04543,-0.39022 0.01475,-0.15446 0.0948,-0.28834 0.124709,-0.43924 0.02691,-0.1358 0.02989,-0.27746 0.04484,-0.41617 0,0 0.05796,-0.004 0.05796,-0.004 v 0 c 0.100764,0.56246 0.0273,0.28206 0.228368,0.83781 0.06311,0.31811 -0.0454,0.63605 -0.0095,0.95421 0,0 -0.406352,-0.0173 -0.406352,-0.0173 z" />
      <path
         style="fill:#ffffff;stroke-width:0.255028"
         id="path5046-0-28"
         d="m 98.219736,108.21046 c 6.8e-4,-0.0436 0.007,-0.0877 0.0022,-0.13085 -0.0086,-0.0768 -0.02661,-0.15133 -0.04218,-0.22629 -0.02172,-0.10452 -0.08805,-0.20657 -0.06966,-0.31216 0.02355,-0.13523 0.150409,-0.21222 0.183917,-0.34403 0.03234,-0.12721 -0.0059,-0.26799 0.0054,-0.40086 0.01111,-0.12993 0.0411,-0.25615 0.06165,-0.38423 0.05155,-0.11026 0.103092,-0.22042 0.154637,-0.33061 0,0 0.05117,0.002 0.05117,0.002 v 0 c 0.03721,0.11649 0.07441,0.23303 0.111623,0.34954 0.005,0.13383 0.0068,0.26791 0.01482,0.40151 0.03534,0.58631 0.04374,0.2456 0.0357,0.812 -0.0016,0.10428 0.0042,0.20996 -0.01097,0.31239 -0.0225,0.15134 -0.06892,0.21739 -0.131348,0.33148 0,0 -0.367006,-0.0803 -0.367006,-0.0803 z" />
      <path
         style="fill:#ffffff;stroke-width:0.292367"
         id="path5024-8-4"
         d="m 106.72774,109.15973 c -0.004,-0.0752 -0.008,-0.15041 -0.0121,-0.22562 0.0348,-0.1306 0.10307,-0.25446 0.10448,-0.3918 0.002,-0.1654 -0.0656,-0.32102 -0.0955,-0.48235 -0.0331,-0.17849 -0.0713,-0.35604 -0.0937,-0.53699 -0.14568,-1.17469 0.0801,0.075 -0.12912,-0.99145 -0.0429,-0.12369 -0.0858,-0.24737 -0.12863,-0.37106 0,0 0.0313,-3.2e-4 0.0313,-3.2e-4 v 0 c -0.0272,0.12477 -0.0544,0.24952 -0.0817,0.37429 -0.0414,0.15588 -0.10001,0.30644 -0.12419,0.46761 -0.0266,0.17698 -0.0195,0.35907 -0.0268,0.53876 -0.0272,0.66869 -0.024,0.42165 0.01,1.05981 0.007,0.13303 0.003,0.26749 0.0202,0.39917 0.0105,0.0812 0.0412,0.15649 0.0618,0.23472 0,0 0.46452,-0.0747 0.46452,-0.0747 z" />
      <path
         style="fill:#ffffff;stroke-width:0.292367"
         id="path5026-0-1"
         d="m 107.78807,109.01265 c -0.0263,-0.15626 -0.0759,-0.41753 -0.0684,-0.56382 0.0412,-0.80241 0.12558,-0.0974 0.11819,-0.97741 -0.004,-0.52114 -0.0703,-0.5971 -0.22407,-1.07436 -0.0371,-0.14784 -0.0742,-0.29569 -0.11127,-0.44354 0,0 0.0821,0.01 0.0821,0.01 v 0 c -0.0942,0.13464 -0.18832,0.26926 -0.28248,0.40389 -0.0346,0.17147 -0.0866,0.33909 -0.10392,0.51442 -0.0187,0.18908 -0.002,0.38089 -0.004,0.57135 -0.0107,0.18401 -0.0134,0.36898 -0.0321,0.55204 -0.0163,0.15939 -0.0742,0.31303 -0.0726,0.47366 0.002,0.19788 0.13931,0.37569 0.0853,0.58448 0,0 0.61297,-0.0502 0.61297,-0.0502 z" />
      <path
         style="fill:#ffffff;stroke-width:0.292367"
         id="path5032-9-8"
         d="m 108.9106,108.0674 c -0.003,-0.0348 -0.0117,-0.0696 -0.008,-0.1044 0.0611,-0.60946 0.0605,0.19901 -0.0194,-0.58315 -0.0148,-0.14527 0.017,-0.29841 -0.0175,-0.43863 -0.0396,-0.16118 -0.13288,-0.29487 -0.19889,-0.44259 -0.0607,-0.13582 -0.12078,-0.27203 -0.18118,-0.40805 0,0 -0.029,10e-4 -0.029,10e-4 v 0 c -0.0182,0.14135 -0.025,0.28562 -0.0547,0.424 -0.0361,0.16796 -0.12797,0.31845 -0.14212,0.49127 -0.0215,0.26226 0.1085,0.60258 0.16957,0.84633 0.021,0.0838 0.0357,0.16956 0.0526,0.25465 0.0115,0.0576 0.0216,0.11575 0.0325,0.17356 0,0 0.39639,-0.21424 0.39639,-0.21424 z" />
      <path
         style="fill:#ffffff;stroke-width:0.292367"
         id="path5034-6-3"
         d="m 109.95449,108.71504 c -0.002,-0.0869 -0.004,-0.1739 -0.007,-0.26085 0.005,-0.13595 0.0195,-0.27182 0.0161,-0.40787 -0.005,-0.18637 -0.0396,-0.37077 -0.0401,-0.55721 -8e-4,-0.21588 0.0306,-0.43036 0.0364,-0.64613 0.0166,-0.61662 -8e-4,-0.64749 -0.0477,-1.2408 0,0 -0.056,-0.01 -0.056,-0.01 v 0 c -0.0967,0.7347 -0.0387,0.45322 -0.23292,1.21525 -0.0563,0.22078 -0.14164,0.43239 -0.1746,0.66008 -0.028,0.19368 0.006,0.39384 -0.006,0.58999 -0.009,0.14755 -0.0682,0.29144 -0.0558,0.43861 0.009,0.10526 0.0778,0.18898 0.11672,0.28347 0,0 0.45088,-0.065 0.45088,-0.065 z" />
      <path
         style="fill:#ffffff;stroke-width:0.271453"
         id="path5036-8-3"
         d="m 111.17957,108.00576 c -0.0115,-0.18622 0.0359,-0.37654 0.0169,-0.56212 -0.0142,-0.13832 -0.0567,-0.26774 -0.086,-0.40122 -0.121,-0.55191 -0.0464,-0.30957 -0.25618,-0.80362 0,0 -0.0212,0.002 -0.0212,0.002 v 0 c -0.0792,0.14074 -0.18178,0.26052 -0.23759,0.42218 -0.10878,0.31514 -0.0612,0.57177 -0.0257,0.89254 0.0399,0.36053 0.0302,0.2849 0.0988,0.57747 0,0 0.51099,-0.12711 0.51099,-0.12711 z" />
      <path
         style="fill:#ffffff;stroke-width:0.381748"
         id="path5038-2-9"
         d="m 112.43955,108.67741 c 0.0754,-0.60649 0.0441,-0.15612 0.008,-0.90568 -0.0109,-0.22444 0.0128,-0.46083 -0.0206,-0.67541 -0.31673,-2.03205 -0.13261,0.44615 -0.23931,-1.43647 0,0 -0.003,-8e-5 -0.003,-8e-5 v 0 c -1.1e-4,0.2326 0.0258,0.47163 -2.7e-4,0.69779 -0.0306,0.26546 -0.11537,0.49073 -0.16589,0.74268 -0.045,0.22448 -0.10248,0.44493 -0.12042,0.68529 -0.0247,0.33127 0.0419,0.63017 0.0924,0.92693 0,0 0.44922,-0.0349 0.44922,-0.0349 z" />
      <path
         style="fill:#ffffff;stroke-width:0.262235"
         id="path5042-8-4"
         d="m 113.58475,107.981 c 0.1272,-0.44638 8e-4,0.1105 -0.006,-0.47581 -0.001,-0.11905 0.0676,-0.23521 0.053,-0.35342 -0.0172,-0.1399 -0.11067,-0.26113 -0.14558,-0.39781 -0.0314,-0.12299 -0.0349,-0.25129 -0.0524,-0.37692 0,0 -0.0677,-0.002 -0.0677,-0.002 v 0 c -0.11764,0.50944 -0.0319,0.25547 -0.2666,0.7588 -0.0737,0.28812 0.053,0.57607 0.0111,0.86424 0,0 0.47438,-0.0157 0.47438,-0.0157 z" />
      <path
         style="fill:#ffffff;stroke-width:0.332842"
         id="path5046-4-6"
         d="m 114.76732,108.68067 c -8e-4,-0.0636 -0.008,-0.12788 -0.003,-0.19091 0.01,-0.11209 0.0311,-0.22081 0.0492,-0.33017 0.0254,-0.15256 0.10279,-0.30142 0.0813,-0.45547 -0.0275,-0.19731 -0.17559,-0.30964 -0.21471,-0.50196 -0.0378,-0.18562 0.007,-0.39103 -0.006,-0.58489 -0.013,-0.18958 -0.048,-0.37374 -0.072,-0.56061 -0.0602,-0.16081 -0.12035,-0.32161 -0.18052,-0.4824 0,0 -0.0597,0.004 -0.0597,0.004 v 0 c -0.0434,0.16998 -0.0869,0.33999 -0.13031,0.51001 -0.006,0.19526 -0.008,0.39089 -0.0173,0.58581 -0.0413,0.85549 -0.0511,0.35835 -0.0417,1.18477 0.002,0.15209 -0.005,0.30634 0.0128,0.4558 0.0263,0.22081 0.0805,0.31719 0.15333,0.48366 0,0 0.42845,-0.11723 0.42845,-0.11723 z" />
      <path
         style="fill:#ffffff;stroke-width:0.229495"
         id="path5026-9-5-1"
         d="m 121.14527,108.52241 c 0.0182,-0.1388 0.0526,-0.37087 0.0474,-0.50081 -0.0286,-0.71275 -0.0871,-0.0866 -0.082,-0.86821 0.003,-0.46288 0.0488,-0.53036 0.15543,-0.9543 0.0258,-0.13132 0.0513,-0.26264 0.0772,-0.39398 0,0 -0.0569,0.009 -0.0569,0.009 v 0 c 0.0654,0.11954 0.13057,0.23916 0.19595,0.35875 0.024,0.1523 0.06,0.3012 0.072,0.45693 0.0127,0.16796 0.001,0.33833 0.003,0.50751 0.007,0.16346 0.01,0.32775 0.0222,0.49036 0.0113,0.14158 0.0515,0.27805 0.0504,0.42073 -10e-4,0.17577 -0.0966,0.33371 -0.0591,0.51916 0,0 -0.42519,-0.0446 -0.42519,-0.0446 z" />
      <path
         style="fill:#ffffff;stroke-width:0.255028"
         id="path5032-4-7-6"
         d="m 120.30367,107.96887 c 0.002,-0.0309 0.01,-0.0618 0.007,-0.0927 -0.0523,-0.54135 -0.0519,0.17676 0.0167,-0.51799 0.0127,-0.12903 -0.0145,-0.26505 0.015,-0.3896 0.0339,-0.14318 0.11382,-0.26193 0.17036,-0.39314 0.052,-0.12064 0.10347,-0.24162 0.1552,-0.36246 0,0 0.0249,0.001 0.0249,0.001 v 0 c 0.0156,0.12555 0.0214,0.2537 0.0469,0.37662 0.0309,0.1492 0.10962,0.28288 0.12174,0.43637 0.0184,0.23297 -0.0929,0.53527 -0.14525,0.75176 -0.018,0.0744 -0.0306,0.15063 -0.0451,0.2262 -0.01,0.0512 -0.0185,0.10281 -0.0278,0.15417 0,0 -0.33955,-0.1903 -0.33955,-0.1903 z" />
      <path
         style="fill:#ffffff;stroke-width:0.255028"
         id="path5034-4-9-5"
         d="m 119.54008,108.54407 c 0.002,-0.0772 0.004,-0.15447 0.006,-0.2317 -0.005,-0.12077 -0.0167,-0.24145 -0.0138,-0.3623 0.004,-0.16554 0.0339,-0.32934 0.0344,-0.49494 6.8e-4,-0.19177 -0.0262,-0.38228 -0.0312,-0.57395 -0.0142,-0.54771 6.8e-4,-0.57512 0.0409,-1.10214 0,0 0.048,-0.009 0.048,-0.009 v 0 c 0.0828,0.65259 0.0332,0.40257 0.19951,1.07946 0.0482,0.1961 0.12134,0.38407 0.14957,0.58631 0.024,0.17205 -0.005,0.34983 0.005,0.52406 0.008,0.13107 0.0584,0.25888 0.0478,0.38961 -0.008,0.0935 -0.0666,0.16787 -0.1,0.25179 0,0 -0.38622,-0.0578 -0.38622,-0.0578 z" />
      <path
         style="fill:#ffffff;stroke-width:0.255028"
         id="path5036-0-9-0"
         d="m 118.53051,107.91403 c 0.0114,-0.1654 -0.0357,-0.33447 -0.0168,-0.49931 0.0141,-0.12286 0.0564,-0.23782 0.0854,-0.35639 0.12024,-0.49022 0.0461,-0.27498 0.25456,-0.71381 0,0 0.021,0.002 0.021,0.002 v 0 c 0.0787,0.125 0.18064,0.23139 0.23609,0.37501 0.1081,0.27993 0.0608,0.50787 0.0256,0.79281 -0.0396,0.32023 -0.03,0.25307 -0.0982,0.51293 0,0 -0.50775,-0.11294 -0.50775,-0.11294 z" />
      <path
         style="fill:#ffffff;stroke-width:0.255028"
         id="path5038-6-5-9"
         d="m 117.48517,107.96308 c -0.0646,-0.31599 -0.0378,-0.0813 -0.007,-0.47187 0.009,-0.11698 -0.011,-0.2401 0.0177,-0.35188 0.27131,-1.05873 0.1136,0.23244 0.20499,-0.74842 0,0 0.002,-4e-5 0.002,-4e-5 v 0 c 1e-4,0.12113 -0.0221,0.24571 2.3e-4,0.36354 0.0262,0.13831 0.0988,0.25568 0.1421,0.38696 0.0386,0.11697 0.0878,0.2318 0.10316,0.35703 0.0212,0.1726 -0.0359,0.32833 -0.0792,0.48294 0,0 -0.38481,-0.0182 -0.38481,-0.0182 z" />
      <path
         style="fill:#ffffff;stroke-width:0.255028"
         id="path5042-2-9-2"
         d="m 116.35662,108.06471 c -0.10895,-0.49285 -6.8e-4,0.12199 0.005,-0.52533 0.001,-0.13148 -0.0579,-0.25971 -0.0454,-0.39022 0.0147,-0.15447 0.0948,-0.28833 0.12471,-0.43923 0.0269,-0.1358 0.0299,-0.27746 0.0448,-0.41617 0,0 0.058,-0.004 0.058,-0.004 v 0 c 0.10076,0.56246 0.0273,0.28206 0.22837,0.8378 0.0631,0.31811 -0.0454,0.63604 -0.01,0.95421 0,0 -0.40636,-0.0173 -0.40636,-0.0173 z" />
      <path
         style="fill:#ffffff;stroke-width:0.255028"
         id="path5046-0-2-0"
         d="m 115.45432,108.21046 c 6.8e-4,-0.0436 0.007,-0.0877 0.002,-0.13085 -0.009,-0.0768 -0.0266,-0.15133 -0.0422,-0.22629 -0.0217,-0.10452 -0.088,-0.20657 -0.0697,-0.31216 0.0236,-0.13523 0.15041,-0.21222 0.18392,-0.34403 0.0323,-0.12721 -0.006,-0.26799 0.005,-0.40086 0.0111,-0.12993 0.0411,-0.25615 0.0617,-0.38423 0.0515,-0.11026 0.10309,-0.22042 0.15463,-0.33061 0,0 0.0512,0.002 0.0512,0.002 v 0 c 0.0372,0.11649 0.0744,0.23303 0.11163,0.34954 0.005,0.13383 0.007,0.26791 0.0148,0.40151 0.0353,0.58631 0.0437,0.2456 0.0357,0.812 -0.002,0.10428 0.004,0.20996 -0.011,0.31239 -0.0225,0.15134 -0.0689,0.21739 -0.13135,0.33148 0,0 -0.36701,-0.0803 -0.36701,-0.0803 z" />
    </g>
  </g>
</svg>
