<?xml version="1.0" encoding="UTF-8" standalone="no"?>
<!-- Created with Inkscape (http://www.inkscape.org/) -->

<svg
   width="68.364265mm"
   height="2.9211655mm"
   viewBox="0 0 68.364265 2.9211655"
   version="1.1"
   id="svg5"
   xmlns:inkscape="http://www.inkscape.org/namespaces/inkscape"
   xmlns:sodipodi="http://sodipodi.sourceforge.net/DTD/sodipodi-0.dtd"
   xmlns="http://www.w3.org/2000/svg"
   xmlns:svg="http://www.w3.org/2000/svg">
  <sodipodi:namedview
     id="namedview7"
     pagecolor="#ffffff"
     bordercolor="#000000"
     borderopacity="0.25"
     inkscape:showpageshadow="2"
     inkscape:pageopacity="0.0"
     inkscape:pagecheckerboard="0"
     inkscape:deskcolor="#d1d1d1"
     inkscape:document-units="mm"
     showgrid="false" />
  <defs
     id="defs2" />
  <g
     inkscape:label="Layer 1"
     inkscape:groupmode="layer"
     id="layer1"
     transform="translate(-53.927289,-97.554219)">
    <path
       style="fill:#ffffff;stroke-width:0.264583"
       id="path4816"
       d="m 53.927378,99.591738 c 0.387889,0.757982 -0.172446,-0.141546 0.40883,-0.187782 0.157714,-0.01255 0.06637,0.328724 0.179401,0.439426 0.05306,0.05196 0.144647,-0.03372 0.216765,-0.05143 0.184573,-0.04531 0.252598,-0.06455 0.436135,-0.1137 0.07261,0.06332 0.137847,0.13625 0.21782,0.189972 0.0766,0.05145 0.155832,0.126914 0.248023,0.122955 0.108124,-0.0048 0.199584,-0.08651 0.289974,-0.146022 0.118771,-0.0782 0.209621,-0.333372 0.334315,-0.265011 0.74876,0.410501 -0.129854,1.072634 0.686738,0.229858 0.284755,0.335536 0.518036,-0.16307 0.769395,-0.101862 0.181957,0.04431 0.247496,0.421758 0.426274,0.365988 0.251678,-0.07851 0.245962,-0.490084 0.460891,-0.642764 0.158375,-0.112506 0.874753,0.03015 1.009101,0.05008 0.4591,-0.342822 0.766499,0.588264 1.141392,0.430714 0.30404,-0.12777 0.241319,-0.773086 0.56912,-0.809311 0.305043,-0.03371 0.328889,0.591259 0.623416,0.677529 0.812655,-0.418253 0.394942,-0.388242 1.252245,-0.101712 0.221166,-0.120908 0.412845,-0.336148 0.663497,-0.362726 0.225661,-0.02393 0.420201,0.180073 0.642791,0.224215 1.820514,0.361028 -0.512754,-0.370929 1.332828,0.275679 0.222008,0.07778 0.434092,0.250516 0.668164,0.227146 0.263709,-0.0263 0.47109,-0.242949 0.706634,-0.364422 0.214927,0.114631 0.402039,0.323622 0.644776,0.343892 0.245541,0.0205 0.463045,-0.17146 0.70205,-0.23136 0.235346,-0.05898 0.474765,-0.134469 0.717176,-0.124318 0.244069,0.01018 0.469469,0.137947 0.709362,0.184052 0.233483,0.04488 0.471884,0.05864 0.707784,0.08833 0.245799,0.03091 0.491538,0.0623 0.737311,0.09345 0.249285,0.14722 0.459097,0.42084 0.747856,0.44166 0.272578,0.0196 0.499111,-0.22277 0.748828,-0.3338 0.24971,-0.11101 0.486501,-0.257884 0.749449,-0.332291 0.241631,-0.06838 0.497475,-0.111384 0.747793,-0.09137 0.255516,0.02042 0.500276,0.301931 0.739674,0.210334 0.319317,-0.122211 0.460735,-0.505289 0.691104,-0.757931 1.143076,1.248738 0.200847,0.683988 1.391991,0.610877 0.219636,-0.01349 0.433501,0.09648 0.653527,0.09328 0.215327,-0.0031 0.425358,-0.155618 0.636255,-0.11206 0.230317,0.04757 0.400032,0.247431 0.602068,0.367811 0.185078,0.11027 0.372796,0.21605 0.559196,0.32407 0.336808,-0.26129 0.62465,-0.576282 1.080419,-0.618303 0.174419,-0.01609 0.345004,0.06082 0.517249,0.09264 0.110791,0.02046 1.091021,0.212793 1.199075,0.211103 0.235029,-0.004 0.463336,-0.0796 0.695004,-0.11933 0.245575,0.0132 0.490804,0.0416 0.736725,0.0396 0.244952,-0.002 0.488128,-0.0495 0.733083,-0.0514 0.18436,-0.002 1.238025,0.0867 1.425157,0.0675 0.232685,-0.0238 0.452755,-0.118038 0.680937,-0.169444 0.21959,-0.04947 0.441356,-0.08873 0.662032,-0.133094 2.351646,0.576558 -1.001526,-0.0814 1.294887,-0.185552 0.236049,-0.01071 0.409113,0.280175 0.644991,0.294077 0.217518,0.01281 0.405974,-0.160421 0.615627,-0.21978 0.780982,-0.221123 0.517211,-0.190401 1.226931,0.248325 2.157588,-0.54946 -0.960726,0.222598 1.143252,-0.227584 0.189215,-0.04048 0.364531,-0.159371 0.558024,-0.15992 0.199696,-7.09e-4 0.382871,0.115322 0.578233,0.156707 0.565062,0.119704 0.541923,0.0866 1.102343,0.06364 0.845983,-0.550964 0.28743,-0.437302 1.117816,0.05821 0.175117,0.104494 0.37029,0.317695 0.560698,0.244685 0.271699,-0.104151 0.334387,-0.484431 0.55611,-0.672873 0.727149,-0.618003 0.661579,-0.09746 1.11949,0.595715 0.17352,-0.189795 0.276193,-0.489294 0.520563,-0.569387 0.182802,-0.05991 0.344635,0.179414 0.531639,0.224533 0.165295,0.03988 0.345541,0.072 0.50942,0.02664 0.189781,-0.05252 0.317258,-0.246444 0.504548,-0.30726 0.51843,-0.168348 0.58156,0.05343 0.96092,0.362712 0.15858,-0.194676 0.23136,-0.526449 0.47576,-0.584028 0.19094,-0.04499 0.30167,0.251723 0.46335,0.362781 0.62231,0.427415 0.27105,0.212727 0.93599,0.289621 0.15771,0.01825 0.31351,0.138345 0.46652,0.09601 0.1828,-0.05058 0.29943,-0.232906 0.44915,-0.349358 0.15932,0.187125 0.23621,0.517184 0.47797,0.561354 0.21314,0.0389 0.33547,-0.280438 0.52926,-0.37735 0.18214,-0.09108 0.38121,-0.160811 0.58401,-0.179366 0.95333,-0.08721 0.22116,0.196587 1.15654,0.328707 0.1819,0.02571 0.36164,-0.06496 0.54246,-0.09744 1.2196,-0.877409 -0.16951,-0.117828 1.0313,-0.07083 0.18581,0.0073 0.30641,-0.25507 0.49221,-0.262525 0.17576,-0.0071 0.32052,0.145215 0.478,0.223591 0.14977,0.07454 0.29509,0.312306 0.44348,0.235031 0.23807,-0.123981 0.28139,-0.457193 0.42208,-0.68579 0.24802,0.216394 0.54809,-0.03482 0.80395,0.04637 1.12803,0.357984 -0.32495,0.205233 0.75555,0.421633 0.83078,0.166383 -0.11026,-0.273449 0.78982,0.232695 0.93981,0.01054 -0.0535,0.08589 0.94164,-0.330172 0.15455,-0.06463 0.3301,-0.09566 0.49661,-0.07717 0.17737,0.01972 0.32284,0.186561 0.50131,0.188026 1.11961,0.0092 -0.11149,-0.565239 1.03357,0.143159 0.92574,-0.628206 0.13509,-0.218899 1.07933,-0.420324 0.18301,-0.03904 0.3459,-0.184957 0.53286,-0.176744 0.18469,0.0082 0.34485,0.135581 0.50802,0.222483 0.17048,0.09079 0.30316,0.35757 0.49015,0.309118 0.2475,-0.06414 0.3427,-0.379555 0.51405,-0.569331 0.15392,0.133234 0.63543,0.63519 0.93128,0.597241 0.18288,-0.02345 0.27547,-0.278173 0.45671,-0.312033 0.0887,-0.01658 0.73335,0.297128 0.81243,0.321122 0.11541,0.03503 0.23833,0.03728 0.35749,0.05591 0.56063,0.510939 0.0825,0.265899 0.62729,-0.12555 0.21089,-0.151554 0.31803,0.097 0.40191,0.191041 0.16335,0.183128 0.21356,-0.357148 0.33513,0.138858 -0.0339,0.87396 0.0301,-1.393922 -0.0147,-2.011869 -0.34373,-0.119722 -0.009,0.427717 -0.39867,-0.0032 -0.0911,-0.100915 -0.0838,-0.387379 -0.2138,-0.347433 -0.28774,0.08843 -0.17879,0.751934 -0.64852,0.628406 -0.48462,-0.256424 -0.22916,-0.238575 -0.76826,0.0012 -0.21601,-0.108381 -0.17033,-0.549598 -0.40663,-0.600231 -0.20368,-0.04364 -0.30157,0.289105 -0.46936,0.412525 -0.58726,0.431974 -0.39437,0.355683 -0.96569,-0.01049 -0.16102,-0.149643 -0.27148,-0.389271 -0.48305,-0.448927 -0.17303,-0.04879 -0.33978,0.118114 -0.51243,0.168219 -0.17181,0.04985 -0.34152,0.126116 -0.52035,0.131492 -0.17922,0.0053 -0.35781,-0.154789 -0.52852,-0.09996 -1.02316,0.32861 -0.08,0.87559 -1.07377,-0.03828 -2.10044,-0.488855 1.16229,0.138973 -1.03951,0.19858 -0.19371,0.0052 -0.32609,-0.211726 -0.50159,-0.293895 -0.16219,-0.07594 -0.3278,-0.173 -0.5068,-0.178235 -0.1726,-0.005 -0.32388,0.137225 -0.49616,0.148892 -0.16011,0.01086 -0.31613,-0.05545 -0.4742,-0.08318 -0.14124,0.02658 -0.28072,0.06543 -0.42371,0.07974 -0.12481,0.01249 -0.25348,-0.02521 -0.37628,3.64e-4 -0.13362,0.02779 -0.24443,0.18315 -0.3783,0.156577 -0.15907,-0.03157 -0.2175,-0.331745 -0.37772,-0.306659 -1.39471,0.218359 0.49021,0.732881 -0.80454,0.280844 -0.48355,0.214298 -0.34859,0.241515 -0.8684,0.137728 -0.16323,-0.03259 -0.31747,-0.159828 -0.48159,-0.132026 -0.19103,0.03237 -0.31177,0.24817 -0.49897,0.298143 -0.33929,0.09058 -0.71335,-0.159125 -1.05318,-0.02635 -0.75812,-0.120201 -0.38661,-0.175285 -1.10644,0.212742 -0.21244,0.0056 -0.38751,-0.174898 -0.57744,-0.270237 -0.19557,-0.09817 -0.36127,-0.335281 -0.57864,-0.310074 -1.34818,0.156336 0.21412,0.867331 -0.99359,0.166049 -1.30986,-0.76591 0.55875,0.129277 -0.91796,0.270322 -0.21403,0.02043 -0.25443,-0.419319 -0.46803,-0.443803 -0.18779,-0.02154 -0.27941,0.268829 -0.45533,0.337958 -0.38763,0.152322 -0.607,-0.05171 -0.93334,-0.213258 -0.89427,0.818382 -0.0313,0.311552 -0.96796,0.03299 -0.488128,-0.145162 -0.707995,0.336321 -1.034528,0.529838 -0.643487,0.381355 -0.561889,0.148435 -1.081496,-0.342769 -0.584004,0.407194 -0.432124,0.518112 -1.090128,0.167686 -0.200726,-0.106899 -0.336492,-0.347179 -0.55986,-0.389902 -0.188607,-0.03607 -0.357704,0.151407 -0.547871,0.178037 -0.363492,0.0509 -0.739648,-0.126077 -1.100819,0.0255 -1.452347,-0.742567 0.441403,0.01811 -1.11135,0.171434 -0.222171,0.02192 -0.365808,-0.400158 -0.579552,-0.335702 -0.28155,0.08491 -0.322137,0.509971 -0.562089,0.679979 -0.482511,0.341858 -0.760599,0.0088 -1.159427,-0.218988 -0.912946,0.125196 -0.463155,0.227275 -1.265013,-0.560661 -0.293667,-0.0047 -0.357115,0.497376 -0.622163,0.623916 -0.192776,0.09203 -0.427123,-0.01119 -0.640511,-0.02109 -0.739167,-0.0343 -0.589071,-0.03049 -1.332793,-0.124716 -1.306298,0.586729 0.02325,0.153825 -1.346282,0.105317 -0.232894,-0.0083 -0.453806,0.112298 -0.685493,0.137395 -0.230655,0.02498 -0.465179,-0.01205 -0.695904,0.01227 -0.454291,0.04788 -0.979941,0.209 -1.417487,0.327332 -0.275564,-0.05573 -0.950539,-0.220997 -1.258878,-0.179931 -0.201967,0.02689 -0.389974,0.12058 -0.577595,0.200026 -0.182116,0.07711 -0.360914,0.372717 -0.529043,0.268573 -0.288102,-0.178451 -0.183099,-0.735844 -0.482294,-0.895002 -0.193093,-0.102719 -0.37417,0.226584 -0.561257,0.339878 -0.350189,0.165722 -0.782891,0.46971 -1.215771,0.297393 -0.25537,-0.101655 -0.378429,-0.441736 -0.643004,-0.516218 -0.21936,-0.06175 -0.444047,0.103067 -0.667601,0.147272 -2.039882,0.403365 0.697782,-0.17876 -1.395213,0.273674 -2.128574,0.560748 0.92748,-0.03367 -1.478442,-0.45791 -0.269713,-0.04756 -0.459532,0.320236 -0.725471,0.385692 -0.678212,0.166929 -0.918228,-0.128398 -1.468397,-0.450307 -0.328395,0.05963 -0.484052,0.459655 -0.726078,0.689486 -0.231956,-0.175464 -0.412216,-0.462093 -0.695864,-0.52639 -0.239483,-0.05429 -0.46432,0.168224 -0.706551,0.208493 -0.233998,0.0389 -0.474449,0.011 -0.711107,0.02719 -0.236884,0.01621 -0.479156,0.129917 -0.708877,0.06987 -0.249967,-0.06533 -0.390524,-0.440064 -0.648431,-0.424635 -0.287369,0.01719 -0.466922,0.336879 -0.700384,0.50532 -0.223271,-0.04105 -0.442823,-0.126386 -0.669812,-0.12315 -0.238115,0.0034 -0.47606,0.223617 -0.70002,0.142677 -0.284591,-0.102856 -0.356994,-0.565247 -0.65228,-0.631413 -0.253171,-0.05674 -0.451004,0.280904 -0.706328,0.326982 -0.439915,0.07939 -0.891062,-0.246641 -1.333674,-0.1406 -1.639841,0.0038 0.329983,0.08504 -1.291014,-0.265778 -0.204014,-0.04415 -0.419138,0.02127 -0.626186,-0.0052 -0.395168,-0.05057 -0.762728,-0.294017 -1.179744,-0.132892 -0.205867,0.07954 -0.351158,0.267434 -0.526736,0.40115 -0.170566,0.05253 -0.341067,0.209906 -0.511698,0.157589 -0.184001,-0.05642 -0.524946,-0.794324 -0.922694,-0.477083 -0.215412,0.171811 -0.164668,0.804795 -0.42337,0.709959 -1.10236,-0.404106 0.227649,-1.68386 -0.740644,-0.566588 -0.755847,0.454382 0.03465,0.127851 -0.656593,-0.02698 -0.104556,-0.0234 -0.207071,0.05795 -0.305063,0.101289 -0.100642,0.04451 -0.191855,0.107863 -0.288177,0.161088 -0.09203,0.05086 -0.171782,0.147786 -0.276878,0.151157 -0.09351,0.003 -0.164282,-0.08958 -0.246422,-0.134369 -0.07055,-0.138566 -0.141095,-0.277134 -0.211642,-0.4157 -0.07358,0.06273 -0.13836,0.238783 -0.220759,0.188182 -0.135484,-0.0832 -0.02853,-0.428415 -0.187192,-0.438703 -0.52629,-0.03412 0.02849,0.705079 -0.295254,0.293751 -0.01822,-0.02314 -0.342736,-0.12577 -0.357986,-0.15097 l -0.01577,1.643339 z"
       sodipodi:nodetypes="cssscscsscssscssccsssccsscscccsssscscsscssccsccscssscscscssscsssscscssccssscscssccscssscscsscssscssccssccsscsscsccscscscsscsssccsscssscsscssscsssccssccsscsssscssscssccssssscsssscscscssscssssccsssccc"
       inkscape:export-filename="rugged.svg"
       inkscape:export-xdpi="96"
       inkscape:export-ydpi="96" />
  </g>
</svg>
