<?xml version="1.0" encoding="UTF-8" standalone="no"?>
<!-- Created with Inkscape (http://www.inkscape.org/) -->

<svg
   width="68.684166mm"
   height="1.9200516mm"
   viewBox="0 0 68.684166 1.9200516"
   version="1.1"
   id="svg5"
   xmlns:inkscape="http://www.inkscape.org/namespaces/inkscape"
   xmlns:sodipodi="http://sodipodi.sourceforge.net/DTD/sodipodi-0.dtd"
   xmlns="http://www.w3.org/2000/svg"
   xmlns:svg="http://www.w3.org/2000/svg">
  <sodipodi:namedview
     id="namedview7"
     pagecolor="#ffffff"
     bordercolor="#000000"
     borderopacity="0.25"
     inkscape:showpageshadow="2"
     inkscape:pageopacity="0.0"
     inkscape:pagecheckerboard="0"
     inkscape:deskcolor="#d1d1d1"
     inkscape:document-units="mm"
     showgrid="false" />
  <defs
     id="defs2" />
  <g
     inkscape:label="Layer 1"
     inkscape:groupmode="layer"
     id="layer1"
     transform="translate(-53.732171,-102.25425)">
    <path
       style="fill:#ffffff;stroke-width:0.265956"
       id="path4854"
       d="m 53.914339,103.94824 c 0.04523,0.007 0.09039,0.0291 0.1357,0.0222 0.05611,-0.009 0.09982,-0.0623 0.156406,-0.0668 0.06222,-0.005 0.121881,0.0268 0.182823,0.0401 0.06688,0.0202 0.130865,0.0648 0.200623,0.0604 0.07154,-0.005 0.131332,-0.0569 0.196996,-0.0854 0.07779,-1e-4 0.155582,-1.9e-4 0.233373,-2.9e-4 0.181925,-0.0226 0.366108,-0.0192 0.54824,-0.0389 0.106414,-0.0115 0.211094,-0.0371 0.317786,-0.0458 0.117853,-0.01 0.236903,0.003 0.354627,-0.008 0.115343,-0.0107 0.644055,-0.10825 0.751617,-0.12757 0.283331,-0.0199 0.537827,0.12261 0.811449,0.15318 0.152271,0.017 0.306717,-0.009 0.459713,1e-5 0.173384,0.009 0.344598,0.046 0.518026,0.0547 0.193995,0.009 0.388528,-0.002 0.582749,0.001 0.215855,0.003 0.431569,0.0131 0.647351,0.0197 0.231869,-0.0304 0.46188,-0.0824 0.6956,-0.0911 0.240553,-0.008 0.480438,0.0418 0.721134,0.0383 0.251299,-0.003 0.500407,-0.0508 0.751582,-0.0594 0.259812,-0.008 0.519905,0.007 0.779875,0.007 0.77708,-2.9e-4 0.861119,-0.009 1.657835,-0.0339 0.299738,0.006 0.600003,0.036 0.899212,0.0175 1.323341,-0.0821 0.511993,-0.142 1.87176,-0.13983 0.314275,5e-4 0.625655,0.0595 0.939819,0.067 0.817826,0.0196 1.214826,-0.0454 2.041431,-0.12498 0.756802,0.0715 1.515118,-0.017 2.272063,0.005 0.376793,0.0111 0.750254,0.0781 1.127225,0.0822 0.40238,0.004 0.803204,-0.0499 1.20554,-0.0567 2.421121,-0.0411 0.05333,0.10896 2.457647,-0.0814 1.593269,0.13505 0.760345,0.094 2.348566,0.1116 0.375454,0.005 0.75086,0.014 1.126346,0.0139 0.364501,-1.8e-4 0.728905,-0.0206 1.093362,-0.0156 1.859606,0.0254 0.261495,0.10413 2.080342,-0.0307 2.070252,-0.0552 -0.108362,0.0139 1.991489,-0.0867 0.336798,-0.0162 0.673931,-0.0458 1.011042,-0.0361 0.344775,0.01 0.684421,0.0951 1.029373,0.0947 0.335857,-2.3e-4 0.666431,-0.0787 1.001668,-0.0969 0.313907,-0.0169 0.628935,-0.005 0.943404,-0.008 0.89427,0.161 1.792408,0.007 2.691895,0.0228 0.281031,0.005 0.560449,0.0494 0.841531,0.048 1.921796,-0.01 -0.347266,-0.14011 1.563979,9e-4 0.958746,-0.0286 0.666666,-0.049 1.632435,0.041 0.263988,0.0246 0.525413,0.0731 0.790474,0.0856 0.256273,0.0121 0.513623,-0.0256 0.76979,-0.0118 0.244082,0.0131 0.48377,0.064 0.726205,0.0924 0.224593,0.0263 0.44986,0.0479 0.67479,0.0718 l 0.663798,0.0472 c 0.22987,-0.0174 0.45902,-0.0589 0.68962,-0.0524 0.22885,0.006 0.45176,0.0679 0.67927,0.0907 0.66637,0.0669 1.33594,0.0196 2.00483,0.0156 0.45826,0.008 0.91241,0.0952 1.37051,0.10523 0.23133,0.006 0.46239,-0.0233 0.69378,-0.0227 0.23904,6.4e-4 0.47763,0.031 0.71662,0.0265 0.24684,-0.004 1.35965,-0.10225 1.59935,-0.1224 1.26209,0.0797 0.36504,0.0381 1.60992,0.0576 0.25919,0.005 0.51841,0.0281 0.77745,0.0185 0.60882,-0.0228 0.7765,-0.13891 1.37667,-0.0826 0.20659,0.0194 0.4061,0.0848 0.60914,0.12715 1.79476,-0.0958 -0.63958,-0.002 1.14239,0.0494 0.18301,0.005 0.36441,-0.0582 0.54715,-0.0474 0.17606,0.0104 0.34091,0.10613 0.51723,0.11038 0.16672,0.004 0.32846,-0.0574 0.49269,-0.086 0.16651,0.0149 0.33302,0.0297 0.49954,0.0447 0.32052,-0.0428 0.644,0.015 0.96471,-0.008 0.17416,-0.0127 0.34418,-0.0622 0.51828,-0.0758 0.98595,-0.0763 0.005,0.0606 0.97008,0.0192 0.15294,-0.007 0.30331,-0.0412 0.45495,-0.0618 0.14568,-0.0204 0.29135,-0.0407 0.43703,-0.061 0.13612,0.0103 0.27254,0.0444 0.40839,0.031 0.1317,-0.013 0.24915,-0.10854 0.3815,-0.10891 0.12702,-2.6e-4 0.23886,0.0969 0.36549,0.10678 0.11851,0.009 0.2349,-0.0368 0.35293,-0.0507 0.10985,-0.0131 0.22029,-0.0203 0.33045,-0.0305 1.1238,-0.18128 -0.45725,0.0511 0.57651,-0.0319 0.0816,-0.007 0.15837,-0.0423 0.23878,-0.058 0.70467,-0.13794 -0.2324,0.0548 0.3651,-0.027 0.0472,-0.007 0.32702,0.32212 0.30395,0.0796 0.0156,-0.77308 -0.003,-0.33969 0.009,-0.76584 l -0.002,-0.22382 v -0.28931 c 0,-0.3112 -0.0705,0.19041 -0.22502,-0.23603 -0.3721,-0.1815 0.0526,-0.0211 -0.36415,-0.0213 -0.0731,-4e-5 -0.13779,-0.0565 -0.21083,-0.0602 -0.0828,-0.004 -0.16291,0.0324 -0.24559,0.0372 -0.50951,0.0292 -0.0249,-0.0769 -0.55802,0.0742 -0.99428,0.0601 0.4111,0.004 -0.66894,-0.0568 -0.0772,-0.004 -0.68765,0.0768 -0.74787,0.0916 -0.13764,0.0338 -0.26093,0.12259 -0.40186,0.13818 -0.14673,0.0163 -0.29372,-0.0299 -0.44057,-0.045 -0.14944,0.007 -0.29873,0.0216 -0.44828,0.0192 -0.96944,-0.0146 0.0411,-0.0699 -0.94403,-0.0133 -0.16366,0.01 -0.32701,0.0239 -0.49051,0.0358 -0.15349,0.0262 -0.30506,0.0683 -0.46047,0.0786 -0.15655,0.0104 -0.31359,-0.0113 -0.47039,-0.0169 -1.1862,0.0323 0.22032,0.0176 -0.97264,-0.0451 -0.73327,-0.0386 -1.47076,0.11454 -2.20373,0.0101 -0.20572,0.0175 -0.41153,0.0341 -0.61716,0.0526 -0.22236,0.0201 -0.4435,0.0635 -0.66679,0.0634 -0.50122,-3.1e-4 -0.99623,-0.13659 -1.49805,-0.12834 -0.34564,3e-5 -1.28298,0.12226 -1.61755,0.16213 -0.27009,-0.0188 -0.54065,-0.0319 -0.81027,-0.0564 -0.26316,-0.0239 -0.52394,-0.0726 -0.78768,-0.0887 -1.34796,-0.083 -0.0678,0.0469 -1.38136,0.0739 -0.31421,0.006 -1.02908,-0.0963 -1.33494,-0.13519 -0.77725,0.0551 -0.54326,0.23265 -1.32471,0.17737 -0.21697,-0.0154 -0.4323,-0.0625 -0.64985,-0.0565 -0.2334,0.006 -0.45935,0.10153 -0.69268,0.0932 -0.23038,-0.008 -0.44874,-0.0946 -0.6731,-0.14184 -0.22115,-9e-4 -0.4423,-0.003 -0.663453,-0.004 -1.393734,-0.17567 0.06547,-0.035 -1.417047,-0.0374 -0.778887,-8.9e-4 -0.795041,-0.0926 -1.579154,-0.13278 -0.281367,-0.0144 -0.563666,-3.9e-4 -0.845496,-0.002 -0.273021,-9e-4 -0.54603,-0.004 -0.819045,-0.006 -2.062609,-0.0919 0.491558,0.0142 -1.582604,-0.0474 -0.284971,-0.009 -0.569267,-0.0352 -0.854392,-0.0368 -0.654673,-0.003 -1.118316,0.0538 -1.773696,0.0813 -0.31285,0.0131 -0.626133,0.016 -0.9392,0.024 -1.040652,0.0623 -0.886651,0.0871 -1.952495,0.009 -0.344536,-0.0252 -0.685597,-0.11815 -1.030809,-0.10168 -0.344097,0.0164 -0.666554,0.16704 -1.009263,0.19903 -0.661609,0.0617 -1.33565,-0.10166 -1.995214,0.0404 -1.369555,0.015 -0.679936,-4.4e-4 -2.068843,0.0463 -0.361933,0.004 -0.724823,-0.0275 -1.085923,-0.004 -0.374261,0.0233 -0.739388,0.12693 -1.114195,0.14162 -0.385627,0.0152 -0.771,-0.0351 -1.156497,-0.0526 l -1.178084,0.0574 c -0.406167,-0.008 -0.812377,-0.0153 -1.218498,-0.0252 -0.413219,-0.0102 -0.826129,-0.036 -1.239505,-0.035 -0.404656,8.9e-4 -0.808447,0.0403 -1.213104,0.0407 -0.37755,1.5e-4 -0.754448,-0.0286 -1.131854,-0.0379 -1.856315,-0.0459 -0.419628,0.0279 -2.287958,-0.0922 -1.867969,0.19938 -0.317848,0.0732 -2.063525,0.11576 -0.31194,0.007 -0.622639,0.0435 -0.934672,0.0472 -0.318852,0.004 -0.637353,-0.19539 -0.956193,-0.19069 -0.304964,0.004 -0.608257,0.0586 -0.913241,0.0559 -0.300302,-0.003 -0.598684,-0.0478 -0.898025,-0.0717 -0.285245,0.0179 -0.570094,0.0438 -0.855737,0.0536 -0.143752,0.005 -1.404321,0.005 -1.556647,-4.2e-4 -0.247279,-0.009 -0.493603,-0.0612 -0.740689,-0.0482 -0.239166,0.0125 -0.468475,0.10921 -0.70752,0.12383 -0.221347,0.0135 -0.442724,-0.0267 -0.664085,-0.04 -0.205861,0.005 -0.411995,0.0267 -0.617578,0.015 -0.09692,-0.005 -0.941089,-0.14484 -1.060057,-0.15981 -0.156306,-0.0196 -0.314194,-0.0252 -0.470547,-0.0445 -0.694148,-0.0857 -0.19909,-0.0844 -0.901598,-0.0401 -0.139613,-0.0458 -0.272163,-0.12652 -0.418838,-0.13756 -0.134931,-0.0103 -0.263578,0.0676 -0.39864,0.076 -0.188461,0.0117 -0.510409,-0.0669 -0.703921,-0.0448 -0.09485,0.0109 -0.177487,0.0858 -0.272975,0.086 -0.09673,3.2e-4 -0.184822,-0.0565 -0.277233,-0.0848 -0.582874,0.16848 0.08998,0.024 -0.464235,-0.008 -0.07323,-0.004 -0.141396,0.0396 -0.213619,0.0522 -0.06843,0.0119 -0.14159,-8.5e-4 -0.207346,0.0215 -0.06346,0.0215 -0.105157,0.09 -0.170169,0.10624 -0.04739,0.0119 -0.09981,-0.0335 -0.147807,-0.0426 l -0.0039,1.49898 z"
       sodipodi:nodetypes="cccccccscccsccccccccccscccccccsccccccccccccccccccccsccccsccsscccccccsccccccccccscsccccscccccscccccccscccsccccccccccscscsccccccsccccccccccccccccsccscccccccccc"
       inkscape:export-filename="smooth.svg"
       inkscape:export-xdpi="96"
       inkscape:export-ydpi="96" />
  </g>
</svg>
