<?xml version="1.0" encoding="UTF-8" standalone="no"?>
<!-- Created with Inkscape (http://www.inkscape.org/) -->

<svg
   width="18.419235mm"
   height="31.069618mm"
   viewBox="0 0 18.419235 31.069618"
   version="1.1"
   id="svg5"
   xmlns:inkscape="http://www.inkscape.org/namespaces/inkscape"
   xmlns:sodipodi="http://sodipodi.sourceforge.net/DTD/sodipodi-0.dtd"
   xmlns="http://www.w3.org/2000/svg"
   xmlns:svg="http://www.w3.org/2000/svg">
  <sodipodi:namedview
     id="namedview7"
     pagecolor="#ffffff"
     bordercolor="#000000"
     borderopacity="0.25"
     inkscape:showpageshadow="2"
     inkscape:pageopacity="0.0"
     inkscape:pagecheckerboard="0"
     inkscape:deskcolor="#d1d1d1"
     inkscape:document-units="mm"
     showgrid="false" />
  <defs
     id="defs2" />
  <g
     inkscape:label="Layer 1"
     inkscape:groupmode="layer"
     id="layer1"
     transform="translate(-23.996045,-98.84998)">
    <g
       id="g1968"
       transform="matrix(0.71835254,0,0,0.71835254,6.0583706,86.470405)"
       style="fill:#ffffff">
      <path
         style="fill:#ffffff;stroke-width:0.264583"
         id="path1664"
         d="m 25.899759,17.538847 c -0.04505,0.126333 -0.102451,0.248921 -0.135143,0.379 -0.07652,0.304484 -0.172241,1.050474 -0.20385,1.321372 -0.127035,1.088722 -0.188091,2.182265 -0.258291,3.275678 -0.131145,2.358942 -0.25407,4.718549 -0.320997,7.080278 -0.01034,1.427226 -0.02209,2.854618 0.01009,4.281596 0.02051,0.579712 0.04572,1.195168 0.332292,1.717098 0.04959,0.09032 0.113461,0.172021 0.170192,0.258029 0.07634,0.07785 0.143762,0.165579 0.229013,0.233553 0.701416,0.559256 1.862298,0.685734 2.714793,0.83243 1.788414,0.267544 3.587993,0.453983 5.384152,0.661299 1.623795,0.198954 3.253692,0.33854 4.886253,0.439473 2.162127,0.0982 4.332592,0.147503 6.495322,0.05345 0.69441,-0.05182 1.409325,-0.09938 2.066365,-0.352986 0.106648,-0.04116 0.207473,-0.09606 0.31121,-0.144089 0.183812,-0.110871 0.403892,-0.226698 0.555911,-0.38418 0.404704,-0.419251 0.566933,-0.992421 0.709417,-1.537481 0.242641,-1.539714 0.107402,-3.103793 -0.03957,-4.645491 -0.116779,-1.296569 -0.30987,-2.584645 -0.434862,-3.880265 -0.03562,-0.369199 -0.134321,-1.623826 -0.164988,-2.007876 -0.05542,-1.373805 -0.230296,-2.738557 -0.399548,-4.101964 -0.0875,-0.779411 -0.238783,-1.548546 -0.389604,-2.317372 -0.09237,-0.327774 -0.0983,-0.673704 -0.195019,-0.999223 -0.03951,-0.09806 -0.06179,-0.180457 -0.150244,-0.254517 -0.209788,-0.175657 -0.558413,-0.213027 -0.817118,-0.213312 -1.152977,-0.0013 -2.305875,0.01914 -3.45881,0.02871 -1.648148,0.158531 -3.295722,0.322575 -4.945147,0.468439 -1.790745,0.134023 -3.586681,0.147894 -5.378625,0.26182 -1.243512,0.09401 -2.485297,0.204844 -3.73303,0.2074 5.081479,0.03066 1.749094,0.009 0.559372,-0.08903 -0.576014,-0.08314 -1.076836,-0.07571 -1.657655,-0.02417 -0.383219,0.03769 -0.766439,0.07539 -1.149659,0.113081 0,0 0.434737,0.0567 0.434737,0.0567 v 0 c -0.333709,0.02378 -0.66742,0.04756 -1.001131,0.07133 -0.108453,0.02448 -0.219096,0.04075 -0.32536,0.07345 -0.02411,0.0074 -0.07004,0.02194 -0.0606,0.04533 0.01823,0.04516 0.611053,0.122178 0.667302,0.1272 1.847765,0.161806 3.707426,0.09215 5.559096,0.102098 1.233723,-0.02361 2.461011,-0.138277 3.691104,-0.229553 1.81568,-0.108265 3.635584,-0.119564 5.449515,-0.259376 1.623459,-0.143612 3.245223,-0.302865 4.866338,-0.470236 -0.803376,-0.0098 -1.606957,-0.0088 -2.410127,-0.0295 -0.155548,-0.004 0.310746,-0.0198 0.466344,-0.02065 0.04117,-2.24e-4 0.487273,0.02356 0.567503,0.03355 0.153545,0.01911 0.115329,0.0096 0.203133,0.117497 0.197493,0.27274 0.247404,0.618053 0.331455,0.937383 0.18738,0.752765 0.331507,1.516936 0.411067,2.288989 0.119835,1.364469 0.120081,2.734942 0.280762,4.096358 0.154633,1.965538 0.318969,3.930532 0.528405,5.891015 0.121663,1.508499 0.248108,3.052141 -0.102338,4.540618 -0.05124,0.149818 -0.09244,0.303453 -0.153718,0.449453 -0.255645,0.609111 -0.66321,0.96094 -1.2696,1.198751 -0.788152,0.260048 -1.605241,0.369638 -2.435159,0.383984 -1.363297,0.02222 -0.698291,0.0084 2.023023,0.01058 0.180131,1.43e-4 -0.360268,7.94e-4 -0.540393,-5.29e-4 -0.655416,-0.0044 -1.310532,-0.02326 -1.96527,-0.05342 -1.680482,-0.08332 -3.358851,-0.210736 -5.030795,-0.401365 -1.856528,-0.197827 -3.714618,-0.386012 -5.566706,-0.621914 -0.847297,-0.122044 -2.116937,-0.243136 -2.872571,-0.669213 -0.09051,-0.05104 -0.169386,-0.120391 -0.254079,-0.180589 -0.06461,-0.07057 -0.136517,-0.135091 -0.193821,-0.211709 -0.344048,-0.460034 -0.382,-1.068702 -0.467363,-1.613871 -0.149082,-1.416262 -0.207348,-2.840715 -0.224517,-4.264329 -0.01278,-2.357814 0.04517,-4.71606 0.174093,-7.070462 0.06569,-1.089809 0.138586,-2.178579 0.224967,-3.266966 0.0013,-0.01551 0.101704,-1.193898 0.105791,-1.312058 0.0042,-0.122643 -0.0074,-0.245322 -0.01103,-0.367983 0,0 -1.692268,-0.04129 -1.692268,-0.04129 z" />
      <path
         style="fill:#ffffff;stroke-width:0.264583"
         id="path1674"
         d="m 31.770627,36.767558 c -0.0076,0.162264 -0.0208,0.324361 -0.0227,0.486788 -0.01246,1.064546 0.07193,2.131891 0.12096,3.194476 0.08226,1.854732 0.04022,0.929571 0.126092,2.775485 0.113051,1.90991 0.205455,3.822988 0.455758,5.720966 0.123524,0.658233 0.334487,1.344544 0.915527,1.742437 0.112488,0.07703 0.238853,0.131522 0.358281,0.197281 0.461385,0.181579 0.952561,0.279096 1.449308,0.282044 2.151557,0.01278 2.289804,0.09701 3.874373,-0.237337 1.157761,-0.283086 2.297041,-0.635995 3.444925,-0.956199 0.536583,-0.179062 1.319332,-0.285371 1.741752,-0.69886 0.07857,-0.07691 0.1339,-0.174418 0.200851,-0.26163 0.04812,-0.126238 0.112045,-0.247536 0.144362,-0.378712 0.167679,-0.680651 0.06848,-1.433994 0.01,-2.11919 -0.05954,-0.697606 -0.135758,-1.393688 -0.202282,-2.090664 -0.102248,-1.014706 -0.233402,-2.029177 -0.426482,-3.031101 -0.107696,-0.55885 -0.184362,-0.981421 -0.440947,-1.488175 -0.09685,-0.19127 -0.234137,-0.359212 -0.351207,-0.538816 -0.22261,-0.141478 -0.445223,-0.282956 -0.667835,-0.424431 0,0 -0.170683,0.0051 -0.170683,0.0051 v 0 c -0.133067,0.151018 -0.266131,0.30204 -0.399198,0.453061 -0.01624,0.181536 -0.0517,0.362371 -0.04875,0.544608 0.0088,0.542481 0.130246,0.946134 0.238217,1.481847 0.200864,0.996598 0.368689,1.999035 0.448522,3.013728 0.07524,0.956514 0.103936,1.130549 0.120277,2.081131 0.01119,0.651319 0.05066,1.398653 -0.198832,2.020387 -0.04517,0.112554 -0.122642,0.209264 -0.183965,0.313896 -0.07431,0.06816 -0.141756,0.144664 -0.22293,0.204489 -0.482433,0.355563 -1.208952,0.428098 -1.760082,0.630862 -1.136756,0.32635 -2.267569,0.678508 -3.421031,0.94211 -0.199311,0.03751 -0.397412,0.08213 -0.597929,0.112532 -0.196371,0.02977 -0.789818,0.05045 -0.591968,0.06787 0.539379,0.0475 1.082778,0.02008 1.624237,0.02302 0.170685,0.0011 -0.34172,-0.0024 -0.511783,-0.01696 -0.160026,-0.01371 -0.319551,-0.0363 -0.477044,-0.0678 -0.142256,-0.02845 -0.280424,-0.0745 -0.420635,-0.111749 -0.25695,-0.11503 -0.418721,-0.162835 -0.631285,-0.349126 -0.395711,-0.3468 -0.547973,-0.894302 -0.674947,-1.380535 -0.362034,-1.878711 -0.519628,-3.788769 -0.643265,-5.696127 -0.06694,-1.218358 -0.0932,-1.549529 -0.127916,-2.772058 -0.03019,-1.062961 -0.0016,-2.128626 -0.04558,-3.190983 -0.0067,-0.163145 -0.02503,-0.32561 -0.03755,-0.488413 0,0 -1.996619,0.0048 -1.996619,0.0048 z" />
      <path
         style="fill:#ffffff;stroke-width:0.264583"
         id="path1684"
         d="m 30.720387,37.497453 c -0.167873,0.174856 -0.358646,0.330306 -0.503621,0.524569 -0.224039,0.300204 -0.413854,0.625244 -0.597937,0.951478 -0.638633,1.131798 -0.858134,1.726475 -1.425673,2.9396 -0.786601,1.681382 -0.827686,1.735172 -1.650902,3.374234 -0.124622,0.304671 -0.98218,2.202789 -0.911423,2.703544 0.05574,0.394513 0.418141,0.678342 0.627211,1.017514 0,0 0.259409,0.0127 0.259409,0.0127 v 0 c 0.550511,-0.30294 1.163625,-0.512863 1.65153,-0.908823 0.608057,-0.493466 1.462706,-2.05182 1.832588,-2.66588 0.562547,-1.154581 1.080223,-2.229052 1.662957,-3.375346 0.67441,-1.326631 0.877485,-1.650592 1.49801,-2.919767 0.152191,-0.311282 0.311536,-0.620008 0.439473,-0.942022 0.06692,-0.168447 0.09547,-0.349713 0.143206,-0.524571 0,0 -3.024828,-0.187216 -3.024828,-0.187216 z" />
      <path
         style="fill:#ffffff;stroke-width:0.264583"
         id="path1686"
         d="m 41.601466,38.472541 c 0.182666,0.337928 0.335069,0.69406 0.547995,1.013785 0.345678,0.51906 0.746328,0.999347 1.12346,1.496023 0.508947,0.670272 1.002176,1.353132 1.534753,2.004788 1.161222,1.420849 2.34592,2.746735 3.734752,3.951692 0.631799,0.548151 1.326171,1.019712 1.989257,1.529569 0,0 0.07983,-0.0052 0.07983,-0.0052 v 0 c -0.128439,-0.544385 -0.1915,-1.108477 -0.38532,-1.633154 -0.510117,-1.3809 -1.463204,-2.861066 -2.289823,-4.046564 -0.289939,-0.415816 -2.216124,-2.953668 -2.711882,-3.503755 -0.317463,-0.352253 -0.688419,-0.652333 -1.032629,-0.978501 0,0 -2.590395,0.171265 -2.590395,0.171265 z" />
      <path
         style="fill:#ffffff;stroke-width:0.264583"
         id="path1692"
         d="m 34.560028,50.595947 c -0.166807,0.210381 -0.355682,0.405009 -0.500414,0.63114 -0.463738,0.724548 -0.661025,1.322102 -0.997466,2.123091 -0.517105,1.231114 -1.068184,2.446263 -1.600393,3.670829 -0.2828,1.848932 -0.28879,0.259606 0.503438,1.912215 0.09762,0.203637 0.05779,0.447942 0.08669,0.671912 0,0 0.380733,0.01342 0.380733,0.01342 v 0 c 0.190508,-0.215403 0.342868,-0.471832 0.571524,-0.646211 2.098378,-1.600292 0.694007,0.08273 2.043975,-1.802307 0.547449,-1.223809 1.097404,-2.446875 1.636083,-3.67457 0.323532,-0.73736 0.626506,-1.344687 0.802129,-2.125023 0.04712,-0.209349 0.04307,-0.427005 0.0646,-0.640508 0,0 -2.990898,-0.133993 -2.990898,-0.133993 z" />
      <path
         style="fill:#ffffff;stroke-width:0.264583"
         id="path1694"
         d="m 40.973004,49.353025 c 0.05349,0.259747 0.08839,0.524031 0.160473,0.779245 0.298632,1.057289 0.557797,1.581825 1.036357,2.620021 0.8016,1.73899 1.668809,3.445177 2.541566,5.149075 1.497039,2.076865 0.530005,1.164381 3.039316,2.58314 0,0 0.296979,-0.01519 0.296979,-0.01519 v 0 c 0.896427,-1.720728 0.817057,-0.812398 0.107998,-2.733241 -0.294164,-0.557297 -0.599583,-1.108797 -0.882489,-1.671892 -0.580064,-1.154549 -1.081598,-2.254041 -1.566227,-3.450015 -0.564664,-1.393484 -0.449887,-1.349069 -1.057873,-2.607943 -0.125622,-0.260112 -0.277392,-0.506767 -0.416089,-0.760148 0,0 -3.260011,0.106945 -3.260011,0.106945 z" />
    </g>
  </g>
</svg>
