<?xml version="1.0" encoding="UTF-8" standalone="no"?>
<!-- Created with Inkscape (http://www.inkscape.org/) -->

<svg
   width="29.104568mm"
   height="28.487106mm"
   viewBox="0 0 29.104568 28.487106"
   version="1.1"
   id="svg5"
   xmlns:inkscape="http://www.inkscape.org/namespaces/inkscape"
   xmlns:sodipodi="http://sodipodi.sourceforge.net/DTD/sodipodi-0.dtd"
   xmlns="http://www.w3.org/2000/svg"
   xmlns:svg="http://www.w3.org/2000/svg">
  <sodipodi:namedview
     id="namedview7"
     pagecolor="#ffffff"
     bordercolor="#000000"
     borderopacity="0.25"
     inkscape:showpageshadow="2"
     inkscape:pageopacity="0.0"
     inkscape:pagecheckerboard="0"
     inkscape:deskcolor="#d1d1d1"
     inkscape:document-units="mm"
     showgrid="false" />
  <defs
     id="defs2" />
  <g
     inkscape:label="Layer 1"
     inkscape:groupmode="layer"
     id="layer1"
     transform="translate(-93.432879,-136.40284)">
    <g
       id="g1933"
       transform="matrix(0.82821497,0,0,1,-38.833683,-4.3853745)"
       inkscape:export-filename="ico_poly.svg"
       inkscape:export-xdpi="111.70754"
       inkscape:export-ydpi="111.70754"
       style="fill:#ffffff">
      <path
         style="fill:#ffffff;stroke-width:0.244985"
         id="path1117"
         d="m 169.88164,165.67508 c 0.21523,-0.0416 0.43387,-0.064 0.64569,-0.12488 1.50378,-0.43256 2.97997,-1.31852 4.36881,-2.06176 4.64764,-2.48719 0.8332,-0.49411 5.84935,-3.08353 4.09837,-2.06045 8.26,-3.95189 12.50539,-5.559 0.4534,-0.14611 0.89661,-0.33933 1.35417,-0.46914 0.006,-0.002 0.19705,-0.0528 0.22594,-0.0369 0.0134,0.007 0.008,0.0334 0.0111,0.05 -0.0223,-0.1925 0.004,-0.40167 -0.0668,-0.57751 -0.0305,-0.0758 -0.13611,-0.054 -0.2014,-0.0888 -0.12946,-0.0689 -0.2571,-0.14267 -0.38222,-0.22172 -0.2258,-0.14265 -0.44958,-0.28983 -0.67018,-0.44316 -0.82281,-0.57192 -1.47617,-1.07704 -2.2982,-1.69427 -3.00092,-2.32152 -5.87004,-4.86214 -8.7657,-7.35593 -0.77533,-0.60947 -1.50219,-1.31963 -2.31202,-1.87032 -0.71759,-0.48797 0.0202,0.0611 -0.40682,-0.26134 -0.12375,-0.11548 -0.26034,-0.1712 -0.40632,-0.23913 -0.27612,-0.13634 -0.53957,-0.30268 -0.79462,-0.48582 -0.82037,-0.60217 -1.07365,-0.32073 -2.73674,-0.11606 -0.13066,0.0161 -0.1692,0.23463 -0.24882,0.35653 -0.42396,0.64915 -0.59577,0.9717 -1.02283,1.70539 -0.28678,0.53941 -0.58137,1.07329 -0.86036,1.61824 -0.71726,1.40099 -1.574,3.19273 -2.24399,4.60028 -1.19093,2.50198 -2.36143,5.01601 -3.51371,7.5424 -0.61091,1.43199 -0.94699,2.06216 -1.34787,3.52269 -0.10762,0.39207 -0.25336,0.78957 -0.24623,1.20116 0.005,0.3109 0.18811,0.58193 0.28217,0.87289 0,0 0.14225,0.007 0.14225,0.007 v 0 c 0.32195,-0.2691 0.68543,-0.48104 0.96585,-0.80731 0.2939,-0.34194 0.50465,-0.76977 0.7355,-1.17218 0.81345,-1.41797 0.99797,-1.92714 1.71495,-3.49808 2.06471,-4.67046 4.11298,-9.37439 6.65795,-13.7218 0.30463,-0.47328 0.73105,-1.20624 1.13748,-1.63399 0.0838,-0.0882 0.40299,-0.18748 0.29083,-0.20268 -3.24542,-0.43979 -2.93847,-0.41719 -2.13429,0.0328 0.28725,0.15607 0.57069,0.32107 0.85128,0.4928 0.0503,0.0325 0.13942,0.11399 0.20168,0.12471 0.009,0.002 0.0185,-0.011 0.0277,-0.008 0.0375,0.0125 0.046,0.0905 0.0922,0.0838 0.38685,0.34281 -0.21993,-0.20806 0.25082,0.27723 0.0911,0.094 0.19125,0.17545 0.28798,0.2615 0.62524,0.55621 1.2657,1.08863 1.90742,1.61848 2.89514,2.39277 5.73995,4.86519 8.5536,7.38666 0.86391,0.75143 1.7275,1.50069 2.61691,2.21085 0.10706,0.0855 0.21704,0.16592 0.32552,0.24895 0.0553,0.0423 0.12796,0.19044 0.1659,0.1272 0.0853,-0.14223 0.0445,-0.34327 0.0667,-0.51491 -0.0313,0.13647 -0.22293,0.18085 -0.31264,0.22496 -0.51916,0.25524 -0.20649,0.0998 -0.85958,0.42944 -3.86932,1.92294 -7.76374,3.77606 -11.63361,5.69753 -2.76491,1.39298 -5.52014,2.81433 -8.29016,4.19332 -0.7423,0.36953 -1.49529,0.69993 -2.24192,1.05505 0,0 1.76178,0.306 1.76178,0.306 z" />
      <path
         style="fill:#ffffff;stroke-width:0.244985"
         id="path1119"
         d="m 165.77174,158.54571 c -0.0149,0.17986 -0.0386,0.35904 -0.0447,0.5396 -0.0105,0.31203 -0.003,0.62453 -0.005,0.93679 -0.009,0.44453 -0.0121,0.88931 -0.0279,1.33358 -0.019,0.53255 -0.0536,1.0642 -0.0762,1.59655 -0.028,0.65736 -0.0826,2.25013 -0.10688,2.9472 -0.076,1.12225 -0.0758,2.25821 -0.20318,3.37588 0.90127,-0.0345 1.81111,0.0453 2.7038,-0.10342 0.0976,-0.0163 -0.0482,-0.22317 -0.0705,-0.33525 -0.0362,-0.18168 -0.0711,-0.3637 -0.10495,-0.54598 -0.0635,-0.34186 -0.2793,-1.5411 -0.31828,-1.7985 -0.0619,-0.40855 -0.10893,-0.81998 -0.16339,-1.22997 -0.0483,-0.44283 -0.0981,-0.88544 -0.14498,-1.32848 -0.1675,-1.58392 -0.1073,-1.02482 -0.24047,-2.54018 -0.0233,-0.26478 -0.13434,-1.58875 -0.19406,-1.91928 -0.0405,-0.22414 -0.11669,-0.43745 -0.17502,-0.65618 -0.21299,-0.15789 -0.42598,-0.31577 -0.63897,-0.47367 0,0 -0.20194,0.001 -0.20194,0.001 v 0 c -0.20061,0.16032 -0.40123,0.32064 -0.60185,0.48097 -0.0397,0.21962 -0.0988,0.43565 -0.11897,0.65885 -0.0349,0.38686 -0.0112,1.59588 -0.003,1.92382 0.031,1.29447 0.0804,2.58918 0.15523,3.88118 0.0596,1.01 0.1263,2.0215 0.15051,3.03386 0.004,0.17952 0.007,0.35923 0.003,0.53875 -0.003,0.1039 -0.11072,0.29724 -0.0224,0.31071 0.89441,0.13632 1.80315,0.0654 2.70473,0.0981 -0.0366,-0.24936 -0.0323,-0.5137 -0.0378,-0.76423 -0.0189,-0.86611 -0.0302,-1.73258 -0.0153,-2.59895 0.0298,-1.5162 0.0618,-3.03139 0.0763,-4.54793 0.004,-0.47222 0.0294,-1.72413 -0.002,-2.28195 -0.0101,-0.18153 -0.0449,-0.36003 -0.0674,-0.54005 0,0 -2.20758,0.007 -2.20758,0.007 z" />
      <path
         style="fill:#ffffff;stroke-width:0.244985"
         id="path1125"
         d="m 161.70076,161.72353 c -0.5799,0.031 -1.17511,-0.0645 -1.73969,0.093 -0.22094,0.0616 0.44142,0.12731 0.65754,0.20894 0.35981,0.1359 0.71504,0.28811 1.0691,0.44323 1.47969,0.64829 2.91932,1.39323 4.35904,2.15204 1.1936,0.63432 2.37915,1.28961 3.54135,1.99924 0.21143,0.1291 0.42235,0.25948 0.63021,0.39625 0.0768,0.0505 0.13555,0.17428 0.22344,0.16543 1.03393,-0.10406 2.0559,-0.3322 3.08384,-0.4983 -2.54771,-1.29156 -5.18135,-2.33118 -7.82158,-3.33039 -1.21712,-0.43497 -2.44908,-0.84193 -3.70724,-1.08402 -0.33678,-0.0648 -0.67721,-0.10051 -1.01582,-0.15076 0,0 -0.27738,0.0378 -0.27738,0.0378 v 0 c -0.0322,0.10356 -0.13365,0.20936 -0.0966,0.31068 0.0615,0.16799 0.21175,0.27656 0.34591,0.37076 0.55156,0.38729 1.44879,0.69237 2.01294,0.91856 2.48821,0.95243 5.00045,1.89556 7.32474,3.32393 1.11216,-0.10939 2.23011,-0.15666 3.33648,-0.32818 0.12289,-0.019 -0.23893,-0.0795 -0.35366,-0.13425 -0.24712,-0.11797 -0.48808,-0.25285 -0.73052,-0.38334 -1.22681,-0.66025 -2.43818,-1.3593 -3.67493,-1.99452 -1.48873,-0.75789 -2.97756,-1.52676 -4.50966,-2.16071 -0.3472,-0.14367 -1.56919,-0.63316 -2.05137,-0.66538 -0.86731,-0.058 -1.73743,-0.0115 -2.60614,-0.0172 0,0 1.99998,0.32715 1.99998,0.32715 z" />
      <path
         style="fill:#ffffff;stroke-width:0.244985"
         id="path1129"
         d="m 171.97692,158.99783 c -0.25495,0.16071 -0.51417,0.31251 -0.76484,0.48212 -2.19525,1.48533 -4.27382,3.20783 -6.34376,4.91561 -0.75051,0.65282 -1.50459,1.30815 -2.19393,2.04951 -0.11277,0.12128 -0.22099,0.24843 -0.3259,0.37896 -0.0604,0.0751 -0.14507,0.13828 -0.16934,0.23721 -0.0257,0.105 0.0208,0.21706 0.0313,0.32559 1.06768,-0.0733 2.14696,-0.0227 3.20308,-0.21976 0.17219,-0.0321 0.23585,-0.29977 0.35809,-0.44482 0.18696,-0.22183 0.37558,-0.44187 0.56933,-0.65562 0.6491,-0.71611 1.1975,-1.27818 1.90084,-1.94461 0.39226,-0.37169 0.79616,-0.72634 1.19424,-1.08951 1.01647,-0.87341 2.0458,-1.73332 3.12823,-2.49374 0.19978,-0.14035 0.401,-0.27944 0.61135,-0.39697 0.0877,-0.049 0.37579,-0.0925 0.27877,-0.10036 -1.03432,-0.0842 -2.07234,-0.0867 -3.10852,-0.13 -1.47248,1.59003 -3.05232,3.03816 -4.57092,4.56634 -0.35568,0.35793 -0.7003,0.73055 -1.05045,1.09583 -0.23847,0.266 -1.14768,1.26349 -1.4207,1.62249 -0.11651,0.1532 -0.28678,0.29162 -0.31301,0.49411 -0.0176,0.13586 0.13703,0.22355 0.20555,0.33532 0,0 0.19875,0.0219 0.19875,0.0219 v 0 c 0.28722,-0.0743 0.58532,-0.10517 0.86166,-0.22291 0.25749,-0.10972 0.49044,-0.28737 0.72487,-0.45312 0.43382,-0.30671 1.61592,-1.27776 1.97133,-1.56574 0.41649,-0.35856 0.83833,-0.70882 1.24947,-1.07568 0.44141,-0.39385 0.87026,-0.80649 1.30784,-1.20612 1.24635,-1.13826 2.50868,-2.25172 3.78347,-3.34621 -0.92863,-0.172 -1.85093,-0.3999 -2.78593,-0.51601 -0.065,-0.008 -0.0954,0.10449 -0.14672,0.1518 -0.15623,0.14417 -0.31664,0.28203 -0.47543,0.42233 -0.96624,0.85373 -1.9444,1.68859 -2.91642,2.53335 -1.12305,0.99992 -2.24717,1.99786 -3.34863,3.03017 -0.22685,0.21261 -0.44792,0.43359 -0.67591,0.64453 -0.15131,0.13999 -0.65055,0.36042 -0.4618,0.40812 0.90089,0.22766 1.84093,0.11535 2.76139,0.17302 -0.0116,0.0927 -0.1013,0.22568 -0.0347,0.27818 0.0601,0.0474 0.0848,-0.13803 0.13509,-0.19902 0.10307,-0.12498 0.21251,-0.24282 0.32393,-0.35764 0.69758,-0.71881 1.45969,-1.34449 2.18461,-2.02387 1.62817,-1.45497 3.28021,-2.87019 5.00017,-4.17562 0.33578,-0.25486 0.68048,-0.49344 1.01871,-0.74388 0.21706,-0.16071 0.4314,-0.32635 0.6471,-0.48952 0,0 -2.54224,-0.31573 -2.54224,-0.31573 z" />
    </g>
  </g>
</svg>
