<?xml version="1.0" encoding="UTF-8" standalone="no"?>
<!-- Created with Inkscape (http://www.inkscape.org/) -->

<svg
   width="32.310516mm"
   height="29.025574mm"
   viewBox="0 0 32.310516 29.025574"
   version="1.1"
   id="svg5"
   xmlns:inkscape="http://www.inkscape.org/namespaces/inkscape"
   xmlns:sodipodi="http://sodipodi.sourceforge.net/DTD/sodipodi-0.dtd"
   xmlns="http://www.w3.org/2000/svg"
   xmlns:svg="http://www.w3.org/2000/svg">
  <sodipodi:namedview
     id="namedview7"
     pagecolor="#ffffff"
     bordercolor="#000000"
     borderopacity="0.25"
     inkscape:showpageshadow="2"
     inkscape:pageopacity="0.0"
     inkscape:pagecheckerboard="0"
     inkscape:deskcolor="#d1d1d1"
     inkscape:document-units="mm"
     showgrid="false" />
  <defs
     id="defs2" />
  <g
     inkscape:label="Layer 1"
     inkscape:groupmode="layer"
     id="layer1"
     transform="translate(-130.48392,-136.9149)">
    <g
       id="g1997"
       transform="matrix(0.97656901,0,0,1.0150616,2.805012,-1.3626823)"
       style="fill:#ffffff">
      <path
         style="fill:#ffffff;stroke-width:0.247815"
         id="path1157"
         d="m 131.32127,152.20337 c -0.004,2.4214 0.0373,4.84237 0.0643,7.26347 0.0331,0.92713 0.004,1.86152 0.11074,2.78409 0.0483,0.41807 0.10997,0.77119 0.26813,1.15224 0.0617,0.14855 0.14988,0.28078 0.22484,0.42116 0.17329,0.13178 0.33074,0.29581 0.51987,0.39532 0.85082,0.44763 1.88966,0.47537 2.80476,0.478 3.39755,0.01 2.657,0.0378 4.88639,-0.12689 2.75618,-0.25831 5.50472,-0.60882 8.25829,-0.89919 2.88486,-0.26737 5.77495,-0.47815 8.66931,-0.53183 -0.46537,0.004 -0.93393,-0.0493 -1.39608,0.013 -0.32928,0.0444 0.66288,0.0226 0.99405,0.0411 0.81677,0.0456 1.6261,0.12547 2.42953,0.29921 0.49075,0.11258 0.95106,0.33135 1.40169,0.57272 1.11777,0.59004 0.92655,0.47317 3.20964,0.0484 0.10719,-0.02 0.0404,-0.2442 0.0447,-0.36792 0.006,-0.17844 -0.009,-0.35701 -0.0133,-0.53553 -0.0973,-1.85283 -0.30079,-3.69466 -0.53209,-5.53099 -0.26877,-1.7704 -0.48329,-3.54836 -0.58848,-5.34128 -0.004,-0.35987 -0.0419,-0.72363 -0.004,-1.08315 0.0186,-0.17774 0.0504,-0.26529 0.0359,-0.44847 -0.052,-0.30495 -0.29072,-0.40185 -0.5466,-0.40448 -3.18249,-0.0328 -2.47634,-0.0699 -4.09175,0.0405 -1.09573,0.11473 -2.18692,0.27716 -3.28167,0.40277 -1.55874,0.1561 -3.12223,0.24111 -4.68349,0.35832 -1.89967,0.18459 -3.7903,0.46827 -5.6868,0.68942 -1.85776,0.2173 -3.72288,0.33116 -5.58868,0.40668 -0.29843,0.006 -0.59683,0.014 -0.89529,0.0164 -0.28525,0.002 -1.14102,0.001 -0.85578,-0.002 0.81028,-0.009 1.62081,0.006 2.43092,-0.0149 0.24571,-0.006 -0.49134,-0.0171 -0.7369,-0.029 -0.5433,-0.0264 -0.80078,-0.0487 -1.34213,-0.0886 -0.90585,-0.0738 -1.80796,-0.1938 -2.70699,-0.33849 -0.23289,-0.0326 -0.45982,-0.10422 -0.69495,-0.085 -0.16146,0.0231 -0.0758,0.009 -0.25683,0.0428 0,0 -2.76875,0.43528 -2.76875,0.43528 v 0 c -0.16465,0.0349 -0.09,0.0181 -0.22419,0.0494 -0.0136,0.006 -0.0479,0.026 -0.034,0.0305 0.18918,0.061 0.40136,0.028 0.59098,0.0864 0.93773,0.13436 1.87591,0.26527 2.81877,0.34481 2.62292,0.21072 5.25416,0.18434 7.8819,0.11725 1.86355,-0.085 3.72564,-0.21127 5.58106,-0.43256 1.89987,-0.22858 3.7948,-0.51721 5.70087,-0.67248 1.58731,-0.11507 3.1774,-0.18981 4.76128,-0.3587 1.09983,-0.12721 2.19699,-0.2843 3.29902,-0.38578 1.4099,-0.11168 0.26384,-0.009 -2.40153,-0.0513 -0.10535,-0.002 0.21022,-0.0164 0.31545,-0.0224 0.20114,-0.0113 0.17212,-0.009 0.34444,5.3e-4 0.0379,0.002 0.0759,0.004 0.1138,0.007 0.0219,0.0155 0.0497,0.0234 0.0655,0.0466 0.17208,0.25266 0.16611,1.08466 0.24024,1.37341 0.21552,1.78712 0.44098,3.57355 0.70088,5.35291 0.24309,1.81195 0.45286,3.63927 0.40674,5.4769 -0.0162,0.15616 -0.0179,0.31515 -0.0486,0.46846 -0.0116,0.058 -0.12826,0.15269 -0.0762,0.1557 0.87588,0.0505 1.75408,-0.0222 2.631,-0.008 0.0353,5.3e-4 -0.0617,0.0515 -0.0968,0.0486 -0.0142,-0.001 -0.22049,-0.14459 -0.22191,-0.14556 -0.43778,-0.29095 -0.89737,-0.54009 -1.39508,-0.66659 -2.41731,-0.56537 -4.9416,-0.26488 -7.37959,-0.36565 -2.87654,0.0794 -5.74944,0.29258 -8.6168,0.56246 -2.74192,0.29511 -5.47876,0.65245 -8.22483,0.89541 -0.41831,0.0267 -1.48795,-0.3169 -1.25493,0.08 0.24511,0.41751 0.88126,0.0205 1.32181,0.0339 0.35516,0.0108 -0.71098,-10e-4 -1.06561,-0.0261 -0.74313,-0.0517 -1.48337,-0.15988 -2.13938,-0.58714 -0.0826,-0.11879 -0.1788,-0.2269 -0.24805,-0.35637 -0.17883,-0.33437 -0.26482,-0.68977 -0.33285,-1.07119 -0.16184,-0.9074 -0.17841,-1.83914 -0.247,-2.7583 -0.11106,-2.41413 -0.15582,-4.83082 -0.12097,-7.2483 0,0 -2.3278,-0.006 -2.3278,-0.006 z" />
      <path
         style="fill:#ffffff;stroke-width:0.247815"
         id="path1166"
         d="m 143.23319,151.36843 c -0.26845,-0.82416 -0.40953,-1.69025 -0.54296,-2.55305 -0.008,-0.001 -0.0711,-0.47726 -0.0723,-0.47736 -2.2154,-0.19298 -1.67567,-0.70109 -2.31015,-0.0585 -0.27237,0.23708 -0.60416,0.21585 -0.92932,0.21635 4.27007,-0.0879 2.57348,0.11879 1.68957,-0.10451 -0.39576,-0.1 -0.75287,-0.27213 -1.1192,-0.46468 -0.23086,-0.15456 -0.52297,-0.32503 -0.71112,-0.55123 -0.40531,-0.48728 -0.53708,-1.17302 -0.50851,-1.82785 0.0139,-0.3189 0.0823,-0.63166 0.12339,-0.94749 0.10475,-0.35952 0.18137,-0.73133 0.31425,-1.07856 0.72142,-1.88515 2.02344,-3.46227 3.48461,-4.63653 0.40323,-0.32405 0.8408,-0.5887 1.26121,-0.88304 1.19376,-0.7248 2.48256,-1.20337 3.83806,-1.30489 0.37284,-0.0279 1.4797,-0.0947 1.12074,0.0235 -1.46706,0.48324 -2.59974,-0.19011 -0.95211,0.55426 0.2342,0.17582 0.48321,0.32835 0.70261,0.52746 0.78454,0.71199 1.32927,1.7297 1.62847,2.81103 0.0668,0.24121 0.10609,0.49118 0.15913,0.73678 0.20173,1.29919 -0.0279,2.57583 -0.43679,3.78894 -0.18647,0.54592 -0.47052,1.03299 -0.74825,1.52168 -0.24743,0.39838 -0.473,0.81352 -0.70157,1.22606 -0.11063,0.2077 -0.23265,0.40733 -0.34451,0.6141 -0.0368,0.039 -0.01,0.0737 -0.0181,0.11555 0.0488,0.56965 0.14498,1.13619 0.22245,1.70255 0.0569,0.34081 0.14586,1.03175 0.50455,1.15973 0.81892,0.15466 0.4949,0.0482 0.98991,0.23783 0,0 0.38401,-0.007 0.38401,-0.007 v 0 c 0.44956,-0.21061 0.15106,-0.0897 0.91965,-0.27307 0.33193,-0.1459 0.19803,-0.90882 0.15427,-1.17933 -0.0957,-0.51054 -0.21985,-1.01772 -0.30557,-1.52818 0.028,-0.0763 0.0282,-2.6e-4 0.0474,-0.0619 0.0858,-0.20435 0.17869,-0.40477 0.2849,-0.59659 0.24157,-0.42737 0.53038,-0.80968 0.82229,-1.19325 0.35802,-0.48434 0.64678,-1.00563 0.78818,-1.62701 0.10398,-0.40362 0.17221,-0.63212 0.23948,-1.05625 0.15319,-0.96583 0.15411,-1.95579 0.006,-2.92227 -0.0571,-0.25853 -0.10052,-0.52151 -0.17136,-0.77559 -0.31733,-1.13808 -0.87487,-2.20193 -1.66482,-2.99646 -0.21795,-0.21923 -0.46578,-0.39654 -0.69867,-0.59481 -1.9072,-0.9876 -0.70855,-0.50415 -4.51989,-0.67244 -1.22559,-0.0541 -2.45126,0.22659 -3.58512,0.75491 -0.43577,0.20304 -0.84371,0.47639 -1.26557,0.71458 -0.41606,0.30702 -0.84892,0.5863 -1.24819,0.92104 -1.48051,1.24124 -2.7897,2.8746 -3.55117,4.79849 -0.14394,0.36367 -0.23269,0.75255 -0.34904,1.12882 -0.0526,0.33877 -0.13598,0.67318 -0.15787,1.01632 -0.0445,0.69764 0.0899,1.52129 0.47963,2.08418 0.17469,0.25228 0.50264,0.46384 0.73202,0.63348 0.3955,0.20208 0.79198,0.39986 1.2128,0.52569 1.11584,0.33364 2.42627,0.0252 3.48237,0.12023 0.33072,-0.0654 0.39762,-0.11682 0.61634,-0.3781 0.76291,0.0987 -0.60814,-0.0795 -2.0893,-0.14975 -0.0173,-7.9e-4 0.0131,0.0365 0.019,0.055 0.0451,0.14054 0.0908,0.28083 0.13502,0.42175 0.2745,0.83953 0.54832,1.68162 0.73209,2.55432 0,0 1.9069,-0.0653 1.9069,-0.0653 z" />
      <path
         style="fill:#ffffff;stroke-width:0.150447"
         id="path1198"
         d="m 147.70502,141.75073 c -0.11591,0.0465 -0.2323,0.0916 -0.34772,0.13962 -0.12719,0.0529 -0.249,0.12307 -0.38008,0.16298 -0.13668,0.0416 -0.561,0.0759 -0.4192,0.0804 0.50615,0.0158 1.0207,0.0558 1.51847,-0.0461 0.17216,-0.0353 -0.34743,-0.0761 -0.50438,-0.16138 -0.16446,-0.0893 -0.2971,-0.23645 -0.44565,-0.35467 -0.27173,-0.43815 -0.44501,-0.59247 -0.47362,-1.15697 -0.0363,-0.71616 0.29707,-1.51063 0.90141,-1.83921 0.18375,-0.0999 0.4009,-0.095 0.60135,-0.14248 -1.90415,0.20625 -1.64788,-0.15313 -0.89146,0.53008 1.52184,1.37453 -0.63797,-0.31817 1.39557,1.20751 0,0 0.17886,-0.006 0.17886,-0.006 v 0 c 0.15503,-0.23831 0.39331,-0.43296 0.46509,-0.71496 0.0559,-0.21977 -0.0139,-0.47215 -0.1117,-0.67349 -0.54198,-1.11476 -2.34123,-0.5875 -3.00966,-0.62313 -0.19782,0.0806 -0.41675,0.11529 -0.59347,0.24181 -0.60631,0.43406 -0.94626,1.29279 -0.9226,2.07138 0.0187,0.61368 0.19492,0.80255 0.46322,1.30135 0.14737,0.1436 0.27565,0.315 0.44211,0.43081 0.81374,0.56609 2.45556,0.25971 3.00967,0.2364 0.2262,-0.01 0.55845,-0.15162 0.72157,-0.34662 0.0497,-0.0594 0.0589,-0.14788 0.0884,-0.22182 0,0 -1.68617,-0.11556 -1.68617,-0.11556 z" />
      <path
         style="fill:#ffffff;stroke-width:0.247815"
         id="path1424"
         d="m 135.08888,155.04715 c -0.0466,0.18888 -0.11484,0.3725 -0.1398,0.56663 -0.10299,0.80117 -0.0697,1.70979 -0.0387,2.50314 0.0223,0.56659 0.0475,1.13343 0.0944,1.69807 0.0484,0.58364 0.0815,1.17247 0.19151,1.74516 0.1051,0.54719 0.30066,1.06659 0.45099,1.59989 0.16703,0.44479 0.33407,0.88959 0.50111,1.33439 0,0 0.0702,-0.001 0.0702,-0.001 v 0 c 0.0463,-0.44793 0.0927,-0.89587 0.13901,-1.3438 0.0265,-0.53438 0.0844,-1.06793 0.0796,-1.60314 -0.005,-0.58188 -0.0738,-1.16078 -0.10969,-1.74125 -0.0976,-1.57821 -0.14859,-3.16285 -0.30831,-4.7347 0,0 -0.93026,-0.0231 -0.93026,-0.0231 z" />
      <path
         style="fill:#ffffff;stroke-width:0.247815"
         id="path1426"
         d="m 137.38208,157.80387 c 0.002,1.31821 -0.0141,0.97658 0.0661,2.48457 0.0288,0.54085 0.0282,1.08576 0.0983,1.6217 0.13573,1.03843 0.4182,1.92103 0.69539,2.91055 0,0 0.0702,-7.9e-4 0.0702,-7.9e-4 v 0 c 0.13014,-1.00468 0.27504,-1.89164 0.27448,-2.91817 -2.3e-4,-0.54202 -0.0624,-1.08174 -0.1011,-1.62196 -0.11126,-1.55282 -0.0741,-1.14599 -0.27333,-2.48684 0,0 -0.83006,0.0108 -0.83006,0.0108 z" />
      <path
         style="fill:#ffffff;stroke-width:0.247815"
         id="path1444"
         d="m 155.75136,157.81222 c 0.0577,0.94489 0.0222,0.58622 0.16349,1.69656 0.0509,0.39978 0.0687,0.80764 0.15912,1.19823 0.18754,0.80999 0.54945,1.56057 0.87027,2.30543 0,0 0.0702,-7.9e-4 0.0702,-7.9e-4 v 0 c 0.18984,-0.76104 0.42447,-1.52095 0.43495,-2.32583 0.005,-0.4044 -0.0713,-0.80526 -0.12773,-1.20455 -0.1379,-0.97593 -0.14458,-0.88788 -0.41542,-1.70514 0,0 -1.15486,0.0361 -1.15486,0.0361 z" />
      <path
         style="fill:#ffffff;stroke-width:0.247815"
         id="path1448"
         d="m 158.27118,155.68146 c -0.036,0.1774 -0.0975,0.3505 -0.10819,0.5322 -0.0294,0.50182 0.0801,1.92425 0.0995,2.32022 0.0262,0.53267 0.0347,1.0664 0.0643,1.59883 0.0298,0.53563 -0.002,1.08469 0.11423,1.60488 0.11432,0.51283 0.37786,0.96664 0.5668,1.44997 0,0 0.0702,2.3e-4 0.0702,2.3e-4 v 0 c 0.21359,-0.48313 0.50978,-0.92939 0.64074,-1.44939 0.13052,-0.51822 0.11099,-1.07195 0.12998,-1.61067 0.0398,-1.12992 -0.003,-2.83748 -0.32185,-3.93673 -0.0546,-0.18823 -0.16292,-0.35033 -0.24437,-0.5255 0,0 -1.01137,0.016 -1.01137,0.016 z" />
    </g>
  </g>
</svg>
