<?xml version="1.0" encoding="UTF-8" standalone="no"?>
<!-- Created with Inkscape (http://www.inkscape.org/) -->

<svg
   width="29.526157mm"
   height="25.418594mm"
   viewBox="0 0 29.526157 25.418594"
   version="1.1"
   id="svg5"
   xmlns:inkscape="http://www.inkscape.org/namespaces/inkscape"
   xmlns:sodipodi="http://sodipodi.sourceforge.net/DTD/sodipodi-0.dtd"
   xmlns="http://www.w3.org/2000/svg"
   xmlns:svg="http://www.w3.org/2000/svg">
  <sodipodi:namedview
     id="namedview7"
     pagecolor="#ffffff"
     bordercolor="#000000"
     borderopacity="0.25"
     inkscape:showpageshadow="2"
     inkscape:pageopacity="0.0"
     inkscape:pagecheckerboard="0"
     inkscape:deskcolor="#d1d1d1"
     inkscape:document-units="mm"
     showgrid="false" />
  <defs
     id="defs2" />
  <g
     inkscape:label="Layer 1"
     inkscape:groupmode="layer"
     id="layer1"
     transform="translate(-19.466488,-137.57483)">
    <g
       id="g1913"
       inkscape:export-filename="ico_vert.svg"
       inkscape:export-xdpi="110.11"
       inkscape:export-ydpi="110.11"
       style="fill:#ffffff">
      <path
         style="fill:#ffffff;stroke-width:0.264583"
         id="path1103"
         d="m 35.04308,151.77901 c -0.0772,0.0775 -0.88115,0.88459 -0.89574,0.89718 -0.76037,0.65657 -1.64474,1.14797 -2.65,1.30605 -0.38189,0.0601 -0.77251,0.0317 -1.15876,0.0475 0.75418,-0.0915 1.64291,0.165 2.26253,-0.27457 0.31985,-0.2269 -0.71916,-0.3469 -0.99854,-0.62211 -0.27624,-0.27213 -0.49098,-0.61663 -0.62741,-0.97961 -0.30138,-0.80178 -0.23881,-1.7195 0.0659,-2.50637 0.17095,-0.44141 0.4768,-0.81789 0.71521,-1.22683 0.83208,-0.7962 1.12511,-1.26134 2.25338,-1.62761 0.40253,-0.13067 1.68154,-0.17417 1.25836,-0.16886 -4.39072,0.055 -2.54349,-0.10509 -1.53497,0.62406 0.26198,0.1894 0.44169,0.47215 0.66253,0.70822 0.1211,0.29842 0.2943,0.58067 0.36328,0.89524 0.23837,1.08696 -0.14743,2.19268 -0.66558,3.13124 -0.18162,0.32899 -0.41537,0.6264 -0.61936,0.94201 -0.15915,0.24622 -0.31333,0.49562 -0.47,0.74342 0.22926,0.1948 0.45852,0.38959 0.68778,0.58438 0,0 0.45389,0.0436 0.45389,0.0436 v 0 c 0.691,-0.12994 1.38201,-0.25988 2.07301,-0.38982 0.30502,-0.25828 0.65447,-0.4718 0.91505,-0.77486 0.25304,-0.29427 0.42654,-0.65005 0.60608,-0.99413 0.54628,-1.04693 0.94806,-2.22242 0.71666,-3.42084 -0.0689,-0.35667 -0.24686,-0.68329 -0.3703,-1.02494 -0.22889,-0.28084 -0.41058,-0.60792 -0.68666,-0.84254 -1.53138,-1.30145 -3.9645,-0.75968 -5.68872,-0.72072 -0.41231,0.009 -0.82291,0.13151 -1.20159,0.29486 -1.10099,0.47494 -1.40355,0.96667 -2.2235,1.8174 -0.24877,0.44625 -0.56938,0.85946 -0.74633,1.33875 -0.48074,1.30213 -0.34441,2.83351 0.61379,3.89152 0.28037,0.30959 0.6015,0.66075 1.01174,0.73922 1.5047,0.28783 3.05601,0.22079 4.58402,0.33119 0.37138,-0.0469 0.752,-0.0459 1.11415,-0.14059 0.99214,-0.25948 2.11179,-1.09456 2.45621,-2.09942 0.0484,-0.14116 0.0337,-0.29654 0.0506,-0.44481 0,0 -2.32669,-0.0773 -2.32669,-0.0773 z" />
      <path
         style="fill:#ffffff;stroke-width:0.264583"
         id="path1105"
         d="m 34.39186,147.60304 c -0.10491,0.12653 -0.22032,0.24504 -0.31473,0.37959 -0.12195,0.17379 -0.21722,0.36495 -0.33271,0.5431 -0.23039,0.35538 -0.70364,1.04039 -0.96286,1.36268 -0.54723,0.68039 -0.52621,0.61113 -1.17043,1.15065 -1.08181,0.48951 -1.92595,0.78546 2.02131,0.15389 0.14482,-0.0232 -0.2795,-0.13023 -0.36017,-0.25271 -0.1014,-0.15392 -0.15476,-0.34624 -0.15579,-0.53056 -0.003,-0.59126 0.27931,-0.94309 0.55,-1.44026 0.4513,-0.44985 0.64793,-0.78227 1.30192,-0.92665 0.2155,-0.0476 0.88033,-0.003 0.66156,0.0255 -4.18189,0.55487 -2.37786,-0.6352 -2.29188,0.69186 0.0156,0.24095 -0.0519,0.48011 -0.0779,0.72016 -0.10715,0.281 -0.18643,0.57427 -0.32144,0.84299 -0.33044,0.65776 -1.0983,1.75081 -1.74873,2.13427 -0.18063,0.1065 -0.81001,0.18047 -0.60044,0.18758 0.83527,0.0283 1.66949,-0.082 2.50423,-0.12302 -0.16615,-0.10781 -0.37379,-0.16952 -0.49846,-0.32343 -0.72776,-0.89849 0.0613,-2.41762 0.70887,-3.10676 0.21887,-0.23293 0.49507,-0.40443 0.74261,-0.60664 0.26521,-0.11425 0.5128,-0.2845 0.79564,-0.34276 0.24958,-0.0514 1.01616,-0.0164 0.76416,0.0215 -0.74674,0.11211 -1.53237,-0.0124 -2.25625,0.20253 -0.14748,0.0438 0.19826,0.24823 0.2338,0.39791 0.1157,0.48708 -0.0955,0.82 -0.25891,1.26505 -0.15573,0.23673 -0.28492,0.49323 -0.4672,0.71018 -0.32453,0.38628 -0.84063,0.83089 -1.34267,0.98034 -0.21217,0.0632 -0.88301,0.0582 -0.66345,0.0299 2.25206,-0.29004 2.59158,0.3114 1.65704,-0.6743 -0.0377,-0.22035 -0.12521,-0.43781 -0.11322,-0.66104 0.025,-0.46525 0.28004,-1.04645 0.61191,-1.37432 0.16558,-0.16358 0.37279,-0.29676 0.59535,-0.36488 0.20266,-0.062 0.84546,-0.0422 0.6357,-0.0119 -0.66897,0.0966 -1.34445,0.14089 -2.01668,0.21134 0.0678,0.15827 0.17228,0.30549 0.20357,0.47483 0.17302,0.93632 -0.35107,2.27527 -0.92414,3.00228 -0.12593,0.15976 -0.29604,0.27908 -0.44406,0.41862 -1.52506,-0.0218 1.28419,0.0341 1.94481,-0.24241 0.21967,-0.0919 -0.33055,-0.35442 -0.42904,-0.57124 -0.24953,-0.54932 -0.26286,-1.18109 -0.14127,-1.76098 0.0639,-0.30472 0.2095,-0.58639 0.31424,-0.87959 0.20805,-0.16784 0.38007,-0.39452 0.62414,-0.50352 0.22086,-0.0986 0.9597,-0.1227 0.71924,-0.0964 -0.64058,0.07 -1.33325,-0.0395 -1.91972,0.22755 -0.18268,0.0832 0.27964,0.29859 0.36062,0.48225 0.25443,0.57705 0.14835,0.91987 0.10444,1.53195 -0.18559,0.72556 -0.39366,1.56764 -1.01756,2.06391 -0.14283,0.11361 -0.67974,0.21252 -0.49788,0.22776 2.99385,0.25087 2.62699,0.17056 1.62368,-0.40051 -0.11503,-0.20995 -0.27988,-0.39951 -0.3451,-0.62985 -0.34801,-1.22915 0.54385,-2.84003 1.38211,-3.68106 0.22564,-0.22639 0.50829,-0.38768 0.76243,-0.58152 0.24747,-0.0688 0.99925,-0.20627 0.7424,-0.20647 -0.63983,-5.3e-4 -1.30832,-0.0163 -1.90846,0.20552 -0.14676,0.0543 0.13669,0.29077 0.14298,0.44711 0.0101,0.25052 -0.0289,0.5043 -0.0951,0.74612 -0.18941,0.69195 -0.53097,1.24141 -0.86614,1.86778 -0.37624,0.54861 -0.63835,1.04835 -1.19229,1.43958 -0.18209,0.12861 -0.83377,0.23732 -0.61291,0.26766 0.67166,0.0922 1.37826,0.10476 2.0326,-0.0727 0.22308,-0.0605 -0.45126,-0.15247 -0.62007,-0.31034 -0.17606,-0.16464 -0.24916,-0.4127 -0.37374,-0.61905 -0.0244,-0.27741 -0.10508,-0.55559 -0.0732,-0.83225 0.0756,-0.6561 0.44968,-1.37031 0.81397,-1.89886 0.42424,-0.61553 0.82142,-1.06151 1.52108,-1.36012 0.27164,-0.11593 0.57681,-0.12726 0.86521,-0.19089 -0.59026,0.0389 -1.20908,-0.0686 -1.77079,0.11685 -0.16714,0.0552 0.32902,0.17629 0.41026,0.33244 0.0979,0.18818 0.10187,0.41811 0.0905,0.62993 -0.0554,1.02657 -0.58147,1.79412 -1.10977,2.62351 -0.20975,0.20021 -0.38931,0.43779 -0.62923,0.60061 -0.11784,0.08 -3.97418,1.47187 1.27374,0.21385 0.22128,-0.053 -0.45029,-0.11843 -0.63435,-0.25223 -0.5056,-0.36754 -0.46508,-0.66402 -0.59572,-1.22405 0.0362,-0.25705 0.0407,-0.52057 0.10847,-0.77117 0.11507,-0.42562 0.38227,-1.00141 0.74417,-1.28951 0.16239,-0.12928 0.77694,-0.2241 0.57085,-0.24872 -2.74873,-0.32839 -2.37397,-0.18288 -1.60918,0.30978 0.0754,0.17354 0.18291,0.3364 0.22607,0.52061 0.27792,1.18611 -0.23081,2.59444 -0.6991,3.67279 -0.78343,0.76979 -0.64798,0.5308 2.20107,0.12373 0.098,-0.014 -0.17963,-0.11173 -0.21621,-0.20375 -0.0712,-0.1791 -0.0936,-0.37816 -0.0917,-0.57088 0.006,-0.61871 0.17285,-0.9477 0.37076,-1.52843 0.27637,-0.49195 0.39226,-0.85125 0.87828,-1.16942 0.15281,-0.10005 0.69921,-0.1727 0.5168,-0.18215 -4.07287,-0.21095 -2.02489,-0.25018 -1.64833,0.34948 0.08,0.12743 0.0955,0.28539 0.14322,0.42808 -0.003,0.18229 0.0228,0.36753 -0.0101,0.54687 -0.15071,0.82274 -0.78082,1.66806 -1.54466,2.02048 -0.16598,0.0766 -0.35336,0.0937 -0.53003,0.1406 -1.46576,-0.12219 0.50607,0.0626 1.87132,-0.15146 0.0951,-0.0149 -0.15083,-0.13371 -0.18109,-0.22514 -0.0323,-0.0976 -0.0213,-0.2089 0.005,-0.30839 0.0779,-0.29935 0.26118,-0.47003 0.44944,-0.70277 0.30914,-0.25568 0.35286,-0.33611 0.72353,-0.47835 0.10452,-0.0401 0.43781,-0.076 0.32596,-0.081 -0.58567,-0.0261 -1.17247,0.009 -1.75866,0.0172 -0.139,0.002 0.27805,8e-4 0.41707,0.002 0.24132,0.001 0.48263,0.003 0.72395,0.005 0,0 0.29995,-0.0284 0.29995,-0.0284 v 0 c 0.16283,-0.0554 0.3375,-0.0839 0.4885,-0.16631 0.038,-0.0207 0.0849,-0.1209 0.0417,-0.12294 -0.77386,-0.0366 -1.55027,-0.0213 -2.32415,0.0151 -0.23814,0.0112 -0.69198,0.22497 -0.87622,0.3361 -0.15859,0.0956 -0.29993,0.21733 -0.44989,0.32599 -0.36973,0.3721 -0.77674,0.72877 -0.70682,1.31895 0.0163,0.13764 0.0152,0.36035 0.15117,0.38736 1.87977,0.37335 2.23755,0.31363 3.53004,0.19989 0.1833,-0.0743 0.37981,-0.1219 0.54992,-0.22279 0.7548,-0.44766 1.34069,-1.41703 1.423,-2.28621 0.0199,-0.21035 -0.0243,-0.42188 -0.0365,-0.63282 -0.0748,-0.18681 -0.27015,-0.87776 -0.59177,-0.91921 -0.78836,-0.10159 -2.41273,-0.49232 -3.25417,0.24533 -0.44783,0.39258 -0.57773,0.74468 -0.86564,1.26417 -0.0982,0.27266 -0.21508,0.53928 -0.29448,0.81798 -0.1019,0.35769 -0.22895,1.06038 -0.2228,1.45581 0.003,0.16549 -0.0873,0.46716 0.0765,0.4906 2.63627,0.37719 2.3098,0.59114 3.1671,-0.38616 0.1001,-0.19077 0.21708,-0.37359 0.30028,-0.5723 0.38688,-0.92403 0.67014,-2.36052 0.39794,-3.34213 -0.0649,-0.23404 -0.20941,-0.43828 -0.31412,-0.65741 -0.1628,-0.12244 -0.28549,-0.34946 -0.48842,-0.36732 -1.09391,-0.0963 -2.5879,-0.5219 -3.40955,0.41877 -0.54742,0.62671 -0.74859,1.4384 -0.83273,2.2429 0.0739,0.57609 0.0377,0.96687 0.41985,1.44342 0.135,0.16833 0.30161,0.36978 0.51641,0.39033 1.09869,0.1051 2.96167,0.39519 4.10461,-0.37951 0.27064,-0.18345 0.47924,-0.44489 0.71886,-0.66733 0.18592,-0.29639 0.40033,-0.5767 0.55774,-0.88916 0.38369,-0.7616 0.82869,-1.97181 0.28107,-2.77919 -0.73197,-1.07919 -3.38847,-0.50367 -3.78782,-0.51084 -0.25153,0.094 -0.5221,0.14775 -0.7546,0.28213 -1.11152,0.64244 -2.10225,2.22996 -2.27228,3.49173 -0.041,0.30398 0.0152,0.61327 0.0229,0.91991 0.0664,0.18837 0.3064,1.17424 0.69811,1.22415 1.05994,0.13506 2.95649,0.43054 4.0788,-0.3547 0.66608,-0.46603 0.82162,-0.86293 1.25169,-1.53654 0.40034,-0.85907 0.95165,-1.86906 0.72354,-2.86526 -0.36466,-1.59248 -2.70797,-1.18774 -3.84317,-0.5206 -0.23475,0.21019 -0.48951,0.39997 -0.70424,0.63057 -0.93428,1.00332 -1.86344,2.48011 -1.68984,3.913 0.0315,0.25977 0.1505,0.50124 0.22575,0.75185 0.13022,0.16577 0.18176,0.46908 0.39066,0.49732 0.83878,0.11337 2.90698,0.494 3.92572,-0.32939 0.70056,-0.56622 0.93676,-1.42375 1.0536,-2.27311 -0.0415,-0.72178 0.0234,-1.068 -0.33837,-1.71732 -0.12864,-0.23087 -0.24756,-0.55091 -0.50484,-0.61138 -0.0823,-0.0193 -2.81327,-0.65917 -3.71617,-0.007 -0.22389,0.16171 -0.3736,0.40684 -0.5604,0.61026 -0.12756,0.31195 -0.29252,0.61111 -0.38269,0.93585 -0.16602,0.5979 -0.20764,1.29803 -0.0908,1.91086 0.0473,0.24815 0.007,0.64095 0.24834,0.71602 2.3334,0.72619 2.43176,0.61918 3.86643,0.21906 0.16355,-0.16674 0.35455,-0.3104 0.49064,-0.50022 0.57012,-0.79519 0.95704,-2.36702 0.60202,-3.30956 -0.0879,-0.23329 -0.27588,-0.41529 -0.41382,-0.62294 -1.00664,-0.0912 -2.00984,-0.2363 -3.01991,-0.27365 -0.42371,-0.0157 -0.84341,0.30735 -1.09635,0.59744 -0.35734,0.40982 -0.63228,0.98955 -0.7195,1.52637 -0.0427,0.26302 -7.9e-4,0.53294 -0.001,0.7994 0.83325,1.5553 0.1934,0.76896 3.65069,0.92803 0.92743,0.0427 1.7571,-0.5524 2.30249,-1.24957 0.18665,-0.23858 0.30757,-0.52194 0.46135,-0.78292 0.1714,-0.56722 0.38535,-0.93205 0.19272,-1.53118 -0.46283,-1.43947 -2.66739,-0.79786 -3.6835,-0.84458 -0.21043,-0.01 -0.4264,0.0292 -0.6234,0.10377 -0.26346,0.0998 -0.492,0.27461 -0.73801,0.41192 -0.25043,0.22162 -0.52628,0.41748 -0.75129,0.66487 -0.75461,0.82962 -1.53269,2.35016 -1.0949,3.50046 0.0755,0.19835 0.25063,0.34256 0.37594,0.51384 1.22737,0.028 2.45589,0.14413 3.68209,0.0839 0.5034,-0.0247 1.05625,-0.56972 1.33888,-0.90296 0.20746,-0.24462 0.38197,-0.51656 0.54761,-0.79123 0.52577,-0.87182 0.47018,-0.8865 0.7686,-1.83327 0.006,-0.13745 0.18208,-1.42688 -0.23848,-1.54284 -1.10565,-0.30487 -2.27964,-0.26688 -3.42474,-0.33131 -0.21013,-0.0118 -0.42684,0.0269 -0.62282,0.10358 -0.67211,0.26301 -0.85638,0.5762 -1.35055,1.09099 -0.32428,0.58601 -0.62145,0.95986 -0.6628,1.65238 -0.014,0.23507 0.0348,0.47679 0.12054,0.69612 0.57791,1.47829 3.29721,1.06087 4.39821,0.10541 0.15604,-0.1854 0.32603,-0.35992 0.46811,-0.55622 0.50709,-0.70063 1.09404,-1.78994 1.03001,-2.68829 -0.01,-0.14039 -0.0775,-0.27061 -0.11627,-0.40592 0,0 -1.61809,-0.0244 -1.61809,-0.0244 z" />
      <path
         style="fill:#ffffff;stroke-width:0.264583"
         id="path1904"
         d="m 43.443186,157.40119 c -1.012304,0.58289 -1.838301,1.43102 -2.788214,2.09892 -0.521091,0.36638 -1.049917,0.72695 -1.613,1.02479 -1.821286,0.96336 -2.434355,1.03242 -4.433933,1.62445 -0.840176,0.12083 -1.67714,0.26661 -2.520526,0.36249 -0.145468,0.0165 0.559644,-0.0757 0.421396,-0.12384 -0.81703,-0.28477 -1.71219,-0.30756 -2.523307,-0.60875 -1.644285,-0.61057 -3.27641,-1.67258 -4.476287,-2.95541 -0.641028,-0.68534 -1.109517,-1.51374 -1.664275,-2.27062 -0.366635,-0.87586 -0.825311,-1.71866 -1.099907,-2.62759 -1.08499,-3.5914 -0.675201,-7.77784 1.284923,-11.00564 0.473464,-0.77967 1.125981,-1.4354 1.688972,-2.1531 0.707719,-0.53744 1.343092,-1.18663 2.123155,-1.61232 1.614474,-0.88101 3.474363,-1.2177 5.294368,-1.17872 0.115994,0.002 0.03792,0.27326 0.145746,0.31608 7.379512,2.93118 -1.615223,-1.32514 5.484497,2.17255 0.772026,0.53767 1.585249,1.02056 2.316073,1.61302 1.920137,1.55659 3.57261,3.49315 4.250685,5.91837 0.550039,1.9673 0.301021,2.51638 0.08943,4.50072 -0.439862,2.06615 -1.471803,3.90504 -2.325875,5.81166 -0.213646,0.47695 -0.410729,0.96115 -0.616096,1.44172 0,0 0.07975,0.006 0.07975,0.006 v 0 c 0.721799,-0.44629 1.485111,-0.83153 2.165397,-1.33886 0.677048,-0.5049 1.33427,-1.05128 1.891125,-1.68629 1.379456,-1.57305 1.437056,-2.28596 2.129777,-4.19967 0.215173,-2.07362 0.469847,-2.61338 -0.109622,-4.66627 -0.21922,-0.77663 -0.521806,-1.53958 -0.933037,-2.23391 -0.818383,-1.38178 -2.381078,-2.88211 -3.622061,-3.84597 -0.775476,-0.60231 -1.630397,-1.09468 -2.445594,-1.64202 -1.704425,-0.83308 -3.697949,-1.97315 -5.624222,-2.25313 -1.846365,-0.26836 -3.722669,-0.31734 -5.588436,-0.31495 -1.838243,0.002 -3.683024,0.3951 -5.283841,1.33408 -0.768658,0.45087 -1.384499,1.12233 -2.076748,1.6835 -1.502892,1.99961 -2.041863,2.3859 -2.852352,4.8215 -0.912126,2.74104 -0.985202,5.8335 -0.225334,8.61624 0.253141,0.92703 0.683352,1.79636 1.025028,2.69455 1.391029,2.13037 1.45877,2.67594 3.558165,4.16822 1.359934,0.96665 3.221308,1.80719 4.907217,1.96257 1.866218,0.17201 3.749162,0.16143 5.62174,0.0852 0.832628,-0.0339 1.643586,-0.27621 2.465379,-0.41431 0.767242,-0.24883 1.55371,-0.44474 2.301722,-0.74649 1.331894,-0.53729 2.388026,-1.16704 3.507663,-2.04337 0.617366,-0.48321 1.326502,-1.06291 1.633212,-1.83039 0.05364,-0.13423 -0.01,-0.28893 -0.01495,-0.4334 0,0 -1.547815,-0.0719 -1.547815,-0.0719 z" />
    </g>
  </g>
</svg>
