<?xml version="1.0" encoding="UTF-8" standalone="no"?>
<!-- Created with Inkscape (http://www.inkscape.org/) -->

<svg
   width="30.76786mm"
   height="29.590904mm"
   viewBox="0 0 30.76786 29.590904"
   version="1.1"
   id="svg5"
   xmlns:inkscape="http://www.inkscape.org/namespaces/inkscape"
   xmlns:sodipodi="http://sodipodi.sourceforge.net/DTD/sodipodi-0.dtd"
   xmlns="http://www.w3.org/2000/svg"
   xmlns:svg="http://www.w3.org/2000/svg">
  <sodipodi:namedview
     id="namedview7"
     pagecolor="#ffffff"
     bordercolor="#000000"
     borderopacity="0.25"
     inkscape:showpageshadow="2"
     inkscape:pageopacity="0.0"
     inkscape:pagecheckerboard="0"
     inkscape:deskcolor="#d1d1d1"
     inkscape:document-units="mm"
     showgrid="false" />
  <defs
     id="defs2" />
  <g
     inkscape:label="Layer 1"
     inkscape:groupmode="layer"
     id="layer1"
     transform="translate(-58.621149,-98.419103)">
    <g
       id="g1960"
       transform="matrix(0.74599546,0,0,0.74599546,12.345561,47.600235)"
       inkscape:export-filename="ico_del.svg"
       inkscape:export-xdpi="100.93951"
       inkscape:export-ydpi="100.93951"
       style="fill:#ffffff">
      <path
         style="fill:#ffffff;stroke-width:0.264583"
         id="path1200"
         d="m 66.696272,82.394913 c 0.01691,0.110258 0.02679,0.22183 0.05075,0.330775 0.04037,0.183578 0.10327,0.361793 0.141989,0.545729 0.176903,0.840388 0.177797,1.153676 0.283813,2.093545 0.313664,2.780742 0.108469,0.787834 0.394788,3.738729 0.267528,3.293443 0.496996,6.589419 0.797888,9.880087 0.160845,1.602562 0.39098,3.196312 0.755909,4.765302 0.140846,0.59082 0.295619,1.19582 0.628301,1.71296 0.211444,0.32869 0.321098,0.41612 0.589544,0.69617 0.955887,0.7948 2.190949,0.91996 3.381706,1.03823 1.716596,0.12946 3.436059,0.21645 5.153951,0.32703 1.773669,0.13778 3.548727,0.23456 5.327698,0.25075 2.605164,0.0486 5.208643,-0.0372 7.812449,-0.0943 0.623055,-0.0262 1.24909,-0.0173 1.870692,-0.0721 0.510781,-0.0704 0.808612,-0.2156 1.193628,-0.55738 0.689861,-0.79358 0.838332,-1.89139 1.008338,-2.89305 0.262495,-1.94157 0.493971,-3.88726 0.777822,-5.825858 0.380907,-2.237489 0.777356,-4.471395 1.053621,-6.7247 0.08773,-0.831392 0.198599,-1.660869 0.237463,-2.496661 0.02532,-0.544381 0.02696,-1.092097 0.03969,-1.637065 0.0051,-0.483692 -0.0065,-0.96076 0.06371,-1.440124 0.08655,-0.415616 0.186124,-0.827289 0.248862,-1.247757 0.04699,-0.422494 0.10836,-0.843952 0.18728,-1.261726 0.02151,-0.173355 0.07988,-0.337831 0.116318,-0.507645 0.04252,-0.173464 0.110559,-0.338926 0.15761,-0.511117 -0.0011,-0.01627 0.0057,-0.03522 -0.0033,-0.04884 -0.03708,-0.05617 -0.192233,-0.06291 -0.217326,-0.06502 -0.190175,-0.01598 -0.380963,-0.02371 -0.571572,-0.0332 -0.258241,-0.01286 -0.516633,-0.02257 -0.774949,-0.03384 0,0 -0.547687,-0.01754 -0.547687,-0.01754 v 0 c -0.260337,-0.0052 -0.520644,-0.01204 -0.78101,-0.01558 -0.0717,-0.0011 -0.739328,-0.08937 -0.87153,0.09642 -0.06581,0.17712 -0.111183,0.360508 -0.168415,0.540475 -0.04617,0.176025 -0.07154,0.356256 -0.09505,0.536594 -0.05481,0.422143 -0.109546,0.844478 -0.171916,1.265505 -0.06268,0.418599 -0.143034,0.833762 -0.222726,1.249399 -0.07154,0.49139 -0.07107,0.988211 -0.07594,1.483932 -0.042,1.369049 -0.145206,2.736035 -0.251529,4.101356 -0.241983,2.249297 -0.627782,4.47748 -0.908193,6.721853 -0.117652,1.072827 -0.236762,2.145779 -0.323625,3.221679 -0.0875,1.0837 -0.03655,0.74166 -0.141703,1.7975 -0.02656,0.26667 -0.06,0.53262 -0.09,0.79893 -0.110014,0.72955 -0.190058,1.52992 -0.54346,2.19379 -0.123558,0.23211 -0.196334,0.27671 -0.377026,0.45119 -0.07239,0.0448 -0.140732,0.0969 -0.217183,0.13439 -0.322027,0.15777 -0.692991,0.19651 -1.045083,0.21916 -0.630833,0.0203 -1.261774,0.0372 -1.89262,0.0571 -0.892863,0.0251 -1.785713,0.0536 -2.678676,0.0747 -0.290581,0.007 -1.162413,0.012 -0.871805,0.0177 0.771911,0.015 1.544101,0.007 2.316152,0.0105 -1.759476,-0.005 -3.514563,-0.10495 -5.268682,-0.24029 -1.702512,-0.11031 -3.40628,-0.20142 -5.107932,-0.32485 -1.13741,-0.0949 -2.325801,-0.16803 -3.306157,-0.81586 -0.107984,-0.0949 -0.222535,-0.18272 -0.323953,-0.28457 -0.532686,-0.53494 -0.807982,-1.22355 -1.02838,-1.93267 -0.453252,-1.54387 -0.745577,-3.12875 -0.990576,-4.717768 -0.497951,-3.276267 -0.869868,-6.569887 -1.189741,-9.868029 -0.05915,-0.65218 -0.266134,-3.050747 -0.369306,-3.755255 -0.131101,-0.895218 -0.333401,-1.917986 -0.827389,-2.70509 -0.08066,-0.128524 -0.195527,-0.232095 -0.293293,-0.348144 0,0 -2.042284,0.124616 -2.042284,0.124616 z" />
      <path
         style="fill:#ffffff;stroke-width:0.264583"
         id="path1212"
         d="m 72.536184,82.503099 c 0.004,0.260453 -2.65e-4,0.521166 0.01188,0.781365 0.05928,1.263517 0.14473,1.964436 0.282601,3.290763 0.289698,2.786914 0.620361,5.568331 0.955535,8.35007 0.0601,0.367424 0.836732,5.150213 0.943232,5.671693 0.153043,0.7494 0.365664,1.48538 0.548497,2.22807 0,0 0.07999,-10e-4 0.07999,-10e-4 v 0 c 2.64e-4,-0.74487 0.02969,-1.49029 0.0011,-2.23461 -0.07273,-1.89595 -0.335267,-3.781559 -0.404119,-5.677664 -0.367657,-3.301748 -0.297738,-2.612321 -0.631357,-5.844661 -0.08615,-0.834657 -0.170148,-1.669537 -0.254793,-2.504348 -0.133938,-1.320953 -0.173247,-2.048668 -0.402866,-3.292522 -0.04854,-0.262903 -0.12488,-0.519906 -0.187319,-0.779857 0,0 -0.942425,0.01267 -0.942425,0.01267 z" />
      <path
         style="fill:#ffffff;stroke-width:0.264583"
         id="path1214"
         d="m 77.404729,82.49749 c -0.02003,0.189785 -0.05918,0.378518 -0.06009,0.569357 -0.0016,0.357367 0.02879,0.71424 0.05225,1.070842 0.08817,1.340176 0.215519,2.666215 0.331465,4.005157 0.337876,3.90176 0.109694,1.452372 0.510045,5.537266 0.196477,2.013479 0.315198,3.42283 0.578705,5.408578 0.0938,0.706864 0.170209,1.41794 0.319762,2.11515 0.11933,0.55629 0.323326,1.09098 0.484989,1.63648 0,0 0.08,-8e-4 0.08,-8e-4 v 0 c 0.06989,-0.54741 0.183745,-1.091 0.209672,-1.64225 0.03316,-0.70512 -0.0096,-1.411924 -0.03284,-2.117438 -0.06326,-1.915602 -0.181499,-3.486044 -0.306219,-5.410377 -0.262659,-4.360244 -0.07886,-1.385531 -0.346294,-5.538047 -0.09905,-1.537946 -0.150553,-2.517809 -0.275421,-4.005201 -0.02998,-0.357117 -0.05157,-0.715587 -0.10451,-1.070031 -0.02878,-0.192701 -0.09336,-0.378325 -0.140044,-0.567489 0,0 -1.301467,0.0087 -1.301467,0.0087 z" />
      <path
         style="fill:#ffffff;stroke-width:0.264583"
         id="path1216"
         d="m 82.50172,82.867891 c -0.0061,0.329784 -0.02432,0.659569 -0.01823,0.989356 0.02273,1.232093 0.10837,2.462244 0.15313,3.693734 0.0388,1.067573 0.125206,4.109889 0.173342,5.139468 0.04033,0.862668 0.10102,1.724263 0.151529,2.586392 0.271502,2.945643 0.02347,1.550974 0.690581,4.193169 0,0 0.08,-2.48e-4 0.08,-2.48e-4 v 0 c 0.50356,-2.651498 0.326456,-1.255242 0.482256,-4.194697 0.07784,-2.576322 0.12333,-5.150238 0.127558,-7.727857 0.0011,-0.668173 -0.003,-2.87424 -0.02917,-3.693697 -0.01048,-0.328179 -0.03901,-0.655534 -0.05852,-0.9833 0,0 -1.752468,-0.0024 -1.752468,-0.0024 z" />
      <path
         style="fill:#ffffff;stroke-width:0.264583"
         id="path1218"
         d="m 88.145788,82.775067 c -0.06891,0.24285 -0.165872,0.479438 -0.206737,0.728546 -0.06931,0.422508 -0.09031,0.851667 -0.122529,1.278609 -0.110117,1.45908 -0.16951,2.921612 -0.271491,4.381281 -0.08156,1.167392 -0.359611,4.601929 -0.449139,5.720299 -0.02955,0.347097 -0.421558,4.733052 -0.40055,5.272178 0.02601,0.66765 0.221885,1.31777 0.332828,1.97665 0,0 0.08,8e-4 0.08,8e-4 v 0 c 0.250333,-0.65516 0.581515,-1.2849 0.751004,-1.96546 0.165328,-0.66385 0.616543,-4.75611 0.676326,-5.270486 0.302619,-2.719179 0.590441,-5.437973 0.797052,-8.166515 0.02471,-0.326383 0.183798,-2.628784 0.179041,-3.212545 -0.0019,-0.24153 -0.04621,-0.480859 -0.06932,-0.721288 0,0 -1.296482,-0.02212 -1.296482,-0.02212 z" />
      <path
         style="fill:#ffffff;stroke-width:0.264583"
         id="path1222"
         d="m 92.133535,81.766303 c -0.07288,0.245123 -0.170611,0.484193 -0.218628,0.735372 -0.115451,0.603938 -0.271287,2.441353 -0.311986,2.913579 -0.210613,2.443723 -0.372676,4.890516 -0.532386,7.337959 -0.04237,3.404653 -0.02606,1.748417 -0.0503,4.968698 0,0 0.07999,7.94e-4 0.07999,7.94e-4 v 0 c 0.649658,-3.212444 0.322879,-1.559492 0.977829,-4.959348 0.336047,-2.441096 0.67251,-4.881329 0.884309,-7.337231 0.05012,-0.581134 0.170108,-2.220796 0.14351,-2.915119 -0.0095,-0.247163 -0.06843,-0.489934 -0.102648,-0.734901 0,0 -0.869691,-0.0098 -0.869691,-0.0098 z" />
      <path
         style="fill:#ffffff;stroke-width:0.264583"
         id="path1226"
         d="m 97.123566,81.685846 c -0.705167,0.04845 -1.410779,0.08785 -2.11573,0.139785 -0.818626,0.06222 -1.638702,0.100216 -2.459439,0.117528 -1.482535,0.01892 -0.876142,0.0098 3.091439,2.64e-4 0.124997,-2.64e-4 -0.249989,-0.0019 -0.374981,-0.003 -0.404762,-0.0033 -0.809503,-0.0072 -1.214247,-0.01225 -0.754044,-0.01172 -1.508273,-0.01857 -2.261645,-0.05433 -0.689213,-0.03418 -1.376833,-0.09264 -2.065385,-0.137295 -1.8976,-0.146671 -3.796646,-0.07895 -5.700615,-0.07783 -0.73897,0.0419 -1.471953,0.152617 -2.20201,0.270235 -1.047771,0.204523 -2.097662,0.393986 -3.153185,0.554024 -1.015561,0.156938 -2.034032,0.291447 -3.061711,0.324774 -1.724112,-0.009 1.155652,0.0069 3.134939,-0.0089 0.127413,-0.0011 -0.25473,-0.0091 -0.381828,-0.01812 -0.427204,-0.03037 -0.852328,-0.08956 -1.277162,-0.142102 -1.003739,-0.134996 -2.014442,-0.204362 -3.022359,-0.299159 -0.739061,-0.06933 -1.473375,-0.181724 -2.200429,-0.330534 -0.356801,-0.07457 -0.711207,-0.159776 -1.061455,-0.260646 -0.335666,-0.107942 -0.674132,-0.205814 -1.017466,-0.286131 -0.298198,-0.06489 -0.599718,-0.112667 -0.90266,-0.14863 -1.470848,-0.10922 -3.040772,-0.326421 -4.487505,0.07155 -0.239014,0.06931 -0.484593,0.131406 -0.733873,0.143905 -0.179972,0.01111 -0.360164,0.01884 -0.540369,0.02516 -1.578676,-0.05639 5.232919,0.0076 3.587187,-0.0072 -0.01894,0.0047 -0.03791,0.0093 -0.05686,0.014 -0.01926,-7.94e-4 -0.03885,-0.0058 -0.05781,-0.0024 -0.02159,0.004 -0.03958,0.02045 -0.06118,0.0245 -0.124986,0.02328 -0.161205,-0.12287 -0.199517,-0.206687 -0.161948,-0.553784 -0.201525,-1.136724 -0.24992,-1.709428 -0.05517,-0.634492 -0.09317,-1.270741 -0.114305,-1.907284 -0.01942,-0.430741 -0.176773,-0.829757 -0.298122,-1.237204 -0.08229,-0.255739 -0.04722,-0.147228 0.151339,-0.167257 0.08623,-0.0087 0.168534,-0.04081 0.253691,-0.05693 0.12932,-0.02447 0.259662,-0.04318 0.389495,-0.06477 1.360506,-0.161049 2.724637,-0.332393 4.094578,-0.390636 0.346004,-0.01471 0.692491,-0.01384 1.038738,-0.02074 -0.73556,0.01177 -1.474631,-0.03745 -2.206677,0.0353 -0.37456,0.03723 0.751631,0.04297 1.126913,0.07202 1.284642,0.09943 2.556192,0.276149 3.827081,0.483767 1.450954,0.262655 2.897778,0.547203 4.354285,0.777925 0.8552,0.11792 1.715813,0.257964 2.581775,0.261787 4.235379,0.01871 2.886562,0.151006 4.865862,-0.07652 1.390732,-0.271695 2.700116,-0.832813 4.042929,-1.270413 1.634617,-0.484002 3.304746,-0.83671 4.978627,-1.153707 0.675614,-0.115181 1.350502,-0.248219 2.033905,-0.31096 0.198218,-0.0182 0.397113,-0.03012 0.596088,-0.03576 0.189661,-0.0054 0.758934,0.0011 0.569203,0.0028 -1.082849,0.01008 -2.165744,0.01479 -3.248617,0.02217 0.663353,0.05136 1.328602,0.162377 1.950688,0.406773 0.384445,0.151032 0.498883,0.231052 0.851143,0.429715 0.623737,0.400854 1.02239,0.808495 1.301354,1.493668 0.185594,0.522084 0.149383,1.063845 0.09293,1.604023 -0.08964,0.789816 -0.273827,1.564153 -0.445833,2.338901 -0.132289,0.547989 -0.277389,1.09374 -0.444836,1.632146 -0.04832,0.155686 -0.101603,0.30998 -0.16346,0.46084 -0.0068,0.01667 -0.03807,0.04354 -0.02117,0.04976 0.08556,0.03145 0.180176,0.02788 0.270264,0.04181 0.443738,0.02217 0.887476,0.04434 1.331214,0.0665 0,0 0.739008,0.02606 0.739008,0.02606 v 0 c 0.44896,0.008 0.89792,0.01593 1.34688,0.02389 0.0982,-0.0088 0.19908,-0.0019 0.29448,-0.02648 0.003,-7.94e-4 0.12233,-0.526079 0.14579,-0.536022 0.13344,-0.549994 0.26311,-1.10083 0.38182,-1.654249 0.17312,-0.789411 0.35296,-1.578446 0.47032,-2.37857 0.0753,-0.605115 0.11462,-1.204568 -0.0899,-1.791753 -0.0878,-0.241887 -0.13094,-0.393006 -0.26119,-0.61841 -0.26738,-0.462746 -0.6853,-0.815258 -1.10598,-1.132017 -0.43021,-0.265348 -0.86226,-0.524698 -1.3415,-0.694939 -0.484081,-0.171966 -0.999314,-0.251116 -1.505296,-0.322905 -1.632828,-0.01286 -3.269961,-0.128651 -4.89862,-0.01135 -0.853749,0.06149 -1.693201,0.244358 -2.53207,0.404209 -1.660184,0.340246 -3.318341,0.704292 -4.939308,1.203055 -1.346157,0.432655 -2.667955,0.993254 -4.077716,1.183309 -1.591736,0.111623 -0.915704,0.04932 2.472838,0.05636 0.211596,5.3e-4 -0.423296,-7.93e-4 -0.634714,-0.0096 -0.438229,-0.01791 -0.88116,-0.06122 -1.316508,-0.112376 -0.225391,-0.02648 -0.450064,-0.05874 -0.675098,-0.08811 -1.501566,-0.222869 -2.995459,-0.491985 -4.490442,-0.75479 -3.160628,-0.520681 -6.343743,-0.758399 -9.553953,-0.615135 -1.714394,0.06448 -3.428172,0.211733 -5.12518,0.466913 -0.510739,0.10904 -1.038379,0.156392 -1.035805,0.79616 -0.01767,0.405064 -0.09518,0.807606 -0.06639,1.214821 0.05408,0.638638 0.08947,1.278742 0.136795,1.917896 0.05358,0.603935 0.08916,1.213287 0.208129,1.808512 0.05253,0.190852 0.09438,0.473072 0.26189,0.607824 0.03289,0.02646 0.09099,0.0045 0.118057,0.0458 1.428821,0.04305 2.866435,0.138464 4.2887,-0.008 0.177228,-0.01397 0.354909,-0.02701 0.529712,-0.06105 0.245475,-0.05652 0.489868,-0.119449 0.737893,-0.163338 0.102066,-0.01167 0.203319,-0.02643 0.306277,-0.02625 0.02706,4.2e-5 0.108148,0.0035 0.0811,0.0034 -3.798652,-0.0092 -5.118974,-0.07628 -3.754531,-0.0083 0.307716,0.01905 0.614262,0.04832 0.918584,0.09931 0.338566,0.06271 0.675838,0.138047 1.001826,0.250357 0.362048,0.121028 0.73043,0.217757 1.104585,0.29414 0.750493,0.155429 1.506619,0.288584 2.270146,0.361378 1.000101,0.104807 2.005613,0.15552 3.002471,0.291817 0.420962,0.05409 0.841597,0.111797 1.263012,0.162264 0.124412,0.0149 0.248264,0.04058 0.373557,0.04195 1.395915,0.01529 2.791989,0.0097 4.187989,0.008 0.122164,-1.49e-4 0.24416,-0.009 0.366242,-0.01352 1.014362,-0.07129 2.021162,-0.216365 3.025888,-0.370456 1.063914,-0.170267 2.121988,-0.372457 3.185036,-0.54756 0.742876,-0.104474 1.489191,-0.206487 2.240846,-0.209034 -6.817291,-0.0051 -3.572309,-0.0597 -2.021922,0.05522 0.687134,0.03765 1.372431,0.09538 2.058879,0.142508 0.761296,0.03857 1.522786,0.05722 2.285071,0.0643 2.057961,0.03421 4.117753,0.04524 6.175264,0.01019 0.822436,-0.02959 1.644179,-0.07351 2.465009,-0.133231 0.715283,-0.04841 1.431417,-0.08478 2.145927,-0.143672 0,0 -3.877183,-0.57763 -3.877183,-0.57763 z" />
      <path
         style="fill:#ffffff;stroke-width:0.264583"
         id="path1252"
         d="m 73.632832,75.583549 c -0.01175,-0.816464 -0.09114,-1.630765 -0.140764,-2.445771 -0.0054,-0.03471 -0.0301,-0.518012 0.0013,-0.538208 0.03236,-0.02088 0.06398,0.04382 0.09947,0.05874 0.06858,0.02883 0.285623,0.06913 0.211283,0.07191 -0.913368,0.03409 -1.827943,0.01503 -2.741914,0.02254 2.495872,0.249997 5.014068,0.249055 7.51682,0.09756 1.256535,-0.130405 2.506313,-0.379237 3.637187,-0.963599 0.736137,-0.380389 0.993683,-0.602938 1.668508,-1.087025 0.410474,-0.326374 1.224436,-0.982016 1.650177,-1.28652 0.278656,-0.199305 0.544809,-0.424913 0.854977,-0.570407 0.326123,-0.152977 0.677669,-0.259969 1.033587,-0.315476 0.367046,-0.05724 1.47524,-0.107265 1.114277,-0.0195 -0.699114,0.170005 -1.427732,0.179536 -2.141596,0.269306 0.96216,0.597747 1.004864,0.510138 1.725583,1.433563 0.251498,0.322231 0.450387,0.682265 0.674408,1.024167 0.229743,0.350645 0.375049,0.773301 0.686879,1.053471 0.44717,0.40177 1.02435,0.629467 1.536525,0.9442 0,0 0.323647,-0.01016 0.323647,-0.01016 v 0 c 0.297238,-0.348152 0.757875,-0.606677 0.891717,-1.044451 0.110874,-0.362646 -0.102132,-0.757438 -0.231878,-1.113766 -0.269674,-0.740616 -0.798132,-1.505082 -1.38153,-2.032365 -0.294463,-0.266142 -0.652346,-0.452332 -0.978519,-0.678498 -0.356341,-0.02729 -3.913709,-0.562708 -5.332058,-0.212759 -0.826106,0.203824 -1.215221,0.507534 -1.897145,0.981464 -0.295074,0.205071 -0.581284,0.422614 -0.871926,0.633923 -0.300453,0.208743 -0.600908,0.417489 -0.901361,0.626232 -0.646221,0.412842 -1.035558,0.692213 -1.726211,1.016823 -1.111734,0.52252 -2.324282,0.755303 -3.540448,0.862192 -1.606089,0.08371 -1.356624,0.05248 1.359758,0.06546 0.28195,0.0013 -0.563933,-0.0035 -0.845778,-0.0113 -0.545362,-0.01506 -0.764148,-0.03167 -1.282038,-0.07893 -0.156065,-0.01423 -0.311854,-0.03134 -0.467781,-0.04701 -1.142693,-0.0098 -2.285564,-0.05177 -3.428079,-0.02938 -0.09421,0.0019 -0.191522,0.04122 -0.263748,0.101743 -0.217392,0.182147 -0.104066,0.576348 -0.08971,0.804776 0.09949,0.808146 0.179541,1.618189 0.256252,2.428745 0,0 3.020224,-0.01172 3.020224,-0.01172 z" />
    </g>
  </g>
</svg>
