<?xml version="1.0" encoding="UTF-8" standalone="no"?>
<!-- Created with Inkscape (http://www.inkscape.org/) -->

<svg
   width="32.076004mm"
   height="30.9599mm"
   viewBox="0 0 32.076004 30.9599"
   version="1.1"
   id="svg5"
   xmlns:inkscape="http://www.inkscape.org/namespaces/inkscape"
   xmlns:sodipodi="http://sodipodi.sourceforge.net/DTD/sodipodi-0.dtd"
   xmlns="http://www.w3.org/2000/svg"
   xmlns:svg="http://www.w3.org/2000/svg">
  <sodipodi:namedview
     id="namedview7"
     pagecolor="#ffffff"
     bordercolor="#000000"
     borderopacity="0.25"
     inkscape:showpageshadow="2"
     inkscape:pageopacity="0.0"
     inkscape:pagecheckerboard="0"
     inkscape:deskcolor="#d1d1d1"
     inkscape:document-units="mm"
     showgrid="false" />
  <defs
     id="defs2" />
  <g
     inkscape:label="Layer 1"
     inkscape:groupmode="layer"
     id="layer1"
     transform="translate(-56.002397,-134.25308)">
    <g
       id="g1927"
       transform="matrix(1,0,0,1.0854142,-62.369771,-11.731568)"
       inkscape:export-filename="ico_scrib.svg"
       inkscape:export-xdpi="101.35925"
       inkscape:export-ydpi="101.35925"
       style="fill:#ffffff">
      <path
         style="fill:#ffffff;stroke-width:0.205791"
         id="path1075"
         d="m 123.42497,134.49695 c -0.0892,0.0721 -0.18125,0.1391 -0.26761,0.21639 -0.50576,0.45266 -0.96334,0.98712 -1.41868,1.51327 -0.47025,0.54338 -0.86046,1.01088 -1.32559,1.56345 -0.36383,0.48178 -0.77118,0.91094 -1.13591,1.39171 -0.1202,0.15845 -0.24261,0.31693 -0.34129,0.49684 -0.0491,0.0896 -0.12517,0.19959 -0.0969,0.3022 0.0253,0.0922 0.13544,0.12817 0.21376,0.12231 0.4023,-0.0302 0.79673,-0.15195 1.19509,-0.22792 0.86174,-0.48931 1.71804,-0.99514 2.60002,-1.42718 0.30106,-0.14747 0.60189,-0.29798 0.91111,-0.41659 0.25588,-0.0981 0.5231,-0.14425 0.7813,-0.23253 0.0863,-0.0295 -0.17647,0.0373 -0.2647,0.0559 0.0483,0.0951 0.14182,0.17289 0.14492,0.28523 0.0127,0.45965 -0.40982,1.27803 -0.54808,1.54336 -0.22643,0.43449 -0.47382,0.85212 -0.72754,1.26274 -0.6455,1.04465 -1.44229,2.18199 -2.12681,3.18187 -0.32906,0.46417 -1.53339,2.15288 -1.90001,2.70541 -0.19575,0.295 -0.39461,0.58882 -0.56422,0.90778 -0.0778,0.14642 -0.21611,0.31269 -0.17378,0.48007 0.0342,0.13531 0.21396,0.14519 0.32722,0.12659 0.59269,-0.0974 1.16897,-0.31225 1.75345,-0.46838 2.07266,-1.61367 4.1671,-3.18445 6.352,-4.55528 0.60104,-0.3771 1.19782,-0.76895 1.82019,-1.08828 0.51583,-0.26467 1.05848,-0.4402 1.58772,-0.6603 0.35596,-0.0365 1.33809,-0.39929 1.06787,-0.10937 -0.34806,0.37343 -0.96334,0.0776 -1.34144,0.40288 -0.27818,0.23938 -0.26724,0.77533 -0.44412,1.13357 -0.38845,0.7868 -0.81508,1.5442 -1.24821,2.2942 -1.35378,2.3442 -2.02684,3.31172 -3.48995,5.55996 -0.93933,1.42514 -1.92297,2.80463 -2.86439,4.22763 -0.23215,0.35091 -0.50392,0.67123 -0.67973,1.06941 -0.0454,0.10282 -0.0385,0.3595 0.0552,0.34502 1.03878,-0.16041 2.09931,-0.3374 3.06883,-0.82741 0.61264,-0.30965 1.04334,-1.00977 1.56501,-1.51464 1.61101,-1.43546 2.69971,-2.46154 4.4046,-3.7485 0.68845,-0.51969 1.38042,-1.04051 2.11215,-1.45927 0.50058,-0.28647 1.43343,0.0157 1.56921,-0.64754 0.1244,-0.60763 -1.0718,-0.0459 -1.49665,0.29312 -0.27067,0.216 -0.19911,0.75968 -0.29867,1.13952 -0.88587,2.67949 -2.19565,5.08689 -3.41343,7.54042 -0.32983,0.66452 -1.60556,3.15348 -1.87399,4.11881 -0.0893,0.32117 -0.0348,0.67817 -0.0521,1.01726 1.74173,0.8515 1.33612,0.82235 4.50273,-0.15919 0.45819,-0.14203 2.05445,-1.86736 2.38121,-2.20342 0,0 -0.0555,-0.008 -0.0555,-0.008 v 0 c -0.81185,0.33506 -1.62083,0.68102 -2.43554,1.00518 -0.72902,0.29007 -1.64065,0.18244 -2.19536,0.83739 -0.28073,0.33147 0.84153,0.0974 1.10407,0.45112 0.16556,0.22307 -0.48796,0.0335 -0.73193,0.0503 -0.0593,-0.2899 -0.21778,-0.57469 -0.17799,-0.86969 0.14954,-1.10855 1.20682,-3.32481 1.57593,-4.09809 1.22488,-2.56605 2.67098,-4.96342 3.78005,-7.61536 0.066,-0.52233 0.56924,-1.30737 0.19821,-1.567 -1.4463,-1.01199 -2.81817,-0.32246 -4.02639,0.50059 -0.67543,0.46011 -1.32434,0.9782 -1.97694,1.48657 -1.58222,1.23252 -3.03427,2.45082 -4.58852,3.73505 -2.70994,2.2177 -2.10109,0.7574 -0.72745,2.26507 0.074,0.0812 -0.30839,0.19455 -0.29018,0.0741 0.0594,-0.39333 0.26758,-0.73105 0.4405,-1.0688 0.74942,-1.46371 1.73555,-2.9076 2.59444,-4.24644 0.59309,-0.92205 1.18566,-1.84461 1.77927,-2.76615 0.60088,-0.93285 1.21329,-1.85441 1.80418,-2.79704 0.47902,-0.76413 0.98739,-1.50502 1.40516,-2.32267 0.21401,-0.41885 0.75081,-1.00107 0.47866,-1.36422 -0.73707,-0.98353 -1.81529,-0.55311 -2.64109,-0.32798 -0.41373,0.24051 -0.83333,0.46606 -1.2412,0.72155 -0.56678,0.35503 -1.12324,0.735 -1.68186,1.10944 -2.21311,1.48341 -4.37232,3.08802 -6.61034,4.51345 0.0835,0.13102 0.27794,0.22947 0.25055,0.39306 -0.0236,0.14106 -0.24697,0.20796 -0.33565,0.11501 -0.0916,-0.096 -0.0266,-0.3087 0.0202,-0.44567 0.11143,-0.32599 0.27979,-0.6185 0.44287,-0.90906 0.45429,-0.80939 1.25807,-1.98697 1.74201,-2.71751 0.29964,-0.44683 1.82017,-2.71214 2.13186,-3.18537 0.2756,-0.41845 0.55731,-0.83128 0.81807,-1.26414 0.16653,-0.27642 0.72417,-1.14521 0.70126,-1.65837 -0.007,-0.15286 -0.14515,-0.24757 -0.21771,-0.37135 -0.41281,-0.006 -0.82754,-0.069 -1.23842,-0.0191 -0.33748,0.041 -1.31307,0.55231 -1.5618,0.68083 -0.89047,0.46013 -1.75999,0.98129 -2.66042,1.412 0.0549,0.0664 0.18084,0.10608 0.16493,0.19923 -0.0142,0.083 -0.15761,0.0906 -0.20376,0.0281 -0.0496,-0.0672 -0.007,-0.18934 0.0242,-0.27151 0.0691,-0.1797 0.16921,-0.33971 0.27047,-0.49418 0.18613,-0.28394 0.88796,-1.17419 1.06088,-1.39666 0.96497,-1.17674 1.95763,-2.31004 3.07067,-3.27083 0,0 -0.58009,-0.0742 -0.58009,-0.0742 z" />
      <g
         id="g1834"
         transform="matrix(0.69153564,0,0,0.96956328,36.28318,7.625498)"
         style="fill:#ffffff">
        <path
           style="fill:#ffffff;stroke-width:0.264583"
           id="path1093"
           d="m 156.9241,137.94163 c 1.04095,0.54331 2.0664,0.6107 3.22041,0.75664 0,0 0.27428,-0.03 0.27428,-0.03 v 0 c 0.12141,-0.13582 0.34573,-0.22621 0.36425,-0.40744 0.033,-0.32296 -1.00414,-0.58114 -1.22902,-0.64492 0,0 -2.62992,0.32573 -2.62992,0.32573 z" />
        <path
           style="fill:#ffffff;stroke-width:0.264583"
           id="path1141"
           d="m 142.11416,153.19606 c 0.24864,-0.2835 0.54555,-0.59004 0.92142,-0.6857 -0.28359,0.007 -0.56802,-0.002 -0.85078,0.0206 -0.0129,0.001 0.11688,-0.009 0.18317,0.13343 0.10127,0.21769 0.07,0.49486 0.0678,0.72498 -0.02,0.25731 -0.0133,0.51577 -0.0265,0.77332 -0.007,0.14317 -0.0443,0.26506 0.008,0.39951 0.36472,0.0106 0.72962,0.0473 1.09416,0.0318 0.0321,-0.001 0.0341,-0.0545 0.0528,-0.0806 0.0187,-0.0261 0.0354,-0.0546 0.0595,-0.0759 0.0309,-0.0274 0.14462,-0.0664 0.10337,-0.0682 -1.15191,-0.0507 -1.0353,-0.33266 -1.16203,0.14489 -0.0406,0.20519 -0.13351,0.43925 -0.14378,0.6492 -0.001,0.0225 -0.005,0.0658 0.0178,0.0653 0.34578,-0.008 0.6892,-0.059 1.0338,-0.0884 0.12363,-0.21099 0.31422,-0.36701 0.48854,-0.53381 0.0271,-0.0259 0.11755,-0.0791 0.08,-0.0793 -0.31252,-0.002 -0.62304,0.0501 -0.93455,0.0752 0.0889,0.26459 0.0752,0.28358 0.3452,0.40335 0,0 0.0935,0.003 0.0935,0.003 v 0 c 0.28026,-0.0893 0.3851,-0.14004 0.49996,-0.41598 -0.31885,-0.043 -0.63519,-0.11358 -0.95656,-0.12908 -0.0311,-0.002 -0.0317,0.0536 -0.047,0.0807 -0.11209,0.19846 -0.22511,0.39425 -0.41656,0.52901 0.26592,0.0479 0.5309,0.10124 0.79775,0.14359 0.006,8e-4 0.005,-0.0107 0.008,-0.0158 0.024,-0.0433 0.0488,-0.0862 0.0728,-0.12947 0.0947,-0.17069 0.19919,-0.33839 0.24962,-0.52904 0.0115,-0.0526 0.0871,-0.14604 0.0345,-0.15788 -0.37107,-0.0836 -0.7572,-0.083 -1.13749,-0.0906 -0.0229,-5.3e-4 0.001,0.0487 -0.0115,0.0678 -0.17819,0.27065 -1.67495,-0.0362 0.82993,0.1295 -0.0839,-0.009 -0.0371,0.009 -0.0254,-0.14017 0.0254,-0.32034 0.0656,-0.64067 0.0532,-0.96268 -0.01,-0.29205 0.0323,-0.69909 -0.19697,-0.92774 -0.035,-0.0349 -0.0737,-0.0798 -0.12305,-0.0827 -0.37302,-0.0216 -0.74725,0.007 -1.12088,0.0106 -0.38657,0.16814 -0.69406,0.47328 -1.02953,0.72145 0,0 1.08804,0.0864 1.08804,0.0864 z" />
        <g
           id="g1822"
           style="fill:#ffffff">
          <path
             style="fill:#ffffff;stroke-width:0.264583"
             id="path1081"
             d="m 137.11048,157.86454 c -0.23916,0.202 -0.40278,0.49192 -0.65251,0.68245 -0.0318,0.0243 -0.0731,0.0328 -0.10962,0.0492 0.97406,0.013 1.94811,0.0259 2.92217,0.0389 0.58438,-1.686 1.46123,-3.25305 2.30856,-4.81709 0.78624,-1.44926 1.63168,-2.86438 2.49498,-4.26859 0.73412,-1.21988 1.06687,-0.79181 -2.90821,-0.42974 -0.1129,0.0103 -0.0974,0.20476 -0.14678,0.3068 -0.0761,0.15722 -0.15312,0.31399 -0.22968,0.47098 -0.91121,1.96529 -1.94631,3.86934 -2.97789,5.7731 -0.3628,0.67016 -0.72136,1.34257 -1.07986,2.01504 -0.16621,0.31178 -0.29069,0.46668 -0.32333,0.81204 0.83701,2.39217 4.82055,-0.70139 5.77822,-1.37289 0.49694,-0.34844 0.99356,-0.69732 1.49034,-1.04598 1.50722,-1.12706 1.52211,-1.01058 2.70903,-2.35343 0.30913,-0.34974 0.57908,-0.73224 0.86862,-1.09836 0,0 -0.0796,-0.008 -0.0796,-0.008 v 0 c -2.18512,0.95579 -4.4146,1.85178 -6.41528,3.17108 -0.96922,0.60695 -1.93315,1.2224 -2.906,1.82352 -0.22926,0.14166 -0.45792,0.28477 -0.69405,0.41466 -0.14168,0.0779 -0.5986,0.18786 -0.43817,0.20813 2.82673,0.35714 3.53464,-0.70435 2.86943,0.22778 -0.0145,-0.0198 -0.0431,-0.0348 -0.0434,-0.0593 -0.002,-0.16177 0.1293,-0.47602 0.17295,-0.58743 0.26914,-0.68686 0.59914,-1.34734 0.91995,-2.01086 0.98049,-1.95273 2.01498,-3.87822 3.12628,-5.75999 0.0943,-0.15497 0.18689,-0.31099 0.28289,-0.46492 0.0639,-0.10241 0.31455,-0.27802 0.19668,-0.30401 -3.15827,-0.69646 -2.58292,-1.12141 -3.21668,0.11614 -0.72459,1.43565 -1.45024,2.87064 -2.21309,4.28656 -0.144,0.26489 -1.08801,2.0001 -1.23645,2.27817 -0.40357,0.756 -0.80994,1.51813 -1.1395,2.31058 -0.0453,0.10894 -0.0808,0.2217 -0.12125,0.33255 3.78907,0.27347 2.44756,1.04698 3.0644,-0.20886 0.27889,-0.56781 -0.0547,0.16049 0.18583,-0.37313 0,0 -2.45897,-0.15525 -2.45897,-0.15525 z" />
          <path
             style="fill:#ffffff;stroke-width:0.264583"
             id="path1083"
             d="m 144.39497,148.95727 c 0.25616,-0.21175 0.51673,-0.41828 0.76848,-0.63525 0.36929,-0.31828 0.7245,-0.65268 1.09438,-0.97027 1.0944,-0.93967 2.24877,-1.88296 3.38863,-2.76269 1.52825,-1.17947 2.43629,-1.81418 3.99529,-2.93693 1.40174,-0.97695 1.90537,-1.35289 3.29605,-2.23466 0.40639,-0.25768 0.82617,-0.49376 1.23381,-0.74946 0.6012,-0.37713 1.18993,-0.77929 1.78082,-1.17276 0.0498,-0.0253 0.20495,-0.0704 0.14937,-0.076 -1.24779,-0.12511 -2.49751,-0.26066 -3.75132,-0.28518 -0.0948,-0.002 -0.12564,0.14241 -0.19409,0.20805 -0.13634,0.13072 -0.27735,0.25658 -0.41981,0.3806 -0.40903,0.35608 -1.27728,1.07218 -1.63297,1.36773 -1.54326,1.25627 -3.0563,2.54873 -4.55519,3.85744 -1.27453,1.11282 -2.11605,1.83972 -3.32144,3.00689 -0.43847,0.42457 -0.85845,0.86783 -1.28767,1.30174 -1.08938,1.29347 -0.93072,0.60412 -0.84292,1.94749 0,0 0.0907,0.007 0.0907,0.007 v 0 c 2.29707,-0.94434 1.25971,-0.34426 3.13743,-1.7557 3.28524,-2.70478 6.46517,-5.54157 9.88428,-8.07999 0.78917,-0.56194 1.15498,-0.82988 1.90788,-1.34289 0.18438,-0.12564 0.36997,-0.24952 0.55709,-0.37104 0.11535,-0.0749 0.48541,-0.19284 0.35022,-0.21821 -3.38776,-0.63562 -2.69298,-1.15144 -3.74395,-0.30194 -0.52768,0.38958 -1.063,0.7795 -1.56852,1.19701 -0.30697,0.25354 -0.59619,0.52803 -0.90261,0.78223 -1.04833,0.86966 -1.79806,1.42492 -2.90657,2.27485 -1.9172,1.46325 -3.85653,2.9039 -5.71798,4.43843 -0.74383,0.61319 -1.84629,1.54929 -2.54508,2.28881 -0.19553,0.20693 -0.35697,0.44361 -0.53545,0.66541 0,0 2.29113,0.16881 2.29113,0.16881 z" />
          <path
             style="fill:#ffffff;stroke-width:0.264583"
             id="path1091"
             d="m 146.4811,155.71774 c 1.82197,-2.09165 3.84656,-3.99481 5.93829,-5.81294 0.74384,-0.64654 1.50601,-1.27169 2.25901,-1.90754 2.98769,-2.4476 6.08089,-4.76934 9.29151,-6.91683 0.37569,-0.24102 0.53372,-0.34797 0.88897,-0.55935 0.0737,-0.0439 0.17079,-0.0598 0.22352,-0.12743 0.0222,-0.0285 -0.0151,-0.0837 -0.0488,-0.0967 -0.1722,-0.066 -0.35739,-0.0919 -0.53817,-0.12846 -0.25134,-0.0508 -0.50507,-0.0889 -0.7576,-0.13331 0,0 -0.57116,-0.0601 -0.57116,-0.0601 v 0 c -0.30646,-0.0133 -0.61271,-0.0326 -0.91938,-0.04 -0.23827,-0.006 -0.7814,-0.052 -1.07515,0.0709 -0.0699,0.0292 -0.12005,0.0923 -0.17996,0.13864 -0.36201,0.27986 -0.3273,0.2538 -0.74848,0.58308 -2.91757,2.30409 -5.79712,4.65651 -8.68602,6.99624 -2.69814,2.24559 -1.86286,1.53937 -4.50177,3.77878 -0.97347,0.8261 -2.2865,1.9352 -3.27816,2.81277 -0.24786,0.21935 -0.485,0.45058 -0.7324,0.67045 -0.15545,0.13816 -0.3173,0.26897 -0.47595,0.40345 0,0 3.91172,0.32821 3.91172,0.32821 z" />
          <path
             style="fill:#ffffff;stroke-width:0.264583"
             id="path1099"
             d="m 153.75573,140.37659 c 0.0511,0.0663 0.0872,0.14767 0.15333,0.199 0.19994,0.15515 0.91902,0.51387 1.08854,0.59942 0.53288,0.26891 1.10293,0.55397 1.6591,0.76844 0.34544,0.1332 0.70057,0.23978 1.05085,0.35968 0.51908,0.0857 1.03816,0.17133 1.55725,0.257 0,0 0.2276,-0.0247 0.2276,-0.0247 v 0 c 0.0752,-0.15118 0.15039,-0.30235 0.22558,-0.45352 -0.15928,-0.1421 -0.3029,-0.30398 -0.47783,-0.42628 -0.42944,-0.30024 -1.07618,-0.58573 -1.5491,-0.78978 -0.3155,-0.13613 -1.08116,-0.44335 -1.43456,-0.55458 -0.18116,-0.057 -0.36798,-0.0942 -0.55197,-0.1413 0,0 -1.94879,0.20661 -1.94879,0.20661 z" />
          <path
             style="fill:#ffffff;stroke-width:0.264583"
             id="path1101"
             d="m 157.5958,138.22017 c 0.64518,0.32263 1.32099,0.61645 2.03516,0.75005 0.48276,0.0903 0.9747,0.12178 1.46205,0.18267 0,0 0.33915,-0.0369 0.33915,-0.0369 v 0 c 0.12708,-0.12934 0.35868,-0.20811 0.38125,-0.38802 0.0187,-0.14919 -0.16901,-0.2558 -0.28916,-0.3462 -0.24802,-0.18662 -0.80732,-0.38376 -1.0931,-0.49561 0,0 -2.83535,0.33405 -2.83535,0.33405 z" />
          <path
             style="fill:#ffffff;stroke-width:0.264583"
             id="path1139"
             d="m 152.95503,141.6926 c 0.66046,0.53258 0.13953,0.13022 1.09076,0.78563 0.29395,0.20253 0.55562,0.4592 0.877,0.61458 0.50366,0.24349 1.05183,0.38145 1.57775,0.57218 0,0 0.0796,-0.008 0.0796,-0.008 v 0 c -0.0791,-0.23445 -0.0729,-0.51837 -0.23726,-0.70336 -0.24715,-0.27822 -0.61759,-0.41558 -0.93265,-0.61363 -0.81402,-0.51167 -0.65604,-0.41168 -1.4351,-0.7584 0,0 -1.02014,0.11065 -1.02014,0.11065 z" />
          <path
             style="fill:#ffffff;stroke-width:0.264583"
             id="path1143"
             d="m 143.43422,155.084 c -0.9037,-0.14999 -1.71437,-0.14434 -2.36453,0.45725 -0.0211,0.0237 -0.0951,0.0701 -0.0634,0.071 0.36385,0.01 0.73326,0.0234 1.09108,-0.0433 0.0517,-0.01 -0.0336,-0.10068 -0.0379,-0.15306 -0.007,-0.0888 -0.007,-0.17878 0.003,-0.26736 0.031,-0.27959 0.0708,-0.33133 0.17208,-0.58932 0.32513,-0.77493 0.52396,-0.69393 -1.089,-0.54098 -0.0588,0.006 -0.059,0.10246 -0.0901,0.15268 -0.0396,0.0639 -0.0813,0.12632 -0.12203,0.18948 -0.1196,0.19457 -0.25631,0.37788 -0.3736,0.57392 -0.0259,0.0433 -0.0379,0.0966 -0.0737,0.13214 -0.0111,0.011 -0.0601,-0.0141 -0.0445,-0.0147 0.43758,-0.0183 0.87556,-0.0255 1.31334,-0.0382 -0.0378,-0.3972 0.0453,-0.80198 0.18338,-1.17355 0.0313,-0.0843 0.0557,-0.17274 0.10186,-0.24996 0.0226,-0.0379 0.0665,-0.058 0.0997,-0.0871 -0.41163,0.0123 -0.82818,-0.0277 -1.2349,0.0369 -0.0576,0.009 -0.034,0.11156 -0.0512,0.16729 -0.1172,0.38001 -0.25293,0.75321 -0.36128,1.13592 -0.19638,0.71878 -0.42225,0.76939 1.1593,0.39591 0.0942,-0.0223 0.0796,-0.17654 0.12309,-0.263 0.0549,-0.109 0.11466,-0.21545 0.17199,-0.32318 0.25492,-0.44397 0.1113,-0.2299 0.42204,-0.62929 0.0632,-0.0813 0.11407,-0.17384 0.18947,-0.24396 0.0371,-0.0345 0.18971,-0.0605 0.13904,-0.0615 -1.45086,-0.0298 -1.26266,-0.40032 -1.46892,0.22532 -0.19524,0.55645 -0.43994,1.10347 -0.53692,1.68816 -0.0915,0.58127 -0.13453,0.45912 1.14626,0.2194 0.067,-0.0126 0.0419,-0.12995 0.0675,-0.19319 0.0321,-0.0793 0.0702,-0.156 0.1053,-0.234 0.12671,-0.19605 0.26245,-0.38488 0.39463,-0.57682 0.0138,-0.02 0.0718,-0.0561 0.0476,-0.0551 -1.85333,0.071 -1.52013,-0.40071 -1.91787,0.37578 -0.13588,0.24683 -0.24666,0.50584 -0.3692,0.75927 -0.0297,0.0614 -0.051,0.12779 -0.0896,0.18404 -0.008,0.0117 -0.0561,0.008 -0.0419,0.008 0.56243,-0.0119 1.12475,-0.0282 1.68712,-0.0423 0.0732,-0.77773 0.35217,-1.5079 0.67542,-2.2116 0.0373,-0.0763 0.0638,-0.15883 0.11185,-0.22878 0.0152,-0.0221 0.0476,-0.0251 0.0713,-0.0376 -0.49462,0.0122 -0.99396,-0.0327 -1.48384,0.0366 -0.0586,0.008 -0.0104,0.11801 -0.0205,0.17631 -0.0343,0.19789 -0.0894,0.39577 -0.13887,0.58979 -0.03,0.10505 -0.0638,0.20909 -0.09,0.31517 -0.0373,0.15119 -0.0697,0.33489 -0.081,0.49258 -10e-4,0.0191 -0.013,0.058 0.006,0.0571 1.37388,-0.06 1.16351,0.28416 1.3976,-0.3694 0.1266,-0.29272 0.26036,-0.60518 0.45647,-0.86063 0.0383,-0.0498 0.0793,-0.10919 0.13961,-0.12665 0.0307,-0.009 0.10101,0.0648 0.0691,0.0663 -0.49575,0.0229 -0.99255,-5.3e-4 -1.48882,-8e-4 -0.0929,0.41531 -0.23736,0.81637 -0.35711,1.22447 -0.007,-0.0207 -0.0435,-0.0609 -0.0216,-0.0621 0.48795,-0.0259 0.98231,0.0558 1.46584,-0.0146 0.0663,-0.01 0.005,-0.13408 0.0121,-0.20069 0.0291,-0.2608 0.0866,-0.51317 0.15739,-0.76514 0.022,-0.068 0.0434,-0.13622 0.066,-0.20404 0.0143,-0.0429 0.0936,-0.27355 0.0997,-0.27618 0.0282,-0.0121 0.0844,0.0725 0.0537,0.0748 -1.51945,0.11069 -1.57789,-0.46383 -1.44711,0.19309 0.0395,0.32625 0.0423,0.65619 0.0571,0.98449 0.53004,-0.0284 1.06539,-0.005 1.59014,-0.0853 0.0512,-0.008 -0.0228,-0.10127 -0.0279,-0.15279 -0.008,-0.0815 -0.0103,-0.16346 -0.0115,-0.24531 -0.004,-0.25405 0.0215,-0.49964 0.0596,-0.75017 2.6e-4,-0.002 0.0486,-0.29756 0.0638,-0.32172 0.008,-0.0134 0.0594,0.0185 0.0436,0.019 -0.57566,0.0182 -1.15459,-0.0249 -1.72751,0.0342 -0.0475,0.005 0.01,0.095 0.0106,0.14271 0.002,0.0721 -0.002,0.14414 -0.003,0.2162 -0.0511,0.071 -0.005,0.65027 -0.0391,0.69931 -0.0135,0.0191 -0.064,-0.0556 -0.0407,-0.0572 0.55782,-0.0367 1.11754,-0.0336 1.67632,-0.0504 -0.20322,-0.3425 -0.25319,-0.75606 -0.26904,-1.14811 0.48229,-0.393 0.23019,-0.1784 -1.74529,0.0502 -0.0436,0.005 0.015,0.0865 0.0209,0.13004 0.0235,0.17533 0.0309,0.35151 0.0445,0.52775 0.0684,0.83764 -0.0927,0.45836 1.78136,0.21984 0.044,-0.006 0.005,-0.0887 0.01,-0.13284 0.005,-0.0441 0.0118,-0.0878 0.0177,-0.13175 0.0238,-0.13176 0.044,-0.2638 0.0829,-0.39202 0.005,0.0157 0.01,0.0623 0.0162,0.047 0.0159,-0.0372 0.009,-0.0805 0.0152,-0.12043 0.0259,-0.15894 0.0545,-0.31779 0.1035,-0.47127 0.20081,-0.60355 0.0867,-0.16986 -1.61352,0.004 -0.0255,0.003 0.0154,0.049 0.0199,0.0743 0.0214,0.11982 0.02,0.24461 0.0307,0.36568 0.0837,0.77226 0.1767,0.41721 1.62603,0.22127 0.0523,-0.007 0.0567,-0.0889 0.0851,-0.13336 0.43371,-0.65882 0.95373,-0.45762 -1.63561,-0.21266 -0.0585,0.006 -0.0413,0.11002 -0.0638,0.16426 -0.029,0.0698 -0.0605,0.13854 -0.0908,0.20781 -0.22896,0.50016 -0.49862,0.98166 -0.76865,1.4608 -0.23298,0.38053 -0.44384,0.77379 -0.66724,1.15985 -0.0525,0.0957 -0.2731,0.40473 -0.0753,0.48937 0.0553,0.0237 0.11669,0.0295 0.17504,0.0443 0.0896,0.0124 0.17931,0.0248 0.26896,0.0372 0,0 0.1954,0.0111 0.1954,0.0111 v 0 c 0.0988,-0.002 0.19753,-0.004 0.29629,-0.006 0.40529,-0.0427 0.51572,-0.14056 0.7179,-0.49522 0.21626,-0.39334 0.45212,-0.77535 0.69688,-1.15157 0.32508,-0.47928 0.65246,-0.95732 0.9162,-1.47439 0.0339,-0.0699 0.0674,-0.14007 0.10169,-0.20984 0.0269,-0.0548 0.14178,-0.15248 0.0818,-0.16385 -2.42553,-0.45979 -1.68345,-0.67091 -1.72729,0.0831 -0.0587,0.62264 -0.0623,0.18216 1.46441,0.29817 0.0237,0.002 0.079,-0.20212 0.0813,-0.21064 0.0101,-0.0382 0.0169,-0.0772 0.0254,-0.11575 0.1344,-1.01616 -0.43814,-0.62078 -1.76103,-0.57018 -0.0285,0.001 -0.005,0.0569 -0.007,0.0854 -0.0191,0.14207 -0.0555,0.32101 -0.15937,0.42948 -0.0168,0.0175 -0.0477,0.0175 -0.0633,0.036 -0.0215,0.0256 -0.0287,0.0604 -0.0431,0.0906 0.002,0.13152 -0.0169,0.26131 -0.0315,0.39192 -0.007,0.0438 -0.0128,0.0878 -0.0214,0.13131 -0.009,0.0442 -0.0748,0.12517 -0.0303,0.13154 1.83788,0.26314 1.73876,0.62644 1.71821,-0.20351 -0.0495,-1.15314 0.1181,-0.72547 -1.8397,-0.72111 -0.0178,4e-5 0.0181,0.0307 0.0271,0.0461 0.0899,0.4103 0.13895,0.83039 0.26854,1.23122 1.40217,0.0913 1.75994,0.68993 1.83278,-0.11057 0.0176,-0.19365 0.0329,-0.38737 0.0242,-0.58219 0.003,-0.0746 0.006,-0.14928 0.008,-0.22394 0.002,-0.0611 0.065,-0.17376 0.005,-0.18349 -1.9845,-0.31968 -1.7519,-0.59805 -1.7532,0.30122 0.001,0.092 -0.006,1.19589 0.002,1.19693 0.5355,0.0699 1.07978,0.026 1.61966,0.039 -0.022,-0.33841 -0.0727,-0.67225 -0.12828,-1.00672 -0.14533,-0.69172 0.004,-0.28351 -1.60237,-0.36766 -0.0186,-0.001 -0.0675,0.35361 -0.0707,0.37276 -0.0113,0.0688 -0.0228,0.13747 -0.0343,0.2062 -0.0489,0.26102 -0.1125,0.51759 -0.17055,0.7767 -0.0159,0.071 -0.11824,0.19188 -0.0486,0.21275 0.46861,0.14033 0.96553,0.16387 1.45273,0.20776 0.0257,0.002 0.0119,-0.0502 0.0179,-0.0753 0.15341,-0.41078 0.28003,-0.83051 0.37981,-1.25763 -0.48901,-0.0768 -0.97485,-0.17764 -1.46704,-0.23046 -0.0242,-0.003 0.004,0.049 7.9e-4,0.0731 -0.007,0.0495 -0.0159,0.0989 -0.0305,0.14664 -0.0909,0.29823 -0.21226,0.59004 -0.34935,0.86952 -0.31381,0.60024 -0.23342,0.25414 1.04915,0.41353 0.005,5.3e-4 0.001,-0.01 0.003,-0.0145 0.0348,-0.073 0.0746,-0.14367 0.10722,-0.21771 0.0394,-0.0895 0.0766,-0.18006 0.10847,-0.27245 0.036,-0.10413 0.0633,-0.21105 0.0949,-0.31657 0.0366,-0.11932 0.14508,-0.46817 0.1812,-0.60243 0.0185,-0.0687 0.11837,-0.19134 0.0491,-0.20765 -1.56891,-0.36963 -1.33303,-0.52922 -1.59829,0.17932 -0.28292,0.75843 -0.59199,1.50304 -0.91081,2.24702 0.55222,0.068 1.10205,0.15951 1.65666,0.20414 0.0262,0.002 0.0276,-0.0447 0.0406,-0.0676 0.0347,-0.0611 0.0684,-0.12268 0.10249,-0.18411 0.13875,-0.2504 0.28683,-0.49638 0.40084,-0.75954 0.0414,-0.0837 0.21371,-0.22412 0.1243,-0.2511 -0.52038,-0.15704 -1.07935,-0.12982 -1.61838,-0.19979 -0.0164,-0.002 0.0456,-0.0199 0.0495,-0.004 0.0124,0.052 -0.0122,0.10649 -0.0121,0.15996 0.001,0.72031 0.034,-0.3768 0.004,0.43142 -0.0174,0.0792 -0.0326,0.15883 -0.0521,0.23748 -0.0163,0.0655 -0.11918,0.17276 -0.0554,0.19486 1.10849,0.38409 0.98547,0.41333 1.2898,-0.14138 0.29278,-0.53413 0.49311,-1.11664 0.67921,-1.69493 0.14745,-0.67761 0.15344,-0.33332 -1.36214,-0.37197 -0.035,-7.9e-4 -0.0129,0.0692 -0.0251,0.10197 -0.0694,0.18661 -0.13951,0.37401 -0.23114,0.55077 -0.0599,0.11549 -0.1356,0.22203 -0.2034,0.33304 -0.0682,0.10654 -0.13272,0.21553 -0.20461,0.31962 -0.0594,0.086 -0.28499,0.20875 -0.18905,0.25032 1.20519,0.52219 1.02241,0.33288 1.28054,-0.28052 0.0379,-0.0938 0.48801,-1.33566 0.42701,-1.35056 -0.40272,-0.0984 -0.82705,-0.0588 -1.24058,-0.0882 -0.004,0.54556 -0.37485,1.06654 -0.48541,1.5942 0.45184,0.0555 0.90138,0.13499 1.35552,0.16646 0.032,0.002 0.0492,-0.0419 0.0681,-0.0678 0.15698,-0.21522 0.22887,-0.48363 0.3696,-0.70821 0.0332,-0.0616 0.0629,-0.12525 0.0996,-0.18484 0.0248,-0.0403 0.13103,-0.1053 0.0845,-0.11402 -0.39993,-0.0749 -0.81115,-0.0654 -1.21672,-0.0981 0.0109,0.0212 0.032,0.0397 0.0328,0.0635 0.005,0.14668 -0.0699,0.28955 -0.0434,0.43811 -0.0283,0.33437 -0.0921,0.55845 -0.16802,0.87959 -0.0173,0.073 -0.11475,0.20154 -0.0423,0.22118 0.91332,0.24755 0.86407,0.24622 1.30277,0.0266 0.18983,-0.0938 0.38182,-0.18401 0.5745,-0.2718 0.0685,-0.0312 0.28123,-0.0782 0.20696,-0.0907 -0.33853,-0.0572 -0.68674,-0.0195 -1.02887,-0.0482 -0.081,-0.007 0.16218,-0.0118 0.24327,-0.0177 0,0 1.14583,-0.15019 1.14583,-0.15019 z" />
        </g>
      </g>
    </g>
  </g>
</svg>
