<?xml version="1.0" encoding="UTF-8" standalone="no"?>
<!-- Created with Inkscape (http://www.inkscape.org/) -->

<svg
   width="20.392891mm"
   height="26.185432mm"
   viewBox="0 0 20.392891 26.185432"
   version="1.1"
   id="svg5"
   xmlns:inkscape="http://www.inkscape.org/namespaces/inkscape"
   xmlns:sodipodi="http://sodipodi.sourceforge.net/DTD/sodipodi-0.dtd"
   xmlns="http://www.w3.org/2000/svg"
   xmlns:svg="http://www.w3.org/2000/svg">
  <sodipodi:namedview
     id="namedview7"
     pagecolor="#ffffff"
     bordercolor="#000000"
     borderopacity="0.25"
     inkscape:showpageshadow="2"
     inkscape:pageopacity="0.0"
     inkscape:pagecheckerboard="0"
     inkscape:deskcolor="#d1d1d1"
     inkscape:document-units="mm"
     showgrid="false" />
  <defs
     id="defs2" />
  <g
     inkscape:label="Layer 1"
     inkscape:groupmode="layer"
     id="layer1"
     transform="translate(-99.942423,-100.66346)">
    <path
       style="fill:#ffffff;stroke-width:0.197698"
       id="path1466"
       d="m 117.86123,120.47352 c -0.0576,0.0742 -0.12168,0.14337 -0.17279,0.22264 -0.0718,0.11137 -0.12494,0.23504 -0.19496,0.34765 -0.2141,0.34427 -0.52793,0.78631 -0.779,1.0864 -0.57283,0.68469 -0.70179,0.75572 -1.38709,1.37879 -1.35196,1.23358 -2.85818,2.45529 -4.66302,2.82731 -0.36234,0.0747 -0.73453,0.0807 -1.10179,0.121 0.4521,-0.0235 1.17772,0.36561 1.35631,-0.0705 0.16482,-0.40248 -0.82813,-0.12521 -1.23443,-0.22715 -0.41665,-0.10454 -0.8278,-0.23613 -1.2299,-0.39113 -0.81681,-0.31486 -1.61528,-0.73664 -2.35457,-1.21666 -0.34943,-0.22689 -0.67705,-0.48879 -1.01558,-0.73317 -0.29487,-0.27309 -0.61039,-0.52347 -0.88462,-0.81926 -0.85792,-0.92536 -1.39458,-1.9904 -1.6155,-3.2654 -0.20128,-1.16162 -0.10128,-1.8179 -0.0459,-3.00404 0.10177,-0.55607 0.17698,-1.11822 0.30533,-1.66821 0.25186,-1.07922 0.66159,-2.29286 1.07028,-3.31604 0.41633,-1.04234 0.96052,-2.19638 1.51057,-3.16715 0.29065,-0.51296 0.61954,-1.001 0.92932,-1.50151 0.86648,-1.31028 1.85091,-2.53043 2.94979,-3.63279 0.51765,-0.5193 1.12998,-1.07228 1.72739,-1.49768 0.24091,-0.17154 0.50056,-0.31221 0.75084,-0.46832 0.58745,-0.23994 0.73027,-0.35233 1.34868,-0.40706 0.20841,-0.0184 0.83575,-0.009 0.62737,0.009 -0.58785,0.0529 -1.19337,-0.0479 -1.76782,0.0933 -0.19429,0.0478 0.3849,0.11603 0.56686,0.20193 0.18438,0.087 0.35149,0.20967 0.52723,0.31451 0.16581,0.14828 0.34265,0.28398 0.49743,0.44483 0.88763,0.92251 1.42775,2.13621 1.94734,3.30649 0.55564,1.31825 1.05072,2.67053 1.39981,4.06633 0.0665,0.26573 0.12109,0.53456 0.18163,0.80183 0.30425,1.47931 0.40562,2.99201 0.47597,4.5 0.0754,1.37781 0.0441,2.75789 -0.0726,4.13167 -0.0144,0.4594 -0.14198,0.9159 -0.13225,1.37716 0.003,0.14398 0.0326,0.46528 0.18366,0.56005 0.16767,0.10519 0.37095,0.12887 0.55643,0.1933 0.0638,0.0436 0.12758,0.0871 0.19137,0.13066 0,0 0.35116,0.0113 0.35116,0.0113 v 0 c 0.0887,-0.0395 0.1775,-0.079 0.26625,-0.11844 0.21778,-0.0548 0.44727,-0.0725 0.65333,-0.16446 0.55331,-0.24704 0.60871,-1.45375 0.66117,-1.96602 0.0281,-0.3907 0.0653,-0.85725 0.078,-1.24661 0.0318,-0.97485 -0.004,-1.95119 -0.0359,-2.92535 -0.10183,-1.5304 -0.28593,-3.052 -0.61551,-4.54878 -0.0674,-0.27116 -0.12896,-0.54399 -0.20223,-0.81347 -0.3812,-1.402 -0.89714,-2.76071 -1.43435,-4.10338 -0.63254,-1.43239 -1.33401,-2.87397 -2.51283,-3.90187 -0.1831,-0.11987 -0.3567,-0.25743 -0.5493,-0.35964 -1.14557,-0.60792 -2.10863,-0.33693 -3.56863,-0.3691 -0.66422,-0.0146 -1.26928,0.20582 -1.84057,0.5472 -0.23221,0.16577 -0.47264,0.31953 -0.69662,0.4973 -0.59229,0.4701 -1.11601,0.98056 -1.63731,1.53651 -0.65291,0.69631 -1.3567,1.52714 -1.9308,2.28953 -0.33999,0.45149 -0.65442,0.9235 -0.98162,1.38525 -0.70051,1.0987 -1.27024,1.93708 -1.87139,3.10371 -0.26902,0.52206 -0.50922,1.06041 -0.73888,1.60274 -0.68613,1.62029 -1.22643,3.30581 -1.5493,5.04796 -0.0699,0.54337 -0.188365,1.08228 -0.209559,1.63011 -0.05233,1.35276 0.254279,2.78291 0.951859,3.93229 0.49543,0.81631 0.96319,1.16793 1.6415,1.80752 0.34538,0.25175 0.68047,0.5198 1.03614,0.75528 0.71396,0.47269 1.56792,0.94699 2.35388,1.27251 0.56146,0.23254 1.82937,0.65039 2.44766,0.6903 1.24728,0.0805 2.49904,0.0362 3.74857,0.0542 0.37319,-0.056 0.75246,-0.0781 1.11956,-0.168 1.41869,-0.34749 2.75939,-1.26556 3.87465,-2.21818 0.27449,-0.23447 0.5294,-0.49305 0.7941,-0.73958 0.54123,-0.65394 1.09182,-1.30321 1.48531,-2.07185 0.10452,-0.20418 0.29505,-0.64327 0.29507,-0.91269 10e-6,-0.093 -0.0509,-0.17811 -0.0764,-0.26716 0,0 -1.75879,0.002 -1.75879,0.002 z"
       inkscape:export-filename="ico_egg.svg"
       inkscape:export-xdpi="100.93951"
       inkscape:export-ydpi="100.93951" />
  </g>
</svg>
