<?xml version="1.0" encoding="UTF-8" standalone="no"?>
<!-- Created with Inkscape (http://www.inkscape.org/) -->

<svg
   width="32.209381mm"
   height="29.64901mm"
   viewBox="0 0 32.209381 29.64901"
   version="1.1"
   id="svg5"
   xmlns:inkscape="http://www.inkscape.org/namespaces/inkscape"
   xmlns:sodipodi="http://sodipodi.sourceforge.net/DTD/sodipodi-0.dtd"
   xmlns="http://www.w3.org/2000/svg"
   xmlns:svg="http://www.w3.org/2000/svg">
  <sodipodi:namedview
     id="namedview7"
     pagecolor="#ffffff"
     bordercolor="#000000"
     borderopacity="0.25"
     inkscape:showpageshadow="2"
     inkscape:pageopacity="0.0"
     inkscape:pagecheckerboard="0"
     inkscape:deskcolor="#d1d1d1"
     inkscape:document-units="mm"
     showgrid="false" />
  <defs
     id="defs2" />
  <g
     inkscape:label="Layer 1"
     inkscape:groupmode="layer"
     id="layer1"
     transform="translate(-130.92069,-99.869435)">
    <g
       id="g1950"
       transform="translate(-28.504935,26.555879)"
       inkscape:export-filename="ico_bag.svg"
       inkscape:export-xdpi="100.93951"
       inkscape:export-ydpi="100.93951"
       style="fill:#ffffff">
      <path
         style="fill:#ffffff;stroke-width:0.264583"
         id="path1260"
         d="m 166.71014,82.927935 c -0.11069,0.108839 -0.22824,0.21113 -0.33209,0.32652 -0.10219,0.11354 -0.93169,1.140055 -0.96071,1.175684 -0.75742,0.930171 -1.50925,1.863375 -2.25181,2.805506 -0.80092,1.049327 -1.59368,2.107044 -2.30412,3.220747 -0.41356,0.648308 -0.79483,1.267716 -1.06783,1.990002 -0.12125,0.320808 -0.19012,0.659035 -0.28519,0.988553 -0.22015,1.384924 -0.002,2.51897 0.66526,3.748426 0.34825,0.64176 0.632,0.974532 1.06741,1.552318 0.70764,0.807604 1.46871,1.656559 2.46912,2.108509 0.63911,0.28872 0.77166,0.24613 1.45946,0.31639 1.34638,-0.0443 2.69689,-0.0186 4.03914,-0.13295 0.25501,-0.0217 0.48627,-0.16351 0.71786,-0.27247 0.8568,-0.40308 1.5954,-1.032051 2.32035,-1.628716 0.0709,-0.289073 0.6448,-0.324067 0.72137,-0.635167 0.0647,-0.26289 -0.60467,-0.479168 -0.63316,-0.492947 0,0 -0.42969,-0.0419 -0.42969,-0.0419 v 0 c -0.55355,0.0546 -1.1976,0.07831 -1.73353,0.271325 -0.27358,0.09853 -0.72329,0.454041 -0.94935,0.619622 -0.59249,0.41837 -1.18335,0.842547 -1.83354,1.169643 -0.24001,0.12074 -0.48432,0.23472 -0.7365,0.32737 -1.25527,0.46123 -1.96582,0.16541 1.80323,0.31306 -0.67109,-5.3e-4 -0.81904,0.057 -1.46111,-0.17139 -1.03528,-0.3682 -1.83608,-1.185452 -2.5726,-1.962022 -0.19276,-0.236837 -0.39685,-0.464881 -0.57828,-0.710507 -0.73183,-0.990796 -1.29651,-2.121839 -1.33704,-3.37539 -0.01,-0.308266 0.0352,-0.615852 0.0528,-0.923777 0.0763,-0.313875 0.12568,-0.635513 0.22877,-0.941628 0.22921,-0.680649 0.6019,-1.337363 0.96776,-1.949193 0.66456,-1.11138 1.41761,-2.166951 2.19172,-3.203718 0.72156,-0.940417 1.45635,-1.870163 2.18025,-2.808722 0.026,-0.03366 0.80633,-1.053631 0.89154,-1.179369 0.0707,-0.104328 0.1247,-0.219054 0.18705,-0.328581 0,0 -2.49654,-0.175223 -2.49654,-0.175223 z" />
      <path
         style="fill:#ffffff;stroke-width:0.264583"
         id="path1262"
         d="m 169.46432,100.03926 c 0.0346,0.10825 0.0528,0.22321 0.10383,0.32474 0.38818,0.77215 1.15632,1.4197 1.89006,1.84321 0.23289,0.13442 0.48191,0.23871 0.72287,0.35807 0.27116,0.0822 0.53612,0.18872 0.81351,0.24654 0.29015,0.0605 0.58632,0.10689 0.88272,0.10706 2.42848,0.001 3.32389,0.24094 5.15012,-0.41437 0.98497,-0.35343 1.30256,-0.58138 2.22316,-1.09441 0.77998,-0.5113 1.2301,-0.76313 1.92142,-1.38001 0.24253,-0.216402 0.50117,-0.427341 0.68039,-0.698504 0.13765,-0.208254 0.31518,-0.466045 0.24827,-0.706544 -0.0815,-0.293036 -0.41919,-0.440843 -0.62879,-0.661262 0,0 -0.30246,-0.01625 -0.30246,-0.01625 v 0 c -0.44429,0.174168 -0.91092,0.299609 -1.33288,0.522502 -0.30666,0.161989 -0.55925,0.410422 -0.83397,0.622102 -0.91588,0.705704 -1.80411,1.452906 -2.84141,1.983346 -0.90381,0.4653 -1.28593,0.71103 -2.24557,1.01951 -0.34582,0.11117 -1.39938,0.1392 -1.05767,0.26241 0.65134,0.23484 1.38298,0.0702 2.07452,0.10423 0.61194,0.0301 -2.42203,-0.0733 -1.82241,-0.23924 -0.27607,-0.10255 -0.55962,-0.18685 -0.82821,-0.30764 -0.72244,-0.3249 -1.39075,-0.79931 -1.99743,-1.30414 -0.15164,-0.12618 -0.28767,-0.27026 -0.43812,-0.39785 -0.12322,-0.10449 -0.25488,-0.19861 -0.38232,-0.29792 0,0 -1.99963,0.12442 -1.99963,0.12442 z" />
      <path
         style="fill:#ffffff;stroke-width:0.264583"
         id="path1264"
         d="m 181.46951,99.65203 c 0.0246,0.0641 0.0258,0.143328 0.0739,0.192289 0.2946,0.299561 0.99643,0.409691 1.37774,0.416081 3.16172,0.053 2.29932,0.15719 4.06232,-0.14598 0.26534,-0.0973 0.54123,-0.16962 0.79601,-0.291926 1.00909,-0.484408 1.75117,-1.270635 2.36232,-2.195307 0.26968,-0.408021 0.52253,-0.829815 0.73063,-1.272421 0.21409,-0.455358 0.35457,-0.941824 0.53186,-1.412734 0.0764,-0.507762 0.21703,-1.009955 0.22909,-1.523286 0.0385,-1.636466 -0.61109,-3.113241 -1.44655,-4.477866 -0.25739,-0.420413 -0.52752,-0.835779 -0.83935,-1.217555 -0.29227,-0.357817 -0.64439,-0.66226 -0.96658,-0.993391 -1.56316,-1.072086 -0.67812,-0.623686 -2.69815,-1.256673 0,0 -0.32533,0.02654 -0.32533,0.02654 v 0 c -0.52619,0.898843 -0.48442,0.420818 -0.013,1.439482 0.22082,0.329012 0.43817,0.660368 0.66244,0.987036 0.27251,0.396933 0.57298,0.775166 0.82784,1.183661 0.81326,1.303541 1.50201,2.729193 1.6414,4.281866 0.0434,0.483314 -0.0169,0.97037 -0.0253,1.455552 -0.32682,1.144561 -0.36463,1.585037 -0.99755,2.601963 -0.5683,0.913106 -1.37529,1.613506 -2.36082,2.038802 -0.24687,0.106532 -0.51155,0.165799 -0.76733,0.248698 -1.24083,0.186026 -1.18316,0.136226 1.12407,0.144283 0.24409,7.93e-4 -0.48823,-0.01291 -0.73153,-0.03247 -0.57304,-0.04605 -1.13367,-0.15194 -1.684,-0.317326 0,0 -1.56413,0.120679 -1.56413,0.120679 z" />
      <path
         style="fill:#ffffff;stroke-width:0.264583"
         id="path1266"
         d="m 167.47371,82.914714 c -0.62907,-0.302252 -1.25787,-0.602017 -1.84961,-0.975122 -0.43286,-0.309586 -0.59216,-0.669793 -0.30176,-1.160044 0.0598,-0.10095 0.14049,-0.18796 0.21074,-0.28194 0.63536,-0.66415 1.41637,-0.901552 2.29218,-1.071838 0.18681,-0.02164 0.37301,-0.04935 0.56042,-0.06493 0.19794,-0.01646 0.39647,-0.02716 0.59506,-0.03113 0.20309,-0.004 0.81237,5.29e-4 0.60935,0.007 -0.60156,0.01897 -1.20628,-0.02762 -1.80531,0.03066 -0.22532,0.02191 0.45059,0.04593 0.67449,0.07935 0.23272,0.03473 0.46315,0.08335 0.69472,0.125023 1.48269,0.30629 2.88716,0.878039 4.27247,1.473674 0.88412,0.370081 1.76874,0.760074 2.69953,1.00122 0.61133,0.158377 0.74587,0.157269 1.36492,0.239134 0.22706,0.0058 0.45408,0.02156 0.68118,0.01754 1.1832,-0.02098 2.36773,-0.02101 3.54895,-0.09258 0.24296,-0.01471 0.47605,-0.102661 0.7112,-0.165529 0.76015,-0.203237 1.50092,-0.482052 2.24271,-0.741934 1.20269,-0.430612 2.41356,-0.844663 3.67698,-1.05089 1.17514,-0.06758 1.09149,-0.0555 -2.14329,-0.0118 -0.11052,0.0016 0.22115,0.0067 0.33108,0.01815 0.27762,0.02896 0.48951,0.106479 0.72934,0.242154 0.55458,0.472147 0.39495,1.203423 0.23466,1.82434 -0.19946,0.649909 -0.53368,1.221118 -1.03785,1.682591 -0.31882,0.291819 -0.61846,0.475535 -0.97456,0.716415 -0.40945,0.280582 -0.88548,0.464105 -1.28364,0.762619 -0.12258,0.0919 -0.31541,0.261874 -0.18109,0.349475 0.15249,0.09945 0.34359,0.120512 0.51538,0.180768 0,0 0.34695,0.0412 0.34695,0.0412 v 0 c 0.325,-0.0024 0.65068,0.01376 0.97498,-0.0075 0.9698,-0.06352 1.86146,-0.507158 2.65268,-1.040532 0.15868,-0.1235 0.32503,-0.237728 0.47604,-0.370504 0.68564,-0.602869 1.15041,-1.368877 1.409,-2.240952 0.20215,-0.77497 0.33135,-1.507429 -0.20109,-2.183172 -0.32274,-0.258694 -0.64104,-0.433081 -1.0711,-0.437589 -3.07059,-0.03219 -2.25874,-0.111723 -3.72824,0.06178 -1.23097,0.251785 -2.4118,0.681696 -3.5914,1.107948 -0.7374,0.25732 -1.47368,0.529171 -2.23606,0.70577 -0.23561,0.05458 -0.95221,0.104011 -0.71257,0.136671 0.76399,0.104127 3.40336,0.03389 1.48101,0.07664 -0.61023,-0.05671 -0.78416,-0.05384 -1.3888,-0.18806 -0.98567,-0.218792 -1.93054,-0.594389 -2.87195,-0.950092 -1.46611,-0.556237 -2.91752,-1.17543 -4.45796,-1.502024 -0.2964,-0.05597 -1.09007,-0.218168 -1.40307,-0.229891 -1.02247,-0.0383 -2.04607,-0.03547 -3.06919,-0.04631 -0.60899,-0.0065 -1.21828,0.0272 -1.81875,0.134001 -0.9639,0.223588 -1.68521,0.49417 -2.35548,1.256903 -0.075,0.113718 -0.16321,0.219755 -0.22501,0.341156 -0.21526,0.42287 -0.23393,0.945986 0.1143,1.307899 0.0822,0.08542 0.19082,0.140708 0.28623,0.211061 0.86447,0.445823 1.807,0.735359 2.76117,0.916884 0,0 1.56006,-0.203708 1.56006,-0.203708 z" />
      <path
         style="fill:#ffffff;stroke-width:0.264583"
         id="path1272"
         d="m 166.17032,83.390898 c 0.79162,0.747776 1.71659,1.158835 2.72388,1.553956 1.15203,0.451895 1.80949,0.640884 2.98977,1.018122 1.52004,0.429085 3.04769,0.882335 4.61666,1.101741 0.53962,0.07546 1.08256,0.146841 1.62739,0.153431 0.81224,0.0098 1.62311,-0.06952 2.43467,-0.104282 0,0 0.079,-0.01225 0.079,-0.01225 v 0 c -0.74145,-0.417578 -0.12524,-0.124333 -1.56808,-0.392919 -1.48362,-0.276177 -2.94449,-0.662205 -4.38754,-1.101087 -0.49686,-0.158787 -0.9969,-0.307907 -1.49057,-0.476362 -1.41161,-0.481695 -1.39458,-0.513818 -2.73509,-1.055303 -0.37421,-0.151157 -0.75276,-0.291524 -1.12556,-0.446106 -0.21704,-0.09 -0.42655,-0.197491 -0.64359,-0.287473 -0.15728,-0.0652 -0.3192,-0.118552 -0.4788,-0.177829 0,0 -2.04219,0.226359 -2.04219,0.226359 z" />
      <path
         style="fill:#ffffff;stroke-width:0.264583"
         id="path1276"
         d="m 171.88652,78.442076 c -0.70393,-0.70085 -1.39007,-1.440524 -1.9346,-2.275745 -0.12168,-0.186645 -0.22189,-0.386443 -0.33283,-0.579663 -0.26819,-0.640551 -0.45644,-1.350785 0.28855,-1.754375 0.38718,-0.209751 0.63036,-0.169389 1.06254,-0.191399 -0.45659,0.01693 -0.9258,-0.05714 -1.36976,0.05081 -0.21403,0.05204 0.43649,0.06643 0.64898,0.124444 0.55823,0.152397 1.09216,0.419153 1.53516,0.792554 0.12339,0.104 0.23096,0.225428 0.34643,0.33814 0.4463,0.505209 0.75142,1.138243 1.26116,1.58914 0.10476,0.09266 0.22418,0.167273 0.33628,0.250907 0.6072,0.202198 0.51664,0.226627 1.22995,0.198118 0.91912,-0.03674 1.84206,-0.0483 2.75473,-0.163015 0.33023,-0.04151 0.6372,-0.193183 0.95145,-0.302829 0.20616,-0.07193 1.93658,-0.734269 2.1208,-0.804595 0.63063,-0.215228 1.32144,-0.482569 1.98587,-0.593876 0.27054,-0.04532 1.08701,-0.123971 0.82093,-0.05726 -2.2229,0.557363 -1.43246,-0.324337 -1.17344,0.649695 0.0577,0.21686 0.0319,0.447659 0.0479,0.671486 -0.0605,0.839393 -0.42379,1.630918 -0.29027,2.484496 0.0374,0.238723 0.15095,0.459076 0.22641,0.688615 0,0 0.18238,0.0081 0.18238,0.0081 v 0 c 0.28815,-0.215318 0.60119,-0.400823 0.86444,-0.645951 0.77978,-0.726101 1.12474,-1.516719 1.27745,-2.55333 -0.0221,-0.252775 0.0177,-1.224089 -0.44754,-1.350933 -0.83591,-0.227896 -2.30796,-0.350213 -3.33176,-0.135673 -0.64242,0.13462 -1.35567,0.403836 -1.96886,0.614643 -0.48691,0.179885 -1.67521,0.625988 -2.17825,0.784159 -0.32838,0.103251 -1.08362,-0.05832 -0.99556,0.274455 0.0945,0.356962 0.7508,0.0059 1.10085,0.123425 0.36481,0.122494 -1.35019,0.0026 -1.15119,-0.08715 -0.11487,-0.07155 -0.23652,-0.133216 -0.34459,-0.214665 -0.56088,-0.422706 -0.88838,-1.070605 -1.3588,-1.577901 -0.11581,-0.12156 -0.22346,-0.25147 -0.34745,-0.36468 -0.42322,-0.386408 -0.95214,-0.69486 -1.49353,-0.882809 -1.06003,-0.368006 -2.15025,-0.189132 -3.28009,-0.21281 -0.4992,0.0631 -0.74306,0.0314 -1.17016,0.31459 -0.50232,0.333065 -0.69626,0.862076 -0.60194,1.44607 0.0335,0.207401 0.12233,0.40197 0.1835,0.602956 0.10334,0.200538 0.19976,0.404796 0.31003,0.601612 0.48397,0.863849 1.10925,1.650757 1.81125,2.346777 0,0 2.4236,-0.206581 2.4236,-0.206581 z" />
    </g>
  </g>
</svg>
