<?xml version="1.0" encoding="UTF-8" standalone="no"?>
<!-- Created with Inkscape (http://www.inkscape.org/) -->

<svg
   width="19.087601mm"
   height="8.6505318mm"
   viewBox="0 0 19.087601 8.6505318"
   version="1.1"
   id="svg5"
   xmlns:inkscape="http://www.inkscape.org/namespaces/inkscape"
   xmlns:sodipodi="http://sodipodi.sourceforge.net/DTD/sodipodi-0.dtd"
   xmlns="http://www.w3.org/2000/svg"
   xmlns:svg="http://www.w3.org/2000/svg">
  <sodipodi:namedview
     id="namedview7"
     pagecolor="#ffffff"
     bordercolor="#000000"
     borderopacity="0.25"
     inkscape:showpageshadow="2"
     inkscape:pageopacity="0.0"
     inkscape:pagecheckerboard="0"
     inkscape:deskcolor="#d1d1d1"
     inkscape:document-units="mm"
     showgrid="false"
     inkscape:zoom="11.313709"
     inkscape:cx="326.9485"
     inkscape:cy="229.01421"
     inkscape:window-width="1920"
     inkscape:window-height="1017"
     inkscape:window-x="1912"
     inkscape:window-y="-8"
     inkscape:window-maximized="1"
     inkscape:current-layer="g13744" />
  <defs
     id="defs2" />
  <g
     inkscape:label="Layer 1"
     inkscape:groupmode="layer"
     id="layer1"
     transform="translate(-130.9905,-29.219226)">
    <g
       id="g16979"
       transform="translate(16.83798,10.851143)">
      <g
         id="g15469"
         transform="translate(94.133155,3.339391)">
        <path
           style="fill:#1c71d8;stroke-width:0.264583"
           id="path15140"
           d="m 27.161886,21.650277 c 0.02553,-0.01421 0.05105,-0.0284 0.07657,-0.0426 0.02861,-0.03826 0.04519,-0.08967 0.08583,-0.114776 0.04989,-0.03082 0.116366,-0.02088 0.170457,-0.04352 0.05675,-0.02376 0.105067,-0.06411 0.158682,-0.0943 0.264252,-0.148783 0.118284,-0.03004 0.343299,-0.270595 0.100505,0.0041 0.208521,0.05065 0.301514,0.0123 0.09266,-0.03821 0.119917,-0.166407 0.204108,-0.220784 0.108661,-0.07018 0.402306,-0.101312 0.524285,-0.125714 0.422571,-0.08454 0.0575,-0.03634 0.469812,-0.0801 0.262724,-0.06163 0.156697,-0.05882 0.425556,-0.03402 0.0693,0.0064 0.138084,0.02911 0.207452,0.02352 0.06949,-0.0056 0.131712,-0.05912 0.20138,-0.0565 0.592259,0.02228 -0.209608,0.154472 0.379142,0.0312 0.120433,0.06319 0.201647,0.119036 0.337347,0.141542 0.05405,0.009 0.110289,-0.0057 0.164325,0.0033 0.04804,0.008 0.09086,0.0361 0.138265,0.04733 0.230799,0.05468 0.03155,-0.03511 0.229659,0.06955 0.241017,0.18447 -0.08552,-0.05553 0.159139,0.09384 0.02352,0.01437 0.04022,0.03807 0.063,0.05359 0.02029,0.01384 0.04836,0.01619 0.06539,0.03389 0.138954,0.144322 -0.08863,-0.0058 0.08679,0.09833 -0.0084,0.02837 -0.03206,0.05632 -0.02527,0.08513 0.0044,0.01892 0.04144,0.01042 0.05169,0.02693 0.0098,0.01585 -0.003,0.03751 -1.96e-4,0.05596 0.0021,0.01397 0.01408,0.02567 0.01455,0.03979 0.0028,0.08465 -0.04768,0.01709 0.03452,0.08819 -0.06305,0.170682 0.02066,-0.09823 0.02643,0.08318 0.0013,0.041 -0.09965,0.04325 -0.108902,0.04271 -0.01662,-0.0011 0.03439,-0.0016 0.04908,-0.0093 0.01289,-0.0069 0.01958,-0.02172 0.02935,-0.03256 0.0019,-0.0021 0.008,-0.0061 0.0053,-0.0061 -0.119615,-0.0032 -0.259601,0.158943 -0.361166,0.19776 -0.06011,0.02297 -0.126646,0.02283 -0.189969,0.03424 -0.07478,0.0075 -0.149558,0.015 -0.224337,0.02249 -0.08144,0.01828 -0.161388,0.04543 -0.244322,0.05488 -0.08967,0.01021 -0.180991,-0.0059 -0.270716,0.0038 -0.09075,0.0098 -0.177141,0.05141 -0.268372,0.0545 -0.606682,0.02056 0.06071,-0.126259 -0.521774,0.03268 -0.07744,-0.05258 -0.140714,-0.138536 -0.232328,-0.157742 -0.07654,-0.01603 -0.148411,0.05547 -0.226373,0.06158 -0.06635,0.0052 -0.321834,-0.05114 -0.389358,-0.06922 -0.05826,-0.01561 -0.113019,-0.04479 -0.172556,-0.05443 -0.05582,-0.009 -0.113091,-5.29e-4 -0.169635,-0.0011 -0.04899,-0.02532 -0.09572,-0.05563 -0.146976,-0.07599 -0.04596,-0.01826 -0.09405,-0.03283 -0.143084,-0.03923 -0.06714,-0.0088 -0.18964,0.02342 -0.255003,-0.02363 -0.161549,-0.116234 0.0163,-0.162076 -0.183618,-0.06116 -0.02974,-2.65e-4 -0.06183,0.01061 -0.08921,-0.0011 -0.02768,-0.01172 -0.03563,-0.05308 -0.06371,-0.06382 -0.02574,-0.0098 -0.05526,0.0026 -0.0823,0.008 -0.02877,0.0057 -0.05852,0.03869 -0.08439,0.02487 -0.03844,-0.105069 -0.0027,-0.07665 -0.08662,-0.106138 -0.08041,-0.06537 0.03896,-0.07892 0.08639,0.09453 0.02572,0.09403 -0.04188,0.199578 0.02352,0.210021 0.01781,0.0028 0.01299,-0.03363 0.01947,-0.05044 0.181454,-0.225949 0.441315,-0.271396 0.703501,-0.348615 0.199739,-0.05883 0.290812,-0.09524 0.486431,-0.166158 0.709883,-0.223182 -0.260477,0.02461 0.500819,0.03469 0.0883,0.0011 0.155999,-0.09388 0.24375,-0.103767 0.08433,-0.0095 0.16631,0.03402 0.249989,0.04814 0.421651,0.07115 0.06995,-0.0082 0.476809,0.09316 0.663553,0.0693 -0.187638,-0.03571 0.4173,0.08766 0.158327,0.03229 0.192723,-0.02021 0.32955,0.06552 0.02625,0.01646 0.123293,0.130466 0.151921,0.163346 0.09908,0.08562 -0.06764,2.64e-4 -0.07463,-0.01805 -0.01664,-0.04384 0.01884,-0.09204 0.02349,-0.1387 0.0122,-0.122105 -0.03196,-0.141234 0.05947,-0.04111 -0.04299,-0.01323 -0.08399,-0.04032 -0.128971,-0.03972 -0.0865,0.0011 -0.284996,0.115636 -0.344591,0.133459 -0.08674,0.02593 -0.177458,0.03646 -0.267009,0.04977 -0.298821,0.0444 -0.320977,0.03515 -0.630153,0.0429 -0.111795,0.0079 -0.224491,0.0075 -0.335383,0.02376 -0.109607,0.01606 -0.213614,0.06726 -0.32425,0.07285 -0.163131,0.0082 -0.423616,-0.07635 -0.585872,-0.09568 -0.131524,-0.01566 -0.299051,-0.0038 -0.432681,0.0021 0.100319,0.01595 -0.16932,-0.131057 -0.177869,-0.06814 -0.0026,0.01942 0.03677,0.01498 0.05214,0.02712 0.06651,0.05256 0.140176,0.0995 0.192487,0.166206 0.01132,0.01445 -0.04024,0.05599 -0.02283,0.05012 0.03021,-0.01019 0.04626,-0.04388 0.06938,-0.06582 0.0475,-0.0351 0.09122,-0.07598 0.142489,-0.105294 0.229452,-0.131175 0.509484,-0.203784 0.768054,-0.24431 0.102489,-0.01606 0.207499,-0.0131 0.309671,-0.03107 0.09941,-0.01749 0.195574,-0.05004 0.293362,-0.07507 0.32793,0.03466 0.199265,-0.0037 0.481859,0.114284 0.05325,0.02225 0.112347,0.0349 0.158581,0.06943 0.03851,0.02876 0.05712,0.07738 0.08767,0.114495 0.0077,0.0094 0.02869,0.03672 0.02689,0.02469 -0.0035,-0.0236 -0.0218,-0.04243 -0.03271,-0.06364 -0.306292,-0.0091 0.05573,-0.270111 -0.0373,-0.330287 -0.03234,-0.02093 -0.05611,0.05849 -0.09344,0.06798 -0.07158,0.0182 -0.148521,-7.94e-4 -0.221245,0.01206 -0.509675,0.0903 -0.02363,0.0962 -0.575651,0.04893 -0.09856,0.01344 -0.19712,0.02687 -0.29568,0.0403 -0.0907,0.0231 -0.179832,0.05356 -0.272089,0.06933 -0.07962,0.0136 -0.163095,0.03739 -0.241615,0.01844 -0.07536,-0.01818 -0.122002,-0.10319 -0.196628,-0.124169 -0.02365,-0.0066 -0.221237,0.04195 -0.260977,0.05125 0.05011,-0.101426 0.115086,-0.275212 0.239027,0.157665 0.03763,0.131448 -0.0335,0.271939 -0.03545,0.408654 -2.65e-4,0.02024 0.009,0.05751 0.02888,0.05343 0.04917,-0.01011 0.07768,-0.06648 0.124363,-0.08494 0.07112,-0.02811 0.148894,-0.03501 0.22334,-0.05251 0.342611,-0.118351 0.17155,-0.08144 0.538125,-0.117218 0.08943,-0.0087 0.17853,-0.02713 0.26837,-0.02543 0.08195,0.0016 0.161464,0.03816 0.243377,0.03515 0.41194,-0.01511 0.01326,-0.117843 0.375203,0.0068 0.0725,0.106619 0.173291,-0.07014 0.241847,-0.0268 0.02529,0.01598 0.0099,0.107249 -0.01357,0.08871 -0.08401,-0.06632 -0.186513,-0.147646 -0.196122,-0.254246 -0.04514,-0.500631 0.307282,-0.356775 0.06245,-0.437835 -0.157279,0.0033 -0.284949,0.141451 -0.439322,0.147777 -0.10618,0.0043 -0.204621,-0.06764 -0.310843,-0.07081 -0.108784,-0.0033 -0.214144,0.04021 -0.322345,0.05191 -0.568621,0.0615 -0.106349,-0.04803 -0.655402,0.113237 -0.222705,-0.125929 -0.5276,0.05826 -0.752576,0.02347 -0.05783,-0.0089 -0.109593,-0.04212 -0.160789,-0.07046 -0.01206,-0.0067 -0.03593,-0.04163 -0.02548,-0.03263 0.06381,0.05488 0.124018,0.113821 0.186029,0.170733 0.861248,0.53337 0.06818,0.492842 0.02635,0.374792 -0.03123,-0.08814 -0.01857,-0.186086 -0.02788,-0.279132 0.0013,-5.3e-4 -5.29e-4,-0.0042 -0.0019,-0.0036 v 0 c -0.09809,-0.06214 -0.179883,-0.166404 -0.294257,-0.186425 -0.389712,-0.06822 -0.229745,0.603546 -0.231285,0.674492 0.158168,0.04793 0.290851,0.112506 0.454813,0.103404 0.263253,-0.01461 0.03486,-0.04327 0.338659,-0.109638 0.175937,-0.03844 0.364151,0.01336 0.539316,-0.03194 0.107474,-0.0013 0.215075,0.0019 0.322421,-0.0036 0.254291,-0.01273 0.410223,-0.0434 0.663247,-0.06372 0.207407,-0.01667 0.390218,-0.01257 0.595839,-0.04312 0.08358,-0.01241 0.165264,-0.03531 0.247896,-0.05296 0.286028,-0.03051 0.455798,0.01238 0.471263,-0.49857 0.0035,-0.115157 -0.147209,-0.177956 -0.230558,-0.257495 -0.03473,-0.03315 -0.07346,-0.07175 -0.121063,-0.07804 -0.104904,-0.01386 -0.197752,0.128064 -0.312724,0.0546 -0.371721,-0.282843 -0.02713,-0.111951 -0.459465,-0.06446 -0.09354,0.01026 -0.186314,-0.02879 -0.280289,-0.03378 -0.103063,-0.0055 -0.207079,-0.0093 -0.309618,0.0024 -0.205817,0.02357 -0.39992,0.117777 -0.610513,0.116319 -0.08555,0.03524 -0.171108,0.07049 -0.256664,0.105736 -0.08864,0.0024 -0.181602,-0.02021 -0.26593,0.0072 -0.242276,0.07881 -0.413697,0.421516 -0.382511,0.650148 0.02466,0.180776 0.294243,0.261363 0.437351,0.316172 0.04788,-0.02564 0.09004,-0.06814 0.143632,-0.07688 0.05709,-0.0093 0.113842,0.02323 0.17164,0.02548 0.0725,0.0028 0.144997,-0.01474 0.217427,-0.01042 0.08804,0.0052 0.173942,0.04769 0.261712,0.039 0.10196,-0.01011 0.190535,-0.08593 0.292683,-0.09388 0.108878,-0.0085 0.216267,0.03055 0.324403,0.04583 0.107016,-0.02487 0.212423,-0.05815 0.321045,-0.07465 0.107728,-0.01638 0.217731,-0.01167 0.32603,-0.02365 0.226028,-0.02503 0.386998,-0.03931 0.582636,-0.164835 0.104244,-0.06688 0.228521,-0.128281 0.28484,-0.238588 0.06013,-0.117766 0.02569,-0.263205 0.03855,-0.394806 -0.125156,-0.184933 -0.138348,-0.256402 -0.336028,-0.361839 -0.06888,-0.03674 -0.148326,-0.04897 -0.221015,-0.07743 -0.08583,-0.0336 -0.163211,-0.09438 -0.254267,-0.108659 -0.100994,-0.01582 -0.203981,0.01389 -0.305972,0.02082 l -0.329941,-0.0885 c -0.268756,0.0218 -0.47458,0.02903 -0.739778,0.08993 -0.442634,0.101639 -0.282088,0.09115 -0.679468,0.273846 -0.184515,0.08483 -0.381984,0.13933 -0.566589,0.223956 -0.03339,0.08173 -0.04785,0.174078 -0.100166,0.245198 -0.0608,0.08265 -0.206949,0.104243 -0.23037,0.204134 -0.05134,0.218982 0.114596,0.412678 0.274611,0.515797 0.103343,0.0666 0.254833,0.08513 0.370379,0.10835 0.07397,0.02643 0.143785,0.07108 0.221901,0.07928 0.08877,0.0093 0.177276,-0.02156 0.266298,-0.02802 0.0983,-0.0071 0.196935,-0.0084 0.295391,-0.01281 0.106484,-0.0048 0.21285,-0.01574 0.319432,-0.01466 0.111265,0.0011 0.222017,0.02714 0.333134,0.02127 0.115755,-0.0061 0.228706,-0.03794 0.343059,-0.0569 0.114271,-0.0038 0.228481,-0.01196 0.342812,-0.01127 0.110893,7.94e-4 0.221499,0.01902 0.332336,0.01535 0.104981,-0.0035 0.208814,-0.02315 0.312959,-0.03683 0.09634,-0.01265 0.194641,-0.01675 0.288433,-0.04214 0.07698,-0.02082 0.144243,-0.06874 0.219448,-0.09527 0.06806,-0.024 0.139436,-0.03728 0.209153,-0.05591 0.07308,-0.05772 0.298823,-0.218517 0.330526,-0.315918 0.02344,-0.07198 -0.02932,-0.359804 -0.07341,-0.435512 -0.05114,-0.08781 -0.178583,-0.114527 -0.208907,-0.222043 -0.01188,-0.0057 -0.302461,-0.146056 -0.30481,-0.147794 -0.06046,-0.04473 -0.09622,-0.119301 -0.160121,-0.15898 -0.210124,-0.130487 -0.515847,-0.05858 -0.715534,-0.21952 -0.717253,-0.138427 0.164809,0.0061 -0.584409,-0.03182 -0.100099,-0.0051 -0.197469,-0.03451 -0.295976,-0.05301 -0.107116,-0.02011 -0.21423,-0.08529 -0.320878,-0.06283 -0.924349,0.194747 0.344545,0.248835 -0.590558,0.160155 -0.09573,0.03645 -0.192638,0.06996 -0.2872,0.109358 -0.09506,0.0396 -0.183439,0.09576 -0.281403,0.127513 -0.163624,0.05304 -0.426993,0.05834 -0.583761,0.140951 -0.101275,0.05337 -0.278347,0.260139 -0.357883,0.347269 -0.04426,0.04848 -0.08391,0.101605 -0.132771,0.145428 -0.0652,0.05847 -0.486111,0.188067 -0.522327,0.267795 -0.118319,0.260472 0.332973,0.254791 0.47266,0.428043 0.09772,0.121224 0.05238,0.09524 0.178374,0.112673 0.01693,0.02577 0.02771,0.05687 0.0508,0.0773 0.01638,0.0145 0.248743,0.104048 0.272613,0.109739 0.207675,0.04953 0.01619,-0.04763 0.211022,0.07217 0.467188,0.03055 -0.217985,-0.02008 0.250753,0.03409 0.04422,0.0051 0.09204,-0.01222 0.133498,0.004 0.0491,0.01921 0.07518,0.07943 0.12486,0.09708 0.104621,0.03718 0.230068,-0.03717 0.331695,0.03046 0.308644,0.09224 0.04915,0.03656 0.385156,0.04356 0.06951,0.0013 0.138528,0.01209 0.207717,0.01892 0.07484,0.0074 0.149354,0.02924 0.224353,0.02373 0.08477,-0.0062 0.163626,-0.06686 0.248211,-0.05846 0.09297,0.0092 0.172204,0.07251 0.258307,0.108762 0.0922,-0.02085 0.184685,-0.04046 0.276598,-0.06252 0.0959,-0.02302 0.188963,-0.06031 0.286809,-0.07273 0.09584,-0.01217 0.193439,0.0062 0.289822,-5.29e-4 0.274267,-0.01876 0.53939,-0.09742 0.808278,-0.14769 0.08724,0.02058 0.17232,0.06838 0.261705,0.06175 0.06793,-0.0051 0.117028,-0.07158 0.181133,-0.09462 0.05979,-0.02148 0.127085,-0.01606 0.186857,-0.0376 0.05371,-0.01934 0.09964,-0.05576 0.149492,-0.0836 0.198808,-0.111003 0.10472,-0.04708 0.278779,-0.187674 0.06849,-0.10354 0.126489,-0.150117 0.120843,-0.278749 -0.0016,-0.03757 -0.04377,-0.0705 -0.03531,-0.107135 0.0096,-0.04169 0.06359,-0.05988 0.08272,-0.09815 0.05952,-0.119052 0.01212,-0.122028 -0.06308,-0.210145 0.0108,-0.04723 0.05312,-0.190868 0.02471,-0.240102 -0.0232,-0.04021 -0.08455,-0.04314 -0.11565,-0.0776 -0.02469,-0.02734 -0.03055,-0.06704 -0.04534,-0.100767 -0.0638,-0.145481 -0.04044,-0.08254 -0.08211,-0.244906 -0.251097,-0.04698 -0.04986,0.02442 -0.20734,-0.125386 -0.0312,-0.02968 -0.0851,-0.03359 -0.108953,-0.06944 -0.03256,-0.04894 -0.0114,-0.12464 -0.04981,-0.169151 -0.05057,-0.05863 -0.261692,-0.07604 -0.320625,-0.08475 -0.408173,-0.110799 0.11689,0.03689 -0.314076,-0.102243 -0.05595,-0.01807 -0.114732,-0.02682 -0.170215,-0.04629 -0.06149,-0.02156 -0.116017,-0.06368 -0.179903,-0.07655 -0.06561,-0.0132 -0.137245,0.02096 -0.200766,-1.03e-4 -0.0756,-0.02506 -0.132599,-0.08826 -0.1989,-0.132384 -0.842405,-0.01225 0.417882,-0.01778 -0.454578,0.06964 -0.08594,0.0086 -0.391428,-0.06138 -0.472615,-0.06393 -0.08432,-0.0026 -0.167831,0.019 -0.252148,0.02172 -0.08859,0.0029 -0.177242,-0.0033 -0.265861,-0.0049 -0.03721,0.009 -0.525637,0.1259 -0.555123,0.136483 -0.09462,0.03396 -0.177977,0.09515 -0.272753,0.128662 -0.09863,0.03487 -0.208624,0.03391 -0.304623,0.07549 -0.09513,0.0412 -0.167375,0.124489 -0.260816,0.169376 -0.09144,0.04393 -0.192791,0.06322 -0.289187,0.09483 -0.300857,0.07841 -0.227875,0.01595 -0.437425,0.229392 -0.05132,0.05228 -0.07779,0.135435 -0.144594,0.165507 -0.07125,0.03207 -0.163788,-0.0285 -0.234339,0.0051 -0.02482,0.0118 -0.665511,0.198239 -0.68295,0.231487 -0.168426,0.163163 0.813966,0.689155 0.982395,0.525991 z"
           sodipodi:nodetypes="ccssscssscsssccsscsscccccscsccscsccssscsssccsccccccccsccsccsscsscccccsscscscccsscssscsscccsscccssccscsscccccscscccscccccscssscssccsscssscscccccscsccsccscsscsssccsscssscscccscccssscsscssccsccssssssscsscsssccscccsscccssscccscssscssscsssscscccsssscsssccc" />
        <g
           id="g15168"
           transform="matrix(1.09877,0,0,1,-70.16625,-10.963672)">
          <path
             style="fill:#1c71d8;stroke-width:0.264583"
             id="path15138"
             d="m 93.940041,32.961857 c -0.16597,-0.01757 -0.02172,-0.01606 -0.203671,0.03001 -0.0477,0.01206 -0.0986,0.01 -0.145489,0.02487 -0.123041,0.03907 -0.225488,0.123767 -0.356205,0.144224 -0.0781,0.01222 -0.158081,-0.0024 -0.237123,-0.0037 -0.07062,0.06061 -0.120922,0.162057 -0.211862,0.181816 -0.09228,0.02005 -0.17834,-0.07623 -0.272772,-0.07651 -0.08875,-2.57e-4 -0.168524,0.05717 -0.255466,0.07497 -0.08746,0.01791 -0.178247,0.01506 -0.265941,0.03179 -0.0871,0.01662 -0.168489,0.06733 -0.257159,0.06808 -0.09263,7.94e-4 -0.180356,-0.04239 -0.270534,-0.06359 -0.08633,0.0064 -0.172648,0.01281 -0.258974,0.01921 -0.08424,-0.03877 -0.160224,-0.109815 -0.252735,-0.116303 -0.08226,-0.0058 -0.152363,0.06657 -0.233328,0.08222 -0.215278,0.04161 -0.428276,-0.04372 -0.631436,-0.09974 -0.357947,0.04777 -0.102167,0.05297 -0.4327,-0.05674 -0.06479,-0.02151 -0.133628,-0.02847 -0.1993,-0.0471 -0.05981,-0.01696 -0.115152,-0.05101 -0.176728,-0.05955 -0.363654,-0.05043 -0.01042,0.09296 -0.324586,-0.06045 -0.04828,-0.01913 -0.09657,-0.03826 -0.144851,-0.05739 -0.05691,0.02127 -0.112742,0.08192 -0.170725,0.06379 -0.05589,-0.01746 -0.05214,-0.10828 -0.09592,-0.147158 -0.03089,-0.02743 -0.08084,-0.02117 -0.116711,-0.04165 -0.07785,-0.04443 -0.10642,-0.09661 -0.157485,-0.165052 -0.196702,0.11552 -0.113742,-0.03406 -0.247907,-0.08385 -0.02093,-0.0078 -0.06376,0.01273 -0.06632,-0.0094 -0.0045,-0.0389 0.03542,-0.06985 0.05313,-0.104778 -0.01855,5.29e-4 -0.03949,0.01101 -0.05564,0.0019 -0.01233,-0.007 -0.005,-0.02868 -0.01273,-0.04055 -0.0044,-0.0067 -0.02394,-0.01902 -0.02117,-0.01148 0.0041,0.01114 0.03677,0.01953 0.02595,0.02442 -0.0208,0.0094 -0.08274,0.01243 -0.06831,-0.0052 0.01884,-0.02307 0.05833,-0.01217 0.08749,-0.01826 0.0072,-0.126871 -0.0099,0.0089 0.04903,-0.137843 0.01418,-0.0353 0.006,-0.08033 0.02953,-0.110238 0.0498,-0.06339 0.166894,-0.06768 0.225195,-0.112758 0.03753,-0.02902 0.05961,-0.07382 0.08942,-0.110723 0.171416,0.0035 0.201705,0.02397 0.36113,-0.05118 0.06222,-0.02933 0.109871,-0.08684 0.174702,-0.10982 0.0075,-0.0026 0.380867,-0.04282 0.395361,-0.05079 0.06393,-0.03516 0.09913,-0.107085 0.148691,-0.160629 0.06904,0.01196 0.137247,0.04105 0.207132,0.03591 0.06301,-0.0046 0.117856,-0.04596 0.178342,-0.06423 0.06074,-0.01834 0.122846,-0.03199 0.184851,-0.04546 0.06205,-0.01349 0.124791,-0.0236 0.187187,-0.0354 0.072,0.0076 0.144275,0.03283 0.215998,0.02294 0.07913,-0.01093 0.149688,-0.05583 0.224531,-0.08375 0.083,7.94e-4 0.167211,0.01635 0.248997,0.0021 0.08548,-0.01482 0.158266,-0.08869 0.245012,-0.08774 0.774356,0.0084 -0.230209,0.178371 0.464254,0.113146 0.443455,-0.04165 -0.02064,-0.10288 0.380185,-0.02585 0.04469,0.04699 0.07115,0.125288 0.134069,0.140978 0.05693,0.01421 0.104222,-0.07039 0.162799,-0.06696 0.05662,0.0033 0.183284,0.154118 0.228634,0.175506 0.170524,0.02598 0.09104,-0.0011 0.239128,0.07917 0.05751,0.06753 0.15285,0.0105 0.217117,0.04734 0.03006,0.01722 0.03734,0.05866 0.06001,0.08486 0.05685,0.0657 0.120264,0.08169 0.19853,0.109548 0.0218,0.06382 0.09559,0.03963 0.13425,0.07272 0.01548,0.01325 0.004,0.04554 0.02045,0.0576 0.0195,0.01431 0.06038,-0.01109 0.07188,0.01019 0.06011,0.111234 -0.165214,0.0859 0.08176,0.07727 -0.08256,0.18329 -0.04402,0.01976 0.02199,0.118751 0.01087,0.0163 -0.01469,0.0442 -0.0016,0.05878 0.01884,0.02096 0.05824,0.0099 0.07975,0.02816 0.03669,0.0311 -0.02973,0.09726 -0.03661,0.107246 0.0035,0.01635 0.01434,0.0328 0.01048,0.04908 -0.0052,0.02167 -0.03274,0.03444 -0.03561,0.05652 -0.0021,0.01669 0.0209,0.02853 0.02236,0.0453 0.0011,0.01259 -0.01934,0.02257 -0.01553,0.0346 0.01511,0.04761 0.06316,0.0065 0.01193,0.03971 0.01706,-0.01889 0.04019,0.06681 0.01267,0.06569 -0.02283,-0.0011 -0.04385,-0.03132 -0.06484,-0.02228 -0.01998,0.0086 -0.01786,0.03982 -0.02416,0.06064 -0.01085,0.03573 -0.01815,0.07245 -0.02721,0.108672 -0.08538,0.14723 -0.04757,0.06118 -0.09817,0.264327 -0.0071,0.0024 -5.29e-4,0.02236 0.0066,0.02003 v 0 c 0.209998,0.186907 0.09785,0.134236 0.31885,0.191039 0.03746,-0.01939 0.07268,-0.04394 0.112384,-0.05818 0.319813,-0.114718 -0.06457,0.06866 0.249412,-0.08131 0.04329,-0.02069 0.09659,-0.0296 0.12795,-0.06591 0.0522,-0.06043 -0.005,-0.183856 0.107291,-0.214175 0.0047,-0.05575 0.01037,-0.163724 0.02812,-0.217434 0.01106,-0.03348 0.03872,-0.06022 0.04809,-0.09421 0.03517,-0.127672 -0.01532,-0.06575 -0.02397,-0.187346 -0.0024,-0.03404 0.0097,-0.06755 0.01461,-0.101328 0.180338,-0.282355 0.01902,0.05459 -0.06071,-0.203544 -0.01458,-0.04721 0.07513,-0.08446 0.06559,-0.132942 -0.0084,-0.04262 -0.07537,-0.0448 -0.106518,-0.07507 -0.09435,-0.09171 -0.06092,-0.09776 -0.04039,-0.225301 -0.01815,-0.03372 -0.03096,-0.07093 -0.05449,-0.101148 -0.232447,-0.298349 0.04538,0.13152 -0.160909,-0.180385 -0.02331,-0.03525 -0.03153,-0.08286 -0.0647,-0.109034 -0.02848,-0.02246 -0.07054,-0.01701 -0.105804,-0.02551 -0.02917,-0.02479 -0.05834,-0.04959 -0.08751,-0.07439 -0.073,-0.09369 -0.157898,-0.204324 -0.267285,-0.259149 -0.04061,-0.02035 -0.08844,-0.02207 -0.130513,-0.03918 -0.04136,-0.01683 -0.196355,-0.105532 -0.2364,-0.128042 -0.04804,-0.0094 -0.09723,-0.01413 -0.144113,-0.02818 -0.10472,-0.0314 -0.192345,-0.08584 -0.292516,-0.127891 -0.05606,-0.02352 -0.119192,-0.03194 -0.170704,-0.06423 -0.06256,-0.03921 -0.09485,-0.126635 -0.165888,-0.146759 -0.07137,-0.02021 -0.146217,0.02508 -0.219326,0.03764 -0.839994,-0.04008 0.397097,0.04035 -0.47797,-0.09194 -0.0861,-0.01302 -0.174115,0.0052 -0.261189,0.0047 -0.09505,-5.29e-4 -0.19009,-0.01259 -0.285038,-0.0081 -0.0988,0.0046 -0.196414,0.02355 -0.294619,0.03532 -0.09447,0.0035 -0.188936,0.007 -0.283406,0.01056 -0.505029,0.157636 -0.03477,0.02847 -0.51404,0.113665 -0.06904,0.01228 -0.134665,0.04205 -0.204333,0.05 -0.07083,0.0081 -0.144327,-0.01802 -0.213852,-0.0024 -0.06707,0.01519 -0.122925,0.06168 -0.184388,0.09252 -0.06849,0.01246 -0.13698,0.02492 -0.205467,0.0374 -0.264126,0.139917 -0.122211,0.09861 -0.426855,0.120042 -0.07573,0.03815 -0.102177,0.139565 -0.172461,0.18701 -0.06726,0.0454 -0.15285,0.05461 -0.228592,0.08373 -0.257463,0.09897 -0.185735,0.06931 -0.41466,0.1921 -0.631,0.186233 0.116649,-0.102597 -0.296069,0.285049 -0.05572,0.05233 -0.161893,0.0091 -0.222433,0.05575 -0.155593,0.119928 -0.0027,0.441717 -0.2614,0.485005 -0.01243,0.05804 -0.02241,0.116674 -0.03734,0.174125 -0.01683,0.06466 -0.0629,0.125294 -0.05784,0.191916 0.03927,0.517448 0.0785,-0.05114 0.162367,0.259911 0.05285,0.195998 -0.156197,0.05148 0.09676,0.168965 0.115819,0.332383 -0.08354,-0.173836 0.140827,0.155477 0.02795,0.04103 0.0031,0.105527 0.03291,0.145256 0.02824,0.03769 0.08638,0.03884 0.125111,0.06562 0.185367,0.12817 0.01148,0.09344 0.262234,0.09309 0.0348,0.03772 0.06119,0.08544 0.104386,0.113162 0.08348,0.05358 0.197466,0.03978 0.284448,0.08747 0.04885,0.02678 0.07445,0.09564 0.12918,0.106021 0.367702,0.06978 -0.0024,-0.222657 0.3013,0.07659 0.0536,0.02096 0.10419,0.05258 0.160816,0.06289 0.337,0.0614 0.05288,-0.07753 0.393377,0.05487 0.0718,0.02792 0.130413,0.09033 0.206135,0.104534 0.662527,0.124288 -0.170194,-0.208923 0.478057,0.08564 0.839038,0.06723 -0.349687,0.0032 0.502809,-0.05736 0.0838,-0.006 0.164568,0.03836 0.248496,0.04201 0.284422,0.01236 0.540422,-0.142738 0.821071,-0.01543 0.09296,-0.03283 0.182883,-0.07602 0.278874,-0.09847 0.09132,-0.02135 0.186547,-0.01982 0.279524,-0.03213 0.352023,-0.04662 0.698966,-0.127167 1.043302,-0.212506 0.652817,-0.131109 -0.155308,0.03941 0.439463,-0.110424 0.06124,-0.01543 0.124092,-0.02357 0.186166,-0.03522 0.05205,-0.0098 0.107706,-0.0077 0.156207,-0.02899 0.0654,-0.02868 0.100052,-0.106463 0.168717,-0.132027 0.174463,-0.05094 0.03037,-0.544399 -0.14409,-0.493456 z" />
          <path
             style="fill:#1a5fb4;stroke-width:0.264583"
             id="path15144"
             d="m 88.79501,31.125168 c -0.01704,0.04019 -0.03407,0.08038 -0.05111,0.120568 -0.07092,0.03952 -0.170206,0.04942 -0.21277,0.118562 -0.05765,0.09364 -0.0074,0.22778 -0.05993,0.324411 -0.062,0.114146 -0.19445,0.175511 -0.269287,0.281683 -0.08335,0.11825 -0.133491,0.25671 -0.200557,0.384895 -0.07003,0.133845 -0.140494,0.267462 -0.210741,0.401196 -0.05411,0.133633 -0.108217,0.267268 -0.162324,0.400901 -0.0016,0.0024 0.0049,0.0069 0.0066,0.0046 v 0 c 0.07318,-0.120338 0.146365,-0.240679 0.219549,-0.361016 0.126323,-0.09499 0.270179,-0.17031 0.378971,-0.284959 0.0997,-0.105069 0.159202,-0.242028 0.237013,-0.364194 0.06966,-0.109373 0.13607,-0.220789 0.205378,-0.330388 0.117933,-0.186491 0.269552,-0.366982 0.305456,-0.591248 0.03713,-0.06584 -0.149085,-0.170871 -0.186219,-0.105032 z" />
          <path
             style="fill:#1a5fb4;stroke-width:0.264583"
             id="path15146"
             d="m 90.413709,30.616943 c -0.06199,0.0074 -0.140406,-0.02059 -0.185967,0.02209 -0.0551,0.0516 -0.03107,0.15022 -0.06818,0.215953 -0.05091,0.09016 -0.134369,0.158176 -0.191728,0.244372 -0.07959,0.119605 -0.136077,0.253804 -0.218223,0.371668 -0.09922,0.142365 -0.219567,0.268872 -0.324527,0.407059 -0.118134,0.155525 -0.22973,0.315907 -0.344596,0.473861 -0.902758,1.44068 0.254788,-0.385577 -0.63827,0.959572 -0.09047,0.136274 -0.171577,0.27854 -0.257366,0.417812 -0.01672,0.0236 0.04999,0.07091 0.06672,0.04732 v 0 c 0.11004,-0.121711 0.218477,-0.24489 0.330115,-0.365135 0.54687,-0.589034 0.262014,-0.206148 0.699545,-0.911847 0.116422,-0.157239 0.229368,-0.317114 0.349272,-0.471715 0.767103,-0.989092 -0.0614,0.123828 0.595098,-0.747723 0.06285,-0.08344 0.122033,-0.169585 0.184531,-0.253288 0.04246,-0.05687 0.103449,-0.102685 0.130304,-0.168376 0.01902,-0.04653 1.25e-4,-0.100536 1.86e-4,-0.150804 0.03211,-0.04487 -0.0948,-0.135703 -0.126916,-0.09083 z" />
          <path
             style="fill:#1a5fb4;stroke-width:0.264583"
             id="path15154"
             d="m 91.765846,30.303676 c -0.01736,0.02896 -0.03471,0.05792 -0.05206,0.08688 -0.05368,0.03659 -0.123843,0.05652 -0.161052,0.109778 -0.0546,0.07816 -0.05269,0.185672 -0.102261,0.267116 -0.06748,0.110871 -0.169024,0.197432 -0.244658,0.302908 -0.237625,0.331375 -0.347676,0.556559 -0.550497,0.92093 -0.3809,0.527823 -0.715246,1.086707 -1.073603,1.629473 -0.496435,0.751893 -0.136236,0.158883 -0.540022,0.845868 -0.01675,0.02342 0.0495,0.07075 0.06624,0.04733 v 0 c 0.214882,-0.320561 0.331256,-0.508053 0.582327,-0.817454 0.133599,-0.164637 0.293235,-0.308065 0.417587,-0.479793 1.569757,-2.167826 -0.86782,0.96148 0.750075,-1.086223 0.114977,-0.157366 0.229954,-0.314735 0.344929,-0.472101 0.08284,-0.14029 0.153681,-0.288393 0.248518,-0.420867 0.170497,-0.238165 0.444249,-0.40549 0.506592,-0.710203 0.0083,-0.04062 -1.58e-4,-0.08293 -2.35e-4,-0.124389 0.03509,-0.06784 -0.156784,-0.167095 -0.191879,-0.09926 z" />
          <path
             style="fill:#1a5fb4;stroke-width:0.264583"
             id="path15158"
             d="m 92.723752,30.438555 c -0.288692,0.212836 0.03264,-0.06536 -0.176856,0.301432 -0.04361,0.07635 -0.127211,0.122743 -0.178734,0.19399 -0.155297,0.21476 -0.192878,0.369136 -0.311507,0.608838 -0.05936,0.119954 -0.126145,0.236093 -0.189219,0.354137 -0.118364,0.151442 -0.429506,0.541689 -0.529987,0.702426 -0.07893,0.126259 -0.136766,0.264594 -0.209203,0.394687 -0.0689,0.12374 -0.147992,0.241716 -0.21471,0.366646 -0.06201,0.116113 -0.101695,0.244068 -0.171153,0.355884 -0.05988,0.09639 -0.142828,0.17635 -0.214241,0.264525 -0.01942,0.025 0.05133,0.07996 0.07075,0.05494 v 0 c 0.07037,-0.08969 0.14613,-0.175398 0.211117,-0.269063 0.07428,-0.107069 0.123182,-0.231664 0.206062,-0.332226 0.09192,-0.11153 0.218644,-0.190368 0.31409,-0.298892 0.09817,-0.11162 0.170302,-0.244047 0.264533,-0.359011 0.531331,-0.648229 0.10478,-0.01519 0.538758,-0.708728 0.07028,-0.115793 0.128564,-0.239782 0.210846,-0.347377 0.284845,-0.372465 0.237699,-0.148937 0.440447,-0.538038 0.03976,-0.0763 0.05084,-0.165032 0.08781,-0.242724 0.05026,-0.105629 0.137343,-0.190833 0.182743,-0.299593 0.07137,-0.117221 -0.260183,-0.319077 -0.331552,-0.201856 z" />
          <path
             style="fill:#1a5fb4;stroke-width:0.264583"
             id="path15160"
             d="m 93.675784,31.109115 c -0.01413,0.238022 -0.209445,0.214059 -0.326565,0.375801 -0.06599,0.09114 -0.08133,0.210487 -0.134842,0.309473 -0.190429,0.352245 -0.253185,0.381669 -0.530852,0.686736 -0.13385,0.159203 -0.474591,0.548254 -0.578512,0.735203 -0.07106,0.127828 -0.10074,0.274873 -0.160803,0.408221 -0.05135,0.114011 -0.115329,0.221903 -0.172995,0.332853 -0.02013,0.02755 0.05779,0.08453 0.07793,0.05698 v 0 c 0.07237,-0.0996 0.131664,-0.210158 0.217104,-0.298799 0.09945,-0.103172 0.22906,-0.173233 0.33298,-0.271897 0.339829,-0.32263 0.313264,-0.345016 0.549762,-0.752673 0.244012,-0.190889 0.477661,-0.343763 0.66329,-0.596548 0.07024,-0.09566 0.109011,-0.210886 0.166568,-0.314677 0.04214,-0.07599 0.09078,-0.14827 0.132445,-0.224525 0.02973,-0.05442 0.04437,-0.117584 0.08157,-0.167204 0.02508,-0.03346 0.06685,-0.05025 0.100274,-0.07539 0.07197,-0.147558 -0.345387,-0.351118 -0.417356,-0.20356 z" />
        </g>
      </g>
      <g
         id="g15380"
         transform="translate(33.050779,-7.7731093)">
        <g
           id="g15190"
           transform="translate(-0.26458334,0.16536458)">
          <g
             id="g15173">
            <g
               id="g13731"
               transform="matrix(-1,0,0,1,180.74605,-0.46568053)">
              <path
                 style="fill:#000000;stroke-width:0.264583"
                 id="path13729"
                 d="m 98.052754,33.139313 c -0.03199,0.02484 -0.268348,0.203748 -0.286827,0.237969 -0.02925,0.05417 2.54e-4,0.126484 -0.02381,0.18315 -0.02204,0.05194 -0.0763,0.08353 -0.108969,0.12954 -0.0195,0.02745 -0.02212,0.06652 -0.04665,0.08959 -0.03046,0.02865 -0.07395,0.03908 -0.11093,0.05861 0.0026,0.02394 0.01003,0.0958 0.008,0.07181 -0.0078,-0.09128 -0.04233,-0.186222 0.113535,-0.157345 0.140057,0.02595 0.103317,0.113509 0.12637,0.04618 -0.01053,-0.06534 -0.02106,-0.130678 -0.03161,-0.196019 0.0011,-0.100852 0.01447,-0.202378 0.0028,-0.302557 -0.01402,-0.120351 -0.06864,-0.234032 -0.0794,-0.354719 -0.06403,-0.717724 0.08887,-0.144999 0.03016,-0.909939 -0.01296,-0.168783 -0.06391,-0.33247 -0.09587,-0.498708 0.05095,-0.332898 -0.01154,-0.670231 0.01762,-1.003517 0.014,-0.160109 0.07932,-0.314041 0.08465,-0.474673 0.005,-0.152066 -0.06081,-0.301262 -0.05389,-0.453255 0.0062,-0.136951 0.06492,-0.266443 0.09277,-0.400677 0.02524,-0.121682 0.04429,-0.244565 0.06644,-0.366847 0.02841,-0.107564 0.05683,-0.21513 0.08524,-0.322694 0.006,-0.0951 -0.0031,-0.192355 0.01789,-0.285297 0.01736,-0.07684 0.07267,-0.14078 0.09542,-0.216194 0.01818,-0.06022 0.0011,-0.129215 0.02619,-0.186886 0.0848,-0.19472 0.122804,-0.03661 0.08866,-0.143616 -0.06153,0.131241 -0.06309,0.187243 -0.238057,0.245097 -0.02741,0.0091 -0.04837,-0.03696 -0.07713,-0.03939 -0.02906,-0.0024 -0.05106,0.09212 -0.04294,0.150762 0.0056,0.04024 0.03128,0.07497 0.04692,0.112459 0.01336,0.05098 0.02671,0.10196 0.04007,0.15294 0.0249,0.06079 0.05777,0.118898 0.07468,0.182374 0.02299,0.08629 0.03711,0.175191 0.04426,0.264197 0.0086,0.106604 -0.0097,0.214604 0.0027,0.320829 0.01402,0.12016 0.07938,0.233918 0.07613,0.354848 -0.0035,0.129599 -0.06385,0.251307 -0.09577,0.376957 0.0041,0.340675 0.0208,0.462497 -0.03571,0.800124 -0.02141,0.127908 -0.07257,0.250061 -0.08942,0.378648 -0.01564,0.119407 -0.0024,0.240885 -0.0075,0.361207 -0.04325,1.026514 -0.0054,-0.316117 -0.02951,0.642329 -0.01749,0.09653 -0.03496,0.193058 -0.05244,0.289586 -0.0383,0.08279 -0.09815,0.158708 -0.114887,0.24838 0.01527,0.170548 0.04136,0.297683 0.0029,0.466429 -0.01508,0.06608 -0.05207,0.125267 -0.07366,0.189513 -0.01931,0.05751 -0.0326,0.116877 -0.04891,0.175316 0.04344,0.105248 -0.111072,0.171725 -0.102446,0.266506 0.0044,0.04827 0.0928,0.08099 0.07351,0.125466 -0.01812,0.04183 -0.123555,-0.02617 -0.135625,0.01781 -5.29e-4,0.0024 0.227401,0.199546 0.03366,0.0315 0.01106,0.0043 0.02204,0.01717 0.03315,0.01299 0.09539,-0.03604 0.180525,-0.0967 0.276871,-0.130098 0.262083,-0.09085 0.337817,-0.109987 0.58756,-0.04339 0.02003,0.0053 -0.04737,0.02606 -0.06129,0.01069 -0.04383,-0.04841 -0.05845,-0.116798 -0.08768,-0.175197 -0.03753,-0.08514 -0.09745,-0.163615 -0.112602,-0.255418 -0.02069,-0.125312 0.01,-0.253963 0.0076,-0.380944 -0.0029,-0.150384 -0.01775,-0.300318 -0.02349,-0.450617 -0.0065,-0.168852 -0.0036,-0.338051 -0.01307,-0.506757 -0.0099,-0.176342 -0.05342,-0.351496 -0.04527,-0.527931 0.008,-0.174069 0.06227,-0.342905 0.0934,-0.514358 -0.03207,-0.452903 -0.07132,-0.469006 0.03905,-0.899536 0.03235,-0.126185 0.09991,-0.241778 0.130135,-0.368487 0.02569,-0.107678 0.01125,-0.222309 0.03652,-0.330084 0.109299,-0.466151 0.14863,-0.0741 0.04779,-0.522094 0.04335,-0.05471 0.109728,-0.09735 0.130066,-0.164124 0.0074,-0.02445 -0.05534,-0.04347 -0.07258,-0.02463 -0.0909,0.09937 -0.08662,0.306298 -0.216763,0.340945 -0.255791,0.0681 -0.528751,-0.03512 -0.790773,-0.0727 -0.02387,-0.0034 -0.04825,-0.07192 -0.05373,-0.04844 -0.01852,0.07942 0.0053,0.162999 0.008,0.244499 0.05286,0.217533 0.169523,0.6722 0.190907,0.879031 0.01736,0.167899 -0.0081,0.338232 0.0071,0.506327 0.01508,0.165577 0.0733,0.325771 0.08375,0.491705 0.05961,0.946306 -0.140558,-0.0427 0.06439,0.807836 0.112006,0.109217 0.224012,0.218435 0.336016,0.327652 0,0 0.09266,0.0071 0.09266,0.0071 v 0 c 0.118033,-0.09727 0.236066,-0.194548 0.354097,-0.291822 0.222697,-0.63527 0.06637,-0.107593 0.189989,-0.819894 0.0293,-0.16882 0.08154,-0.333406 0.105844,-0.503018 0.07717,-0.538413 0.04502,-1.084545 0.01908,-1.624938 -0.0078,-0.256286 0.03531,-0.836697 -0.238681,-1.020069 -0.709025,-0.474523 -0.973788,-0.407681 -1.40707,0.112291 -0.121261,0.145521 -0.104262,0.374881 -0.238567,0.515763 -0.01378,0.102349 -0.03477,0.203981 -0.04135,0.307044 -0.0074,0.116073 0.02331,0.235088 -5.29e-4,0.348925 -0.02668,0.127317 -0.123934,0.233214 -0.148199,0.361013 -0.02627,0.138409 -0.0062,0.281874 -5.29e-4,0.422645 0.01865,0.469186 0.04404,0.518631 0.126204,0.995725 -0.03111,0.18918 -0.07451,0.376743 -0.09333,0.567537 -0.03244,0.328782 -0.02818,0.82391 0.01516,1.153689 0.02178,0.165727 0.08411,0.324686 0.102971,0.49077 0.09413,0.828911 -0.127855,0.116195 0.153926,0.850776 0.05526,0.100568 0.115284,0.198657 0.165767,0.301702 0.05742,0.117202 0.08217,0.251915 0.157631,0.358404 0.0974,0.137454 0.19676,0.298342 0.352774,0.361903 0.453432,0.184729 0.732975,-0.05121 0.947946,-0.398127 0.281509,-0.231333 0.09029,5.29e-4 0.108874,-0.253627 0.0088,-0.120478 0.09676,-0.147857 0.145881,-0.244845 0.02585,-0.05105 0.03664,-0.108498 0.05187,-0.163664 0.01598,-0.05791 0.02781,-0.116892 0.04172,-0.175336 -0.02923,-0.533808 -0.04459,0.09033 0.138803,-0.405564 0.02837,-0.07671 -0.0036,-0.164309 0.0084,-0.245221 0.01288,-0.08722 0.06737,-0.168064 0.06568,-0.256212 -0.0019,-0.101304 -0.07946,-0.192974 -0.07627,-0.294246 0.0033,-0.105608 0.06338,-0.201591 0.09507,-0.302387 0.185264,-0.701442 0.01881,0.05768 0.07256,-0.673473 0.0088,-0.120391 0.05027,-0.236437 0.06527,-0.356217 0.01611,-0.128553 0.0081,-0.25963 0.02789,-0.38767 0.02167,-0.140165 0.08144,-0.273431 0.09605,-0.414506 0.01527,-0.147514 -0.0047,-0.296569 -0.007,-0.444852 -0.164709,-1.673445 0.05119,0.784209 -0.0095,-0.887175 -0.0056,-0.153567 -0.06125,-0.302567 -0.06683,-0.456133 -0.0055,-0.152424 0.06431,-0.306917 0.03367,-0.456333 -0.02913,-0.142091 -0.155083,-0.247504 -0.205841,-0.383384 -0.04818,-0.128968 -0.05875,-0.269007 -0.08812,-0.403513 -0.08945,-0.08906 -0.180633,-0.176406 -0.268348,-0.267173 -0.09282,-0.09605 -0.164015,-0.216192 -0.273161,-0.293193 -0.120211,-0.08481 -0.262731,-0.13452 -0.401664,-0.182893 -0.386088,-0.134427 -0.588608,-0.178938 -0.982713,0.04195 -0.132167,0.07408 -0.210235,0.218234 -0.315351,0.327353 -0.02434,0.788871 0.07633,-0.07099 -0.195744,0.492853 -0.03581,0.07421 0.0054,0.167613 -0.01828,0.246517 -0.0281,0.09341 -0.103196,0.167582 -0.134123,0.260099 -0.0832,0.248896 -0.06145,0.445265 -0.06293,0.705258 0.0091,0.141269 0.03466,0.282437 0.02729,0.423807 -0.0078,0.150439 -0.05031,0.297071 -0.0726,0.446055 -0.02416,0.16147 -0.04227,0.323808 -0.06668,0.485238 -0.02582,0.170688 -0.06567,0.339381 -0.08398,0.511038 -0.04424,0.414745 -0.02614,0.664093 -0.01767,1.078587 0.373274,2.033558 -0.125413,-0.950307 0.05161,1.073187 0.015,0.17145 0.114073,0.327189 0.13734,0.497713 0.02244,0.164486 -0.02936,0.334378 -0.0016,0.49803 0.04963,0.291269 0.277098,0.533543 0.295984,0.835517 0.155435,0.15275 0.497178,0.525111 0.719476,0.597808 0.119052,0.03893 0.2521,0.003 0.37524,-0.01998 0.285956,-0.05326 0.508794,-0.255225 0.717611,-0.440605 0.04129,-0.05985 0.07609,-0.124759 0.123883,-0.179563 0.06447,-0.07393 0.156951,-0.12315 0.211315,-0.204798 0.0959,-0.144028 0.06838,-0.303249 0.107688,-0.460512 0.08902,-0.356209 0.115017,-0.08716 0.03357,-0.423241 0,0 -0.883748,-0.206769 -0.883748,-0.206769 z" />
            </g>
            <path
               style="fill:#99c1f1;stroke-width:0.264583"
               id="path14775"
               d="m 84.619493,27.57429 c -0.04141,-0.0077 -0.08321,-0.03279 -0.124214,-0.02318 -0.12314,0.0289 -0.01148,0.117878 -0.16047,0.09262 -0.122645,-0.0208 -0.111339,-0.08813 -0.218419,-0.133038 -0.03826,-0.01603 -0.08191,-0.01323 -0.122864,-0.01982 -0.01812,-0.0325 -0.02792,-0.07131 -0.05434,-0.09751 -0.03201,-0.03176 -0.0969,-0.02959 -0.115281,-0.07076 -0.0158,-0.03536 0.04542,-0.174453 0.07213,-0.206941 0.01976,-0.02402 0.05281,-0.03475 0.07235,-0.05895 0.0065,-0.008 1.19e-4,-0.02056 1.77e-4,-0.03086 0.171667,0.09018 0.359185,0.03175 0.520173,0.161417 0.05736,0.0462 0.08728,0.118668 0.130921,0.177996 0.0716,0.09734 0.05701,0.05245 0.07215,0.121615 -0.425656,-0.252171 -0.122507,0.007 -0.07385,-0.201826 0.01273,-0.05462 -0.0992,-0.15008 -0.155356,-0.14196 -0.0525,0.0076 -0.09304,0.05519 -0.145113,0.06531 -0.05245,0.01019 -0.106788,-0.004 -0.160181,-0.006 -0.03288,-0.03144 -0.0694,-0.05948 -0.09866,-0.09432 -0.03892,-0.04634 0.09366,-0.133686 0.03982,0.06929 -0.04334,0.163436 -0.146359,-0.05046 -0.04722,0.11149 0.07312,-0.009 0.318027,0.01064 0.36272,0.0685 0.01074,0.01392 -0.03606,0.03114 -0.04905,0.01931 -0.08878,-0.08087 -0.154784,-0.18365 -0.232174,-0.275473 0.02762,-0.100455 0.05523,-0.200909 0.08285,-0.301363 0.0062,-0.0029 0.02521,-0.0071 0.01857,-0.0086 -0.02085,-0.0049 -0.04634,-0.01384 -0.06422,-0.0021 -0.102693,0.06776 -0.03358,0.17957 -0.189061,0.06276 -0.02461,0.0209 -0.045,0.04814 -0.07381,0.06268 -0.01511,0.0076 -0.05868,-0.01476 -0.05075,1.67e-4 0.0096,0.0181 0.154128,0.08252 0.148865,0.116885 -0.01503,0.09815 -0.09994,0.172003 -0.140914,0.262448 0.01381,-0.01897 0.02764,-0.03792 0.04145,-0.05688 0.01299,0.02461 0.01733,0.09132 0.03894,0.07381 0.04961,-0.0402 0.05534,-0.115085 0.08301,-0.172627 0.04092,0.0092 0.0668,-0.106577 0.02588,-0.115729 v 0 c -0.02379,-0.28566 0.03171,-0.213751 -0.200038,-0.231444 -0.05283,0.02019 -0.119541,0.01958 -0.158485,0.0606 -0.0516,0.05434 -0.181253,0.284641 -0.11888,0.395049 0.0298,0.05275 0.109138,0.05934 0.147444,0.106281 0.03069,0.0376 0.0082,0.112993 0.05068,0.136482 0.03717,0.02056 0.08023,-0.02792 0.120343,-0.04187 0.05416,0.01974 0.286456,0.107201 0.324821,0.106868 0.05877,-5.29e-4 0.107833,-0.04953 0.165531,-0.0607 0.15271,-0.02957 0.24864,0.04624 0.370784,-0.110289 0.09083,-0.116393 0.133996,-0.263125 0.200994,-0.394689 -0.09102,-0.115383 -0.1558,-0.257554 -0.273055,-0.34615 -0.0522,-0.03944 -0.132006,0.0048 -0.196094,-0.0083 -0.05323,-0.01093 -0.0961,-0.06289 -0.15045,-0.0628 -0.06641,1.11e-4 -0.123047,0.05464 -0.188878,0.06336 -0.467934,0.062 0.08747,-0.139073 -0.441462,0.09335 -0.101587,0.04452 -0.23489,0.04741 -0.304758,0.133548 -0.06646,0.08193 -0.0589,0.205999 -0.0562,0.311462 0.0028,0.109281 0.09877,0.427689 0.187002,0.520036 0.01931,0.02021 0.426384,0.253897 0.458735,0.272637 0.08539,0.02973 0.167764,0.07022 0.256169,0.08918 0.22733,0.04875 0.396383,0.036 0.621594,-0.02832 0.114739,-0.03277 0.248237,-0.04727 0.333086,-0.131175 0.219641,-0.217199 0.168775,-0.480832 0.170498,-0.746374 -0.08366,-0.05424 -0.173392,-0.100113 -0.250989,-0.162729 -0.192334,-0.155199 -0.18823,-0.262943 -0.44033,-0.34508 -0.09752,-0.03177 -0.204968,-0.0145 -0.306049,-0.0319 -0.549013,-0.09454 -0.10745,-0.101354 -0.693119,-0.03823 -0.110246,0.101545 -0.366495,0.289989 -0.395607,0.473784 -0.01453,0.09174 0.0366,0.182123 0.0553,0.273103 0.06695,0.325774 0.08245,0.456922 0.372224,0.658283 0.809159,0.189953 -0.332886,-0.08201 0.470069,0.121897 0.08367,0.02125 0.166468,0.06281 0.2526,0.05708 0.07981,-0.0053 0.148418,-0.05972 0.222957,-0.08874 0.222694,-0.0867 0.140221,-0.0098 0.251037,-0.196448 0.104703,-0.103071 -0.186823,-0.399225 -0.291526,-0.296154 z" />
          </g>
          <g
             id="g15179">
            <g
               id="g13727"
               transform="translate(0.27346147,-0.46568053)">
              <path
                 style="fill:#000000;stroke-width:0.264583"
                 id="path13320"
                 d="m 98.052754,33.139313 c -0.03199,0.02484 -0.268348,0.203748 -0.286827,0.237969 -0.02925,0.05417 2.54e-4,0.126484 -0.02381,0.18315 -0.02204,0.05194 -0.0763,0.08353 -0.108969,0.12954 -0.0195,0.02745 -0.02212,0.06652 -0.04665,0.08959 -0.03046,0.02865 -0.07395,0.03908 -0.11093,0.05861 0.0026,0.02394 0.01003,0.0958 0.008,0.07181 -0.0078,-0.09128 -0.04233,-0.186222 0.113535,-0.157345 0.140057,0.02595 0.103317,0.113509 0.12637,0.04618 -0.01053,-0.06534 -0.02106,-0.130678 -0.03161,-0.196019 0.0011,-0.100852 0.01447,-0.202378 0.0028,-0.302557 -0.01402,-0.120351 -0.06864,-0.234032 -0.0794,-0.354719 -0.06403,-0.717724 0.08887,-0.144999 0.03016,-0.909939 -0.01296,-0.168783 -0.06391,-0.33247 -0.09587,-0.498708 0.05095,-0.332898 -0.01154,-0.670231 0.01762,-1.003517 0.014,-0.160109 0.07932,-0.314041 0.08465,-0.474673 0.005,-0.152066 -0.06081,-0.301262 -0.05389,-0.453255 0.0062,-0.136951 0.06492,-0.266443 0.09277,-0.400677 0.02524,-0.121682 0.04429,-0.244565 0.06644,-0.366847 0.02841,-0.107564 0.05683,-0.21513 0.08524,-0.322694 0.006,-0.0951 -0.0031,-0.192355 0.01789,-0.285297 0.01736,-0.07684 0.07267,-0.14078 0.09542,-0.216194 0.01818,-0.06022 0.0011,-0.129215 0.02619,-0.186886 0.0848,-0.19472 0.122804,-0.03661 0.08866,-0.143616 -0.06153,0.131241 -0.06309,0.187243 -0.238057,0.245097 -0.02741,0.0091 -0.04837,-0.03696 -0.07713,-0.03939 -0.02906,-0.0024 -0.05106,0.09212 -0.04294,0.150762 0.0056,0.04024 0.03128,0.07497 0.04692,0.112459 0.01336,0.05098 0.02671,0.10196 0.04007,0.15294 0.0249,0.06079 0.05777,0.118898 0.07468,0.182374 0.02299,0.08629 0.03711,0.175191 0.04426,0.264197 0.0086,0.106604 -0.0097,0.214604 0.0027,0.320829 0.01402,0.12016 0.07938,0.233918 0.07613,0.354848 -0.0035,0.129599 -0.06385,0.251307 -0.09577,0.376957 0.0041,0.340675 0.0208,0.462497 -0.03571,0.800124 -0.02141,0.127908 -0.07257,0.250061 -0.08942,0.378648 -0.01564,0.119407 -0.0024,0.240885 -0.0075,0.361207 -0.04325,1.026514 -0.0054,-0.316117 -0.02951,0.642329 -0.01749,0.09653 -0.03496,0.193058 -0.05244,0.289586 -0.0383,0.08279 -0.09815,0.158708 -0.114887,0.24838 0.01527,0.170548 0.04136,0.297683 0.0029,0.466429 -0.01508,0.06608 -0.05207,0.125267 -0.07366,0.189513 -0.01931,0.05751 -0.0326,0.116877 -0.04891,0.175316 0.04344,0.105248 -0.111072,0.171725 -0.102446,0.266506 0.0044,0.04827 0.0928,0.08099 0.07351,0.125466 -0.01812,0.04183 -0.123555,-0.02617 -0.135625,0.01781 -5.29e-4,0.0024 0.227401,0.199546 0.03366,0.0315 0.01106,0.0043 0.02204,0.01717 0.03315,0.01299 0.09539,-0.03604 0.180525,-0.0967 0.276871,-0.130098 0.262083,-0.09085 0.337817,-0.109987 0.58756,-0.04339 0.02003,0.0053 -0.04737,0.02606 -0.06129,0.01069 -0.04383,-0.04841 -0.05845,-0.116798 -0.08768,-0.175197 -0.03753,-0.08514 -0.09745,-0.163615 -0.112602,-0.255418 -0.02069,-0.125312 0.01,-0.253963 0.0076,-0.380944 -0.0029,-0.150384 -0.01775,-0.300318 -0.02349,-0.450617 -0.0065,-0.168852 -0.0036,-0.338051 -0.01307,-0.506757 -0.0099,-0.176342 -0.05342,-0.351496 -0.04527,-0.527931 0.008,-0.174069 0.06227,-0.342905 0.0934,-0.514358 -0.03207,-0.452903 -0.07132,-0.469006 0.03905,-0.899536 0.03235,-0.126185 0.09991,-0.241778 0.130135,-0.368487 0.02569,-0.107678 0.01125,-0.222309 0.03652,-0.330084 0.109299,-0.466151 0.14863,-0.0741 0.04779,-0.522094 0.04335,-0.05471 0.109728,-0.09735 0.130066,-0.164124 0.0074,-0.02445 -0.05534,-0.04347 -0.07258,-0.02463 -0.0909,0.09937 -0.08662,0.306298 -0.216763,0.340945 -0.255791,0.0681 -0.528751,-0.03512 -0.790773,-0.0727 -0.02387,-0.0034 -0.04825,-0.07192 -0.05373,-0.04844 -0.01852,0.07942 0.0053,0.162999 0.008,0.244499 0.05286,0.217533 0.169523,0.6722 0.190907,0.879031 0.01736,0.167899 -0.0081,0.338232 0.0071,0.506327 0.01508,0.165577 0.0733,0.325771 0.08375,0.491705 0.05961,0.946306 -0.140558,-0.0427 0.06439,0.807836 0.112006,0.109217 0.224012,0.218435 0.336016,0.327652 0,0 0.09266,0.0071 0.09266,0.0071 v 0 c 0.118033,-0.09727 0.236066,-0.194548 0.354097,-0.291822 0.222697,-0.63527 0.06637,-0.107593 0.189989,-0.819894 0.0293,-0.16882 0.08154,-0.333406 0.105844,-0.503018 0.07717,-0.538413 0.04502,-1.084545 0.01908,-1.624938 -0.0078,-0.256286 0.03531,-0.836697 -0.238681,-1.020069 -0.709025,-0.474523 -0.973788,-0.407681 -1.40707,0.112291 -0.121261,0.145521 -0.104262,0.374881 -0.238567,0.515763 -0.01378,0.102349 -0.03477,0.203981 -0.04135,0.307044 -0.0074,0.116073 0.02331,0.235088 -5.29e-4,0.348925 -0.02668,0.127317 -0.123934,0.233214 -0.148199,0.361013 -0.02627,0.138409 -0.0062,0.281874 -5.29e-4,0.422645 0.01865,0.469186 0.04404,0.518631 0.126204,0.995725 -0.03111,0.18918 -0.07451,0.376743 -0.09333,0.567537 -0.03244,0.328782 -0.02818,0.82391 0.01516,1.153689 0.02178,0.165727 0.08411,0.324686 0.102971,0.49077 0.09413,0.828911 -0.127855,0.116195 0.153926,0.850776 0.05526,0.100568 0.115284,0.198657 0.165767,0.301702 0.05742,0.117202 0.08217,0.251915 0.157631,0.358404 0.0974,0.137454 0.19676,0.298342 0.352774,0.361903 0.453432,0.184729 0.732975,-0.05121 0.947946,-0.398127 0.281509,-0.231333 0.09029,5.29e-4 0.108874,-0.253627 0.0088,-0.120478 0.09676,-0.147857 0.145881,-0.244845 0.02585,-0.05105 0.03664,-0.108498 0.05187,-0.163664 0.01598,-0.05791 0.02781,-0.116892 0.04172,-0.175336 -0.02923,-0.533808 -0.04459,0.09033 0.138803,-0.405564 0.02837,-0.07671 -0.0036,-0.164309 0.0084,-0.245221 0.01288,-0.08722 0.06737,-0.168064 0.06568,-0.256212 -0.0019,-0.101304 -0.07946,-0.192974 -0.07627,-0.294246 0.0033,-0.105608 0.06338,-0.201591 0.09507,-0.302387 0.185264,-0.701442 0.01881,0.05768 0.07256,-0.673473 0.0088,-0.120391 0.05027,-0.236437 0.06527,-0.356217 0.01611,-0.128553 0.0081,-0.25963 0.02789,-0.38767 0.02167,-0.140165 0.08144,-0.273431 0.09605,-0.414506 0.01527,-0.147514 -0.0047,-0.296569 -0.007,-0.444852 -0.164709,-1.673445 0.05119,0.784209 -0.0095,-0.887175 -0.0056,-0.153567 -0.06125,-0.302567 -0.06683,-0.456133 -0.0055,-0.152424 0.06431,-0.306917 0.03367,-0.456333 -0.02913,-0.142091 -0.155083,-0.247504 -0.205841,-0.383384 -0.04818,-0.128968 -0.05875,-0.269007 -0.08812,-0.403513 -0.08945,-0.08906 -0.180633,-0.176406 -0.268348,-0.267173 -0.09282,-0.09605 -0.164015,-0.216192 -0.273161,-0.293193 -0.120211,-0.08481 -0.262731,-0.13452 -0.401664,-0.182893 -0.386088,-0.134427 -0.588608,-0.178938 -0.982713,0.04195 -0.132167,0.07408 -0.210235,0.218234 -0.315351,0.327353 -0.02434,0.788871 0.07633,-0.07099 -0.195744,0.492853 -0.03581,0.07421 0.0054,0.167613 -0.01828,0.246517 -0.0281,0.09341 -0.103196,0.167582 -0.134123,0.260099 -0.0832,0.248896 -0.06145,0.445265 -0.06293,0.705258 0.0091,0.141269 0.03466,0.282437 0.02729,0.423807 -0.0078,0.150439 -0.05031,0.297071 -0.0726,0.446055 -0.02416,0.16147 -0.04227,0.323808 -0.06668,0.485238 -0.02582,0.170688 -0.06567,0.339381 -0.08398,0.511038 -0.04424,0.414745 -0.02614,0.664093 -0.01767,1.078587 0.373274,2.033558 -0.125413,-0.950307 0.05161,1.073187 0.015,0.17145 0.114073,0.327189 0.13734,0.497713 0.02244,0.164486 -0.02936,0.334378 -0.0016,0.49803 0.04963,0.291269 0.277098,0.533543 0.295984,0.835517 0.155435,0.15275 0.497178,0.525111 0.719476,0.597808 0.119052,0.03893 0.2521,0.003 0.37524,-0.01998 0.285956,-0.05326 0.508794,-0.255225 0.717611,-0.440605 0.04129,-0.05985 0.07609,-0.124759 0.123883,-0.179563 0.06447,-0.07393 0.156951,-0.12315 0.211315,-0.204798 0.0959,-0.144028 0.06838,-0.303249 0.107688,-0.460512 0.08902,-0.356209 0.115017,-0.08716 0.03357,-0.423241 0,0 -0.883748,-0.206769 -0.883748,-0.206769 z" />
            </g>
            <path
               style="fill:#99c1f1;stroke-width:0.264583"
               id="path14781"
               d="m 99.91464,27.513563 c -0.02924,0.0067 -0.05849,0.01336 -0.08774,0.02003 -0.04909,-0.03008 -0.08972,-0.0916 -0.14728,-0.09022 -0.04269,0.0011 -0.04986,0.07164 -0.0851,0.09576 -0.02347,0.01606 -0.05696,0.0082 -0.08313,0.01942 -0.109302,0.04671 -0.04303,0.09629 -0.118597,-0.05516 -0.139099,0.112935 -0.09022,0.03781 -0.185761,-0.02725 -0.01624,-0.01106 -0.03624,-0.02365 -0.05552,-0.01987 -0.02217,0.0044 -0.03805,0.05767 -0.05373,0.04138 -0.01754,-0.0182 0.0163,-0.04787 0.02445,-0.07181 -0.09901,0.143222 0.07412,0.127685 0.09738,0.197207 0.0047,0.01418 -0.02426,0.03358 -0.0127,0.04306 0.01074,0.0088 0.01844,-0.02125 0.03011,-0.02879 0.145392,-0.09401 -0.01505,0.04562 0.149691,-0.113548 0.08287,0.04661 0.180351,-0.06773 0.260988,-0.03325 0.05057,0.02162 0.05452,0.108907 0.106897,0.125682 0.0123,0.0039 0.265192,-0.18456 0.1822,0.0366 -0.02207,-0.0019 -0.05138,0.01103 -0.06617,-0.0054 -0.01466,-0.0163 0.01156,-0.04587 0.0024,-0.06571 -0.05435,-0.115755 -0.215501,-0.04839 -0.306512,-0.03313 -0.07192,0.04677 -0.142656,0.114464 -0.23966,0.09875 -0.03721,-0.006 -0.06508,-0.03805 -0.0974,-0.05743 -0.01606,-0.0096 -0.02918,-0.03198 -0.04776,-0.02962 -0.05375,0.0068 -0.254321,0.162591 -0.256292,0.164004 -0.02717,-0.02119 -0.08709,0.05565 -0.05992,0.07684 v 0 c -0.0099,0.07532 -0.05512,0.154408 -0.02961,0.225962 0.0164,0.04603 0.08851,0.04148 0.132527,0.06271 0.156644,0.07555 0.388556,0.210857 0.568359,0.197655 0.0719,-0.0053 0.136485,-0.04648 0.204727,-0.06972 0.06726,-0.03341 0.131768,-0.07306 0.201779,-0.100238 0.108374,-0.04207 0.355974,-0.07387 0.434664,-0.192217 0.0498,-0.0749 0.0899,-0.423505 0.0714,-0.514731 -0.015,-0.07418 -0.0669,-0.135768 -0.10037,-0.203652 -0.16264,-0.09787 -0.14716,-0.112046 -0.31652,-0.139941 -0.05896,-0.0097 -0.121867,0.0016 -0.178363,-0.01789 -0.0623,-0.02146 -0.105352,-0.08643 -0.16941,-0.101896 -0.06368,-0.01537 -0.130697,0.0091 -0.196043,0.01368 -0.0749,-0.02223 -0.149794,-0.04444 -0.22469,-0.06666 -0.05868,0.06273 -0.102058,0.144545 -0.176048,0.188175 -0.448181,0.264265 0.03123,-0.217088 -0.413682,0.135284 -0.30544,0.241911 -0.184949,0.404243 -0.08895,0.722018 0.059,0.06 0.21752,0.223848 0.286938,0.254424 0.0483,0.02127 0.108781,0.007 0.154943,0.03264 0.05311,0.02944 0.07214,0.113061 0.131434,0.126135 0.05821,0.01283 0.112311,-0.04001 0.168466,-0.06002 0.06664,0.0086 0.133432,0.01603 0.199906,0.02582 0.059,0.0087 0.117689,0.03968 0.176456,0.02953 0.05519,-0.0095 0.09516,-0.0593 0.144899,-0.08505 0.119562,-0.0619 0.260124,-0.07911 0.354814,-0.182814 0.20037,-0.101952 -0.088,-0.668671 -0.288367,-0.566717 z" />
            <path
               style="fill:#99c1f1;stroke-width:0.264583"
               id="path14783"
               d="m 99.661907,27.30255 c -0.370964,-0.157039 0.229661,0.07465 -0.207309,-0.0068 -0.03641,-0.0068 -0.05341,-0.05305 -0.08645,-0.06978 -0.02426,-0.0123 -0.104005,-0.02808 -0.08031,-0.01471 0.289285,0.163349 0.04792,-0.151879 0.295791,0.357413 -0.04738,0.06871 -0.08219,0.148068 -0.142136,0.206139 -0.01225,0.01188 -0.01998,-0.02866 -0.02395,-0.04526 -0.0019,-0.0081 0.01109,0.01265 0.01744,0.0181 0.01527,0.01307 0.0291,0.02888 0.04731,0.03738 0.01326,0.0062 0.03966,0.01916 0.04364,0.0051 0.02932,-0.103918 0.03028,-0.213816 0.04542,-0.320723 0.03622,0.0011 0.03914,-0.10142 0.0029,-0.102452 v 0 c -0.01987,-0.07249 -0.02416,-0.151178 -0.05957,-0.217458 -0.03815,-0.07137 -0.140669,-0.06975 -0.202973,-0.06288 -0.05316,0.0059 -0.10547,0.01871 -0.157062,0.03279 -0.240659,0.06577 -0.146063,0.05308 -0.314825,0.348893 0.05328,0.155869 0.09796,0.442981 0.296392,0.521867 0.03841,0.01527 0.05742,-0.07887 0.09859,-0.07521 0.04111,0.0037 0.04253,0.08641 0.08349,0.09141 0.304723,0.03718 -0.03711,-0.201893 0.216728,0.01209 0.253108,0.04485 0.379965,-0.671042 0.126859,-0.715891 z" />
          </g>
        </g>
        <path
           style="fill:#99c1f1;stroke-width:0.264583"
           id="path15204"
           d="m 99.047439,28.213095 c -0.02458,0.06964 -0.0593,0.140993 -0.04351,0.218903 0.01153,0.05689 0.05615,0.103849 0.06641,0.160983 0.01222,0.06815 -0.0013,0.138491 -1.98e-4,0.207721 0.0013,0.07611 -0.0021,0.15275 0.0075,0.228243 0.01066,0.08238 0.0357,0.162245 0.05355,0.243369 0.02458,0.190728 -0.04399,0.37564 -0.04484,0.564346 -5.3e-4,0.108357 0.01333,0.216694 0.03119,0.323572 0.02037,0.122134 0.06727,0.239236 0.08324,0.362024 0.01688,0.129829 0.0099,0.261655 0.0149,0.392483 0.01833,0.132892 0.03665,0.265787 0.05498,0.39868 -5.29e-4,0.01188 0.03316,0.01315 0.03361,0.0013 v 0 c 0.0035,-0.132184 -0.003,-0.264997 0.01037,-0.396547 0.01336,-0.131387 0.04821,-0.259713 0.06954,-0.390044 0.01955,-0.119438 0.03682,-0.239249 0.05306,-0.35918 0.01474,-0.108796 0.03836,-0.21717 0.03984,-0.326948 0.0013,-0.101695 -0.03241,-0.201803 -0.03131,-0.303498 0.0011,-0.0939 0.02511,-0.186127 0.03766,-0.279191 0.0062,-0.08494 0.01818,-0.169651 0.01852,-0.254812 2.65e-4,-0.07586 -0.02318,-0.151406 -0.01651,-0.226965 0.0064,-0.0725 0.0478,-0.138848 0.05518,-0.211252 0.0056,-0.05447 -0.01132,-0.108921 -0.01699,-0.163382 -0.0074,-0.03932 -0.02582,-0.07814 -0.02209,-0.11797 0.0034,-0.0365 0.02851,-0.06755 0.04276,-0.10133 -0.01042,-0.175681 -0.507344,-0.146153 -0.496904,0.02953 z" />
        <path
           style="fill:#99c1f1;stroke-width:0.264583"
           id="path15208"
           d="m 83.865674,28.08933 c -0.02522,0.04611 -0.09018,0.08782 -0.07567,0.138338 0.196395,0.683704 0.15218,-0.5035 0.192915,0.341987 0.0043,0.08875 -0.0097,0.177475 -0.01794,0.265946 -0.0094,0.101423 -0.05424,0.203607 -0.03476,0.303583 0.02307,0.118348 0.104929,0.217128 0.157393,0.325691 -0.01251,0.119923 -0.04792,0.239641 -0.03753,0.359768 0.01058,0.122261 0.06843,0.235735 0.0993,0.354507 0.02917,0.112226 0.06257,0.223835 0.08076,0.338352 0.01564,0.09849 0.0136,0.198982 0.0204,0.298473 0.0013,0.01897 0.05489,0.01558 0.0537,-0.0034 v 0 c -0.02926,-0.304946 -0.0506,-0.321609 0.0068,-0.640141 0.02214,-0.122865 0.07946,-0.238869 0.09182,-0.363098 0.01204,-0.120862 -0.01299,-0.242565 -0.0195,-0.36385 -0.02413,-0.116184 -0.05233,-0.231595 -0.07238,-0.348552 -0.01077,-0.06284 -0.06346,-0.499152 -0.07524,-0.58031 -0.01117,-0.07685 -0.02972,-0.152641 -0.03792,-0.229862 -0.0061,-0.05765 0.008,-0.117351 -0.005,-0.173842 -0.0088,-0.03835 -0.03912,-0.0683 -0.05869,-0.102457 -0.02788,-0.09493 -0.296386,-0.01609 -0.268507,0.07885 z" />
      </g>
    </g>
  </g>
</svg>
