<?xml version="1.0" encoding="UTF-8" standalone="no"?>
<!-- Created with Inkscape (http://www.inkscape.org/) -->

<svg
   width="46.438858mm"
   height="33.928158mm"
   viewBox="0 0 46.438858 33.928158"
   version="1.1"
   id="svg5"
   xmlns:inkscape="http://www.inkscape.org/namespaces/inkscape"
   xmlns:sodipodi="http://sodipodi.sourceforge.net/DTD/sodipodi-0.dtd"
   xmlns="http://www.w3.org/2000/svg"
   xmlns:svg="http://www.w3.org/2000/svg">
  <sodipodi:namedview
     id="namedview7"
     pagecolor="#ffffff"
     bordercolor="#000000"
     borderopacity="0.25"
     inkscape:showpageshadow="2"
     inkscape:pageopacity="0.0"
     inkscape:pagecheckerboard="0"
     inkscape:deskcolor="#d1d1d1"
     inkscape:document-units="mm"
     showgrid="false"
     inkscape:zoom="11.313709"
     inkscape:cx="326.9485"
     inkscape:cy="229.01421"
     inkscape:window-width="1920"
     inkscape:window-height="1017"
     inkscape:window-x="1912"
     inkscape:window-y="-8"
     inkscape:window-maximized="1"
     inkscape:current-layer="g13744" />
  <defs
     id="defs2">
    <inkscape:path-effect
       effect="bspline"
       id="path-effect14355"
       is_visible="true"
       lpeversion="1"
       weight="33.333333"
       steps="2"
       helper_size="0"
       apply_no_weight="true"
       apply_with_weight="true"
       only_selected="false" />
    <inkscape:path-effect
       effect="bspline"
       id="path-effect14350"
       is_visible="true"
       lpeversion="1"
       weight="33.333333"
       steps="2"
       helper_size="0"
       apply_no_weight="true"
       apply_with_weight="true"
       only_selected="false" />
  </defs>
  <g
     inkscape:label="Layer 1"
     inkscape:groupmode="layer"
     id="layer1"
     transform="translate(-160.71944,-1.0740616)">
    <g
       id="g15459"
       transform="translate(93.786796,-9.8497503)">
      <path
         style="fill:#3584e4;stroke-width:0.264583"
         d="m 75.153058,38.163818 c -0.550337,-0.02563 -1.653777,-0.07701 -2.427846,-0.09584 -0.774069,-0.01883 -1.218851,-0.0049 -1.451605,-0.582868 -0.232754,-0.577991 -0.250388,-1.731938 -0.251852,-2.521322 -0.0015,-0.789384 0.0133,-1.197751 0.03103,-1.663371 0.01773,-0.465621 0.03797,-0.976185 0.04463,-1.54785 0.0067,-0.571665 -5.31e-4,-1.20044 0.04094,-1.703769 0.04148,-0.503328 0.13211,-0.880432 0.195501,-1.217889 0.06339,-0.337458 0.09936,-0.635663 0.187443,-1.062651 0.08809,-0.426988 0.228739,-0.983319 -0.138246,-1.526882 -0.366985,-0.543563 -1.231521,-1.064992 -1.939325,-1.574091 -0.707803,-0.5091 -1.251609,-1.002329 -1.453957,-1.416664 -0.202348,-0.414335 -0.05992,-0.74855 0.208467,-1.199664 0.268391,-0.451115 0.662579,-1.01839 0.935141,-1.438003 0.272562,-0.419614 0.423619,-0.691921 0.68198,-1.055561 0.25836,-0.363641 0.623774,-0.818026 0.937984,-1.26364 0.31421,-0.445614 0.577221,-0.882573 1.172498,-0.851081 0.595277,0.03149 1.518886,0.531601 2.170736,0.871042 0.65185,0.339441 1.031652,0.518281 1.363771,0.73728 0.332118,0.218999 0.616969,0.477146 0.992149,0.45928 0.37518,-0.01787 0.842741,-0.308788 1.430019,-0.598139 0.587277,-0.289351 1.29365,-0.577035 1.776434,-0.764162 0.482784,-0.187127 0.741741,-0.273715 0.917819,-0.37107 0.176078,-0.09736 0.271026,-0.206196 0.24443,-0.441599 -0.0266,-0.235404 -0.176214,-0.600369 -0.467811,-1.302336 -0.291597,-0.701968 -0.725292,-1.741167 -0.739709,-2.329802 -0.01442,-0.588635 0.389831,-0.722604 1.069028,-0.92032 0.679198,-0.197715 1.631579,-0.458694 2.669057,-0.791851 1.037479,-0.333157 2.154537,-0.736345 2.77403,-0.324994 0.619494,0.411351 0.733147,1.636535 0.867323,2.471874 0.134177,0.835339 0.288111,1.281229 0.358609,1.541716 0.0705,0.260487 0.05899,0.336553 0.275702,0.40302 0.216714,0.06647 0.658376,0.125136 1.121893,0.106736 0.463516,-0.0184 0.949776,-0.113082 1.297645,-0.147299 0.347869,-0.03422 0.556471,-0.0087 0.903709,-0.0059 0.347238,0.0028 0.8335,-0.01661 1.294083,0.0059 0.460583,0.02252 0.895052,0.08645 1.306305,-0.138533 0.411252,-0.224986 0.802563,-0.738851 0.991447,-1.255985 0.188884,-0.517133 0.174984,-1.039142 0.256843,-1.514133 0.08186,-0.47499 0.257878,-0.897001 0.437394,-1.135283 0.179516,-0.238282 0.357682,-0.287889 0.642481,-0.30832 0.2848,-0.02043 0.655645,-0.01095 1.124613,0.100253 0.468967,0.111204 1.017798,0.320872 1.553431,0.536139 0.535633,0.215268 1.043662,0.430326 1.597188,0.614973 0.55353,0.184647 1.13294,0.332689 1.40949,0.531857 0.27656,0.199168 0.23538,0.442669 0.15649,0.688409 -0.0789,0.245739 -0.19542,0.495388 -0.41985,1.066454 -0.22443,0.571067 -0.55676,1.463251 -0.60066,2.065858 -0.0439,0.602607 0.19778,0.914161 0.62039,1.285413 0.4226,0.371251 1.02539,0.802979 1.42656,1.124934 0.40116,0.321955 0.60113,0.533569 0.87535,0.781011 0.27422,0.247441 0.62237,0.531078 0.89649,0.744211 0.27413,0.213133 0.4741,0.355964 0.78718,0.271971 0.31308,-0.08399 0.7418,-0.392315 1.17614,-0.763856 0.43434,-0.371542 0.87257,-0.804472 1.24049,-1.115061 0.36793,-0.310589 0.65649,-0.492079 0.8815,-0.427802 0.22501,0.06428 0.37463,0.375341 0.76367,0.781713 0.38904,0.406372 1.0055,0.901446 1.56234,1.421829 0.55683,0.520383 1.0431,1.056811 1.27811,1.396328 0.23501,0.339516 0.22061,0.481537 -0.0705,0.85978 -0.29112,0.378242 -0.85917,0.995034 -1.39844,1.535101 -0.53928,0.540067 -1.04849,1.002088 -1.42169,1.384997 -0.3732,0.382909 -0.61058,0.68678 -0.69076,1.011257 -0.0802,0.324477 -0.005,0.662561 0.0791,1.005626 0.0842,0.343065 0.17395,0.676535 0.22036,1.046741 0.0464,0.370206 0.0474,0.765868 0.0443,1.095305 -0.003,0.329437 -0.0103,0.593642 -0.003,0.912387 0.007,0.318744 0.0289,0.691803 0.0488,1.009817 0.0199,0.318014 0.0381,0.578705 0.0495,0.938677 0.0114,0.359971 0.0156,0.80603 -0.0365,1.163269 -0.0521,0.357239 -0.15966,0.613387 -0.22742,0.954755 -0.0678,0.341368 -0.0965,0.767836 -0.10865,1.108641 -0.0121,0.340805 -0.008,0.595716 -0.0896,0.780104 -0.0818,0.184388 -0.25008,0.301321 -0.77908,0.418084 -0.52901,0.116764 -1.42076,0.23332 -2.80343,0.29732 -1.38267,0.064 -3.24163,0.07503 -4.30886,1.112928 -1.067231,1.037897 -1.332509,3.099102 -1.96981,4.029802 -0.6373,0.930701 -1.647897,0.731792 -2.258321,0.632147 -0.610425,-0.09964 -0.821039,-0.0998 -0.997575,-0.0992 -0.176535,6.06e-4 -0.310788,0.0019 -0.456405,-0.345067 -0.145618,-0.346979 -0.291321,-1.044734 -0.355217,-1.56862 -0.0639,-0.523886 -0.04581,-0.865368 -0.10528,-1.261819 -0.05947,-0.396451 -0.192785,-0.824338 -0.497093,-1.09616 -0.304308,-0.271822 -0.77906,-0.376619 -1.287034,-0.447872 -0.507974,-0.07125 -1.048902,-0.108479 -1.677011,-0.188781 -0.62811,-0.0803 -1.343251,-0.203948 -2.008695,-0.220432 -0.665444,-0.01648 -1.272257,0.07372 -1.692444,0.182228 -0.420187,0.108505 -0.647493,0.234747 -0.765203,0.82766 -0.11771,0.592913 -0.124906,1.64937 -0.109602,2.321799 0.0153,0.672429 0.05271,0.960518 -0.02853,1.269321 -0.08124,0.308802 -0.280034,0.640097 -0.629752,0.783847 -0.349719,0.143749 -0.852948,0.100948 -1.421463,0.07677 -0.568514,-0.02418 -1.204958,-0.0296 -1.736558,-0.22645 -0.5316,-0.196849 -0.946448,-0.578398 -1.227882,-0.969546 -0.281434,-0.391148 -0.423859,-0.788888 -0.569529,-1.114234 -0.145669,-0.325345 -0.295289,-0.578233 -0.415282,-0.957011 -0.119992,-0.378779 -0.210729,-0.892888 -0.40922,-1.291135 -0.198491,-0.398247 -0.507936,-0.691225 -0.859599,-0.865702 -0.351663,-0.174478 -0.734607,-0.227648 -1.331785,-0.326388 -0.597178,-0.09874 -1.397064,-0.241569 -1.798517,-0.313254 -0.401454,-0.07168 -0.401081,-0.07166 -0.951418,-0.09729 z"
         id="path14353"
         inkscape:path-effect="#path-effect14355"
         inkscape:original-d="m 75.703395,38.189447 c -1.100791,-0.04874 -2.204231,-0.100126 -3.310314,-0.154159 -0.44193,0.01413 -0.886712,0.02808 -1.334349,0.04185 -0.01762,-1.170025 -0.03525,-2.323972 -0.05334,-3.490552 0.01517,-0.412174 0.02993,-0.820541 0.04462,-1.234347 0.02078,-0.517434 0.04102,-1.027998 0.06124,-1.545239 -0.0045,-0.626131 -0.01175,-1.254905 -0.02159,-1.886328 0.09328,-0.374459 0.183915,-0.751562 0.271905,-1.131313 0.03861,-0.295558 0.07458,-0.593762 0.107897,-0.894609 0.140243,-0.553403 0.280895,-1.109734 0.421956,-1.668993 -0.875389,-0.527869 -1.739925,-1.049298 -2.614447,-1.576855 -0.54116,-0.490584 -1.084966,-0.983813 -1.631418,-1.479688 0.145071,-0.331569 0.287496,-0.665784 0.427275,-1.002644 0.396833,-0.564629 0.791022,-1.131903 1.182563,-1.701824 0.153705,-0.269662 0.304761,-0.54197 0.453173,-0.816924 0.368062,-0.45174 0.733476,-0.906126 1.096246,-1.363158 0.263062,-0.43634 0.526073,-0.873299 0.789815,-1.312176 0.92645,0.501768 1.850059,1.001877 2.770823,1.500324 0.382447,0.181487 0.762249,0.360328 1.139407,0.536523 0.287496,0.260792 0.572347,0.518939 0.854551,0.774439 0.470204,-0.288275 0.937766,-0.579195 1.402678,-0.872761 0.709017,-0.285038 1.415391,-0.572721 2.119119,-0.863051 0.261602,-0.08394 0.520558,-0.17053 0.776867,-0.259764 0.0976,-0.106197 0.192546,-0.215039 0.284851,-0.326527 -0.146974,-0.36232 -0.296593,-0.727285 -0.448855,-1.094897 -0.432135,-1.035831 -0.86583,-2.07503 -1.301086,-3.117598 0.406396,-0.134329 0.810643,-0.268299 1.214765,-0.402579 0.955027,-0.258333 1.907408,-0.519312 2.857143,-0.782936 1.124478,-0.405506 2.241536,-0.808694 3.366423,-1.215068 0.114223,1.228735 0.227876,2.453919 0.340959,3.67555 0.15658,0.448535 0.310515,0.894424 0.461803,1.337668 -0.0089,0.07871 -0.02037,0.154782 -0.03453,0.228204 0.444307,0.06132 0.88597,0.119985 1.324988,0.176009 0.488908,-0.09203 0.975167,-0.186715 1.458783,-0.284042 0.211249,0.02814 0.419851,0.05363 0.625811,0.07647 0.488905,-0.01678 0.975167,-0.0362 1.458783,-0.05826 0.437115,0.06658 0.871585,0.130505 1.303409,0.191789 0.393956,-0.511219 0.785267,-1.025084 1.173932,-1.541595 -0.01359,-0.520009 -0.02749,-1.042018 -0.0417,-1.566027 0.17799,-0.425832 0.35401,-0.847843 0.531408,-1.274056 0.181401,-0.05017 0.359567,-0.09978 0.541796,-0.150854 0.387276,0.01016 0.758121,0.01964 1.139406,0.02913 0.556603,0.212801 1.105433,0.42247 1.661372,0.63469 0.515327,0.218302 1.023356,0.433361 1.538487,0.651272 0.59193,0.151438 1.17134,0.299479 1.76617,0.451263 -0.0414,0.246413 -0.0825,0.489928 -0.12356,0.73054 -0.11388,0.252296 -0.23041,0.501945 -0.34959,0.748949 -0.32968,0.894828 -0.66201,1.787011 -0.99698,2.676548 0.24434,0.314202 0.48603,0.625758 0.72508,0.934668 0.60544,0.434373 1.20823,0.866101 1.80837,1.295183 0.20262,0.214261 0.40259,0.425876 0.59992,0.634846 0.35079,0.286283 0.69894,0.56992 1.04445,0.850911 0.20262,0.145476 0.40259,0.288307 0.59991,0.428491 0.43136,-0.305673 0.86008,-0.613992 1.28615,-0.924957 0.44071,-0.434849 0.87894,-0.867781 1.31988,-1.303912 0.29484,-0.185005 0.58341,-0.366493 0.88124,-0.554241 0.1521,0.315938 0.30172,0.627003 0.44886,0.933196 0.6308,0.506637 1.24727,1.001709 1.8731,1.50425 0.48788,0.538179 0.97414,1.07461 1.45879,1.609286 -0.0117,0.144667 -0.0261,0.286688 -0.0432,0.426063 -0.56779,0.617067 -1.13584,1.233858 -1.70498,1.851283 -0.50944,0.462732 -1.01865,0.924754 -1.52764,1.386066 -0.23473,0.306515 -0.47211,0.610384 -0.71213,0.911606 0.0769,0.345408 0.15201,0.683487 0.2284,1.028379 0.092,0.341239 0.18176,0.674703 0.27339,1.015919 0.001,0.399245 0.002,0.794907 0.003,1.186982 -0.005,0.266861 -0.0118,0.531077 -0.0216,0.792647 0.0242,0.375703 0.0458,0.74876 0.0647,1.119174 0.0187,0.265745 0.0369,0.526433 0.0551,0.791355 0.005,0.455032 0.009,0.901093 0.0129,1.35709 -0.10822,0.25862 -0.21578,0.514768 -0.32268,0.768446 -0.0261,0.429114 -0.0549,0.85558 -0.0863,1.279403 0.007,0.257553 0.0113,0.512464 0.0129,0.764728 -0.16568,0.119581 -0.334,0.236514 -0.50497,0.350803 -0.8891,0.116508 -1.78085,0.233065 -2.67527,0.349669 -1.87096,0.01137 -3.72992,0.0224 -5.598652,0.03322 -0.265435,2.064744 -0.530713,4.125949 -0.796142,6.185998 -1.009506,-0.198482 -2.020103,-0.397391 -3.031791,-0.596727 -0.209121,1.06e-4 -0.419735,-5.3e-5 -0.631835,-4.78e-4 -0.140969,0.0016 -0.275221,0.003 -0.421251,0.0041 -0.145007,-0.695422 -0.290711,-1.393177 -0.437111,-2.093267 0.01869,-0.347625 0.03677,-0.689107 0.0551,-1.040583 -0.137376,-0.441493 -0.270695,-0.86938 -0.407807,-1.308856 -0.472104,-0.10215 -0.946856,-0.206947 -1.424255,-0.314389 -0.538284,-0.03458 -1.079211,-0.07181 -1.622787,-0.111675 -0.712512,-0.122973 -1.427653,-0.246619 -2.145416,-0.370937 -0.613043,0.09144 -1.219857,0.181642 -1.83387,0.272615 -0.224657,0.128887 -0.451964,0.255127 -0.681916,0.378722 -0.0045,1.059104 -0.01175,2.115561 -0.02159,3.169375 0.04005,0.290732 0.07746,0.578821 0.112216,0.864264 -0.199184,0.332643 -0.397983,0.663938 -0.596399,0.99389 -0.501352,-0.0424 -1.004582,-0.0852 -1.509775,-0.128411 -0.631817,-0.0051 -1.268261,-0.01055 -1.909338,-0.01627 -0.422131,-0.388225 -0.83698,-0.769773 -1.258552,-1.157526 -0.13978,-0.395094 -0.282205,-0.792834 -0.427276,-1.19322 -0.146973,-0.25024 -0.296593,-0.503127 -0.448858,-0.758659 -0.08831,-0.501589 -0.179046,-1.015698 -0.268391,-1.520689 -0.307855,-0.291458 -0.6173,-0.584436 -0.928334,-0.878933 -0.392316,-0.05424 -0.77526,-0.107412 -1.172721,-0.162825 -0.79724,-0.140184 -1.597126,-0.283014 -2.399657,-0.42849 z"
         sodipodi:nodetypes="ccccccccccccccccccccccccccccccccccccccccccccccccccccccccccccccccccccccccccccccccccccccccccccccccccccc" />
      <path
         style="fill:#000000;stroke-width:0.264583"
         id="path13184-1"
         d="m 72.691272,38.739733 c 0.466799,-0.07257 0.349607,0.09941 0.836033,0.07324 0.165307,-0.0089 0.322953,-0.07295 0.484431,-0.109424 0.336193,0.04823 0.67096,-0.05376 1.006062,-0.03606 0.165555,0.0088 0.325938,0.06243 0.490586,0.08177 0.43169,0.0507 0.86973,0.04659 1.30298,0.03268 0.25079,0.0505 0.4772,0.106452 0.73342,0.11907 0.11557,0.0057 0.23234,-0.02344 0.34703,-0.0081 0.10576,0.01413 0.20299,0.06596 0.30555,0.09537 0.3046,0.08735 0.25362,0.06975 0.55701,0.112945 0.0705,0.05849 0.12396,0.148567 0.21154,0.175477 0.0793,0.02437 0.16527,-0.05217 0.24636,-0.03477 0.0722,0.01551 0.12079,0.08502 0.18177,0.126657 0.0843,0.05757 0.24762,0.154347 0.31476,0.237696 0.0411,0.051 0.0627,0.114969 0.0941,0.172455 0.04,0.202031 0.30161,0.448075 0.35343,0.627857 0.25773,0.894154 -0.23896,-0.252109 0.0935,0.702204 0.0436,0.125269 0.12203,0.235582 0.18304,0.353375 -0.0764,0.506886 0.25499,0.884917 0.40379,1.335497 0.15517,0.469871 -0.0566,0.0631 0.16464,0.442307 0.0226,0.05139 0.0575,0.09898 0.0678,0.154165 0.01,0.05224 -0.029,0.109762 -0.009,0.159146 0.0156,0.03931 0.0723,0.04519 0.10237,0.07498 0.0404,0.04006 0.0646,0.108029 0.076,0.16261 -0.0334,0.05933 -0.002,0.04412 0.006,0.06697 0.003,0.009 -0.0112,0.02328 -0.003,0.02856 0.54622,0.359957 0.70941,0.194889 0.45227,0.389109 0.008,0.01937 0.004,0.05641 0.0249,0.05809 0.0404,0.0032 0.0717,-0.04905 0.1122,-0.04711 0.0398,0.0019 0.0699,0.03802 0.10464,0.05752 0.0523,0.02935 0.0971,0.07935 0.15624,0.08903 0.60463,0.09889 -1.5e-4,-0.203391 0.59312,0.169233 0.12617,0.01672 0.25135,0.04493 0.37852,0.05018 0.16155,0.0067 0.32331,-0.02125 0.48486,-0.01455 0.0709,0.0029 0.94836,0.107479 1.01421,0.117653 0.17061,0.02635 0.33663,0.08694 0.50907,0.09534 0.16386,0.008 0.32664,-0.03111 0.48996,-0.04667 0.28701,0.0053 0.55759,-0.09783 0.83853,-0.131069 0.10835,-0.01283 0.23591,0.04976 0.32715,-0.01005 0.12653,-0.08293 0.17196,-0.248963 0.25794,-0.373444 l 0.001,-0.09239 v 0 c -0.0832,-0.122505 -0.13011,-0.279974 -0.24953,-0.367517 -0.0887,-0.06499 -0.21751,-0.03257 -0.32535,-0.05389 -0.70869,-0.140094 -0.0696,-0.04993 -0.81888,-0.138181 -0.15826,0.02664 -0.31429,0.08038 -0.47478,0.07992 -0.16413,-5.29e-4 -0.32296,-0.05925 -0.48542,-0.08264 -0.15674,-0.02257 -0.31563,-0.02934 -0.47186,-0.05523 -0.14759,-0.02447 -0.28948,-0.0824 -0.43849,-0.09568 -0.12767,-0.01138 -0.25699,0.04053 -0.38388,0.02241 -0.10253,-0.01466 -0.19153,-0.07888 -0.2873,-0.118316 -0.0834,-0.03157 -0.16387,-0.07276 -0.25036,-0.09472 -0.0768,-0.0195 -0.16234,7.94e-4 -0.23583,-0.02875 -0.0623,-0.025 -0.0935,-0.101788 -0.15522,-0.128262 -0.0526,-0.02257 -0.12199,0.0172 -0.17128,-0.01188 -0.0484,-0.02853 -0.0406,-0.115774 -0.0901,-0.142338 -0.045,-0.02413 -0.10175,0.008 -0.15263,0.01201 -0.44016,-0.126074 -0.0498,-0.03356 0.33459,0.282755 0.0162,0.01336 -0.0969,0.07625 -0.10206,0.07601 -0.0464,-0.0021 0.23724,-0.101941 0.11178,-0.0832 -0.0396,0.0065 -0.0817,0.03508 -0.11864,0.01953 -0.02,-0.0084 0.0292,-0.04742 0.0145,-0.06335 -0.0249,-0.02703 -0.082,-0.0057 -0.1047,-0.03458 -0.0225,-0.02856 0.006,-0.07509 -0.008,-0.108725 -0.0171,-0.04187 -0.054,-0.07259 -0.081,-0.108884 -0.0189,-0.05101 -0.0377,-0.102015 -0.0566,-0.153024 -0.0439,-0.131249 -0.0895,-0.294889 -0.16869,-0.410215 -0.0564,-0.08212 -0.15812,-0.132647 -0.19783,-0.224005 -0.0437,-0.10043 -0.0252,-0.217604 -0.0412,-0.325929 -0.0652,-0.440555 -0.0239,-0.272722 -0.21722,-0.688039 -0.0219,-0.13045 -0.0269,-0.264898 -0.0657,-0.391348 -0.0745,-0.242715 -0.24131,-0.46451 -0.33926,-0.696137 -0.0457,-0.108058 -0.0598,-0.228219 -0.10943,-0.334534 -0.12446,-0.266649 -0.2167,-0.323508 -0.41996,-0.526737 -0.35515,-0.548926 0.0365,-0.04992 -0.44756,-0.398251 -0.0833,-0.05996 -0.12888,-0.163505 -0.21279,-0.222663 -0.0827,-0.05827 -0.18437,-0.0832 -0.27736,-0.122933 -0.35298,-0.150805 -0.1973,-0.108498 -0.56571,-0.142333 -0.0959,-0.01878 -0.19219,-0.03577 -0.28773,-0.05636 -0.10141,-0.02186 -0.20023,-0.05698 -0.30303,-0.071 -0.11055,-0.01508 -0.22361,-0.0021 -0.33433,-0.01595 -0.24496,-0.03041 -0.47977,-0.124111 -0.72533,-0.149283 -0.1346,-0.01381 -0.27062,1.9e-5 -0.40593,2.9e-5 -0.69912,-0.181898 -0.1392,-0.08258 -0.86629,-0.08296 -0.15783,-8.5e-5 -0.31487,-0.02679 -0.47269,-0.02714 -0.167478,-2.64e-4 -0.334523,0.01712 -0.501813,0.02503 -0.705255,0.03342 -0.313709,7.94e-4 -1.020816,0.08091 -0.338095,-0.05842 -0.631412,-0.133345 -0.977508,-0.101722 -0.14332,0.0131 -0.278871,0.07292 -0.420889,0.09621 -0.299361,-0.183591 -0.779228,0.696129 -0.245439,0.572051 z"
         sodipodi:nodetypes="csccscssscsssscsccscccccccccssccccsscssccscsccsssscscscsccccscccccsccccsscscscsscscscccsccc" />
      <path
         style="fill:#000000;stroke-width:0.264583"
         id="path13184-3-3"
         d="m 107.38783,38.722516 c -0.16531,-0.0089 -0.32295,-0.07295 -0.48443,-0.109424 -0.33619,0.04823 -0.67096,-0.05376 -1.00606,-0.03606 -0.16556,0.0088 -0.32594,0.06243 -0.49059,0.08177 -0.43169,0.0507 -0.86973,0.04659 -1.30298,0.03268 -0.25079,0.0505 -0.47721,0.106452 -0.73343,0.11907 -0.11556,0.0057 -0.23233,-0.02344 -0.34702,-0.0081 -0.10576,0.01413 -0.20299,0.06596 -0.30555,0.09537 -0.3046,0.08735 -0.25363,0.06975 -0.55702,0.112945 -0.0705,0.05849 -0.12396,0.148567 -0.21153,0.175477 -0.0793,0.02437 -0.16527,-0.05217 -0.24636,-0.03477 -0.0722,0.01551 -0.12079,0.08502 -0.18178,0.126657 -0.0843,0.05757 -0.24761,0.154347 -0.31475,0.237696 -0.0411,0.051 -0.0627,0.114969 -0.0941,0.172455 -0.04,0.202031 -0.30162,0.448075 -0.35343,0.627857 -0.25773,0.894154 0.23895,-0.252109 -0.0936,0.702204 -0.0436,0.125269 -0.12203,0.235582 -0.18304,0.353375 0.0764,0.506886 -0.25499,0.884917 -0.40379,1.335497 -0.155166,0.469871 0.0566,0.0631 -0.164636,0.442307 -0.0226,0.05139 -0.0575,0.09898 -0.0678,0.154165 -0.01,0.05224 0.029,0.109762 0.009,0.159146 -0.0156,0.03931 -0.0723,0.04519 -0.10238,0.07498 -0.0404,0.04006 -0.0646,0.108029 -0.076,0.16261 0.0334,0.05933 0.002,0.04412 -0.006,0.06697 -0.003,0.009 0.0112,0.02328 0.003,0.02856 -0.54621,0.359957 -0.7094,0.194889 -0.45226,0.389109 -0.008,0.01937 -0.004,0.05641 -0.0249,0.05809 -0.0404,0.0032 -0.0717,-0.04905 -0.1122,-0.04711 -0.0398,0.0019 -0.0699,0.03802 -0.10465,0.05752 -0.0523,0.02935 -0.0971,0.07935 -0.15623,0.08903 -0.60463,0.09889 1.4e-4,-0.203391 -0.59312,0.169233 -0.12617,0.01672 -0.25135,0.04493 -0.37852,0.05018 -0.16156,0.0067 -0.32331,-0.02125 -0.48486,-0.01455 -0.0709,0.0029 -0.94836,0.107479 -1.01421,0.117653 -0.17062,0.02635 -0.33663,0.08694 -0.50907,0.09534 -0.16387,0.008 -0.32664,-0.03111 -0.48996,-0.04667 -0.28702,0.0053 -0.02842,-0.09783 -0.309373,-0.131069 -0.10834,-0.01283 -0.2359,0.04976 -0.32715,-0.01005 -0.12653,-0.08293 -0.17196,-0.248963 -0.25794,-0.373444 l -10e-4,-0.09239 v 0 c 0,0 0.13011,-0.279974 0.24954,-0.367517 0.0887,-0.06499 0.2175,-0.03257 0.32534,-0.05389 0.70869,-0.140094 -0.459567,-0.04993 0.289713,-0.138181 0.15827,0.02664 0.3143,0.08038 0.47479,0.07992 0.16413,-5.29e-4 0.32296,-0.05925 0.48541,-0.08264 0.15675,-0.02257 0.31563,-0.02934 0.47186,-0.05523 0.14759,-0.02447 0.28948,-0.0824 0.4385,-0.09568 0.12767,-0.01138 0.25699,0.04053 0.38388,0.02241 0.10252,-0.01466 0.19153,-0.07888 0.28729,-0.118316 0.0834,-0.03157 0.16388,-0.07276 0.25036,-0.09472 0.0768,-0.0195 0.16235,7.94e-4 0.23584,-0.02875 0.0623,-0.025 0.0935,-0.101788 0.15522,-0.128262 0.0526,-0.02257 0.12199,0.0172 0.17128,-0.01188 0.0484,-0.02853 0.0406,-0.115774 0.0901,-0.142338 0.045,-0.02413 0.10175,0.008 0.15263,0.01201 0.44016,-0.126074 0.0498,-0.03356 -0.33459,0.282755 -0.0162,0.01336 0.0969,0.07625 0.10206,0.07601 0.0464,-0.0021 -0.23725,-0.101941 -0.11179,-0.0832 0.0395,0.0065 0.0817,0.03508 0.11865,0.01953 0.02,-0.0084 -0.0292,-0.04742 -0.0145,-0.06335 0.0249,-0.02703 0.082,-0.0057 0.1047,-0.03458 0.0225,-0.02856 -0.006,-0.07509 0.008,-0.108725 0.0171,-0.04187 0.054,-0.07259 0.081,-0.108884 0.0189,-0.05101 0.0378,-0.102015 0.0566,-0.153024 0.0439,-0.131249 0.0895,-0.294889 0.16869,-0.410215 0.0564,-0.08212 0.15812,-0.132647 0.19783,-0.224005 0.0437,-0.10043 0.0252,-0.217604 0.0412,-0.325929 0.0652,-0.440555 0.0239,-0.272722 0.21721,-0.688039 0.0219,-0.13045 0.0269,-0.264898 0.0657,-0.391348 0.0745,-0.242715 0.24132,-0.46451 0.33927,-0.696137 0.0457,-0.108058 0.0598,-0.228219 0.109426,-0.334534 0.12446,-0.266649 0.2167,-0.323508 0.41996,-0.526737 0.35514,-0.548926 -0.0365,-0.04992 0.44755,-0.398251 0.0833,-0.05996 0.12889,-0.163505 0.2128,-0.222663 0.0827,-0.05827 0.18436,-0.0832 0.27736,-0.122933 0.35298,-0.150805 0.1973,-0.108498 0.56571,-0.142333 0.0959,-0.01878 0.19219,-0.03577 0.28772,-0.05636 0.10142,-0.02186 0.20024,-0.05698 0.30304,-0.071 0.11054,-0.01508 0.22361,-0.0021 0.33433,-0.01595 0.24496,-0.03041 0.47977,-0.124111 0.72532,-0.149283 0.13461,-0.01381 0.27063,1.9e-5 0.40594,2.9e-5 0.69912,-0.181898 0.1392,-0.08258 0.86629,-0.08296 0.15782,-8.5e-5 0.31487,-0.02679 0.47269,-0.02714 0.16748,-2.64e-4 0.33452,0.01712 0.50181,0.02503 0.70526,0.03342 0.31371,7.94e-4 1.02082,0.08091 1.74122,-0.196379 1.21712,0.791324 0.47717,0.772071 z"
         sodipodi:nodetypes="cccscssscssssccccscccccccccssccccsscssccscsccsssscscsssccccscccccsccccsscscscsscscscccc" />
      <path
         style="fill:#000000;stroke-width:0.264583"
         id="path13220-6"
         d="m 87.231854,44.209147 c 0.004,-0.03123 0.0211,-0.06366 0.0116,-0.09369 -0.0159,-0.05077 -0.0753,-0.08342 -0.0836,-0.135961 -0.0109,-0.06843 0.0362,-0.136821 0.0294,-0.205774 -0.008,-0.08286 -0.064,-0.156057 -0.0733,-0.238808 -0.0104,-0.09313 0.0101,-0.187142 0.0151,-0.280715 -0.014,-0.103558 -0.0281,-0.207113 -0.0421,-0.310671 5.3e-4,-0.109469 0.001,-0.218937 0.002,-0.328404 -0.0314,-0.108606 -0.0936,-0.212775 -0.0941,-0.325818 -5.3e-4,-0.109008 0.0793,-0.205624 0.0916,-0.313941 0.0104,-0.09176 -0.0226,-0.183627 -0.0247,-0.275956 -0.005,-0.230049 0.0137,-0.242776 0.0701,-0.458956 -0.18046,-0.276704 -0.13065,-0.09654 -0.0839,-0.375251 0.01,-0.05698 0.01,-0.115155 0.0155,-0.172643 0.005,-0.04719 0.03,-0.096 0.0161,-0.141364 -0.0785,-0.256876 -0.1505,0.03783 -0.045,-0.235281 -0.0404,-0.08266 -0.0153,-0.176583 -0.0525,-0.259625 -0.0132,-0.02945 -0.0682,-0.05715 -0.0493,-0.08334 0.14692,-0.203928 0.20763,0.06932 0.11725,-0.17403 0.0909,-0.06821 0.0442,-0.194923 0.10488,-0.278135 0.0202,-0.02769 0.0678,-0.02992 0.0831,-0.06062 0.0193,-0.03884 -0.025,-0.106141 0.0115,-0.129598 0.0463,-0.02976 0.10947,0.01109 0.16421,0.01662 0.0271,-0.02788 0.0426,-0.07987 0.0813,-0.08363 0.0621,-0.006 0.11549,0.06182 0.17778,0.05841 0.0575,-0.0031 0.0991,-0.06185 0.15468,-0.07661 0.0598,-0.01585 0.12438,-0.0013 0.18499,-0.01352 0.44995,-0.09052 -0.0386,-0.06863 0.46698,-0.0645 0.0906,0.0044 0.18361,-0.0081 0.27179,0.01312 0.10545,0.02537 0.19348,0.107442 0.30057,0.12455 0.10781,0.01723 0.21759,-0.02993 0.32663,-0.02437 0.1095,0.0056 0.21441,0.051 0.32386,0.05759 0.10807,0.0065 0.21878,-0.04295 0.32428,-0.0186 0.10927,0.02521 0.19673,0.107691 0.2951,0.161536 0.39257,-0.127788 0.24194,-0.153141 0.60185,-0.0052 0.0925,0.038 0.17421,0.10835 0.27288,0.124336 0.0905,0.01466 0.18098,-0.0327 0.27256,-0.03596 0.28429,-0.01013 0.23207,0.0094 0.46791,0.170836 0.20151,0.05303 0.40532,-0.06346 0.60545,-0.03916 0.055,0.0067 0.10183,0.05392 0.15728,0.05411 0.41663,0.0013 -0.10002,-0.131704 0.28427,-0.01053 0.16664,-0.101629 0.19465,-0.0076 0.34679,0.03948 0.0847,0.02625 0.10532,-0.03469 0.12311,0.07373 0.004,0.05445 0.061,0.01545 0.0798,0.03816 0.0164,0.01976 5.3e-4,0.05992 0.0222,0.07377 0.0314,0.02013 0.0858,-0.01545 0.1113,0.01172 0.0298,0.0317 0.005,0.08809 0.0207,0.128815 0.0151,0.04033 0.0458,0.07298 0.0687,0.109474 0.007,0.0517 -0.005,0.109337 0.0197,0.155107 0.0325,0.05963 0.11045,0.08526 0.1435,0.144579 0.0545,0.09791 0.0579,0.329419 0.0758,0.430257 0.0831,0.467545 0.0543,0.02135 0.0646,0.527995 0.13326,0.595389 0.0312,-0.03149 0.0104,0.5984 -0.003,0.10247 0.0353,0.203253 0.0334,0.30576 -0.002,0.100291 -0.0569,0.19798 -0.0449,0.297567 0.013,0.10736 0.088,0.198374 0.11732,0.302458 0.0301,0.107003 0.0402,0.21867 0.0603,0.328007 0.0405,0.106135 0.10872,0.205525 0.1214,0.318402 0.0114,0.101433 -0.0576,0.199898 -0.0518,0.301802 0.005,0.0905 0.0605,0.171119 0.0837,0.258755 0.0292,0.110167 0.0372,0.317913 0.1314,0.410591 0.0642,0.06318 0.1568,0.08874 0.23521,0.133114 0,0 0.12592,-0.006 0.12592,-0.006 v 0 c 0.0865,-0.05276 0.18746,-0.08701 0.25946,-0.158282 0.0518,-0.05126 0.0731,-0.126923 0.0979,-0.195442 0.0464,-0.128421 0.0844,-0.365633 0.0911,-0.49871 0.0323,-0.640035 -0.0617,0.077 0.0435,-0.596384 -0.028,-0.104921 -0.077,-0.206397 -0.0839,-0.314759 -0.007,-0.108181 0.0319,-0.214501 0.0434,-0.322281 0.012,-0.111636 0.0139,-0.224237 0.0271,-0.335733 0.0133,-0.112337 0.0594,-0.222395 0.0524,-0.335298 -0.007,-0.112041 -0.0674,-0.214347 -0.0935,-0.323535 -0.0253,-0.105813 -0.0402,-0.213823 -0.0603,-0.320734 0.057,-0.727006 0.0438,0.06114 -0.0877,-0.595614 -0.0196,-0.09783 0.0114,-0.200448 -0.002,-0.299318 -0.0128,-0.09466 -0.0517,-0.183941 -0.0761,-0.276299 -0.0768,-0.290687 -0.0621,-0.240503 -0.12097,-0.535474 -0.0581,-0.05902 -0.12805,-0.108347 -0.17429,-0.177051 -0.0432,-0.06415 -0.0539,-0.14532 -0.089,-0.214199 -0.0216,-0.04241 -0.20705,-0.352211 -0.26006,-0.390215 -0.0647,-0.04637 -0.15268,-0.04651 -0.22521,-0.07926 -0.0592,-0.02672 -0.11212,-0.06556 -0.16817,-0.09834 -0.20868,-0.07999 -0.17349,-0.05858 -0.3605,-0.158943 -0.0568,-0.0305 -0.10418,-0.09705 -0.16864,-0.09488 -0.0666,0.0021 -0.10516,0.124139 -0.16935,0.10623 -0.57108,-0.159372 0.21934,-0.255328 -0.289,-0.162298 -0.27164,0.225107 -0.0393,0.118065 -0.2916,-0.03753 -0.21155,-0.130458 -0.12854,0.105175 -0.32066,0.11988 -0.0685,0.0052 -0.10979,-0.087 -0.17478,-0.109358 -0.0663,-0.02281 -0.13933,-0.01511 -0.209,-0.02267 -0.0159,-0.0016 -0.43434,-0.04755 -0.44829,-0.04663 -0.0888,0.0058 -0.17245,0.05488 -0.26148,0.05447 -0.092,-5.29e-4 -0.17872,-0.0455 -0.26998,-0.05687 -0.20209,-0.02516 -0.40886,0.0034 -0.60947,-0.0428 -0.11021,-0.01175 -0.22079,-0.02043 -0.33063,-0.03524 -0.11371,-0.01534 -0.22506,-0.05249 -0.33977,-0.05519 -0.11803,-0.0028 -0.23434,0.04794 -0.35206,0.03892 -0.11762,-0.009 -0.2258,-0.0701 -0.3417,-0.09207 -0.34323,-0.06506 -0.31522,-0.03941 -0.64754,0.02159 -0.42062,0.05421 -0.20867,0.05536 -0.63582,-0.0065 -0.0967,0.01021 -0.17613,0.08532 -0.27029,0.10945 -0.0875,0.02241 -0.18371,2.64e-4 -0.26939,0.02885 -0.17959,0.05984 -0.3108,0.227396 -0.5021,0.265293 -0.26519,0.102124 -0.24655,0.04941 -0.40937,0.296457 -0.0435,0.06596 -0.0572,0.14986 -0.10615,0.211884 -0.0469,0.0595 -0.144,0.07579 -0.17523,0.144838 -0.0328,0.07254 10e-4,0.159232 0.002,0.238847 -0.0358,0.05685 -0.0715,0.113697 -0.1073,0.170546 -0.004,0.05848 -0.0121,0.116805 -0.0127,0.175432 -5.3e-4,0.05966 0.032,0.123653 0.009,0.178755 -0.0275,0.06621 -0.13404,0.08569 -0.14807,0.155998 -0.0115,0.05761 0.0683,0.09772 0.0863,0.153644 0.024,0.07484 -0.0364,0.16211 0.0103,0.235595 0.11558,0.281691 -0.0194,-0.100018 0.0145,0.206981 0.005,0.04095 0.062,0.07377 0.0498,0.113128 -0.019,0.06129 -0.11265,0.08079 -0.12902,0.142827 -0.0304,0.11516 0.15166,0.226256 0.0701,0.350356 0.18226,0.745604 -0.0593,-0.360024 0.0177,0.474954 0.009,0.09957 0.0695,0.188767 0.086,0.287398 0.0545,0.326136 -0.0193,0.662747 0.006,0.990124 0.0114,0.110186 0.0216,0.220498 0.0342,0.330554 0.0116,0.101336 0.0323,0.201758 0.0382,0.303578 0.007,0.114223 -0.0197,0.436798 0.0107,0.556326 0.0278,0.109027 0.14143,0.182613 0.15902,0.297733 0,0 0.92915,-0.285205 0.92915,-0.285205 z" />
      <path
         style="fill:#000000;stroke-width:0.264583"
         id="path13272"
         d="m 71.880722,25.937904 c -0.21001,-0.303564 0.08475,0.08183 -0.252788,-0.202377 -0.06345,-0.05343 -0.0972,-0.135758 -0.157765,-0.192437 -0.07131,-0.06674 -0.156408,-0.11703 -0.234948,-0.175098 -0.624382,-0.461635 -0.01569,-0.0068 -0.698809,-0.519417 -0.101838,-0.131384 -0.175699,-0.290319 -0.305515,-0.394155 -0.129508,-0.103593 -0.307163,-0.127654 -0.450699,-0.210728 -0.727708,-0.421179 -0.04432,-0.06678 -0.61089,-0.601482 -0.08763,-0.0827 -0.211545,-0.116303 -0.310508,-0.185026 -0.08327,-0.05783 -0.156413,-0.129021 -0.234619,-0.193532 -0.09728,-0.112591 -0.193561,-0.243081 -0.321387,-0.326308 -0.04626,-0.03012 -0.10578,-0.03572 -0.151749,-0.06628 -0.209293,-0.139126 0.02703,-0.0302 -0.125407,-0.167018 -0.01778,-0.01595 -0.04531,-0.01516 -0.06797,-0.02275 -0.07407,-0.115458 0.06215,0.02861 0.07633,0.05704 0.03069,0.06154 0.05741,0.130921 0.05251,0.199517 -0.0016,0.02217 -0.0781,0.01757 -0.06667,-0.0016 0.318199,-0.530548 -0.08647,0.561872 0.208389,-0.35007 0.364375,-0.327948 0.32957,-0.790033 0.610954,-1.185442 0.115676,-0.162552 0.304589,-0.265451 0.413893,-0.432355 0.115364,-0.17616 0.153586,-0.392893 0.249359,-0.580425 0.09549,-0.186978 0.215445,-0.360418 0.323168,-0.540628 0.182221,-0.337325 0.568992,-0.505741 0.776734,-0.819621 0.08657,-0.1308 0.08478,-0.306478 0.167519,-0.43973 0.14106,-0.227168 0.352557,-0.275222 0.506658,-0.483269 0.05038,-0.06802 0.06567,-0.156033 0.09851,-0.234051 0.398153,-0.277788 -3.7e-5,0.04691 0.229917,-0.27187 0.04697,-0.06511 0.254069,-0.106579 0.244729,-0.195365 -0.0044,-0.04163 -0.03764,-0.07478 -0.05647,-0.11217 -0.06933,-0.04741 0.02516,0.01016 -0.119515,0.145142 -0.01802,0.0168 -0.05501,-0.0055 -0.07307,0.01125 -0.01024,0.0095 0.02119,0.01826 0.03261,0.0263 0.04481,0.03161 0.09026,0.06231 0.135958,0.09262 0.07657,0.05079 0.153885,0.100459 0.230826,0.150688 0.482568,0.271372 0.273351,0.157654 0.806881,0.439568 0.159771,0.08442 0.326382,0.156898 0.479668,0.25259 0.345909,0.163102 0.57308,0.488534 0.890744,0.688229 0.149847,0.0942 0.322093,0.146859 0.483142,0.220289 0.858933,1.024088 -0.219588,-0.19694 0.647298,0.604451 0.326361,0.301702 0.07934,0.251751 0.452885,0.440799 0.07225,0.03657 0.152154,0.08817 0.231709,0.07303 0.147785,-0.02812 0.27147,-0.129723 0.407204,-0.194583 0,0 0.07231,-0.07572 0.07231,-0.07572 v 0 c 0.05317,-0.137856 0.149143,-0.266179 0.159512,-0.413568 0.01193,-0.169481 -0.265514,-0.334573 -0.348607,-0.410265 -0.09208,-0.08388 -0.167113,-0.186666 -0.265896,-0.26253 -0.11799,-0.09062 -0.253494,-0.155798 -0.380243,-0.233694 -0.128304,-0.109066 -0.256611,-0.21813 -0.384916,-0.327194 -0.149312,-0.113691 -0.301913,-0.223184 -0.447931,-0.341069 -0.154739,-0.124928 -0.288044,-0.277508 -0.454001,-0.387096 -0.167738,-0.110765 -0.364935,-0.169712 -0.539668,-0.269073 -0.16282,-0.09259 -0.305285,-0.219279 -0.471382,-0.305848 -0.999384,-0.520867 -0.02273,0.144801 -0.852564,-0.460378 -0.161415,-0.04098 -0.456713,-0.105701 -0.617398,-0.18153 -0.08619,-0.04068 -0.150246,-0.130866 -0.24371,-0.149508 -0.180144,-0.03594 -0.535837,0.14229 -0.669359,0.260913 0.04505,0.147259 0.02959,0.137467 -0.09229,0.230238 -0.0341,0.02596 -0.08756,0.0369 -0.103076,0.07685 -0.152331,0.3923 0.199771,0.01752 -0.153043,0.326869 -0.04076,0.07054 -0.07615,0.14447 -0.122272,0.211629 -0.05867,0.08543 -0.129474,0.161907 -0.191336,0.245049 -0.07504,0.100865 -0.145523,0.20505 -0.219295,0.306848 -0.08977,0.123873 -0.194238,0.238006 -0.271314,0.37015 -0.09168,0.157168 -0.129519,0.343881 -0.232616,0.493805 -0.113128,0.164507 -0.272201,0.292142 -0.408303,0.438213 -0.645813,1.259864 0.09722,-0.07333 -0.715454,1.05265 -0.117806,0.163225 -0.181957,0.361292 -0.30154,0.523217 -0.108866,0.147415 -0.272352,0.249229 -0.378984,0.398266 -0.169844,0.237384 -0.21734,0.548407 -0.416129,0.77047 -0.340021,0.403661 -0.137623,0.09321 -0.300352,0.530143 -0.03314,0.08898 -0.111281,0.165153 -0.116465,0.259963 -0.0065,0.11896 0.04401,0.235088 0.08325,0.347578 0.08623,0.247229 0.04781,0.22224 0.204756,0.209153 0.076,0.151429 -0.01087,0.01513 0.136303,0.133123 0.144216,0.115617 0.03235,0.09786 0.230605,0.195056 0.349118,0.171151 0.134644,-0.06253 0.370248,0.314976 0.660071,0.281 -0.06227,-0.08272 0.524271,0.419145 0.101989,0.08727 0.232707,0.133852 0.348859,0.201125 0.126743,0.07341 0.260519,0.135956 0.379825,0.220919 0.127804,0.09102 0.234924,0.208352 0.358577,0.304933 0.126717,0.09898 0.261262,0.187499 0.391895,0.281249 0.13053,0.08823 0.269394,0.165235 0.391591,0.264684 0.193432,0.157422 0.330431,0.380691 0.535761,0.522245 0.07553,0.05207 0.173442,0.06366 0.251391,0.112043 0.06415,0.03982 0.113395,0.09972 0.170092,0.149583 0.04897,0.02884 0.09794,0.05768 0.14691,0.08652 0,0 0.423188,-0.743974 0.423188,-0.743974 z" />
      <path
         style="fill:#000000;stroke-width:0.264583"
         id="path13274"
         d="m 80.984201,18.074297 c 0.01098,-0.06589 0.03336,-0.130868 0.03296,-0.197665 -7.94e-4,-0.114943 -0.08456,-0.511984 -0.107748,-0.594257 -0.03609,-0.128058 -0.0928,-0.249684 -0.129211,-0.377653 -0.0948,-0.333137 -0.11095,-0.508061 -0.164182,-0.850926 -0.06886,-0.178689 -0.223779,-0.55503 -0.262016,-0.750634 -0.02283,-0.116832 0.0043,-0.241411 -0.02775,-0.356049 -0.02796,-0.09988 -0.112586,-0.176144 -0.148439,-0.273471 -0.220843,-0.599517 0.138157,0.0304 -0.192403,-0.495115 -0.03475,-0.101706 -0.111741,-0.298606 -0.115482,-0.413231 -0.0021,-0.0663 0.03164,-0.130649 0.02877,-0.196924 -0.0096,-0.220523 -0.06312,-0.10391 -0.125912,-0.297863 -0.01333,-0.04121 -0.0033,-0.08657 -0.0049,-0.12985 -0.131826,0.02767 -0.02508,-0.205345 -0.03989,-0.218998 -0.173693,-0.160046 -0.07632,0.278344 -0.07945,0.382373 -0.06337,0.04896 -0.126733,0.09792 -0.190101,0.146886 -0.0052,0.006 -0.02349,0.01894 -0.01558,0.0181 0.204216,-0.02162 0.441632,-0.162187 0.639834,-0.197588 0.141848,-0.02532 0.287458,-0.02045 0.431185,-0.0307 0.165131,-0.08007 0.780508,-0.392528 0.958629,-0.420344 0.189463,-0.02959 0.387107,0.07091 0.574484,0.03016 0.192436,-0.04185 0.337809,-0.210719 0.525785,-0.269435 0.716976,-0.08763 0.376992,-0.0088 1.022697,-0.224293 0.391974,0.03396 0.702908,-0.172625 1.059002,-0.283054 0.08805,-0.0273 0.184928,-0.02609 0.269156,-0.06356 0.377311,-0.167868 0.0085,-0.185883 0.435139,-0.09421 0.143974,-0.0082 0.261704,-0.13026 0.403908,-0.142401 0.07138,-0.0061 0.151653,0.03191 0.225009,0.03355 0.01476,0.0227 0.02955,0.04541 0.04432,0.06811 0.02045,0.0048 0.04751,-0.0013 0.06138,0.01455 0.02373,0.02705 0.0213,0.06941 0.03953,0.100438 0.01953,0.03322 0.06234,0.05292 0.0724,0.09012 0.01902,0.07029 -0.01077,0.148688 0.01098,0.218178 0.02791,0.0891 0.08956,0.163862 0.134334,0.245793 -0.07906,0.287676 0.186909,0.48291 0.221959,0.737105 0.02156,0.156488 -0.0496,0.313288 -0.05007,0.471258 -7.94e-4,0.304469 0.09858,0.69062 0.09349,0.994574 -0.0027,0.163285 -0.04189,0.323919 -0.06284,0.485881 0.08032,1.260006 -0.06696,-0.336717 0.185119,0.846724 0.02495,0.117132 -0.07113,0.266891 0.0051,0.359236 0.117819,0.142684 0.331006,0.16551 0.49651,0.248266 0,0 0.09961,-0.008 0.09961,-0.008 v 0 c 0.173602,-0.106952 0.399198,-0.157186 0.520805,-0.320855 0.06892,-0.09276 -0.03352,-0.230467 -0.02551,-0.345754 0.04952,-0.712753 0.20002,-0.125188 -0.108684,-0.860044 -0.01365,-0.167492 -0.02851,-0.334894 -0.04098,-0.502479 -0.01328,-0.17844 -0.01286,-0.358177 -0.03629,-0.535572 -0.02355,-0.178371 -0.07173,-0.352642 -0.104349,-0.529582 -0.02994,-0.162396 -0.05778,-0.325194 -0.08332,-0.488341 -0.02418,-0.154533 -0.0109,-0.318154 -0.06583,-0.464598 -0.05105,-0.136078 -0.162693,-0.240882 -0.244039,-0.361323 -0.01876,-0.199326 -0.02445,-0.528807 -0.136689,-0.713441 -0.05685,-0.09353 -0.160189,-0.149206 -0.239016,-0.225142 -0.198665,-0.191376 -0.284102,-0.298542 -0.578554,-0.320344 -0.283784,-0.100089 -0.100663,-0.05957 -0.378397,-0.07037 -0.06218,-0.0024 -0.125722,-0.02782 -0.186211,-0.01323 -0.06312,0.01524 -0.111373,0.06684 -0.167944,0.09872 -0.204928,0.115504 -0.10782,0.08742 -0.348202,0.07586 -0.06912,0.01789 -0.139343,0.03198 -0.207365,0.05368 -0.07192,0.02294 -0.138647,0.06164 -0.21186,0.08005 -0.08532,0.02146 -0.174984,0.02069 -0.261069,0.03887 -0.347951,0.07346 -0.683985,0.206447 -1.046914,0.199184 -0.69338,0.230187 -1.39428,0.421896 -2.105332,0.589351 -0.172183,0.04055 -0.340603,0.102738 -0.516427,0.122166 -0.166111,0.01836 -0.334177,-0.0065 -0.501264,-0.0097 -0.237614,0.09103 -0.436792,0.200097 -0.696597,0.193881 -0.08779,-0.0021 -0.170299,-0.07211 -0.256985,-0.05804 -0.0669,0.01085 -0.100952,0.09209 -0.159806,0.125698 -0.490952,0.280337 0.255842,-0.282847 -0.409048,0.256371 -0.02447,0.145952 -0.05985,0.290488 -0.07341,0.437856 -0.0011,0.01156 0.03866,0.0048 0.03182,0.01413 -0.01971,0.02701 -0.07643,0.02341 -0.08312,0.05617 -0.0049,0.0241 0.05707,0.01281 0.06422,0.03633 0.05549,0.182597 -0.218586,-0.02315 0.09805,0.152006 0.01685,0.131929 0.0093,0.342087 0.0418,0.45848 0.01783,0.06395 0.05522,0.120761 0.08174,0.181621 0.117206,0.26889 0.07801,0.145277 0.12295,0.450125 0.04348,0.0797 0.09955,0.153731 0.130423,0.239106 0.16495,0.456063 -0.05842,0.09341 0.105281,0.580065 0.03818,0.113519 0.110373,0.212677 0.160911,0.32126 0.09534,0.204851 0.225746,0.530807 0.310174,0.737057 0.05435,0.129485 0.118875,0.255159 0.16306,0.388459 0.162901,0.491442 0.02053,0.296347 0.221218,0.759682 0.04463,0.10304 0.122561,0.190355 0.16124,0.295773 0.02979,0.08119 0.0048,0.177752 0.04126,0.256153 0.03139,0.06741 0.102294,0.107956 0.15344,0.161933 0,0 0.509527,-0.146338 0.509527,-0.146338 z" />
      <path
         style="fill:#000000;stroke-width:0.264583"
         id="path13280"
         d="m 105.34832,22.114518 c 0.13723,-0.131977 0.29755,-0.244896 0.42752,-0.384093 0.0668,-0.07159 0.11821,-0.156522 0.18397,-0.229114 0.56186,-0.620283 -0.10101,0.182505 0.43504,-0.482504 0.0767,-0.06933 0.15334,-0.138653 0.23001,-0.207981 0.0971,-0.03609 0.20891,-0.04559 0.29145,-0.10827 0.0698,-0.05304 0.0759,-0.164034 0.14242,-0.221216 0.0581,-0.04995 0.15476,-0.03579 0.21356,-0.08489 0.44511,-0.371679 -0.23937,-0.01005 0.22587,-0.232923 0.0313,-0.0271 0.0568,-0.06315 0.0941,-0.08131 0.0394,-0.01921 0.0932,-0.0013 0.12857,-0.02724 0.39919,-0.292928 -0.27266,0.07455 0.0982,-0.211659 0.0278,-0.02146 0.0713,-2.6e-5 0.10491,-0.01013 0.0278,-0.0084 0.0501,-0.02931 0.0752,-0.04397 0.0391,-0.101849 0.13456,-0.176901 0.23656,-0.214958 0.0355,-0.01323 0.0778,-0.0034 0.11188,-0.01984 0.0281,-0.01355 0.0776,-0.07225 0.10465,-0.103058 0.0147,0.02981 0.1026,0.153045 0.13958,0.165632 0.0438,0.01492 0.0943,-0.0053 0.13861,0.0081 0.0556,0.01693 0.10288,0.05409 0.15432,0.08113 0.1256,0.09754 0.23829,0.210164 0.36046,0.311666 0.0785,0.06521 0.16577,0.120009 0.24025,0.189777 0.0801,0.07501 0.13471,0.176501 0.22189,0.243126 0.53887,0.411819 0.15447,-0.111765 0.51233,0.49172 0.46469,0.516432 -0.0115,0.03494 0.58384,0.486722 0.10472,0.07947 0.18887,0.183772 0.29325,0.263676 0.0973,0.07447 0.2211,0.113297 0.30972,0.19789 0.23015,0.343966 0.0971,0.201771 0.38583,0.438544 0.39734,0.321834 0.009,-0.05399 0.21861,0.340911 0.0227,0.04271 0.0849,0.05229 0.11199,0.09235 0.11254,0.06061 -0.0336,0.142611 -0.002,0.202205 0.0156,0.02942 0.0626,0.02265 0.0939,0.03399 -0.09,0.04784 0.0363,0.103896 0.0119,0.146365 -0.0212,0.03694 -0.0935,0.02687 -0.10905,0.06648 -0.0126,0.03206 0.0389,0.0587 0.0465,0.09231 0.034,0.150551 -0.0246,0.125394 -0.15503,0.201962 -0.12297,0.128749 -0.18163,0.309317 -0.3056,0.43651 -0.0929,0.09532 -0.22057,0.151738 -0.31466,0.245896 -0.11639,0.116459 -0.19715,0.265117 -0.31298,0.382129 -0.26323,0.265928 -0.63633,0.521891 -0.93394,0.741262 -0.45432,0.402815 -0.93706,0.768726 -1.37579,1.189159 -0.11425,0.109477 -0.253,0.201176 -0.33453,0.336783 -0.10085,0.167725 -0.15214,0.594911 -0.18346,0.793647 0,0 0.0627,0.07419 0.0627,0.07419 v 0 c 0.24405,-0.0104 0.53824,-0.0027 0.76739,-0.105389 0.14492,-0.06495 0.26398,-0.176797 0.39195,-0.270841 0.15068,-0.110723 0.29531,-0.229436 0.44368,-0.343236 0.68571,-0.525965 0.32333,-0.21195 0.96075,-0.824976 0.15259,-0.144531 0.30517,-0.289065 0.45776,-0.433599 0.16053,-0.117843 0.33502,-0.218713 0.48158,-0.353531 0.13334,-0.122648 0.22072,-0.289351 0.35248,-0.413689 0.11247,-0.106141 0.25876,-0.17113 0.37514,-0.272963 0.25234,-0.220795 0.29613,-0.32965 0.47021,-0.602067 0.0266,-0.06788 0.17668,-0.442871 0.19773,-0.525087 0.0181,-0.0705 0.003,-0.148474 0.0296,-0.216308 0.029,-0.07458 0.13585,-0.120343 0.13228,-0.200268 -0.004,-0.079 -0.0996,-0.122838 -0.14944,-0.184259 5.3e-4,-0.06489 7.9e-4,-0.12978 0.001,-0.194669 -0.001,-0.07356 0.021,-0.15149 -0.004,-0.220689 -0.049,-0.135525 -0.20746,-0.210439 -0.26208,-0.343784 -0.0314,-0.07659 -0.0119,-0.168582 -0.046,-0.244007 -0.0903,-0.199922 -0.21935,-0.238141 -0.39661,-0.345178 -0.26401,-0.324141 -0.11048,-0.182377 -0.46312,-0.422547 -0.0839,-0.08806 -0.11652,-0.216273 -0.19822,-0.30639 -0.0838,-0.09243 -0.20085,-0.148985 -0.29194,-0.234247 -0.18003,-0.168518 -0.31636,-0.380666 -0.5156,-0.530502 -0.15369,-0.233932 -0.24475,-0.410695 -0.46397,-0.592926 -0.0928,-0.07716 -0.2162,-0.112485 -0.307,-0.192014 -0.0915,-0.08019 -0.14517,-0.196866 -0.23308,-0.281035 -0.0827,-0.07914 -0.44719,-0.325001 -0.54649,-0.393409 -0.21692,-0.101558 -0.32438,-0.146592 -0.53052,-0.263062 -0.0869,-0.04909 -0.15736,-0.142235 -0.25639,-0.154609 -0.0913,-0.0114 -0.17,0.0755 -0.26083,0.08998 -0.46882,0.07475 0.0449,-0.141518 -0.39642,0.0785 -0.0593,0.0244 -0.12509,0.03676 -0.17783,0.07319 -0.0391,0.02701 -0.0449,0.094 -0.0892,0.111257 -0.0592,0.02307 -0.13221,-0.0272 -0.19062,-0.0021 -0.0486,0.0208 -0.0625,0.08535 -0.097,0.125363 -0.0899,0.104224 -0.0975,0.100531 -0.20594,0.179662 -0.0232,0.02294 -0.10516,0.106961 -0.13251,0.120206 -0.0366,0.01773 -0.0814,0.01341 -0.11794,0.0312 -0.17143,0.0834 -5.3e-4,0.04751 -0.15165,0.16892 -0.0357,0.02868 -0.0843,0.03599 -0.12641,0.05398 -0.37309,0.13607 0.0821,-0.07949 -0.19278,0.302035 -0.0478,0.06632 -0.15101,0.06567 -0.21759,0.113083 -0.0744,0.05298 -0.13523,0.122798 -0.20165,0.185481 -0.25254,0.238323 -0.20232,0.19309 -0.44349,0.453834 -0.18669,0.15934 -0.33297,0.274831 -0.50047,0.454006 -0.0694,0.07427 -0.1305,0.155946 -0.19576,0.233919 -0.0543,0.07261 -0.10148,0.151214 -0.16303,0.217823 -0.41922,0.453655 0.0325,-0.130717 -0.28207,0.292494 0,0 0.78346,0.5915 0.78346,0.5915 z" />
      <path
         style="fill:#000000;stroke-width:0.264583"
         id="path13503"
         d="m 100.22011,18.36051 c -0.007,-0.06642 -0.0257,-0.132583 -0.0214,-0.199245 0.008,-0.114703 0.11412,-0.506214 0.14205,-0.587002 0.0435,-0.125748 0.10713,-0.243878 0.1509,-0.369519 0.11397,-0.327074 0.14025,-0.500766 0.21328,-0.839964 0.0792,-0.17439 0.25562,-0.541109 0.30514,-0.734164 0.0295,-0.115312 0.01,-0.241236 0.0483,-0.353842 0.0337,-0.09809 0.12262,-0.169313 0.16406,-0.264396 0.25526,-0.585691 -0.13969,0.02233 0.22081,-0.483115 0.0406,-0.09951 0.12888,-0.291618 0.13926,-0.405833 0.006,-0.06607 -0.024,-0.132263 -0.0173,-0.198264 0.0228,-0.219571 0.069,-0.100073 0.14299,-0.290054 0.0157,-0.04037 0.008,-0.08625 0.0125,-0.129341 0.12999,0.03527 0.037,-0.203542 0.0525,-0.216313 0.18268,-0.149697 0.06,0.282303 0.0571,0.386336 0.0605,0.05256 0.12083,0.105109 0.18125,0.15767 0.005,0.0063 0.0224,0.02027 0.0145,0.01897 -0.20262,-0.03343 -0.43147,-0.187542 -0.62729,-0.234385 -0.14014,-0.03351 -0.28579,-0.0371 -0.42868,-0.05567 -0.16021,-0.08952 -0.75641,-0.43716 -0.93261,-0.475265 -0.18743,-0.04053 -0.39057,0.04833 -0.57527,-0.0032 -0.18968,-0.05295 -0.32501,-0.229967 -0.50926,-0.299493 -0.71068,-0.129089 -0.37585,-0.03066 -1.00796,-0.283263 -0.39328,0.01116 -0.69171,-0.213124 -1.040792,-0.344032 -0.08632,-0.03236 -0.183102,-0.03678 -0.265014,-0.07907 -0.366934,-0.189481 0.0023,-0.186063 -0.428938,-0.119303 -0.143255,-0.01654 -0.253704,-0.145227 -0.394963,-0.1656 -0.07091,-0.01023 -0.15325,0.02306 -0.226578,0.02044 -0.01605,0.02181 -0.03213,0.04362 -0.0482,0.06542 -0.02069,0.0036 -0.04735,-0.0041 -0.06212,0.01096 -0.02526,0.02563 -0.02529,0.06806 -0.04529,0.09797 -0.02142,0.03203 -0.06531,0.04921 -0.07751,0.08577 -0.02307,0.06907 0.0021,0.149062 -0.02362,0.217173 -0.03303,0.08733 -0.09891,0.158389 -0.148371,0.237583 0.06223,0.291779 -0.214619,0.47125 -0.264361,0.722982 -0.03065,0.154971 0.03134,0.315639 0.02267,0.473371 -0.01687,0.304003 -0.138511,0.683735 -0.151058,0.987472 -0.0065,0.163184 0.02303,0.325805 0.0345,0.488707 -0.153284,1.253223 0.08643,-0.332262 -0.233944,0.834554 -0.03176,0.115484 0.05549,0.270568 -0.02584,0.358341 -0.125901,0.135606 -0.340047,0.146023 -0.51008,0.219035 0,0 -0.09897,-0.01377 -0.09897,-0.01377 v 0 c -0.167101,-0.116846 -0.389396,-0.180086 -0.501303,-0.350537 -0.0634,-0.0966 0.04682,-0.228134 0.04552,-0.343691 -0.0081,-0.714425 -0.192419,-0.136585 0.158406,-0.852288 0.0233,-0.166421 0.04789,-0.332676 0.07009,-0.499253 0.02363,-0.177367 0.03366,-0.356825 0.06732,-0.532563 0.03391,-0.176701 0.09204,-0.347887 0.134906,-0.522634 0.03927,-0.160387 0.07657,-0.321292 0.111498,-0.482684 0.03313,-0.152868 0.02934,-0.316985 0.09265,-0.459997 0.05881,-0.132889 0.176405,-0.231034 0.264596,-0.346552 0.03034,-0.197899 0.05515,-0.526494 0.177861,-0.704306 0.06213,-0.09008 0.168579,-0.139659 0.251683,-0.210892 0.20943,-0.179525 0.300945,-0.281553 0.596164,-0.286231 0.289114,-0.08345 0.103951,-0.05363 0.381843,-0.04829 0.06222,0.0012 0.127126,-0.02048 0.186666,-0.0024 0.06213,0.01888 0.107307,0.07319 0.161931,0.108299 0.19788,0.127202 0.102566,0.09353 0.343213,0.09594 0.06797,0.02187 0.137254,0.04001 0.203902,0.06562 0.07047,0.02707 0.134836,0.06958 0.206857,0.09221 0.08393,0.02637 0.173489,0.03081 0.258374,0.05395 0.343101,0.09353 0.670851,0.245792 1.033591,0.259602 0.67885,0.270036 1.36745,0.502096 2.067581,0.710532 0.16954,0.05047 0.33407,0.12233 0.50847,0.151929 0.16477,0.02797 0.33399,0.0129 0.50099,0.01941 0.23193,0.104666 0.42444,0.225107 0.68417,0.233979 0.0878,0.003 0.17419,-0.06211 0.25992,-0.04303 0.0662,0.01471 0.0954,0.09779 0.15225,0.13476 0.47385,0.308355 -0.23901,-0.297217 0.39347,0.279676 0.016,0.147128 0.0428,0.293469 0.0479,0.441378 3.2e-4,0.0116 -0.0389,0.0025 -0.0326,0.01226 0.0181,0.02811 0.0749,0.0278 0.0797,0.0609 0.004,0.02435 -0.0577,0.0095 -0.0662,0.03254 -0.066,0.179068 0.21956,-0.01043 -0.10676,0.146057 -0.0245,0.130726 -0.0288,0.340988 -0.0683,0.455281 -0.0215,0.06281 -0.0621,0.117355 -0.0921,0.176574 -0.13261,0.261636 -0.0863,0.140506 -0.14887,0.442232 -0.0481,0.07704 -0.10825,0.147698 -0.14407,0.231134 -0.19114,0.445723 0.0529,0.09664 -0.13877,0.572978 -0.0447,0.111111 -0.12252,0.205914 -0.17928,0.311381 -0.10703,0.198976 -0.25617,0.516812 -0.35242,0.717816 -0.0617,0.126115 -0.13349,0.24783 -0.18533,0.378342 -0.19115,0.48116 -0.0377,0.294658 -0.26493,0.745564 -0.0505,0.100278 -0.13341,0.182921 -0.17814,0.285917 -0.0345,0.07932 -0.0153,0.177162 -0.0561,0.253324 -0.0353,0.06547 -0.10838,0.101839 -0.16257,0.152756 0,0 -0.50018,-0.175659 -0.50018,-0.175659 z" />
      <path
         style="fill:#000000;stroke-width:0.328196"
         id="path13505"
         d="m 71.287177,25.815259 c -0.06084,0.07936 -0.165088,0.146309 -0.182521,0.238093 -0.02469,0.129948 0.0623,0.259649 0.06303,0.391056 0.0011,0.175822 -0.04377,0.350012 -0.05796,0.525478 -0.01764,0.218065 -0.01199,0.437291 -0.03755,0.654861 -0.276382,2.348958 0.0045,-0.975293 -0.192311,1.592855 -0.08177,0.594514 -0.04431,1.19512 -0.111815,1.790183 -0.03506,0.309044 -0.137659,0.61267 -0.156363,0.922601 -0.01823,0.301987 0.0269,0.60431 0.04601,0.906263 0.08331,1.316586 0.06736,0.378785 0.06197,1.597977 0.105762,0.200702 0.211515,0.401402 0.317272,0.602103 0,0 0.127547,-5.84e-4 0.127547,-5.84e-4 v 0 c 0.04483,-0.200141 0.08967,-0.400283 0.134493,-0.600424 0.04732,-0.289796 0.219364,-1.319213 0.244435,-1.578597 0.0287,-0.296952 0.04062,-0.594981 0.04366,-0.892788 0.0036,-0.359459 -0.07088,-1.445766 0.0027,-1.811081 0.05942,-0.295736 0.216583,-0.573864 0.324872,-0.860796 0.02727,-0.279111 0.07356,-0.557465 0.08176,-0.837331 0.0074,-0.252323 -0.06608,-0.505478 -0.03502,-0.756671 0.02686,-0.217191 0.178056,-0.41685 0.207047,-0.633872 0.02314,-0.173182 -0.06921,-0.347107 -0.0528,-0.520771 0.01801,-0.190608 0.186669,-0.358202 0.195637,-0.552147 0,0 -1.023893,-0.1763 -1.023893,-0.1763 z" />
      <path
         style="fill:#000000;stroke-width:0.37933"
         id="path13509"
         d="m 76.590219,19.924665 c 0.0441,-0.0098 0.101001,0.0056 0.132306,-0.02934 0.03636,-0.04068 0.0077,-0.116284 0.03855,-0.161775 0.08289,-0.122205 0.255433,-0.14015 0.36178,-0.210916 0.07587,-0.05047 0.134258,-0.126728 0.206686,-0.182757 0.0835,-0.06461 0.173474,-0.118979 0.260213,-0.178478 0.575704,-0.616183 -0.116326,-0.0011 0.636024,-0.271899 0.119225,-0.04291 0.188365,-0.18575 0.301574,-0.245089 0.118098,-0.06191 0.253809,-0.06999 0.379034,-0.111661 0.304192,-0.101216 0.412307,-0.157448 0.705404,-0.287417 0.0018,-1.36e-4 0.66637,-0.05422 0.6779,-0.05902 0.221017,-0.09202 0.422243,-0.384146 0.566258,-0.558971 0,0 -0.0194,-0.113907 -0.0194,-0.113907 v 0 c -0.11788,-0.05016 -0.226559,-0.135265 -0.353654,-0.150435 -0.113747,-0.01353 -0.226944,0.04575 -0.34057,0.06755 -0.471671,0.09049 -0.224175,0.0088 -0.674466,0.216973 -0.926132,0.09466 0.145595,-0.0704 -0.744705,0.248529 -0.133515,0.04783 -0.282579,0.01924 -0.415848,0.0679 -0.124579,0.04551 -0.222882,0.154332 -0.344121,0.209661 -0.303933,0.138705 -0.447366,0.123335 -0.77068,0.153274 -0.178911,0.170542 -0.333004,0.348022 -0.558929,0.449908 -0.0968,0.04365 -0.210855,0.02916 -0.30542,0.07828 -0.165037,0.08573 -0.345935,0.338283 -0.425683,0.512441 0,0 0.687767,0.557144 0.687767,0.557144 z" />
      <path
         style="fill:#000000;stroke-width:0.344073"
         id="path13511"
         d="m 87.773615,16.453823 c 0.44969,-0.06681 -0.24446,0.03067 0.387014,-0.03112 0.09189,-0.009 0.182067,-0.03428 0.274117,-0.0412 0.105709,-0.0079 0.213256,0.01441 0.317909,-0.0034 0.823036,-0.139557 -0.163107,-0.11834 0.718976,-0.10077 0.279422,-0.0083 0.557996,0.04344 0.837277,0.03749 0.152471,-0.0032 0.303475,-0.04331 0.455945,-0.04016 0.15198,0.0032 0.301016,0.04759 0.45265,0.05896 0.576277,0.01019 0.291534,-0.0036 0.854277,0.0404 0.376301,-0.07136 0.75767,-0.03777 1.136454,-0.01855 0.108747,0.0055 0.217772,0.03137 0.326085,0.01966 0.191178,-0.02067 0.400075,-0.129245 0.574308,-0.207274 0,0 -0.0071,0.03432 -0.0071,0.03432 v 0 c -0.06085,-0.109032 -0.0947,-0.2414 -0.182553,-0.327112 -0.115694,-0.112881 -0.49719,-0.175984 -0.624574,-0.219177 -0.127394,-0.0432 -0.245545,-0.115577 -0.374748,-0.152212 -0.338381,-0.09594 -0.47102,-0.06474 -0.819065,-0.05463 -1.60156,0.07113 0.769906,-0.0089 -0.889623,-0.04022 -0.566499,-0.01073 -0.363417,0.0886 -0.92931,0.107073 -0.149571,0.0048 -0.298185,-0.02885 -0.447715,-0.03503 -0.138049,-0.0058 -0.276304,-3.9e-4 -0.414457,-6.02e-4 -0.131596,0.02903 -0.260691,0.07744 -0.394778,0.08709 -0.130566,0.0094 -0.260885,-0.03843 -0.391543,-0.03055 -0.08779,0.0052 -0.56762,0.120594 -0.656516,0.178841 -0.08517,0.05581 -0.116704,0.183951 -0.205784,0.232349 -0.06297,0.0342 -0.141353,-0.0036 -0.212028,-0.0054 0,0 0.21467,0.511122 0.21467,0.511122 z" />
      <path
         style="fill:#000000;stroke-width:0.339954"
         id="path13513"
         d="m 100.82967,18.599642 c 0.23532,0.22613 0.57141,0.199192 0.83405,0.358822 0.0831,0.05049 0.14786,0.131655 0.22654,0.190136 0.0792,0.0588 0.16404,0.107411 0.24606,0.161107 0.0744,0.06617 0.14135,0.144238 0.22326,0.198495 0.0807,0.0535 0.17982,0.06735 0.26014,0.121681 0.0809,0.05475 0.14335,0.137675 0.21834,0.201968 0.0761,0.06525 0.16431,0.113641 0.23462,0.186403 0.55191,0.571137 -0.17743,-0.035 0.4276,0.440015 0.064,0.07777 0.12819,0.155373 0.19201,0.233338 0.0595,0.07261 0.11043,0.154814 0.17778,0.218381 0.0615,0.05802 0.13794,0.09326 0.20515,0.142911 0.0628,0.04639 0.12384,0.09563 0.18467,0.145096 0.0551,0.04483 0.12131,0.07787 0.16315,0.137746 0.0375,0.05361 0.0439,0.126547 0.0657,0.189825 0.40971,0.159584 -0.0738,0.261507 0.55336,0.03361 0,0 0.0526,-0.03435 0.0526,-0.03435 v 0 c 0.0577,-0.0984 0.14354,-0.182568 0.17311,-0.295207 0.0335,-0.12752 -0.20492,-0.240474 -0.0981,-0.383285 -0.0572,-0.03566 -0.12342,-0.05764 -0.17158,-0.107006 -0.0419,-0.04295 -0.24485,-0.398153 -0.27703,-0.434995 -0.0603,-0.06917 -0.14476,-0.108006 -0.20833,-0.173613 -0.37684,-0.388903 0.0271,-0.115195 -0.46617,-0.391393 -0.34391,-0.683962 0.0773,-0.02727 -0.49467,-0.41901 -0.0937,-0.06418 -0.12268,-0.211582 -0.21536,-0.277579 -0.0939,-0.06694 -0.23559,-0.02599 -0.3217,-0.104843 -0.0906,-0.08299 -0.0799,-0.257054 -0.16786,-0.343477 -0.0785,-0.07717 -0.19853,-0.07599 -0.2978,-0.113992 -0.19295,-0.08598 -0.39047,-0.159292 -0.58219,-0.248575 -0.0953,-0.04437 -0.18568,-0.100667 -0.28011,-0.147195 -0.0904,-0.04456 -0.18285,-0.08392 -0.27425,-0.125979 -0.076,-0.03493 -0.14576,-0.09774 -0.22773,-0.104965 -0.0735,-0.0065 -0.14212,0.04403 -0.21318,0.06604 0,0 -0.14218,0.679897 -0.14218,0.679897 z" />
      <path
         style="fill:#000000;stroke-width:0.316564"
         id="path13521"
         d="m 108.34859,27.629087 c -0.001,0.02978 -0.0223,0.342164 -0.0219,0.344306 0.0107,0.07355 0.0546,0.141824 0.0752,0.214106 0.0631,0.222421 0.0437,0.282803 0.13378,0.502719 0.0342,0.08373 0.0841,0.1629 0.12627,0.24435 -0.0853,0.256068 0.042,0.501354 0.0388,0.757611 -10e-4,0.08459 -0.038,0.168353 -0.0297,0.252691 0.0725,0.736315 0.1209,-0.272348 0.0566,0.507254 0.0247,0.107349 0.10735,0.429725 0.1,0.542645 -0.009,0.146989 -0.13379,0.346098 -0.12225,0.497685 0.005,0.0778 0.0625,0.147946 0.086,0.223635 0.0203,0.06536 0.0299,0.132532 0.0448,0.198796 0.003,0.06072 0.0321,0.125023 0.007,0.182185 -0.0309,0.06807 -0.14404,0.101892 -0.16651,0.172008 -0.0185,0.05765 0.0538,0.113363 0.0561,0.172828 0.003,0.06229 -0.0446,0.121633 -0.0421,0.183924 0.003,0.06191 0.0384,0.12006 0.0561,0.180372 0.0166,0.05675 0.0314,0.113866 0.0471,0.170798 0.0664,0.158091 -0.008,0.316175 0.0245,0.476719 0.0107,0.05016 0.0486,0.09594 0.0525,0.146681 0.0463,0.602721 -0.12224,-0.295457 -0.001,0.284229 -0.15419,0.134643 0.003,0.203843 -0.009,0.347109 -0.003,0.03798 -0.0434,0.07241 -0.0377,0.110201 0.0608,0.405868 0.10185,-0.139718 0.059,0.222405 0.11084,0.121642 -0.16357,0.130112 -0.14819,0.209205 0.0121,0.05941 0.1499,0.0623 0.16876,0.12051 0.0121,0.03765 -0.0943,0.045 -0.10265,0.08331 -0.023,0.105424 0.20694,0.141164 0.32936,0.185586 0,0 -0.0134,-0.0014 -0.0134,-0.0014 v 0 c 0.29923,-0.05314 0.18442,0.0087 0.32198,-0.115926 0.0318,-0.02877 0.0773,-0.0501 0.0971,-0.08497 0.0189,-0.0332 -0.005,-0.07535 0.0134,-0.108806 0.11177,-0.206104 0.14174,0.0022 0.0581,-0.228806 0.22502,-0.42471 -0.0824,0.184852 0.0781,-0.230035 0.016,-0.04107 0.0782,-0.07286 0.0719,-0.115547 -0.008,-0.05087 -0.10238,-0.07663 -0.10748,-0.127679 -0.009,-0.0876 0.19054,-0.147252 0.0847,-0.254899 10e-4,-0.154885 0.0183,-0.318942 -0.004,-0.472987 -0.008,-0.05775 -0.04,-0.112844 -0.0439,-0.170906 -0.004,-0.06017 0.0345,-0.12089 0.0201,-0.180073 -0.0146,-0.06065 -0.0691,-0.110614 -0.10372,-0.165921 0.0207,-0.09961 0.061,-0.245019 0.0427,-0.348034 -0.0107,-0.05642 -0.0431,-0.108723 -0.0662,-0.162669 -0.0712,-0.166384 -0.13418,-0.304075 -0.0623,-0.481782 0.0623,-0.65329 -0.0121,0.298287 -0.017,-0.416557 -7.1e-4,-0.08131 0.0347,-0.161289 0.0323,-0.242576 -0.003,-0.08687 -0.0467,-0.171041 -0.0475,-0.257936 -0.003,-0.187383 0.0981,-0.370615 0.0533,-0.56057 -0.005,-0.09185 -0.009,-0.183712 -0.0144,-0.275567 0.0319,-0.08434 0.0918,-0.165023 0.0957,-0.253041 0.004,-0.08698 -0.0618,-0.167953 -0.0733,-0.254503 -0.0121,-0.08907 0.009,-0.179223 0.004,-0.268682 -0.005,-0.0943 -0.0676,-0.447679 -0.0829,-0.538483 -0.33312,-0.707262 0.0319,0.205573 -0.053,-0.550664 -0.009,-0.08935 -0.10843,-0.160371 -0.1303,-0.248372 -0.0199,-0.08008 0.0345,-0.166 0.008,-0.244811 -0.022,-0.06468 -0.0977,-0.109214 -0.14647,-0.163821 -0.0145,-0.04459 -0.029,-0.08918 -0.0435,-0.13377 0,0 -0.75015,0.125904 -0.75015,0.125904 z" />
      <path
         style="fill:#3771c8;stroke-width:0.264583"
         d="m 71.17599,34.441066 c 0.01865,-0.990339 0.03736,-1.983272 0.05611,-2.978798"
         id="path14348"
         inkscape:original-d="m 71.17599,34.441066 c 0.02135,-0.990288 0.04005,-1.983221 0.05611,-2.978798"
         inkscape:path-effect="#path-effect14350" />
      <path
         style="fill:#1a5fb4;stroke-width:0.264583"
         id="path14562"
         d="m 75.515697,20.135418 c -0.0621,0.0809 -0.166677,0.11356 -0.23454,0.186988 -0.04296,0.04648 -0.05978,0.114182 -0.105693,0.157744 -0.05,0.04744 -0.132035,0.05574 -0.175618,0.109136 -0.527108,0.645746 0.413359,-0.236962 -0.238389,0.343678 -0.05383,0.05587 -0.10767,0.111741 -0.161502,0.167611 -0.01857,0.08163 -0.0073,0.176606 -0.05572,0.244891 -0.04753,0.06701 -0.149374,0.0737 -0.209754,0.129402 -0.05701,0.05259 -0.09041,0.126044 -0.135514,0.189132 -0.170239,0.238086 -0.09698,0.112837 -0.222023,0.385878 -0.590436,0.71384 0.282321,-0.380716 -0.214672,0.376383 -0.04077,0.0621 -0.120391,0.09151 -0.161973,0.153065 -0.04003,0.05926 -0.03116,0.14525 -0.07677,0.200336 -0.262139,0.316638 -0.192363,-0.116644 -0.190402,0.378244 -0.06132,0.04955 -0.146193,0.07944 -0.183946,0.148649 -0.03563,0.06532 0.0068,0.152494 -0.0185,0.222455 -0.01685,0.04651 -0.208489,0.256782 -0.237786,0.29896 -0.112019,0.161274 -0.09822,0.173399 -0.150966,0.362012 -0.02098,0.06198 -0.04247,0.123779 -0.06293,0.185928 -0.01987,0.06039 -0.03307,0.123229 -0.05808,0.181687 -0.06082,0.142171 -0.173874,0.25498 -0.211622,0.408699 -0.01236,0.0503 -0.01109,0.102985 -0.01662,0.154478 0.0042,0.05542 0.0084,0.11084 0.01259,0.166261 0,0 0.01916,0.0075 0.01916,0.0075 v 0 c 0.06623,-0.02916 0.132451,-0.05831 0.198676,-0.08747 0.02601,-0.04026 0.0585,-0.077 0.07803,-0.120773 0.06935,-0.155393 -0.01307,-0.113613 0.105394,-0.253712 0.03684,-0.04356 0.107765,-0.05988 0.128535,-0.113013 0.0254,-0.06499 -0.0016,-0.139552 -0.0026,-0.209328 0.03208,-0.05602 0.06416,-0.112037 0.09624,-0.168055 0.14143,-0.155925 0.144701,-0.135595 0.232876,-0.325622 0.02582,-0.05563 0.03442,-0.119073 0.06552,-0.171937 0.03331,-0.05663 0.08857,-0.09769 0.125175,-0.152248 0.01209,-0.01801 0.184398,-0.343325 0.193722,-0.360859 0.01643,-0.06949 0.025,-0.141326 0.04932,-0.208464 0.0048,-0.01327 0.180718,-0.3531 0.187561,-0.360177 0.05352,-0.05537 0.1442,-0.06485 0.196646,-0.12124 0.0945,-0.101602 0.07537,-0.283072 0.220453,-0.353091 0.0655,-0.08987 0.192654,-0.258814 0.247558,-0.356162 0.03826,-0.06785 0.05333,-0.149141 0.101076,-0.210684 0.132029,-0.170181 0.222562,-0.137255 0.36862,-0.288229 0.05154,-0.05327 0.08188,-0.123589 0.122817,-0.185383 0.02706,-0.06775 0.04245,-0.141425 0.08118,-0.20325 0.115811,-0.184869 0.151599,-0.119114 0.312285,-0.254226 0.14936,-0.125588 0.107696,-0.132759 0.177681,-0.297654 0.01741,-0.04101 0.04059,-0.07932 0.06089,-0.118981 0,0 -0.256434,-0.23853 -0.256434,-0.23853 z" />
      <path
         style="fill:#1a5fb4;stroke-width:0.225758"
         id="path14562-7"
         d="m 105.81951,21.741969 c 0.0518,0.07063 0.139,0.09915 0.19558,0.163255 0.0359,0.04058 0.0499,0.09969 0.0881,0.137723 0.0417,0.04142 0.1101,0.04866 0.14644,0.09528 0.43955,0.563786 -0.34469,-0.206886 0.19879,0.300057 0.0449,0.04878 0.0898,0.09756 0.13468,0.146337 0.0155,0.07127 0.006,0.154191 0.0464,0.213809 0.0396,0.05851 0.12456,0.06435 0.17491,0.112978 0.0475,0.04592 0.0754,0.110046 0.113,0.165127 0.14196,0.207867 0.0809,0.09851 0.18515,0.336901 0.49235,0.623237 -0.23543,-0.332394 0.17901,0.328611 0.034,0.05422 0.10039,0.0799 0.13507,0.133638 0.0333,0.05174 0.026,0.126814 0.064,0.174909 0.2186,0.276449 0.16042,-0.101839 0.15877,0.330236 0.0511,0.04326 0.12192,0.06936 0.1534,0.129782 0.0297,0.05703 -0.006,0.133139 0.0154,0.19422 0.0141,0.04061 0.17386,0.224191 0.1983,0.261015 0.0934,0.140805 0.0819,0.151391 0.12588,0.316065 0.0175,0.05411 0.0354,0.108068 0.0525,0.162329 0.0166,0.05273 0.0276,0.107589 0.0485,0.158627 0.0507,0.124126 0.145,0.222617 0.17647,0.356826 0.0103,0.04392 0.009,0.08991 0.0138,0.134871 -0.003,0.04839 -0.007,0.09677 -0.0105,0.145159 0,0 -0.016,0.0065 -0.016,0.0065 v 0 c -0.0552,-0.02546 -0.11045,-0.05091 -0.16567,-0.07637 -0.0217,-0.03515 -0.0488,-0.06723 -0.065,-0.105445 -0.0579,-0.13567 0.0109,-0.09919 -0.0879,-0.22151 -0.0307,-0.03803 -0.0899,-0.05228 -0.10718,-0.09867 -0.0212,-0.05674 0.002,-0.121839 0.003,-0.182759 -0.0268,-0.04891 -0.0535,-0.09782 -0.0802,-0.146725 -0.11794,-0.136135 -0.12066,-0.118385 -0.1942,-0.284293 -0.0215,-0.04857 -0.0287,-0.10396 -0.0546,-0.150114 -0.0278,-0.04944 -0.0739,-0.08529 -0.10438,-0.132925 -0.0101,-0.01572 -0.15377,-0.299749 -0.16154,-0.315057 -0.0137,-0.06067 -0.0208,-0.123389 -0.0411,-0.182006 -0.004,-0.01159 -0.1507,-0.308283 -0.1564,-0.314462 -0.0446,-0.04834 -0.12025,-0.05662 -0.16399,-0.105852 -0.0788,-0.08871 -0.0629,-0.247143 -0.18383,-0.308275 -0.0546,-0.07846 -0.16066,-0.225965 -0.20644,-0.310957 -0.0319,-0.05924 -0.0444,-0.130212 -0.0843,-0.183944 -0.1101,-0.148581 -0.18559,-0.119834 -0.30739,-0.251646 -0.043,-0.04651 -0.0683,-0.107902 -0.10241,-0.161853 -0.0226,-0.05915 -0.0354,-0.123475 -0.0677,-0.177453 -0.0966,-0.161405 -0.12642,-0.103996 -0.26042,-0.221959 -0.12455,-0.109648 -0.0898,-0.115909 -0.14817,-0.259875 -0.0145,-0.0358 -0.0339,-0.06925 -0.0508,-0.10388 0,0 0.21384,-0.208255 0.21384,-0.208255 z" />
      <path
         style="fill:#1a5fb4;stroke-width:0.25812"
         id="path14566"
         d="m 86.754188,16.196788 c -0.05305,-0.02411 -0.09532,-0.06371 -0.159134,-0.07233 -0.157347,-0.02126 -0.371136,0.103253 -0.515081,0.135465 -0.04522,0.01009 -0.272986,0.0324 -0.318238,0.03708 -0.39468,-0.07674 0.01658,-0.03246 -0.325131,0.03108 -0.05405,0.01011 -0.108373,-0.01278 -0.163488,-0.0088 -0.441308,0.03165 0.102785,0.0292 -0.358835,0.09926 -0.06989,0.01056 -0.140353,-0.0042 -0.210529,-0.0063 -0.0528,0.02841 -0.09605,0.06949 -0.158399,0.08525 -0.05851,0.01474 -0.121751,-0.0031 -0.182797,9.78e-4 -0.06101,0.0041 -0.122117,0.01203 -0.181898,0.0233 -0.279616,0.05308 -0.101243,0.02556 -0.339169,0.144242 -0.04592,0.0229 -0.100008,0.03629 -0.150016,0.05443 -0.148478,0.0065 -0.283634,0.03781 -0.424547,0.06886 -0.0447,0.0098 -0.09399,0.0089 -0.135976,0.0239 -0.407689,0.145609 0.198858,-0.0079 -0.241825,0.09436 -0.0809,0.0081 -0.240467,0.01544 -0.311592,0.05729 -0.05369,0.0316 -0.05965,0.09468 -0.120674,0.118947 -0.05887,0.02341 -0.134816,-0.0074 -0.198503,0.008 -0.05327,0.01285 -0.08624,0.05206 -0.134878,0.07243 -0.04585,0.0192 -0.09749,0.03018 -0.146232,0.04528 -0.158626,-0.0084 -0.130628,0.131502 -0.230579,0.161541 -0.04863,0.01462 -0.0977,-0.02664 -0.149445,-0.02173 -0.03572,0.0034 -0.05673,0.03348 -0.0898,0.04441 -0.02941,0.0097 -0.07102,2.22e-4 -0.09397,0.0164 -0.03207,0.02251 -0.03458,0.05729 -0.05185,0.08592 -0.0894,-0.03276 -0.08066,0.06801 -0.135044,0.06901 -0.04639,8.62e-4 -0.09343,-0.06626 -0.121669,-0.03988 -0.04058,0.03792 0.0379,0.08919 0.02117,0.133773 -0.0072,0.01951 -0.05778,0.01326 -0.08126,0.02625 -0.02313,0.01274 -0.03607,0.03217 -0.05411,0.04825 0.0056,0.03718 0.01098,0.0744 0.01652,0.111589 0,0 0.01705,0.01965 0.01705,0.01965 v 0 c 0.04797,0.0255 0.09595,0.051 0.143913,0.07652 0.02618,-0.0043 0.0539,-0.0051 0.07859,-0.01297 0.0087,-0.0028 0.114033,-0.06078 0.127388,-0.06175 0.222576,-0.0162 -0.01372,0.06347 0.230668,-0.05681 0.03062,-0.0068 0.06029,-0.02019 0.09186,-0.02063 0.04213,-5.7e-4 0.07951,0.01786 0.121588,0.01767 0.0031,-9e-6 0.220996,-0.03647 0.224238,-0.03878 0.04139,-0.0295 0.02254,-0.08794 0.07218,-0.110639 0.04827,-0.02208 0.112291,4.02e-4 0.168441,6.07e-4 0.04486,-0.01636 0.09145,-0.03054 0.134587,-0.04908 0.09283,-0.03995 0.163,-0.108495 0.265188,-0.133808 0.05521,-0.01363 0.121493,0.01387 0.172475,-0.0067 0.442528,-0.178537 -0.187695,-0.06045 0.236681,-0.125107 0.09501,0.004 0.186588,0.017 0.281173,-0.01479 0.07266,-0.02441 0.170462,-0.108168 0.257417,-0.121037 0.05123,-0.0076 0.101626,0.01684 0.153024,0.01014 0.05183,-0.0067 0.09599,-0.03254 0.143971,-0.0488 0.208343,-0.03681 0.106482,-0.0085 0.304114,-0.08763 0.337901,-0.07979 -0.0037,0.05492 0.318717,-0.04448 0.05232,-0.01613 0.09469,-0.04633 0.147056,-0.06234 0.052,-0.01589 0.108566,-0.02162 0.162848,-0.03243 0.05858,-0.01364 0.11716,-0.02726 0.175738,-0.04091 0.05935,-0.0038 0.120283,10e-4 0.178119,-0.011 0.05684,-0.01187 0.101613,-0.04615 0.15813,-0.05887 0.052,-0.01172 0.108378,-0.003 0.160991,-0.01294 0.05172,-0.0098 0.09867,-0.03042 0.148014,-0.04564 0.0558,-0.008 0.111598,-0.01591 0.167393,-0.02387 0.588659,-0.01682 -0.31653,0.03441 0.300247,-0.09967 0.06054,-0.01311 0.117849,0.02523 0.180006,0.02544 0.05727,2.42e-4 0.113631,-0.01741 0.170777,-0.02418 0.263288,-0.03151 0.08952,0.0045 0.318891,-0.05281 0,0 -0.06452,-0.4005 -0.06452,-0.4005 z" />
      <path
         style="fill:#1a5fb4;stroke-width:0.27695"
         id="path14570"
         d="m 94.539515,16.485867 c 0.154702,-0.04126 0.244163,0.109336 0.376251,0.127455 0.15635,-0.02442 0.315553,-0.0614 0.476343,-0.03899 0.302715,0.08819 0.148266,0.05964 0.463284,0.08599 0.164671,4.26e-4 0.292652,0.132906 0.451431,0.149009 0.0789,0.008 0.156138,-0.0332 0.235511,-0.03263 0.257275,0.0019 0.19633,0.05712 0.438634,0.106295 0.07095,0.01441 0.144765,0.01119 0.217148,0.01678 0.06533,0.01582 0.135744,0.01921 0.196011,0.04745 0.06062,0.02841 0.09745,0.09117 0.158541,0.11871 0.06374,0.02874 0.139165,0.02622 0.206752,0.04599 0.06744,0.01973 0.128569,0.05696 0.197344,0.07224 0.06419,0.01426 0.140601,-0.01585 0.197317,0.01546 0.05877,0.03244 0.07702,0.104839 0.115543,0.157256 0.09171,0.05641 0.204637,0.06195 0.302298,0.103402 0.04199,0.01782 0.07523,0.05075 0.117396,0.06821 0.08245,0.03416 0.186991,0.01399 0.263491,0.05852 0.04256,0.02476 0.06293,0.07263 0.0944,0.108926 0.12886,0.0044 0.224179,0.07578 0.333841,0.123512 0.14968,0.06516 0.166044,0.02909 0.300283,0.143384 0.364886,0.160711 -0.15488,-0.09132 0.143724,0.132945 0.01967,0.01477 0.0506,8.75e-4 0.07587,0.0019 0.141392,0.0055 0.205752,-0.05136 0.322652,-0.127531 0,0 0.0296,-0.03158 0.0296,-0.03158 v 0 c 0.0229,-0.04943 0.0459,-0.09889 0.0687,-0.148326 -0.0191,-0.01201 -0.0543,-0.01485 -0.057,-0.03602 -0.007,-0.05999 0.0604,-0.126046 0.0293,-0.179195 -0.0335,-0.05742 -0.300148,0.0572 -0.331149,-0.07322 -0.09381,-0.07257 -0.09244,-0.08939 -0.211982,-0.114652 -0.08793,-0.01859 -0.137023,0.01365 -0.204503,-0.06142 -0.03286,-0.03655 -0.03166,-0.09463 -0.06829,-0.127974 -0.03124,-0.02843 -0.08132,-0.03009 -0.121981,-0.04515 -0.03715,-0.03224 -0.06297,-0.08246 -0.111482,-0.09675 -0.334807,-0.09849 -0.0018,0.130853 -0.30383,-0.01293 -0.04462,-0.02125 -0.07173,-0.06576 -0.113196,-0.09194 -0.135169,-0.08527 -0.160294,-0.07599 -0.317276,-0.108534 -0.391412,-0.325442 0.138723,0.06844 -0.344341,-0.133956 -0.07217,-0.03024 -0.107977,-0.113267 -0.18002,-0.143751 -0.24979,-0.105688 -0.469587,0.07405 -0.634094,-0.214901 -0.53486,0.09248 0.02293,0.05587 -0.462255,-0.108501 -0.07957,-0.02696 -0.170019,0.0039 -0.254076,-0.006 -0.08421,-0.0098 -0.163368,-0.05293 -0.248243,-0.05255 -0.45823,0.0021 -0.02146,0.162613 -0.453632,-0.0541 -0.827204,0.02642 0.358762,0.01455 -0.461592,-0.06444 -0.08043,-0.0078 -0.160014,0.02478 -0.240844,0.02699 -0.208509,0.0058 -0.392037,-0.06278 -0.594863,-0.09015 0,0 -0.09697,0.484747 -0.09697,0.484747 z" />
      <path
         style="fill:#99c1f1;stroke-width:0.264583"
         id="path14934"
         d="m 95.610039,11.945143 c 0.02676,0.04032 0.04334,0.08971 0.08029,0.120963 0.130762,0.110586 0.233767,0.08845 0.391575,0.142803 0.08026,0.02764 0.155067,0.06915 0.233104,0.102569 0.440388,0.188617 0.09277,0.0292 0.539424,0.240682 0.106085,0.0056 0.216662,-0.01439 0.318252,0.01667 0.102026,0.03119 0.173545,0.130126 0.274531,0.164541 0.09821,0.03347 0.208143,0.01167 0.309372,0.03445 0.09888,0.02225 0.189429,0.07314 0.287211,0.0998 0.523343,0.142721 0.09766,-0.0464 0.582789,0.206134 0.274201,0.07023 0.271937,0.08113 0.549916,0.108052 0.08977,0.0087 0.185187,-0.01461 0.270115,0.01575 0.08146,0.02911 0.125463,0.129377 0.208042,0.155149 0.08061,0.02516 0.169011,-0.01918 0.25308,-0.01124 0.07424,0.007 0.14446,0.03709 0.21669,0.05564 0.19278,0.04078 0.34354,0.222097 0.547,0.226467 0.0572,0.0012 0.11176,-0.04911 0.1677,-0.03698 0.45233,0.09807 -0.23419,0.132853 0.25511,0.08286 -0.0254,0.09803 0.0944,0.10899 0.11633,0.175746 0.0167,0.05102 -0.0387,0.158271 -0.0408,0.208427 -0.003,0.06097 0.004,0.12199 0.006,0.182985 -0.30049,0.690767 0.0798,-0.255606 -0.13977,0.589347 -0.0326,0.125332 -0.11695,0.233079 -0.15047,0.35816 -0.0356,0.132973 -0.0358,0.273004 -0.0552,0.409291 -0.12457,0.873635 -0.002,-0.04812 -0.10851,0.769128 -0.005,0.0183 0.0471,0.03159 0.0518,0.01329 v 0 c 0.0667,-0.108948 0.13258,-0.218347 0.19996,-0.326843 0.0738,-0.118789 0.17937,-0.222316 0.22353,-0.354997 0.0435,-0.130588 -0.0115,-0.280991 0.0316,-0.411679 0.0424,-0.128336 0.17187,-0.215005 0.21737,-0.342267 0.39889,-1.115434 -0.34664,0.338723 0.18479,-0.634597 -8e-5,-5.29e-4 -0.061,-0.424658 -0.0745,-0.459912 -0.0196,-0.05099 -0.0656,-0.08767 -0.0926,-0.135146 -0.0236,-0.04149 -0.0179,-0.10557 -0.0585,-0.130688 -0.39358,-0.243581 0.0812,0.273573 -0.22138,-0.08988 -0.0343,-0.01372 -0.24936,-0.09747 -0.27548,-0.117716 -0.0526,-0.04078 -0.0674,-0.13871 -0.13316,-0.148831 -0.0735,-0.0113 -0.12625,0.09667 -0.20059,0.09749 -0.14268,0.0016 -0.23871,-0.19863 -0.38018,-0.196764 -0.15379,-0.0298 -0.289326,-0.0527 -0.440575,-0.09608 -0.07736,-0.02219 -0.151098,-0.05639 -0.22914,-0.07603 -0.08537,-0.02148 -0.178099,-0.01444 -0.259884,-0.04702 -0.08691,-0.03462 -0.157798,-0.100535 -0.236699,-0.150802 -0.09072,-0.03264 -0.181443,-0.06528 -0.272164,-0.09792 -0.100531,-0.02569 -0.200535,-0.05352 -0.30159,-0.07706 -0.101955,-0.02375 -0.20927,-0.02806 -0.307301,-0.06479 -0.09778,-0.03663 -0.17337,-0.123044 -0.273457,-0.152799 -0.09884,-0.02938 -0.207952,0.0018 -0.308673,-0.02026 -0.185688,-0.04069 -0.378744,-0.162588 -0.541687,-0.252606 -0.0878,-0.03403 -0.172088,-0.07908 -0.263393,-0.102102 -0.238001,-0.06002 -0.293277,0.02022 -0.49045,-0.137931 -0.0594,-0.04764 -0.0813,-0.132211 -0.140489,-0.180106 -0.07587,-0.0614 -0.191846,-0.05409 -0.271803,-0.108912 -0.136319,-0.08737 -0.383435,0.298201 -0.247116,0.38557 z" />
      <path
         style="fill:#99c1f1;stroke-width:0.264583"
         id="path14948"
         d="m 84.704509,12.290042 c 0.102682,0.05824 0.07426,0.07809 0.163153,0.01578 0.02527,-0.01771 0.0403,-0.05829 0.07114,-0.05919 0.04402,-0.0013 0.07711,0.0593 0.120777,0.05358 0.107164,-0.102906 0.04518,-0.07674 0.180912,-0.0895 0.195342,-0.236217 -0.03533,-0.01334 0.167097,-0.07673 0.03066,-0.0096 0.03738,-0.07063 0.06931,-0.06701 0.04115,0.0047 0.05594,0.06229 0.0905,0.08511 0.0267,0.01763 0.103447,0.02719 0.135411,0.0324 0.02869,-0.05683 0.04019,-0.163776 0.09572,-0.06679 0.01357,0.02369 -5.29e-4,0.06725 0.02437,0.07819 0.0227,0.0099 0.03789,-0.03727 0.06248,-0.04023 0.04969,-0.006 0.118446,0.116169 0.123634,0.123142 0.04572,0.047 0.103703,0.0846 0.137147,0.140998 0.03753,0.06329 0.144724,0.444651 0.161787,0.495717 0.0321,0.09606 0.07438,0.18863 0.104122,0.285445 0.242175,0.788319 -0.09667,-0.161232 0.206867,0.657324 -5.29e-4,0.111492 -7.94e-4,0.222984 -0.0013,0.334476 1.88e-4,0.0013 0.0038,7.41e-4 0.0036,-5.29e-4 v 0 c -0.0311,-0.106178 -0.0622,-0.212355 -0.09329,-0.318533 0.01,-0.121421 0.03129,-0.242438 0.02996,-0.364262 -0.0013,-0.129973 -0.06262,-0.508266 -0.08986,-0.641532 -0.01984,-0.09701 -0.03116,-0.197492 -0.06938,-0.288832 -0.03304,-0.07895 -0.11031,-0.134626 -0.141235,-0.214432 -0.02842,-0.07335 -0.02162,-0.155844 -0.03243,-0.233766 -0.04034,-0.04886 -0.08654,-0.09342 -0.121007,-0.146592 -0.139669,-0.215456 0.0113,-0.114091 -0.165026,-0.183811 -0.0322,-0.01273 -0.06023,-0.04242 -0.09485,-0.0423 -0.0367,1.3e-4 -0.0653,0.04981 -0.101359,0.043 -0.03434,-0.0065 -0.04829,-0.05054 -0.07243,-0.07581 -0.01259,0.0083 -0.122245,0.08392 -0.144812,0.08665 -0.02955,0.0036 -0.05819,-0.02293 -0.0875,-0.01777 -0.03064,0.0054 -0.05032,0.0395 -0.08043,0.04734 -0.06351,0.01654 -0.133948,-0.02786 -0.19681,0.0052 -0.212175,0.132246 0.03361,0.0064 -0.210323,0.04361 -0.03979,0.0061 -0.0707,0.04159 -0.110196,0.04936 -0.03654,0.0072 -0.07499,-0.01272 -0.111567,-0.0057 -0.07642,0.01458 -0.09668,0.05642 -0.141251,0.109611 -0.08712,0.04143 0.03006,0.287858 0.117184,0.246427 z" />
      <path
         style="fill:#99c1f1;stroke-width:0.264583"
         id="path14960"
         d="m 108.47216,26.816436 c 0.0293,-0.201673 -0.0849,-0.08308 -0.1467,-0.164346 -0.0229,-0.03005 0.009,-0.08766 0.0183,-0.111223 -0.002,-0.03448 9e-5,-0.129821 -0.0247,-0.15103 -0.16204,-0.138766 0.0112,0.0497 -0.0957,-0.07185 0.003,-0.0089 0.0357,-0.100506 0.0144,-0.112483 -0.20344,-0.114764 -0.0785,0.06323 -0.15387,-0.06057 -0.006,-0.01805 -0.0571,-8.73e-4 -0.0511,0.01718 v 0 c -0.1129,0.169994 -0.0118,-0.01443 -0.0373,0.115106 -0.0178,0.09045 -0.0612,0.03491 0.0155,0.0932 -8e-4,0.01509 0.006,0.03306 -0.002,0.04528 -0.0205,0.02815 -0.0784,0.03274 -0.0797,0.06753 -10e-4,0.0274 0.0618,0.0078 0.0761,0.03114 0.0115,0.01873 -0.0199,0.04154 -0.018,0.06346 0.002,0.02711 0.0538,0.05702 0.0695,0.06827 -0.0335,0.136231 -0.0207,-0.0036 0.0528,0.103738 0.0125,0.01823 1e-4,0.04446 0.004,0.06618 0.005,0.0245 0.0176,0.04697 0.0219,0.07154 0.019,0.110345 -0.0244,0.02461 0.0319,0.112572 0.0649,0.107792 0.36983,-0.0759 0.30488,-0.183695 z" />
      <path
         style="fill:#99c1f1;stroke-width:0.264583"
         id="path14962"
         d="m 107.94892,25.617969 c -0.005,-0.05537 -0.0848,-0.06806 -0.0967,-0.117312 -0.007,-0.02928 0.0296,-0.06073 0.0181,-0.08855 -0.0121,-0.02928 -0.0651,-0.02583 -0.0776,-0.05494 -0.0113,-0.02617 0.0148,-0.05527 0.0179,-0.08361 0.003,-0.02488 -5.3e-4,-0.05005 -5.3e-4,-0.07508 -0.002,-0.06034 -0.0758,-0.05305 -0.0979,-0.09197 -0.0109,-0.01908 0.0108,-0.04943 -0.004,-0.06573 -0.0182,-0.02015 -0.0561,-0.0081 -0.0776,-0.02457 -0.0169,-0.01295 -0.017,-0.03921 -0.0287,-0.05699 -0.0102,-0.0155 -0.0242,-0.02806 -0.0364,-0.04209 0.0144,-0.157276 0.0225,-0.0035 -0.0453,-0.08616 -0.0105,-0.0128 0.0103,-0.04128 -0.004,-0.04953 -0.0236,-0.01358 -0.063,0.01999 -0.0818,2.44e-4 -0.0152,-0.01603 0.0215,-0.0403 0.0226,-0.06239 7.9e-4,-0.01407 -0.0117,-0.02561 -0.0176,-0.03841 5.3e-4,-0.01509 0.007,-0.03103 0.002,-0.04526 -0.005,-0.0145 -0.0237,-0.02089 -0.0303,-0.03476 -0.0251,-0.05239 -0.005,-0.119087 -0.0266,-0.171449 -0.008,-0.0185 -0.0239,-0.03224 -0.0358,-0.04837 0.006,-0.04935 -0.0685,-0.0624 -0.0722,-0.104608 -0.003,-0.0332 0.0256,-0.06264 0.0284,-0.09584 0.002,-0.02456 -0.009,-0.04856 -0.0138,-0.07265 -0.021,-0.09732 0.001,-0.0619 -0.0894,-0.112526 0.0779,-0.208457 -0.0252,-0.09595 -0.12544,-0.136158 -0.064,-0.02569 0.0109,-0.09423 0.01,-0.114513 -8e-4,-0.01803 -0.0255,-0.0256 -0.0382,-0.03839 -0.0285,-0.0067 -0.10773,-0.0021 -0.0921,-0.06371 0.007,-0.027 0.0575,-0.04596 0.0446,-0.07066 -0.0153,-0.02944 -0.0762,-6.35e-4 -0.0957,-0.02746 0.0236,-0.104608 0.0361,-0.05919 -0.0338,-0.137144 0.0159,-0.07392 -0.0789,-0.07316 -0.0955,-0.122103 -0.028,-0.0827 0.0964,-0.19788 -0.0425,-0.23231 -0.0366,-0.0091 -0.0754,-1.58e-4 -0.11312,-2.37e-4 0.0607,-0.185397 0.0605,-0.06258 -0.0507,-0.128702 -0.0201,-0.01195 -0.0225,-0.0432 -0.0418,-0.05628 -0.0253,-0.0171 -0.0679,-0.0062 -0.0865,-0.03038 -0.0132,-0.1188 0.0108,-0.07198 -0.0568,-0.147331 -0.0194,-0.01494 -0.0388,-0.02989 -0.0581,-0.04483 -0.0119,-0.03064 -0.0105,-0.07097 -0.0358,-0.09193 -0.006,-0.0046 -0.20749,-0.04768 -0.21348,-0.05061 -0.0571,-0.02785 -0.0936,-0.08974 -0.12888,-0.138088 -0.25897,-0.120933 0.10798,0.06317 -0.11088,-0.08797 -0.0196,-0.0135 -0.048,-0.0081 -0.0682,-0.02055 -0.0174,-0.0107 -0.0231,-0.03507 -0.0403,-0.04617 -0.0159,-0.01031 -0.037,-0.0088 -0.0548,-0.01539 -0.0169,-0.0063 -0.0327,-0.01545 -0.049,-0.02318 -0.0623,-0.09012 0.0107,-0.01329 -0.14322,0.02595 -0.0137,0.0035 -0.0205,-0.01952 -0.0307,-0.02928 -0.0225,-0.01974 -0.0783,0.04376 -0.0558,0.0635 v 0 c 0.0158,0.07564 -7.9e-4,0.145617 -0.015,0.221535 0.13294,0.04002 0.0135,-0.01247 0.10385,0.07993 0.0153,0.01569 0.0392,0.02049 0.056,0.0346 0.0201,0.01689 0.031,0.04472 0.0539,0.05759 0.0378,0.02124 0.13544,0.02405 0.17516,0.02713 0.0286,0.0672 0.0389,0.117986 0.10166,0.163225 0.0235,0.01697 0.0578,0.01459 0.0809,0.03212 0.0203,0.01538 0.0223,0.04899 0.0439,0.06251 0.0197,0.01236 0.0578,-0.01177 0.0693,0.0085 0.0146,0.0257 -0.01,0.05831 -0.0148,0.08746 0.0295,-8.4e-5 0.063,-0.01503 0.0885,-2.51e-4 0.02,0.01159 0.01,0.04661 0.0237,0.06522 0.013,0.01761 0.0387,0.02221 0.0531,0.0387 0.0149,0.01709 0.0147,0.0461 0.0329,0.05962 0.0217,0.01608 0.0581,0.004 0.0778,0.02248 0.0163,0.01524 0.0105,0.04335 0.0157,0.06503 0.007,0.01753 0.0104,0.03772 0.0222,0.05258 0.0116,0.01451 0.0384,0.01502 0.0455,0.03216 0.0152,0.03635 -0.0291,0.09476 0.0229,0.124086 0.0303,0.01705 0.0863,-0.01261 0.10263,0.01803 0.0159,0.0298 -0.0296,0.06072 -0.0444,0.09108 0.0787,0.04231 0.0773,0.01567 0.0722,0.102936 -10e-4,0.0228 -0.0245,0.04987 -0.0102,0.06776 0.0197,0.02478 0.0683,0.0084 0.0893,0.03195 0.005,0.0053 -0.0102,0.123523 -0.0107,0.128173 0.005,0.02678 0.0152,0.109424 0.0464,0.125849 0.0295,0.01556 0.0778,-0.01599 0.0997,0.0092 0.0198,0.02263 -0.0178,0.05922 -0.014,0.08902 0.005,0.04126 0.0631,0.06395 0.0572,0.110901 0.0201,0.01468 0.0402,0.02937 0.0603,0.04406 0.006,0.02289 10e-4,0.05202 0.0179,0.06866 0.0197,0.01952 0.054,0.01443 0.0787,0.02701 0.0524,0.02667 0.0963,0.07146 0.1029,0.130473 0.17632,0.109893 -0.0798,-0.07175 0.0202,0.09545 0.0144,0.02418 0.0634,0.0016 0.0812,0.02351 0.013,0.01603 -0.0199,0.04101 -0.0131,0.06048 0.0662,0.18909 0.0418,-0.107854 0.0491,0.08925 0.0831,0.07388 0.0214,0.003 0.0582,0.09318 0.008,0.01847 0.0232,0.03296 0.0304,0.05158 0.0105,0.02727 0.005,0.07493 0.0308,0.09781 0.0158,0.0139 0.0386,0.01683 0.0578,0.02525 0.007,0.01582 0.01,0.03391 0.0204,0.04745 0.0115,0.0147 0.0403,0.01637 0.0441,0.03468 0.005,0.02475 -0.0372,0.05235 -0.022,0.07255 0.017,0.0226 0.0578,1.33e-4 0.0842,0.01022 0.0751,0.02867 0.0343,0.0637 0.0143,0.120178 0.0128,0.01549 0.0211,0.03634 0.0384,0.04648 0.0284,0.01663 0.0745,0.0042 0.0939,0.03087 0.0164,0.02268 -0.005,0.05589 -0.011,0.08333 -0.006,0.02967 -0.0436,0.06434 -0.0242,0.0876 0.11043,0.132359 0.17537,-0.07478 0.083,0.117764 0.0284,0.08248 0.26171,0.0021 0.23328,-0.08041 z" />
      <path
         style="fill:#99c1f1;stroke-width:0.264583"
         id="path14984"
         d="m 97.018617,17.078713 c 0.03099,-0.008 0.06745,-0.04339 0.09298,-0.02407 0.03686,0.0279 0.0026,0.119082 0.0474,0.130321 0.04793,0.01201 0.06959,-0.0841 0.118785,-0.08867 0.03271,-0.003 0.03684,0.06097 0.06802,0.07131 0.182931,0.06071 -0.0074,-0.135659 0.13892,0.04882 0.02903,-0.01371 0.0564,-0.05055 0.08709,-0.04114 0.03551,0.01089 0.03265,0.07599 0.06759,0.08857 0.02948,0.01061 0.05687,-0.03245 0.0882,-0.03248 0.02545,-2.9e-5 0.04427,0.02713 0.0692,0.03231 0.02244,0.0047 0.04571,-0.0039 0.06861,-0.0037 0.01955,1.86e-4 0.03898,0.0033 0.05846,0.0049 0.01744,0.01092 0.03729,0.01868 0.05228,0.03276 0.01569,0.01473 0.01744,0.04619 0.03811,0.05212 0.01778,0.0051 0.111585,-0.05766 0.126439,-0.05108 0.256633,0.113675 -0.142735,0.0557 0.102878,0.08058 0.01175,0.03076 0.0074,0.07465 0.03525,0.09227 0.02193,0.01391 0.04906,-0.01779 0.07458,-0.02267 0.02207,-0.0042 0.04596,-0.01167 0.06723,-0.0044 0.02077,0.007 0.03763,0.02515 0.04903,0.0439 0.01585,0.02606 2.64e-4,0.08032 0.03017,0.08638 0.0386,0.0078 0.06802,-0.03971 0.102032,-0.05956 0.0875,-0.02534 0.07959,0.144245 0.146568,0.150256 0.03546,0.0032 0.06086,-0.05294 0.09595,-0.04692 0.02948,0.0051 0.03032,0.05289 0.05291,0.07249 0.01923,0.01668 0.04587,0.02207 0.0688,0.03311 0.02244,0.01428 0.04085,0.04048 0.06735,0.04284 0.03141,0.0028 0.05878,-0.03239 0.0901,-0.02879 0.02368,0.0027 0.03286,0.03713 0.05518,0.0455 0.02164,0.0081 0.04869,-0.0092 0.06937,0.0012 0.0227,0.01136 0.03103,0.04041 0.04921,0.05813 0.0186,0.01811 0.0404,0.03259 0.0606,0.04889 0.0346,0.04017 0.09221,0.0048 0.130432,0.0275 0.02074,0.01229 0.01987,0.05 0.0424,0.05858 0.02162,0.0082 0.04444,-0.01997 0.06737,-0.01679 0.01828,0.0025 0.02827,0.02437 0.04488,0.03239 0.01323,0.0064 0.02859,0.0066 0.04289,0.01 0.02029,-0.01337 0.03079,0.08384 0.0593,0.07166 0.02826,-0.01209 0.03306,-0.0591 0.06256,-0.06775 0.01521,-0.0045 0.0067,0.03217 0.01662,0.04454 0.0066,0.0082 0.02339,0.0036 0.02906,0.0125 0.0092,0.01444 0.0074,0.03347 0.01106,0.05021 0.08898,-0.05845 0.03471,-0.05011 0.07663,-0.0019 0.0073,0.0084 0.02508,0.0074 0.0278,0.01817 0.0053,0.02096 -0.02673,0.05593 -0.0069,0.0645 0.02032,0.0088 0.02964,-0.0331 0.04659,-0.04734 0.02,-0.01678 0.0425,-0.03025 0.0638,-0.04537 0.0494,-0.02076 0.038,-0.03309 0.0504,-9.53e-4 0.0332,0.03147 0.12227,-0.06258 0.089,-0.09406 v 0 c -0.0645,0.0018 -0.0317,0.0089 0.0229,-0.09811 -0.009,-0.0086 -0.0213,-0.01439 -0.0256,-0.02571 -0.008,-0.02212 0.0124,-0.06488 -0.0107,-0.07016 -0.028,-0.0064 -0.0581,0.07864 -0.0688,0.05195 -0.0173,-0.04335 0.0527,-0.09205 0.0355,-0.135429 -0.0135,-0.03402 -0.0864,0.09108 -0.10862,0.01596 -0.0179,3.97e-4 -0.0358,-5e-5 -0.0536,0.0012 -0.01659,0.0012 -0.0384,0.01853 -0.0495,0.0061 -0.01979,-0.02209 -0.0066,-0.06099 -0.02222,-0.08617 -0.0298,-0.04783 -0.126474,-0.0011 -0.155527,0.01526 -0.0067,-0.04738 0.02291,-0.121445 -0.02024,-0.142135 -0.0365,-0.0175 -0.03649,0.07799 -0.07164,0.09808 -0.01556,0.0089 -0.02646,-0.02494 -0.04253,-0.03284 -0.0154,-0.0076 -0.03615,-0.0024 -0.04991,-0.0126 -0.08653,-0.06442 0.01505,-0.07682 -0.114557,-0.02612 -0.146489,0.03361 -0.01796,0.02991 -0.117999,-0.05665 -0.07401,-0.06405 -0.06939,0.02195 -0.150683,0.0018 -0.283257,-0.07022 0.148424,-0.06473 -0.148375,-0.05554 -0.0263,-5.82e-4 -0.05615,0.01145 -0.07889,-0.0018 -0.192624,-0.112073 0.0722,-0.04313 -0.10419,-0.100733 -0.01857,-0.0061 -0.03854,-0.01063 -0.058,-0.0088 -0.02585,0.0025 -0.05134,0.03265 -0.07485,0.0216 -0.02442,-0.01148 -0.02312,-0.04873 -0.0347,-0.07309 -0.281059,-0.141374 0.262874,0.109511 -0.168135,0.03105 -0.03079,-0.0056 -0.01209,-0.06429 -0.03237,-0.08813 -0.01228,-0.01444 -0.170505,-0.05661 -0.192553,-0.06917 -0.06074,-0.09752 -0.01802,-0.08201 -0.114837,-0.06849 -0.01974,0.0028 -0.04089,0.01573 -0.05925,0.008 -0.01931,-0.0082 -0.01836,-0.04522 -0.03892,-0.04942 -0.02236,-0.0046 -0.04145,0.01916 -0.06217,0.02874 -0.01881,-0.0056 -0.03761,-0.01112 -0.05642,-0.01667 -0.01865,-0.01269 -0.03813,-0.02426 -0.05597,-0.03807 -0.02326,-0.018 -0.0379,-0.06053 -0.0671,-0.05722 -0.04073,0.0046 -0.05629,0.0698 -0.09683,0.0758 -0.03126,0.0046 -0.05071,-0.03998 -0.08083,-0.04953 -0.2062,-0.0654 0.02666,0.06955 -0.152188,-0.04659 -0.212979,-0.09942 0.124973,0.04054 -0.143275,0.0033 -0.02792,-0.0039 -0.03919,-0.04491 -0.06637,-0.05239 -0.02765,-0.0076 -0.05919,0.02235 -0.08538,0.01066 -0.02914,-0.01301 -0.03124,-0.05988 -0.05922,-0.07522 -0.02074,-0.01138 -0.04726,0.0026 -0.07089,0.0039 -0.08282,-0.03101 -0.170534,0.203241 -0.08771,0.234252 z" />
      <path
         style="fill:#99c1f1;stroke-width:0.264583"
         id="path15202"
         d="m 108.31535,19.7554 c 0.0149,0.03115 0.0155,0.07502 0.0447,0.09345 0.036,0.0227 0.0871,-7.68e-4 0.12672,0.01477 0.0464,0.01823 0.18536,0.14361 0.22129,0.170254 0.0759,0.05625 0.17729,0.114766 0.25776,0.163314 0.1657,0.373393 -0.0468,-0.02144 0.1973,0.227346 0.13043,0.132959 -0.005,0.140045 0.18633,0.204597 0.23386,0.07883 0.11708,-0.07188 0.22329,0.14289 0.0297,0.06373 0.071,0.18408 0.14254,0.223554 0.16302,0.08998 0.097,-0.04031 0.24204,0.06482 0.27935,0.202552 -0.14634,-0.003 0.18175,0.139715 0.089,0.40688 -0.0649,-0.08641 0.16114,0.127167 0.035,0.03303 -0.0155,0.105182 0.0133,0.14368 0.0226,0.03018 0.0787,0.0026 0.11092,0.02222 0.0197,0.012 0.11653,0.169024 0.12434,0.181264 0.0511,-0.01073 0.10791,-0.05813 0.15318,-0.03219 0.039,0.02236 -0.006,0.09877 0.0228,0.133007 0.0237,0.02779 0.0735,0.0072 0.10767,0.02006 0.0309,0.01162 0.0538,0.03928 0.0842,0.05209 0.21019,0.08853 0.007,-0.04129 0.18114,0.08168 0.0173,0.02747 0.0345,0.05493 0.0517,0.0824 0.0297,0.0101 0.0674,0.0076 0.089,0.03031 0.0235,0.02464 0.004,0.0774 0.0323,0.09689 0.0278,0.01944 0.0703,-0.01588 0.1018,-0.0033 0.0233,0.0093 0.0243,0.04528 0.0435,0.06137 0.0182,0.0152 0.0432,0.01949 0.0648,0.02924 0.0536,0.182774 -0.0218,-0.02078 0.0746,0.11284 0.0142,0.01963 0.005,0.05436 0.0249,0.06822 0.0242,0.01688 0.0655,-0.0087 0.0878,0.01053 0.009,0.09109 -0.0131,0.05792 0.0581,0.104044 0.0261,0.0026 0.07,-0.01698 0.0783,0.0079 0.011,0.03306 -0.0448,0.06 -0.044,0.09484 0.002,0.06919 0.10812,-0.02286 0.13817,0.01364 0.0185,0.02249 -0.029,0.05234 -0.0321,0.08132 -0.002,0.01466 0.0128,0.02655 0.0192,0.03983 0.0413,0.02592 -0.0183,0.0732 0.002,0.09903 0.011,0.01387 0.0445,-0.01212 0.0531,0.0034 0.009,0.01554 -0.0186,0.03049 -0.0251,0.04703 -0.001,0.003 0.004,0.0062 0.003,0.0094 -0.002,0.0083 -0.006,0.01578 -0.009,0.02366 0.0157,-0.0019 0.0564,-0.01839 0.0471,-0.0056 -0.0187,0.02586 -0.0647,0.02406 -0.0806,0.05179 -0.0372,0.0651 0.083,-0.02958 0.11713,0.02882 0.01,0.01664 -0.0288,0.02566 -0.0423,0.03941 -0.009,0.009 -0.0165,0.0192 -0.0247,0.0288 -0.003,0.0027 -0.0126,0.0059 -0.009,0.008 0.009,0.0056 0.0236,-0.0013 0.0315,0.0058 0.007,0.0067 0.0165,0.02645 0.007,0.02911 -0.0323,0.0089 -0.0759,-0.02605 -0.10045,-0.0032 -0.0176,0.01638 0.0386,0.02855 0.058,0.04282 -0.0202,0.0101 -0.0404,0.02021 -0.0606,0.03031 -0.0395,0.04354 -0.0282,0.119419 -0.069,0.161436 -0.0318,0.03279 -0.0789,0.04607 -0.11828,0.06911 -0.0473,0.03421 -0.10222,0.05989 -0.14203,0.102637 -0.31593,0.339241 0.13392,0.0146 -0.31905,0.301659 -0.8004,0.548481 0.38182,-0.306704 -0.37565,0.408938 -0.078,0.07369 -0.20695,0.07849 -0.28207,0.155107 -0.0815,0.08314 -0.0863,0.223938 -0.16945,0.305432 -0.39336,0.203188 -0.22207,0.07443 -0.51875,0.379688 -0.32862,0.428108 -0.049,0.0078 -0.24831,0.48407 -0.0241,0.0576 -0.0661,0.105948 -0.0992,0.158921 -0.009,0.0081 0.0141,0.0333 0.023,0.02516 v 0 c 0.0673,-0.01562 0.13331,-0.03865 0.20192,-0.04687 0.43556,-0.05214 0.18791,0.08344 0.51432,-0.193234 0.0545,-0.09193 0.0899,-0.198221 0.16336,-0.275796 0.0746,-0.07878 0.18625,-0.112821 0.27003,-0.181772 0.18938,-0.155862 0.26086,-0.296688 0.45542,-0.445962 0.0799,-0.06129 0.18291,-0.08948 0.25902,-0.155398 0.0714,-0.06183 0.11759,-0.147814 0.17638,-0.22172 0.51862,-0.333883 -0.0393,0.05185 0.36826,-0.304251 0.0522,-0.04556 0.12485,-0.06599 0.17169,-0.11699 0.10591,-0.115316 0.0731,-0.272601 0.13431,-0.404845 0.0541,-0.01446 0.12746,4.76e-4 0.16226,-0.04338 0.0246,-0.031 -0.0319,-0.07323 -0.0389,-0.112176 -0.004,-0.02436 0.005,-0.04931 0.005,-0.07406 5.3e-4,-0.018 -0.01,-0.03744 -0.002,-0.05396 0.0132,-0.03044 0.0473,-0.04868 0.0603,-0.0792 0.008,-0.01916 1e-4,-0.04166 1.5e-4,-0.06248 -0.0739,-0.0056 -0.13829,-0.0022 -0.13271,-0.03402 0.004,-0.0243 0.0438,-0.03077 0.0499,-0.05467 0.004,-0.01639 -0.0202,-0.02812 -0.0244,-0.0445 -0.004,-0.01415 0.008,-0.03078 0.001,-0.04388 -0.009,-0.01768 -0.0289,-0.02693 -0.0434,-0.0404 -0.0568,-0.134854 0.0513,0.101998 -0.0622,-0.0574 -0.007,-0.0097 0.0139,-0.02668 0.006,-0.03537 -0.011,-0.01171 -0.0341,9.6e-5 -0.0474,-0.0089 -0.0133,-0.009 -0.0323,-0.07242 -0.0358,-0.08258 -0.16232,-0.01358 -0.004,0.02248 -0.069,-0.06458 -0.0115,-0.01538 -0.0436,-8.73e-4 -0.0552,-0.01617 -0.0112,-0.01485 0.003,-0.0374 8e-4,-0.05588 -0.0107,-0.083 -0.0168,-0.05342 -0.10747,-0.05494 -0.12388,-0.215165 0.0698,0.146141 -0.0226,-0.138758 -0.007,-0.0216 -0.036,-0.02817 -0.0509,-0.0453 -0.0597,-0.06859 -0.077,-0.142865 -0.1807,-0.158826 -1.2e-4,-0.04314 0.0191,-0.0909 -2.7e-4,-0.129424 -0.004,-0.0086 -0.14181,-0.05493 -0.16224,-0.07424 -0.0222,-0.02098 -0.0257,-0.0562 -0.0453,-0.07964 -0.12213,-0.146166 -0.0189,0.05655 -0.10451,-0.143993 -0.22807,-0.04421 0.008,0.02937 -0.15229,-0.117023 -0.0622,-0.05675 -0.14855,-0.03335 -0.21863,-0.06321 -0.0614,-0.02618 -0.10507,-0.09438 -0.14378,-0.143134 -0.0221,-0.02455 -0.0464,-0.04724 -0.0662,-0.07366 -0.02,-0.02671 -0.0275,-0.0633 -0.0528,-0.08513 -0.0261,-0.02251 -0.0687,-0.01909 -0.0944,-0.04197 -0.0275,-0.02444 -0.031,-0.06899 -0.0583,-0.09373 -0.0511,-0.04644 -0.14361,-0.03368 -0.17423,-0.112117 -0.0561,-0.05521 -0.10109,-0.112139 -0.17986,-0.138038 -0.0422,-0.01388 -0.10007,0.01369 -0.1322,-0.01699 -0.0356,-0.03397 -0.01,-0.101242 -0.0356,-0.143233 -0.029,-0.04744 -0.15996,-0.09458 -0.20273,-0.112985 -0.27582,-0.07355 -0.0133,0.03667 -0.17657,-0.183138 -0.0279,-0.03761 -0.0843,-0.0428 -0.11994,-0.07325 -0.0378,-0.03237 -0.0588,-0.08195 -0.0978,-0.112971 -0.0404,-0.03221 -0.091,-0.04906 -0.13652,-0.07359 -0.0396,-0.03576 -0.0791,-0.07152 -0.11868,-0.107285 -0.0359,-0.04019 -0.0669,-0.08553 -0.10784,-0.120568 -0.14359,-0.122796 -0.11842,-0.05547 -0.27619,-0.149669 -0.0403,-0.02406 -0.0741,-0.0576 -0.11047,-0.08729 -0.12088,-0.09874 -0.0791,-0.05331 -0.15665,-0.176867 -0.12967,-0.07838 -0.35136,0.288383 -0.22169,0.366762 z" />
      <path
         style="fill:#000000;stroke-width:0.264583"
         id="path15340"
         d="m 70.772509,34.100547 c 0.02543,0.13951 0.03325,0.287507 0.0223,0.42902 -0.0055,0.0714 -0.02996,0.141165 -0.02968,0.212775 2.65e-4,0.08071 0.02445,0.159665 0.03146,0.240069 0.0072,0.08292 0.0075,0.166299 0.01119,0.249447 0.165203,0.569743 0.03477,-0.07874 -0.0373,0.488283 -0.0099,0.07792 0.04729,0.152025 0.04862,0.230556 0.0013,0.07293 -0.0317,0.142594 -0.0411,0.214926 -0.02667,0.205306 -0.01506,0.190751 0.01619,0.387501 -2.44e-4,0.05994 -0.01228,0.120996 -7.94e-4,0.179808 0.01103,0.05618 0.05826,0.101552 0.06711,0.158123 0.01482,0.09479 -0.0561,0.191841 -0.03575,0.285604 0.04792,0.220864 0.146709,-0.0099 -0.0093,0.228061 0.03022,0.03685 0.07255,0.06647 0.09066,0.110548 0.01561,0.038 -0.01339,0.08658 0.0054,0.123134 0.02588,0.05041 0.08744,0.0741 0.119737,0.120655 0.02956,0.04262 0.03704,0.09733 0.0627,0.142397 0.02772,0.04868 0.06562,0.09085 0.09665,0.137485 0.03566,0.0536 0.06893,0.108752 0.103389,0.163126 0.03323,0.06337 0.0416,0.148326 0.09969,0.190106 0.05914,0.04254 0.146674,0.01259 0.215466,0.03658 0.06586,0.02297 0.116665,0.07945 0.182615,0.102153 0.30738,0.105799 0.08244,-0.04209 0.395105,0.02911 0.06562,0.01495 0.121809,0.05727 0.182713,0.0859 0.198835,0.09314 0.352817,0.129233 0.537089,-0.02495 0.05375,-0.04497 0.08967,-0.107723 0.134508,-0.161584 0.02154,1.69e-4 0.02201,-0.06074 5.3e-4,-0.06091 v 0 c -0.03878,-0.06656 -0.07013,-0.138052 -0.116348,-0.199676 -0.04499,-0.05998 -0.191934,-0.189473 -0.265695,-0.218877 -0.04861,-0.01937 -0.103468,-0.01574 -0.155202,-0.0236 -0.196432,-0.05254 -0.09604,-0.04553 -0.301302,-0.01892 -0.04647,-0.01005 -0.07221,-0.06862 -0.118525,-0.07934 -0.06583,-0.01524 -0.225499,0.05514 -0.294138,0.0041 -0.03367,-0.02503 -0.02471,-0.08018 -0.03708,-0.120269 -0.01283,-0.0064 -0.169222,-0.08272 -0.172167,-0.09196 -0.0122,-0.03827 0.04008,-0.07426 0.03795,-0.114369 -0.0013,-0.02622 -0.03458,-0.04 -0.04737,-0.06293 -0.116464,-0.208767 0.07199,0.06243 -0.09291,-0.162258 -0.04153,-0.241951 0.0049,0.04532 -0.02765,-0.217125 -0.0051,-0.04089 -0.02125,-0.08093 -0.01929,-0.122082 0.0024,-0.04915 0.03531,-0.09504 0.03187,-0.144124 -0.0037,-0.05233 -0.03494,-0.09892 -0.05241,-0.148383 -0.0021,-0.05604 -0.004,-0.11208 -0.0061,-0.168122 0.01688,-0.745035 0.01455,0.460111 -0.07928,-0.366604 -0.01654,-0.145708 0.105043,-0.286708 0.05607,-0.436343 -0.01154,-0.0818 -0.07866,-0.151042 -0.08296,-0.233545 -0.0043,-0.08237 0.03884,-0.160321 0.05825,-0.240482 0.0041,-0.08035 0.0083,-0.1607 0.01236,-0.241051 -0.01373,-0.07815 -0.04138,-0.155107 -0.04116,-0.234453 1.88e-4,-0.06942 0.04003,-0.134538 0.04235,-0.203925 0.0021,-0.06158 -0.03183,-0.120925 -0.02943,-0.182496 0.0033,-0.08443 0.06518,-0.159089 0.06461,-0.245108 0.0092,-0.224067 -0.624559,-0.250081 -0.633756,-0.02601 z" />
      <path
         style="fill:#000000;stroke-width:0.264583"
         id="path15366"
         d="m 108.88905,34.312021 c -0.0528,0.09778 -0.006,0.198115 -0.0155,0.301768 -0.004,0.0408 -0.0217,0.07955 -0.0249,0.120401 -0.003,0.041 0.0123,0.206182 0.0158,0.247089 -0.0146,0.03754 -0.0293,0.07509 -0.0439,0.112631 0.006,0.03621 0.0265,0.07272 0.0188,0.108643 -0.008,0.03851 -0.0529,0.06167 -0.0637,0.09955 -0.01,0.03444 0.008,0.07168 0.005,0.107336 -0.0169,0.180359 -0.0538,0.0097 0.0145,0.206084 -0.0395,0.02294 -0.0984,0.02781 -0.11852,0.06881 0.0208,0.06902 0.0568,0.13413 0.0178,0.207603 -0.0188,0.03543 -0.0675,0.04929 -0.0847,0.08557 -0.13474,0.285179 0.14838,-0.03495 -0.11928,0.227177 -0.11614,0.07672 0.0256,0.206139 -0.0251,0.288202 -0.0328,0.0531 -0.13277,0.03478 -0.16517,0.0881 -0.0284,0.04677 0.0196,0.109503 0.0122,0.163717 -0.007,0.04842 -0.0377,0.09027 -0.0535,0.136538 -0.0148,0.04361 -0.0254,0.08855 -0.0382,0.132823 -0.29968,0.216747 0.0237,-0.06104 -0.12487,0.20647 -0.0178,0.03208 -0.0733,0.02902 -0.0918,0.06069 -0.0173,0.02952 0.011,0.07169 -0.004,0.102558 -0.0382,0.08 -0.14887,0.0497 -0.2067,0.04844 0.005,0.05664 0.037,0.119761 -0.0347,0.148995 -0.0233,0.0095 -0.0551,-0.01188 -0.0754,0.0029 -0.0181,0.0132 -5.3e-4,0.05037 -0.0175,0.06489 -0.0199,0.01696 -0.052,0.0077 -0.0769,0.01548 -0.028,0.0088 -0.0541,0.0227 -0.0811,0.03406 -0.0359,0.0033 -0.15084,0.0063 -0.18305,0.03754 -0.0274,0.02654 -0.018,0.08214 -0.05,0.102825 -0.0238,0.0154 -0.061,-0.0339 -0.0835,-0.01659 -0.052,0.04001 -0.0501,0.263839 -0.0518,0.289655 -0.004,0.04587 -0.007,0.09174 -0.0111,0.137612 -0.0318,0.0088 -0.007,0.09862 0.0248,0.08985 v 0 c 0.0213,0.01577 0.0426,0.03157 0.0639,0.04735 0.0381,0.05593 0.0618,0.12514 0.11435,0.167801 0.0205,0.01667 0.0526,-0.0164 0.0785,-0.01122 0.0389,0.0078 0.0695,0.04259 0.10872,0.04856 0.10967,0.01669 0.23654,-0.08975 0.33679,-0.116279 0.0509,-0.0038 0.10819,0.01336 0.15278,-0.01154 0.0499,-0.02788 0.0653,-0.09503 0.10738,-0.133765 0.17193,-0.158332 0.0903,-0.0092 0.22477,-0.177224 0.0255,-0.03191 0.0335,-0.0771 0.0634,-0.104912 0.0291,-0.02707 0.0712,-0.0355 0.1068,-0.05325 0.0262,-0.02917 0.0565,-0.05507 0.0785,-0.08752 0.0223,-0.03289 0.0339,-0.07193 0.0531,-0.106709 0.0185,-0.03355 0.0405,-0.06506 0.0599,-0.09809 0.0672,-0.114297 0.12702,-0.233489 0.21518,-0.334079 -0.0129,-0.06222 -0.0579,-0.126111 -0.0386,-0.18665 0.0178,-0.05589 0.0935,-0.07157 0.13423,-0.113747 0.21705,-0.224605 0.0127,-0.0241 0.12183,-0.291468 0.17029,-0.41707 0.0397,0.194993 0.12012,-0.271269 0.0249,-0.04414 0.0498,-0.08828 0.0747,-0.132416 -0.008,-0.05122 -0.0419,-0.10527 -0.0234,-0.15367 0.0174,-0.0456 0.0834,-0.05295 0.11625,-0.08906 0.10619,-0.116679 0.0589,-0.213902 0.0623,-0.354539 0.0558,-0.107627 0.14397,-0.232982 0.14187,-0.359243 -7.9e-4,-0.0487 -0.0332,-0.09495 -0.0281,-0.143391 0.005,-0.04887 0.0711,-0.08846 0.0576,-0.135705 -0.0178,-0.06209 -0.0905,-0.09211 -0.13582,-0.138166 0.0594,-0.175569 0.0608,-0.08691 -0.0121,-0.265742 0.007,-0.05258 0.0713,-0.0815 0.0901,-0.131053 0.0671,-0.176498 -0.0359,-0.0867 -0.0956,-0.228928 -0.0128,-0.03033 0.0107,-0.06491 0.0161,-0.09737 -0.0127,-0.222575 -0.6422,-0.186761 -0.62954,0.03581 z" />
    </g>
  </g>
</svg>
