<?xml version="1.0" encoding="UTF-8" standalone="no"?>
<!-- Created with Inkscape (http://www.inkscape.org/) -->

<svg
   width="15.148178mm"
   height="16.904072mm"
   viewBox="0 0 15.148178 16.904072"
   version="1.1"
   id="svg5"
   xmlns:inkscape="http://www.inkscape.org/namespaces/inkscape"
   xmlns:sodipodi="http://sodipodi.sourceforge.net/DTD/sodipodi-0.dtd"
   xmlns="http://www.w3.org/2000/svg"
   xmlns:svg="http://www.w3.org/2000/svg">
  <sodipodi:namedview
     id="namedview7"
     pagecolor="#ffffff"
     bordercolor="#000000"
     borderopacity="0.25"
     inkscape:showpageshadow="2"
     inkscape:pageopacity="0.0"
     inkscape:pagecheckerboard="0"
     inkscape:deskcolor="#d1d1d1"
     inkscape:document-units="mm"
     showgrid="false"
     inkscape:zoom="11.313709"
     inkscape:cx="326.9485"
     inkscape:cy="229.01421"
     inkscape:window-width="1920"
     inkscape:window-height="1017"
     inkscape:window-x="1912"
     inkscape:window-y="-8"
     inkscape:window-maximized="1"
     inkscape:current-layer="g13744" />
  <defs
     id="defs2">
    <inkscape:path-effect
       effect="bspline"
       id="path-effect15746"
       is_visible="true"
       lpeversion="1"
       weight="33.333333"
       steps="2"
       helper_size="0"
       apply_no_weight="true"
       apply_with_weight="true"
       only_selected="false" />
  </defs>
  <g
     inkscape:label="Layer 1"
     inkscape:groupmode="layer"
     id="layer1"
     transform="translate(-150.69396,-61.545717)">
    <g
       id="g13501"
       transform="matrix(0.86125523,0,0,1,191.99809,-12.654932)">
      <g
         id="g15973"
         transform="matrix(1.5002975,0,0,1.7095118,-75.544227,-39.646105)">
        <path
           style="fill:#c0bfbc;stroke-width:0.2851"
           d="m 22.127562,66.935155 c -0.469109,0.03026 -1.40997,0.09096 -2.012115,0.258589 -0.602145,0.167628 -0.861744,0.440756 -0.966111,0.768238 -0.104367,0.327481 -0.05342,0.705798 0.0061,0.933722 0.05956,0.227924 0.125542,0.30541 0.07879,0.424995 -0.04675,0.119584 -0.203764,0.284464 -0.326003,0.528458 -0.122238,0.243993 -0.209099,0.56526 -0.214236,0.7956 -0.0051,0.230339 0.0692,0.368116 0.19602,0.511423 0.126823,0.143308 0.301719,0.290263 0.353531,0.430205 0.05181,0.139942 -0.02282,0.269196 -0.136212,0.504108 -0.113392,0.234912 -0.265399,0.574994 -0.184099,0.928206 0.0813,0.353212 0.392832,0.717573 0.533276,0.944227 0.140444,0.226654 0.112884,0.317086 0.02819,0.547617 -0.08469,0.230531 -0.222146,0.590029 -0.205708,0.837574 0.01644,0.247544 0.189709,0.360887 0.337263,0.43171 0.147555,0.07082 0.270328,0.10117 0.429324,0.148885 0.158996,0.04771 0.350544,0.111282 0.7083,0.135501 0.357755,0.02422 0.862433,0.0081 1.232737,0.0072 0.370304,-8.69e-4 0.581181,0.01393 0.767662,0.0064 0.186482,-0.0075 0.350179,-0.03667 0.497789,-0.05474 0.147609,-0.01806 0.278737,-0.02535 0.552539,0.01332 0.273803,0.03867 0.689733,0.122422 1.037215,0.146588 0.347482,0.02417 0.627274,-0.01022 0.823812,-0.0233 0.196539,-0.01307 0.309289,-0.0054 0.530044,-0.01043 0.220754,-0.005 0.549824,-0.02244 0.777124,-0.02848 0.2273,-0.006 0.352578,-9.78e-4 0.555493,-0.03421 0.202915,-0.03323 0.484379,-0.104035 0.788228,-0.195526 0.30385,-0.09149 0.630414,-0.203571 0.813792,-0.304999 0.183378,-0.101429 0.225972,-0.19388 0.258262,-0.366886 0.03229,-0.173007 0.05401,-0.427916 -0.007,-0.623055 -0.06105,-0.195139 -0.208045,-0.330888 -0.319385,-0.425878 -0.111341,-0.09499 -0.187345,-0.148805 -0.06348,-0.262111 0.123865,-0.113307 0.44997,-0.283294 0.595719,-0.591192 0.14575,-0.307898 0.112035,-0.754636 -0.01058,-1.085137 -0.122619,-0.3305 -0.330072,-0.537718 -0.359523,-0.703014 -0.02945,-0.165297 0.121259,-0.280322 0.236558,-0.414865 0.115299,-0.134542 0.192441,-0.285623 0.25713,-0.466027 0.06469,-0.180403 0.114682,-0.383644 0.06729,-0.579356 -0.0474,-0.195712 -0.188717,-0.373922 -0.337896,-0.543652 -0.149179,-0.16973 -0.291201,-0.314021 -0.303598,-0.457637 -0.0124,-0.143617 0.112883,-0.278153 0.228278,-0.453138 0.115396,-0.174985 0.221467,-0.391457 0.219521,-0.575335 -0.0019,-0.183878 -0.114699,-0.337433 -0.215533,-0.461174 -0.100833,-0.123742 -0.190204,-0.217415 -0.437922,-0.305125 -0.247718,-0.08771 -0.654463,-0.167217 -1.060503,-0.217042 -0.40604,-0.04983 -0.811109,-0.06945 -1.214231,-0.06839 -0.403122,0.0011 -0.804022,0.02311 -1.268687,0.02486 -0.464666,0.0018 -0.99335,-0.01706 -1.469809,-0.03827 -0.476459,-0.02121 -0.900738,-0.04488 -1.114485,-0.0568 -0.213746,-0.01193 -0.213754,-0.01192 -0.682864,0.01835 z"
           id="path15744"
           inkscape:path-effect="#path-effect15746"
           inkscape:original-d="m 22.596672,66.904891 c -0.938201,0.06081 -1.879062,0.121509 -2.822574,0.182094 -0.260502,0.274666 -0.520101,0.547794 -0.780481,0.821156 0.05402,0.380963 0.104967,0.75928 0.152842,1.134954 0.06905,0.08013 0.135033,0.157615 0.197942,0.232452 -0.153947,0.167529 -0.310963,0.332409 -0.471055,0.494647 -0.08379,0.32391 -0.170647,0.645178 -0.260582,0.9638 0.0774,0.140417 0.151739,0.278191 0.222998,0.413316 0.181109,0.152182 0.356005,0.299137 0.534595,0.449189 -0.07462,0.130027 -0.149251,0.259281 -0.223898,0.387765 -0.148937,0.342725 -0.300943,0.682808 -0.456021,1.020244 0.314601,0.367003 0.626133,0.731364 0.93459,1.093076 -0.02448,0.09308 -0.05205,0.183509 -0.08268,0.271295 -0.14195,0.372331 -0.279401,0.731829 -0.424602,1.110529 0.177692,0.116298 0.350963,0.22964 0.519814,0.340028 0.125848,0.03299 0.24862,0.06334 0.368323,0.09104 0.19868,0.0661 0.390228,0.129665 0.586341,0.194585 0.519456,-0.01636 1.024134,-0.03251 1.549728,-0.04961 0.214988,0.01533 0.425865,0.03013 0.632621,0.04439 0.166774,-0.02649 0.330472,-0.05562 0.491098,-0.0874 0.1342,-0.0046 0.265325,-0.01193 0.393381,-0.02185 0.419002,0.0864 0.834932,0.170156 1.247791,0.251267 0.282863,-0.03175 0.562655,-0.06614 0.839377,-0.103177 0.115823,0.01034 0.228574,0.01802 0.338256,0.02307 0.33214,-0.01476 0.66121,-0.03215 0.987206,-0.0522 0.128354,0.0077 0.253633,0.01275 0.375839,0.01516 0.284535,-0.06816 0.565998,-0.13897 0.844389,-0.212426 0.329635,-0.109432 0.656199,-0.221512 0.979691,-0.336238 0.04567,-0.08981 0.08826,-0.182263 0.127786,-0.277365 0.02479,-0.252262 0.0465,-0.507172 0.06515,-0.764728 -0.143923,-0.133104 -0.290919,-0.268851 -0.440986,-0.407247 -0.07293,-0.05117 -0.148934,-0.104984 -0.228009,-0.161443 0.327201,-0.170133 0.653306,-0.34012 0.978312,-0.509958 -0.0334,-0.446313 -0.06711,-0.893052 -0.101354,-1.342991 -0.211259,-0.211061 -0.418712,-0.418279 -0.63186,-0.631142 0.154467,-0.117394 0.305176,-0.232418 0.457653,-0.349292 0.07823,-0.152349 0.155373,-0.303429 0.233415,-0.457139 0.05134,-0.207189 0.10133,-0.410431 0.152024,-0.618038 -0.145776,-0.183951 -0.287098,-0.362161 -0.43544,-0.5491 -0.150052,-0.152497 -0.292074,-0.296788 -0.44228,-0.449345 0.128351,-0.131892 0.253633,-0.266427 0.37584,-0.403609 0.109141,-0.213823 0.215214,-0.430294 0.318211,-0.649411 -0.109679,-0.150905 -0.222433,-0.304459 -0.338256,-0.460658 -0.08629,-0.09102 -0.175661,-0.184693 -0.268099,-0.281007 -0.40367,-0.07686 -0.810415,-0.156368 -1.220228,-0.238521 -0.402002,-0.01699 -0.807072,-0.0366 -1.215218,-0.05887 -0.397823,0.02469 -0.798722,0.04675 -1.202689,0.06615 -0.525609,-0.01617 -1.054293,-0.03498 -1.586047,-0.05644 -0.421211,-0.02103 -0.845491,-0.04469 -1.272846,-0.07101 z"
           sodipodi:nodetypes="scccccccccccccccccccccccccccccccccccccccccccccccss" />
        <g
           id="g15671">
          <path
             style="fill:#000000;stroke-width:0.241609"
             id="path15655"
             d="m 28.878061,66.91567 c -0.14496,0.100259 -0.268782,-0.06544 -0.413029,-0.06224 -0.07699,0.0017 -0.146786,0.06967 -0.223782,0.06873 -0.086,-0.001 -0.165737,-0.05641 -0.250392,-0.07457 -0.09517,-0.02041 -0.192027,-0.02731 -0.288037,-0.04097 -0.354695,-0.02889 -0.2779,-0.03247 -0.637757,-0.02119 -0.110066,0.0035 -0.220136,0.0243 -0.330034,0.01624 -0.111984,-0.0082 -0.220069,-0.06057 -0.332206,-0.06483 -0.758473,-0.02879 0.06642,0.151815 -0.687778,-0.05445 -0.116673,-0.0014 -0.233602,-0.01336 -0.350024,-0.004 -0.114874,0.0092 -0.227202,0.04637 -0.341813,0.05948 -0.454043,0.05195 -0.240236,-0.0023 -0.693378,0.0067 -0.671208,0.01338 -0.01265,0.05859 -0.672589,-0.0062 -0.518921,-0.1481 -0.09634,-0.0722 -0.597146,-0.04713 -0.09228,0.0046 -0.184942,-0.02306 -0.27688,-0.01252 -0.09248,0.01063 -0.178626,0.07302 -0.271501,0.07546 -0.130513,0.0034 -0.39123,-0.111141 -0.512145,-0.158117 -0.247346,0.181029 -0.178293,0.205545 -0.450398,0.145345 -0.07187,-0.01589 -0.137853,-0.06781 -0.210852,-0.07207 -0.06608,-0.0039 -0.128378,0.04217 -0.194334,0.04838 -0.339679,0.03203 -0.02289,-0.08995 -0.34504,0.06838 -0.09905,0.11725 -0.222055,-0.02193 -0.324395,0.02052 -0.06005,0.0249 -0.09297,0.105311 -0.146677,0.146041 -0.04049,0.03071 -0.08855,0.04395 -0.132817,0.06592 -0.0069,10e-4 -0.0045,0.02451 0.0024,0.02346 v 0 c 0.381562,0.0748 -0.12691,-0.03802 0.306134,0.108804 0.05132,0.01741 0.10549,0.01891 0.158234,0.02837 0.05377,0.02122 0.107536,0.04245 0.161304,0.06368 0.05365,-0.01895 0.105523,-0.0478 0.160939,-0.05682 0.05808,-0.0094 0.119721,0.02237 0.175822,0.002 0.07027,-0.02548 0.116342,-0.127741 0.189537,-0.134506 0.07454,-0.0069 0.135462,0.08136 0.208975,0.09768 0.147252,0.03266 0.302116,-0.04111 0.449217,-0.0059 0.187705,0.0082 0.318701,0.02012 0.50749,0.0024 0.08991,-0.0084 0.17823,-0.03758 0.268361,-0.04105 0.09148,-0.0035 0.182588,0.01675 0.274071,0.02013 0.331581,0.01194 0.259336,0.0057 0.597085,-0.0601 0.110848,0.0236 0.220341,0.05977 0.332547,0.0708 0.140778,0.01378 0.548388,-0.01672 0.686753,-0.02982 0.116069,-0.01101 0.231224,-0.04117 0.347651,-0.0405 0.230337,0.0013 0.45653,0.09895 0.689356,0.05745 0.300354,0.02752 0.380721,0.04874 0.682448,0.02083 0.111408,-0.01031 0.220665,-0.05053 0.332397,-0.05207 0.109153,-0.0015 0.216946,0.02932 0.325505,0.04299 0.439493,0.05534 0.201381,0.0017 0.628041,0.133782 0.09763,-0.02093 0.194243,-0.05043 0.292879,-0.06278 0.265709,-0.03331 0.228202,0.0066 0.4794,0.01929 0.137271,0.007 0.279847,-0.03879 0.411696,0.02224 0.09827,0.0062 0.112981,-0.327081 0.01469,-0.333319 z" />
          <path
             style="fill:#000000;stroke-width:0.2851"
             id="path15661"
             d="m 20.875517,66.722935 c -0.449099,-0.0045 0.40335,-0.022 -0.17836,0.128994 -0.0544,0.01414 -0.09253,-0.06599 -0.149016,-0.07127 -0.07402,-0.0069 -0.148708,0.08818 -0.208493,0.104889 -0.03471,0.0097 -0.07299,-7.91e-4 -0.109495,-0.0012 -0.03055,0.01432 -0.05855,0.03372 -0.09164,0.04292 -0.03243,0.009 -0.06973,6.2e-5 -0.101484,0.01075 -0.02869,0.0096 -0.04907,0.03206 -0.07361,0.04809 -0.02156,0.02076 -0.03469,0.05185 -0.06467,0.06232 -0.02496,0.0088 -0.05274,-0.01139 -0.0797,-0.01189 -0.02325,-3.13e-4 -0.04602,0.0062 -0.06903,0.0091 -0.02179,0.01092 -0.04017,0.03378 -0.06537,0.03286 -0.0345,-0.0013 -0.05885,-0.04006 -0.09334,-0.03868 -0.05055,0.002 -0.05532,0.09235 -0.08806,0.103554 -0.02975,0.01023 -0.06277,-0.01221 -0.09474,-0.01333 -0.0311,-0.0011 -0.06204,0.0045 -0.09307,0.0067 0.05569,0.158591 -0.157011,0.100442 -0.193171,0.221021 -0.0087,0.02891 0.02412,0.06876 -7.3e-4,0.08956 -0.02741,0.02294 -0.07622,0.0046 -0.114338,0.0067 0.02455,0.09038 -0.120889,0.05167 -0.137504,0.101698 -0.01282,0.03859 0.05392,0.07368 0.0471,0.113393 -0.005,0.02901 -0.06333,0.03121 -0.07659,0.05822 -0.01369,0.02788 0.0085,0.06078 0.0034,0.09076 -0.0045,0.0272 -0.02081,0.05196 -0.03123,0.07793 -0.211146,0.145601 -0.01266,-0.02059 -0.10302,0.136497 -0.01496,0.02602 -0.06405,0.03596 -0.06762,0.06485 -0.0043,0.03487 0.03824,0.06275 0.04764,0.09687 0.0063,0.02305 -0.0027,0.04741 -0.0014,0.07107 0.0016,0.02658 0.0064,0.05294 0.0095,0.07942 0.01045,0.02129 0.03191,0.04078 0.03139,0.06389 -0.0026,0.111601 -0.07871,0.03644 -0.03612,0.156883 0.0077,0.02167 0.03652,0.03324 0.04926,0.05306 0.01346,0.02093 0.01729,0.04554 0.02825,0.06753 0.01142,0.02289 0.02587,0.0446 0.03881,0.06689 0.0163,0.0143 0.03259,0.0286 0.04889,0.0429 0.01144,0.01535 0.02036,0.03229 0.03425,0.04605 0.01317,0.01304 0.03242,0.02074 0.046,0.03347 0.0406,0.03797 0.05747,0.08362 0.07177,0.13211 0.128381,0.04772 0.03729,0.09216 0.06688,0.14703 0.04037,0.07487 0.152541,-0.05051 0.104378,0.09147 0.0725,0.08986 0.08542,-0.01312 0.01009,0.0593 -0.01388,0.01334 0.228549,0.06011 -0.03983,-0.0053 0.05143,-0.0635 0.07914,0.05291 0.05413,0.06011 -0.04338,0.01248 -0.09063,-0.02828 -0.13528,-0.01973 -0.02361,0.0045 -0.08184,0.119867 -0.08557,0.126575 -0.0098,0.03142 -0.0037,0.07044 -0.0295,0.09424 -0.0258,0.02385 -0.07736,0.0122 -0.107241,0.03218 -0.103658,0.06955 -0.0234,0.100722 -0.07809,0.194185 -0.0035,0.006 -0.174728,0.138448 -0.17986,0.142444 -0.0033,0.03029 0.0158,0.06985 -0.0097,0.09086 -0.03691,0.03037 -0.115035,0.0034 -0.146713,0.03781 -0.04246,0.04621 0.07765,0.187296 0.08248,0.212531 0.0055,0.02844 -0.02307,0.0545 -0.02832,0.08298 -0.0056,0.03021 -0.0026,0.06114 -0.0039,0.09171 -0.031,0.0241 -0.07669,0.03921 -0.09299,0.07233 -0.01329,0.02701 0.01225,0.05786 0.01449,0.08714 0.02082,0.272471 -0.03867,-0.08969 0.04645,0.18143 0.06902,0.21984 -0.07262,-0.06676 0.04388,0.149585 0.177607,0.03508 0.03535,0.100558 0.169921,0.177094 0.02207,0.01253 0.06159,0.0058 0.07319,0.02631 0.08927,0.157431 -0.124588,0.02574 0.05717,0.117081 0.039,0.0568 0.06937,0.125418 0.132691,0.167043 0.02042,0.01343 0.04975,0.01556 0.06817,0.03097 0.09429,0.07896 -0.04597,0.04747 0.115531,0.06086 0.08122,-0.03568 0.07522,0.07037 0.151941,0.05159 0.02547,-0.0063 0.04135,-0.03829 0.06768,-0.03586 0.03889,0.0036 0.0012,0.05001 -0.03524,0.107325 0.01431,-0.0092 0.0319,-0.04008 0.04287,-0.02788 0.01224,0.01361 -0.0176,0.03094 -0.02614,0.0465 -0.0049,0.0089 -0.01103,0.03664 -0.01424,0.0271 -0.01598,-0.04715 -0.01329,-0.09778 -0.02595,-0.14565 -0.0029,-0.01091 -0.0086,-0.02444 -0.02064,-0.02852 -0.02345,-0.0078 -0.05025,-0.0024 -0.0754,-0.0037 0.145302,0.144967 4.9e-5,0.112475 -0.04885,0.210194 -0.01567,0.03134 0.0068,0.07137 -0.01071,0.101958 -0.03957,0.06897 -0.153565,0.09228 -0.223193,0.116294 -0.01478,0.03222 -0.01795,0.07055 -0.04437,0.09669 -0.02729,0.027 -0.08594,0.02345 -0.107836,0.05388 -0.02189,0.03038 -0.0059,0.07134 -0.008,0.107041 -0.01085,0.18385 0.01278,0.173898 -0.167611,0.278782 -0.125747,0.29289 0.03503,-0.106622 -0.05452,0.20593 -0.01045,0.03652 -0.0406,0.06784 -0.04843,0.104843 -0.0066,0.03112 0.0044,0.06316 0.0061,0.09475 0.0022,0.03896 0.0084,0.07797 0.006,0.116917 -0.0025,0.03794 -0.01397,0.07503 -0.02097,0.112554 0.05424,0.05971 0.03329,0.142381 0.071,0.206338 0.01589,0.02694 0.06197,0.03771 0.07103,0.0669 0.0101,0.03246 -0.02345,0.066 -0.01938,0.09942 0.01099,0.09112 0.06149,0.07625 0.144665,0.09246 -0.08552,0.187752 -0.06368,0.04201 0.04671,0.123912 0.01999,0.01482 0.0042,0.05198 0.0264,0.06425 0.03187,0.0176 0.09932,-0.01798 0.112637,0.01256 0.06761,0.154925 -0.209023,0.109508 0.05589,0.123792 0.02306,0.0464 0.09055,0.06832 0.115505,0.113018 0.03954,0.07081 -0.02826,0.08911 0.126982,0.06177 0.0092,0.0042 0.07132,0.03079 0.07954,0.04144 0.01187,0.01537 0.0029,0.04278 0.02147,0.05223 0.01769,0.0091 0.04378,-0.02012 0.06074,-0.01001 0.147162,0.08761 -0.09555,0.0362 0.05543,0.06097 0.109143,0.08507 -0.16067,-0.111874 0.108836,-0.04175 0.03043,0.0079 -0.01807,0.0569 -0.0054,0.08203 0.01847,0.03671 0.06542,-0.07885 0.06258,0.04063 0.07735,0.02418 -0.15813,0.07836 0.06379,-0.05269 0.02136,-0.01262 -0.02069,0.04095 -0.02927,0.06201 -7.51e-4,0.0017 0.006,-0.0013 0.0051,-0.0028 -0.0426,-0.0826 -0.08887,-0.163766 -0.133304,-0.24565 0.02118,-0.09964 -0.09211,-0.02587 -0.09604,0.01635 -0.0028,0.03025 0.03204,0.06187 0.01807,0.08971 -0.01263,0.02509 -0.05551,0.02662 -0.08327,0.03992 -0.07495,0.03247 -0.06626,0.115513 -0.117783,0.160729 -0.03357,0.02946 -0.104541,0.02547 -0.123522,0.06338 -0.02283,0.04558 0.04373,0.103891 0.01762,0.148123 -0.18816,0.08701 -0.125767,0.02264 -0.195791,0.186632 0.0026,0.156434 -0.08873,0.284194 -0.126004,0.434645 -0.0088,0.03556 -0.04311,0.07454 -0.02422,0.107051 0.02551,0.04393 0.09161,0.05853 0.137415,0.0878 0.0097,0.02807 0.01942,0.05615 0.02913,0.08422 -0.0313,0.04189 -0.104755,0.07676 -0.0939,0.125696 0.0089,0.03985 0.09016,0.02506 0.131602,0.04435 0.02739,0.01276 0.06057,0.02592 0.07259,0.05067 0.129015,0.265541 -0.135164,-0.06234 0.04082,0.139742 0.05304,0.05349 0.0215,0.139993 0.114005,0.163728 0.02855,0.0073 0.06406,-0.01358 0.08939,-7.3e-5 0.16422,0.08762 -0.164108,0.04866 0.100882,0.06221 0.01804,0.01359 0.03326,0.03065 0.05416,0.04073 0.02036,0.0098 0.05008,0.0038 0.06695,0.01765 0.0185,0.01526 0.0217,0.04013 0.0289,0.06129 0.008,0.02337 -0.01006,0.0628 0.01629,0.07167 0.207029,0.06983 4.32e-4,-0.1313 0.122071,0.0033 0.197897,0.126257 -0.165837,-0.08737 0.128514,-0.0032 0.02953,0.0084 0.01997,0.05555 0.04634,0.06976 0.01741,0.0094 0.04015,-0.01731 0.05992,-0.01246 0.139597,0.03411 -0.04144,0.06627 0.120798,0.02062 0.06388,-0.06504 0.05753,0.05975 0.08914,0.04709 0.03212,-0.01287 0.0057,-0.0933 0.03972,-0.08491 0.03813,0.0094 -0.0074,0.07898 0.02341,0.100448 0.0027,0.0019 0.02479,-0.05947 0.05219,-0.133517 0.04439,-0.04221 0.01729,-0.01 0.03856,-0.114674 0.04756,0.0022 0.05457,-0.11373 0.007,-0.11586 v 0 c -0.01825,-0.123269 -0.0088,-0.04539 -0.01906,-0.234332 -0.05573,-0.152247 0.03264,0.05905 -0.05302,0.09306 -0.04437,0.01761 -0.0044,-0.0862 -0.02485,-0.124412 -0.0055,-0.01012 -0.01836,0.01773 -0.03098,0.02016 -0.02872,0.0055 -0.05262,-0.02547 -0.06654,-0.03773 -0.01351,0.03378 -0.0066,0.08076 -0.04057,0.101363 -0.02127,0.01291 -0.0072,-0.04523 -0.019,-0.06519 -0.04753,-0.08055 -0.100677,0.05581 -0.118143,-0.01913 -0.105135,-0.0066 0.105001,0.0012 -0.08152,0.03249 -0.0055,9.58e-4 -0.107964,-0.07233 -0.128389,-0.04002 0.01182,-0.03254 0.04924,-0.08102 0.0093,-0.114812 -0.01312,-0.01111 -0.03992,-0.0057 -0.05095,-0.01831 -0.01128,-0.01291 0.01171,-0.04574 -0.0068,-0.04811 -0.125557,-0.01602 -0.163338,0.111985 -0.07815,-0.05115 -0.03432,-0.01459 -0.140477,-0.03699 -0.153063,-0.07247 -0.0066,-0.01859 0.01841,-0.03795 0.01414,-0.05703 -0.0066,-0.02969 -0.06438,-0.03944 -0.05389,-0.07795 0.0044,-0.01432 0.0045,-0.03029 0.01332,-0.04297 0.01144,-0.01631 0.05007,-0.02267 0.04586,-0.04138 -0.0058,-0.02564 -0.07743,-0.0284 -0.06704,-0.05293 0.013,-0.03067 0.109413,-0.0047 0.105219,-0.03721 -0.03199,-0.247595 -0.230306,0.0013 -0.05706,-0.175899 0.01579,-0.02792 0.02621,-0.05865 0.04739,-0.08379 0.02306,-0.02739 0.152156,-0.120863 0.166041,-0.155351 0.01527,-0.03793 -0.03121,-0.0915 0.0011,-0.120407 0.17561,-0.156959 0.178373,0.138769 0.136147,-0.129176 0.09782,-0.06499 0.09291,-0.07454 0.145164,-0.166503 0.0093,-0.01636 0.01441,-0.03521 0.02844,-0.04885 0.017,-0.01653 0.04842,-0.02047 0.06201,-0.03919 0.01932,-0.02659 0.0212,-0.06004 0.03183,-0.09007 -0.402093,-0.565393 -0.167405,-0.09926 -0.152213,-0.278594 10e-5,-0.0011 -0.0852,0.03306 -0.03891,-0.0507 -0.0088,0.0048 -0.01771,0.0095 -0.02654,0.01432 -0.0061,-0.0036 -0.01113,-0.01239 -0.01841,-0.01091 -0.01585,0.0033 -0.02455,0.02256 -0.04083,0.02323 -0.02982,0.0012 -0.0034,-0.06715 -0.07211,-0.02103 -0.0169,-0.0035 -0.08357,-0.02893 -0.09282,-0.04016 -0.02132,-0.02588 0.01287,-0.09238 -0.02398,-0.09293 -0.03276,-4.83e-4 -0.05283,0.03338 -0.07925,0.05007 -0.105918,-0.0074 -0.01422,-0.04113 -0.04167,-0.08346 -0.0063,-0.0097 -0.08802,0.0052 -0.07958,-0.06913 -0.02922,0.0023 -0.06332,0.02104 -0.08763,0.0069 -0.01874,-0.0109 -0.0023,-0.130445 -0.0041,-0.136349 -0.02114,-0.06562 -0.127587,-0.05233 -0.180919,-0.08104 -0.02018,-0.0095 -0.05446,-0.0095 -0.06051,-0.0286 -0.05187,-0.163933 0.110889,0.01229 0.08137,-0.152608 -0.0043,-0.02361 -0.05269,-0.01769 -0.07369,-0.03332 -0.03733,-0.02776 -0.03716,-0.08444 -0.09438,-0.09814 0.07359,-0.134849 0.01721,0.01573 -0.02258,-0.10817 -0.03076,-0.0958 0.06376,-0.04537 0.09014,-0.11466 0.01059,-0.0278 -0.01389,-0.05728 -0.02079,-0.08591 0.01599,-0.02414 0.03195,-0.04827 0.04794,-0.07241 0.01502,-0.280234 -0.03253,0.08438 0.09547,-0.153213 0.01729,-0.03211 -0.02402,-0.07667 -0.0013,-0.106204 0.02285,-0.02976 0.08582,-0.01576 0.114661,-0.04138 0.02078,-0.01847 0.05939,-0.176571 0.06456,-0.195687 0.05039,-0.05462 0.09722,-0.110481 0.158862,-0.156656 0.03101,-0.02322 0.09302,-0.02726 0.09994,-0.06213 0.01004,-0.05055 -0.07777,-0.09668 -0.05877,-0.145282 0.02791,-0.07136 0.228748,-0.0096 0.210042,-0.13531 0.0054,-0.02605 0.01612,-0.05169 0.01635,-0.07818 2.19e-4,-0.03359 -0.01254,-0.06643 -0.01492,-0.09995 -0.005,-0.06932 0.033,-0.147969 -0.007,-0.208281 -0.04831,-0.07284 -0.137554,0.199712 -0.129884,-0.0057 -0.02304,0.0015 -0.04671,0.0092 -0.06913,0.0045 -0.01027,-0.0022 -0.0088,-0.01741 -0.01722,-0.02293 -0.0435,-0.02853 -0.04634,0.01718 -0.05401,-0.05948 -0.003,-0.03025 0.03849,-0.08062 0.0053,-0.09094 -0.03765,-0.01173 -0.06359,0.04193 -0.09538,0.06288 -0.243377,0.05779 0.150862,-0.01646 -0.04684,-0.08612 -0.04632,-0.01632 -0.08113,0.07566 -0.12966,0.06516 -0.034,-0.0073 0.03536,-0.06245 0.01892,-0.08912 -0.02063,-0.03343 -0.114565,0.03347 -0.127161,-0.03001 -0.0028,-0.02061 0.002,-0.04304 -0.0082,-0.06181 -0.0088,-0.01627 -0.03307,-0.02258 -0.0455,-0.037 -0.01178,-0.01368 -0.01605,-0.03122 -0.02603,-0.04593 -0.0098,-0.01457 -0.03067,-0.02497 -0.03333,-0.04168 -0.0028,-0.01825 0.02261,-0.03492 0.01828,-0.05295 -0.0027,-0.01169 -0.02365,-0.01241 -0.03548,-0.01862 -0.02173,-0.07133 0.01106,0.0029 -0.08648,-0.06734 -0.07652,-0.05508 -0.01599,-0.0381 -0.0099,-0.101094 0.0019,-0.01991 -0.01038,-0.03893 -0.01561,-0.05838 0.0026,-0.02241 0.0051,-0.04479 0.0076,-0.06719 0.0022,-0.0232 0.0044,-0.04643 0.0067,-0.06965 0.0049,-0.02227 0.01232,-0.04425 0.01476,-0.06684 0.0023,-0.0221 -0.0069,-0.04508 -4.05e-4,-0.0666 0.01926,-0.06537 0.115171,-0.100436 0.106106,-0.176577 0.01868,-0.02173 0.04144,-0.04126 0.05603,-0.0652 0.02487,-0.0408 0.0309,-0.106611 0.06709,-0.144025 0.01788,-0.01849 0.05232,-0.02192 0.06853,-0.04152 0.197608,-0.238824 -0.141115,0.06907 0.09725,-0.135863 0.02876,-0.01526 0.06066,-0.02684 0.08625,-0.04582 0.02554,-0.01895 0.03531,-0.05314 0.06519,-0.06659 0.03897,-0.01754 0.09267,-6.27e-4 0.129614,-0.02114 0.01578,-0.0087 0.100767,-0.165355 0.102331,-0.173627 0.0054,-0.02829 -0.01071,-0.05656 -0.01606,-0.08483 0.0098,-0.02908 0.01958,-0.05816 0.02934,-0.08723 -0.01397,-0.0068 -0.04356,-0.0066 -0.04194,-0.02033 0.0027,-0.02273 0.05887,-0.03126 0.05052,-0.05295 -0.0066,-0.01702 -0.140684,-0.02277 -0.126588,-0.07245 -0.01895,-0.0069 -0.05115,-0.0036 -0.05683,-0.02053 -0.0074,-0.02238 0.02545,-0.04237 0.02805,-0.06554 0.0018,-0.01589 -0.01061,-0.0306 -0.01546,-0.04601 -0.006,-0.01904 -0.0026,-0.04188 -0.01682,-0.05734 -0.0176,-0.0192 -0.06912,-0.0151 -0.07194,-0.03946 -0.0044,-0.03898 0.03664,-0.07168 0.05495,-0.107524 -0.03319,-0.0056 -0.07244,7.72e-4 -0.09957,-0.01662 -0.02241,-0.01434 -0.01244,-0.04907 -0.031,-0.06699 -0.01443,-0.0139 -0.04788,-0.0056 -0.0603,-0.0209 -0.01408,-0.01733 0.0034,-0.04432 -0.0078,-0.0631 -0.01416,-0.02345 -0.06573,-0.01738 -0.07116,-0.0503 -0.0095,-0.0063 -0.01849,-0.01321 -0.02841,-0.01898 -0.01084,-0.0063 -0.03313,-0.006 -0.03376,-0.01721 -9.19e-4,-0.01773 0.02886,-0.02871 0.0302,-0.04642 0.0037,-0.04895 -0.143477,-0.02261 -0.04504,-0.100199 2.22e-4,-0.01524 -0.0042,-0.0312 0.0012,-0.04577 0.0067,-0.01853 0.03463,-0.03108 0.03367,-0.05046 -0.0012,-0.02355 -0.0476,-0.0397 -0.03922,-0.06214 0.0094,-0.02514 0.06812,-0.01691 0.07809,-0.0419 0.01881,-0.04713 -0.08888,-0.09871 -0.01271,-0.149138 -0.0032,-0.03265 -0.02487,-0.110373 0.0237,-0.137531 0.03226,-0.01803 0.08559,0.0036 0.113131,-0.01955 0.02496,-0.02097 -0.0518,-0.147352 0.0512,-0.158124 6.94e-4,-0.01745 -0.01008,-0.03803 0.0015,-0.05231 0.0099,-0.01224 0.03684,-0.002 0.05031,-0.01141 0.0297,-0.02081 0.01526,-0.07977 0.05231,-0.08804 0.02891,-0.0064 0.05752,0.01378 0.08628,0.02069 0.01903,-0.0071 0.03805,-0.01415 0.05707,-0.02122 0.01998,-0.1694 -0.02899,-0.05124 0.07828,-0.09783 0.0191,-0.0083 0.02111,-0.04319 0.0424,-0.04149 0.03605,0.0029 0.05783,0.06615 0.09016,0.05213 0.04902,-0.02126 -0.03934,-0.126109 0.05478,-0.13374 0.136919,-0.06256 -0.05155,0.0064 0.141673,0.02159 0.06349,0.0049 0.09171,-0.09385 0.126196,-0.107542 0.03157,-0.01256 0.07061,0.01561 0.10398,0.0072 0.03381,-0.0085 0.05629,-0.03648 0.08445,-0.05472 0.137905,0.02332 0.08985,0.03375 0.215172,-0.015 0.03733,-0.01454 0.06892,-0.04762 0.109888,-0.04741 0.04994,2.61e-4 0.08894,0.04553 0.138752,0.04868 0.07277,0.0046 0.129044,-0.05842 0.171966,-0.09447 0.144693,-0.02823 0.05203,-0.380691 -0.09266,-0.352476 z" />
          <path
             style="fill:#000000;stroke-width:0.241609"
             id="path15663"
             d="m 28.497912,76.164699 c -0.14496,-0.100259 -0.268782,0.06544 -0.413029,0.06224 -0.07699,-0.0017 -0.146786,-0.06967 -0.223782,-0.06873 -0.086,0.001 -0.165737,0.05641 -0.250392,0.07457 -0.09517,0.02041 -0.192027,0.02731 -0.288037,0.04097 -0.354695,0.02889 -0.2779,0.03247 -0.637757,0.02119 -0.110066,-0.0035 -0.220136,-0.0243 -0.330034,-0.01624 -0.111984,0.0082 -0.220069,0.06057 -0.332206,0.06483 -0.758473,0.02879 0.06642,-0.151815 -0.687778,0.05445 -0.116673,0.0014 -0.233602,0.01336 -0.350024,0.004 -0.114874,-0.0092 -0.227202,-0.04637 -0.341813,-0.05948 -0.454043,-0.05195 -0.240236,0.0023 -0.693378,-0.0067 -0.671208,-0.01338 -0.01265,-0.05859 -0.672589,0.0062 -0.518921,0.1481 -0.09634,0.0722 -0.597146,0.04713 -0.09228,-0.0046 -0.184942,0.02306 -0.27688,0.01252 -0.09248,-0.01063 -0.178626,-0.07302 -0.271501,-0.07546 -0.130513,-0.0034 -0.39123,0.111141 -0.512145,0.158117 -0.247346,-0.181029 -0.178293,-0.205545 -0.450398,-0.145345 -0.07187,0.01589 -0.137853,0.06781 -0.210852,0.07207 -0.06608,0.0039 -0.128378,-0.04217 -0.194334,-0.04838 -0.339679,-0.03203 -0.02289,0.08995 -0.34504,-0.06838 -0.09905,-0.11725 -0.222055,0.02193 -0.324395,-0.02052 -0.06005,-0.0249 -0.09297,-0.105311 -0.146677,-0.146041 -0.04049,-0.03071 -0.08855,-0.04395 -0.132817,-0.06592 -0.0069,-0.001 -0.0045,-0.02451 0.0024,-0.02346 v 0 c 0.381562,-0.0748 -0.12691,0.03802 0.306134,-0.108804 0.05132,-0.01741 0.10549,-0.01891 0.158234,-0.02837 0.05377,-0.02122 0.107536,-0.04245 0.161304,-0.06368 0.05365,0.01895 0.105523,0.0478 0.160939,0.05682 0.05808,0.0094 0.119721,-0.02237 0.175822,-0.002 0.07027,0.02548 0.116342,0.127741 0.189537,0.134506 0.07454,0.0069 0.135462,-0.08136 0.208975,-0.09768 0.147252,-0.03266 0.302116,0.04111 0.449217,0.0059 0.187705,-0.0082 0.318701,-0.02012 0.50749,-0.0024 0.08991,0.0084 0.17823,0.03758 0.268361,0.04105 0.09148,0.0035 0.182588,-0.01675 0.274071,-0.02013 0.331581,-0.01194 0.259336,-0.0057 0.597085,0.0601 0.110848,-0.0236 0.220341,-0.05977 0.332547,-0.0708 0.140778,-0.01378 0.548388,0.01672 0.686753,0.02982 0.116069,0.01101 0.231224,0.04117 0.347651,0.0405 0.230337,-0.0013 0.45653,-0.09895 0.689356,-0.05745 0.300354,-0.02752 0.380721,-0.04874 0.682448,-0.02083 0.111408,0.01031 0.220665,0.05053 0.332397,0.05207 0.109153,0.0015 0.216946,-0.02932 0.325505,-0.04299 0.439493,-0.05534 0.201381,-0.0017 0.628041,-0.133782 0.09763,0.02093 0.194243,0.05043 0.292879,0.06278 0.265709,0.03331 0.228202,-0.0066 0.4794,-0.01929 0.137271,-0.007 0.279847,0.03879 0.411696,-0.02224 0.09827,-0.0062 0.112981,0.327081 0.01469,0.333319 z" />
          <path
             style="fill:#000000;stroke-width:0.2851"
             id="path15665"
             d="m 27.622069,66.629391 c 0.449099,-0.0045 -0.40335,-0.022 0.17836,0.128994 0.0544,0.01414 0.09253,-0.06599 0.149016,-0.07127 0.07402,-0.0069 0.148708,0.08818 0.208493,0.104889 0.03471,0.0097 0.07299,-7.91e-4 0.109495,-0.0012 0.03055,0.01432 0.05855,0.03372 0.09164,0.04292 0.03243,0.009 0.06973,6.2e-5 0.101484,0.01075 0.02869,0.0096 0.04907,0.03206 0.07361,0.04809 0.02156,0.02076 0.03469,0.05185 0.06467,0.06232 0.02496,0.0088 0.05274,-0.01139 0.0797,-0.01189 0.02325,-3.13e-4 0.04602,0.0062 0.06903,0.0091 0.02179,0.01092 0.04017,0.03378 0.06537,0.03286 0.0345,-0.0013 0.05885,-0.04006 0.09334,-0.03868 0.05055,0.002 0.05532,0.09235 0.08806,0.103554 0.02975,0.01023 0.06277,-0.01221 0.09474,-0.01333 0.0311,-0.0011 0.06204,0.0045 0.09307,0.0067 -0.05569,0.158591 0.157011,0.100442 0.193171,0.221021 0.0087,0.02891 -0.02412,0.06876 7.3e-4,0.08956 0.02741,0.02294 0.07622,0.0046 0.114338,0.0067 -0.02455,0.09038 0.120889,0.05167 0.137504,0.101698 0.01282,0.03859 -0.05392,0.07368 -0.0471,0.113393 0.005,0.02901 0.06333,0.03121 0.07659,0.05822 0.01369,0.02788 -0.0085,0.06078 -0.0034,0.09076 0.0045,0.0272 0.02081,0.05196 0.03123,0.07793 0.211146,0.145601 0.01266,-0.02059 0.10302,0.136497 0.01496,0.02602 0.06405,0.03596 0.06762,0.06485 0.0043,0.03487 -0.03824,0.06275 -0.04764,0.09687 -0.0063,0.02305 0.0027,0.04741 0.0014,0.07107 -0.0016,0.02658 -0.0064,0.05294 -0.0095,0.07942 -0.01045,0.02129 -0.03191,0.04078 -0.03139,0.06389 0.0026,0.111601 0.07871,0.03644 0.03612,0.156883 -0.0077,0.02167 -0.03652,0.03324 -0.04926,0.05306 -0.01346,0.02093 -0.01729,0.04554 -0.02825,0.06753 -0.01142,0.02289 -0.02587,0.0446 -0.03881,0.06689 -0.0163,0.0143 -0.03259,0.0286 -0.04889,0.0429 -0.01144,0.01535 -0.02036,0.03229 -0.03425,0.04605 -0.01317,0.01304 -0.03242,0.02074 -0.046,0.03347 -0.0406,0.03797 -0.05747,0.08362 -0.07177,0.13211 -0.128381,0.04772 -0.03729,0.09216 -0.06688,0.14703 -0.04037,0.07487 -0.152541,-0.05051 -0.104378,0.09147 -0.0725,0.08986 -0.08542,-0.01312 -0.01009,0.0593 0.01388,0.01334 -0.228549,0.06011 0.03983,-0.0053 -0.05143,-0.0635 -0.07914,0.05291 -0.05413,0.06011 0.04338,0.01248 0.09063,-0.02828 0.13528,-0.01973 0.02361,0.0045 0.08184,0.119867 0.08557,0.126575 0.0098,0.03142 0.0037,0.07044 0.0295,0.09424 0.0258,0.02385 0.07736,0.0122 0.107241,0.03218 0.103658,0.06955 0.0234,0.100722 0.07809,0.194185 0.0035,0.006 0.174728,0.138448 0.17986,0.142444 0.0033,0.03029 -0.0158,0.06985 0.0097,0.09086 0.03691,0.03037 0.115035,0.0034 0.146713,0.03781 0.04246,0.04621 -0.07765,0.187296 -0.08248,0.212531 -0.0055,0.02844 0.02307,0.0545 0.02832,0.08298 0.0056,0.03021 0.0026,0.06114 0.0039,0.09171 0.031,0.0241 0.07669,0.03921 0.09299,0.07233 0.01329,0.02701 -0.01225,0.05786 -0.01449,0.08714 -0.02082,0.272471 0.03867,-0.08969 -0.04645,0.18143 -0.06902,0.21984 0.07262,-0.06676 -0.04388,0.149585 -0.177607,0.03508 -0.03535,0.100558 -0.169921,0.177094 -0.02207,0.01253 -0.06159,0.0058 -0.07319,0.02631 -0.08927,0.157431 0.124588,0.02574 -0.05717,0.117081 -0.039,0.0568 -0.06937,0.125418 -0.132691,0.167043 -0.02042,0.01343 -0.04975,0.01556 -0.06817,0.03097 -0.09429,0.07896 0.04597,0.04747 -0.115531,0.06086 -0.08122,-0.03568 -0.07522,0.07037 -0.151941,0.05159 -0.02547,-0.0063 -0.04135,-0.03829 -0.06768,-0.03586 -0.03889,0.0036 -0.0012,0.05001 0.03524,0.107325 -0.01431,-0.0092 -0.0319,-0.04008 -0.04287,-0.02788 -0.01224,0.01361 0.0176,0.03094 0.02614,0.0465 0.0049,0.0089 0.01103,0.03664 0.01424,0.0271 0.01598,-0.04715 0.01329,-0.09778 0.02595,-0.14565 0.0029,-0.01091 0.0086,-0.02444 0.02064,-0.02852 0.02345,-0.0078 0.05025,-0.0024 0.0754,-0.0037 -0.145302,0.144967 -4.9e-5,0.112475 0.04885,0.210194 0.01567,0.03134 -0.0068,0.07137 0.01071,0.101958 0.03957,0.06897 0.153565,0.09228 0.223193,0.116294 0.01478,0.03222 0.01795,0.07055 0.04437,0.09669 0.02729,0.027 0.08594,0.02345 0.107836,0.05388 0.02189,0.03038 0.0059,0.07134 0.008,0.107041 0.01085,0.18385 -0.01278,0.173898 0.167611,0.278782 0.125747,0.29289 -0.03503,-0.106622 0.05452,0.20593 0.01045,0.03652 0.0406,0.06784 0.04843,0.104843 0.0066,0.03112 -0.0044,0.06316 -0.0061,0.09475 -0.0022,0.03896 -0.0084,0.07797 -0.006,0.116917 0.0025,0.03794 0.01397,0.07503 0.02097,0.112554 -0.05424,0.05971 -0.03329,0.142381 -0.071,0.206338 -0.01589,0.02694 -0.06197,0.03771 -0.07103,0.0669 -0.0101,0.03246 0.02345,0.066 0.01938,0.09942 -0.01099,0.09112 -0.06149,0.07625 -0.144665,0.09246 0.08552,0.187752 0.06368,0.04201 -0.04671,0.123912 -0.01999,0.01482 -0.0042,0.05198 -0.0264,0.06425 -0.03187,0.0176 -0.09932,-0.01798 -0.112637,0.01256 -0.06761,0.154925 0.209023,0.109508 -0.05589,0.123792 -0.02306,0.0464 -0.09055,0.06832 -0.115505,0.113018 -0.03954,0.07081 0.02826,0.08911 -0.126982,0.06177 -0.0092,0.0042 -0.07132,0.03079 -0.07954,0.04144 -0.01187,0.01537 -0.0029,0.04278 -0.02147,0.05223 -0.01769,0.0091 -0.04378,-0.02012 -0.06074,-0.01001 -0.147162,0.08761 0.09555,0.0362 -0.05543,0.06097 -0.109143,0.08507 0.16067,-0.111874 -0.108836,-0.04175 -0.03043,0.0079 0.01807,0.0569 0.0054,0.08203 -0.01847,0.03671 -0.06542,-0.07885 -0.06258,0.04063 -0.07735,0.02418 0.15813,0.07836 -0.06379,-0.05269 -0.02136,-0.01262 0.02069,0.04095 0.02927,0.06201 7.51e-4,0.0017 -0.006,-0.0013 -0.0051,-0.0028 0.0426,-0.0826 0.08887,-0.163766 0.133304,-0.24565 -0.02118,-0.09964 0.09211,-0.02587 0.09604,0.01635 0.0028,0.03025 -0.03204,0.06187 -0.01807,0.08971 0.01263,0.02509 0.05551,0.02662 0.08327,0.03992 0.07495,0.03247 0.06626,0.115513 0.117783,0.160729 0.03357,0.02946 0.104541,0.02547 0.123522,0.06338 0.02283,0.04558 -0.04373,0.103891 -0.01762,0.148123 0.18816,0.08701 0.125767,0.02264 0.195791,0.186632 -0.0026,0.156434 0.08873,0.284194 0.126004,0.434645 0.0088,0.03556 0.04311,0.07454 0.02422,0.107051 -0.02551,0.04393 -0.09161,0.05853 -0.137415,0.0878 -0.0097,0.02807 -0.01942,0.05615 -0.02913,0.08422 0.0313,0.04189 0.104755,0.07676 0.0939,0.125696 -0.0089,0.03985 -0.09016,0.02506 -0.131602,0.04435 -0.02739,0.01276 -0.06057,0.02592 -0.07259,0.05067 -0.129015,0.265541 0.135164,-0.06234 -0.04082,0.139742 -0.05304,0.05349 -0.0215,0.139993 -0.114005,0.163728 -0.02855,0.0073 -0.06406,-0.01358 -0.08939,-7.3e-5 -0.16422,0.08762 0.164108,0.04866 -0.100882,0.06221 -0.01804,0.01359 -0.03326,0.03065 -0.05416,0.04073 -0.02036,0.0098 -0.05008,0.0038 -0.06695,0.01765 -0.0185,0.01526 -0.0217,0.04013 -0.0289,0.06129 -0.008,0.02337 0.01006,0.0628 -0.01629,0.07167 -0.207029,0.06983 -4.32e-4,-0.1313 -0.122071,0.0033 -0.197897,0.126257 0.165837,-0.08737 -0.128514,-0.0032 -0.02953,0.0084 -0.01997,0.05555 -0.04634,0.06976 -0.01741,0.0094 -0.04015,-0.01731 -0.05992,-0.01246 -0.139597,0.03411 0.04144,0.06627 -0.120798,0.02062 -0.06388,-0.06504 -0.05753,0.05975 -0.08914,0.04709 -0.03212,-0.01287 -0.0057,-0.0933 -0.03972,-0.08491 -0.03813,0.0094 0.0074,0.07898 -0.02341,0.100448 -0.0027,0.0019 -0.02479,-0.05947 -0.05219,-0.133517 -0.04439,-0.04221 -0.01729,-0.01 -0.03856,-0.114674 -0.04756,0.0022 -0.05457,-0.11373 -0.007,-0.11586 v 0 c 0.01825,-0.123269 0.0088,-0.04539 0.01906,-0.234332 0.05573,-0.152247 -0.03264,0.05905 0.05302,0.09306 0.04437,0.01761 0.0044,-0.0862 0.02485,-0.124412 0.0055,-0.01012 0.01836,0.01773 0.03098,0.02016 0.02872,0.0055 0.05262,-0.02547 0.06654,-0.03773 0.01351,0.03378 0.0066,0.08076 0.04057,0.101363 0.02127,0.01291 0.0072,-0.04523 0.019,-0.06519 0.04753,-0.08055 0.100677,0.05581 0.118143,-0.01913 0.105135,-0.0066 -0.105001,0.0012 0.08152,0.03249 0.0055,9.58e-4 0.107964,-0.07233 0.128389,-0.04002 -0.01182,-0.03254 -0.04924,-0.08102 -0.0093,-0.114812 0.01312,-0.01111 0.03992,-0.0057 0.05095,-0.01831 0.01128,-0.01291 -0.01171,-0.04574 0.0068,-0.04811 0.125557,-0.01602 0.163338,0.111985 0.07815,-0.05115 0.03432,-0.01459 0.140477,-0.03699 0.153063,-0.07247 0.0066,-0.01859 -0.01841,-0.03795 -0.01414,-0.05703 0.0066,-0.02969 0.06438,-0.03944 0.05389,-0.07795 -0.0044,-0.01432 -0.0045,-0.03029 -0.01332,-0.04297 -0.01144,-0.01631 -0.05007,-0.02267 -0.04586,-0.04138 0.0058,-0.02564 0.07743,-0.0284 0.06704,-0.05293 -0.013,-0.03067 -0.109413,-0.0047 -0.105219,-0.03721 0.03199,-0.247595 0.230306,0.0013 0.05706,-0.175899 -0.01579,-0.02792 -0.02621,-0.05865 -0.04739,-0.08379 -0.02306,-0.02739 -0.152156,-0.120863 -0.166041,-0.155351 -0.01527,-0.03793 0.03121,-0.0915 -0.0011,-0.120407 -0.17561,-0.156959 -0.178373,0.138769 -0.136147,-0.129176 -0.09782,-0.06499 -0.09291,-0.07454 -0.145164,-0.166503 -0.0093,-0.01636 -0.01441,-0.03521 -0.02844,-0.04885 -0.017,-0.01653 -0.04842,-0.02047 -0.06201,-0.03919 -0.01932,-0.02659 -0.0212,-0.06004 -0.03183,-0.09007 0.402093,-0.565393 0.167405,-0.09926 0.152213,-0.278594 -1e-4,-0.0011 0.0852,0.03306 0.03891,-0.0507 0.0088,0.0048 0.01771,0.0095 0.02654,0.01432 0.0061,-0.0036 0.01113,-0.01239 0.01841,-0.01091 0.01585,0.0033 0.02455,0.02256 0.04083,0.02323 0.02982,0.0012 0.0034,-0.06715 0.07211,-0.02103 0.0169,-0.0035 0.08357,-0.02893 0.09282,-0.04016 0.02132,-0.02588 -0.01287,-0.09238 0.02398,-0.09293 0.03276,-4.83e-4 0.05283,0.03338 0.07925,0.05007 0.105918,-0.0074 0.01422,-0.04113 0.04167,-0.08346 0.0063,-0.0097 0.08802,0.0052 0.07958,-0.06913 0.02922,0.0023 0.06332,0.02104 0.08763,0.0069 0.01874,-0.0109 0.0023,-0.130445 0.0041,-0.136349 0.02114,-0.06562 0.127587,-0.05233 0.180919,-0.08104 0.02018,-0.0095 0.05446,-0.0095 0.06051,-0.0286 0.05187,-0.163933 -0.110889,0.01229 -0.08137,-0.152608 0.0043,-0.02361 0.05269,-0.01769 0.07369,-0.03332 0.03733,-0.02776 0.03716,-0.08444 0.09438,-0.09814 -0.07359,-0.134849 -0.01721,0.01573 0.02258,-0.10817 0.03076,-0.0958 -0.06376,-0.04537 -0.09014,-0.11466 -0.01059,-0.0278 0.01389,-0.05728 0.02079,-0.08591 -0.01599,-0.02414 -0.03195,-0.04827 -0.04794,-0.07241 -0.01502,-0.280234 0.03253,0.08438 -0.09547,-0.153213 -0.01729,-0.03211 0.02402,-0.07667 0.0013,-0.106204 -0.02285,-0.02976 -0.08582,-0.01576 -0.114661,-0.04138 -0.02078,-0.01847 -0.05939,-0.176571 -0.06456,-0.195687 -0.05039,-0.05462 -0.09722,-0.110481 -0.158862,-0.156656 -0.03101,-0.02322 -0.09302,-0.02726 -0.09994,-0.06213 -0.01004,-0.05055 0.07777,-0.09668 0.05877,-0.145282 -0.02791,-0.07136 -0.228748,-0.0096 -0.210042,-0.13531 -0.0054,-0.02605 -0.01612,-0.05169 -0.01635,-0.07818 -2.19e-4,-0.03359 0.01254,-0.06643 0.01492,-0.09995 0.005,-0.06932 -0.033,-0.147969 0.007,-0.208281 0.04831,-0.07284 0.137554,0.199712 0.129884,-0.0057 0.02304,0.0015 0.04671,0.0092 0.06913,0.0045 0.01027,-0.0022 0.0088,-0.01741 0.01722,-0.02293 0.0435,-0.02853 0.04634,0.01718 0.05401,-0.05948 0.003,-0.03025 -0.03849,-0.08062 -0.0053,-0.09094 0.03765,-0.01173 0.06359,0.04193 0.09538,0.06288 0.243377,0.05779 -0.150862,-0.01646 0.04684,-0.08612 0.04632,-0.01632 0.08113,0.07566 0.12966,0.06516 0.034,-0.0073 -0.03536,-0.06245 -0.01892,-0.08912 0.02063,-0.03343 0.114565,0.03347 0.127161,-0.03001 0.0028,-0.02061 -0.002,-0.04304 0.0082,-0.06181 0.0088,-0.01627 0.03307,-0.02258 0.0455,-0.037 0.01178,-0.01368 0.01605,-0.03122 0.02603,-0.04593 0.0098,-0.01457 0.03067,-0.02497 0.03333,-0.04168 0.0028,-0.01825 -0.02261,-0.03492 -0.01828,-0.05295 0.0027,-0.01169 0.02365,-0.01241 0.03548,-0.01862 0.02173,-0.07133 -0.01106,0.0029 0.08648,-0.06734 0.07652,-0.05508 0.01599,-0.0381 0.0099,-0.101094 -0.0019,-0.01991 0.01038,-0.03893 0.01561,-0.05838 -0.0026,-0.02241 -0.0051,-0.04479 -0.0076,-0.06719 -0.0022,-0.0232 -0.0044,-0.04643 -0.0067,-0.06965 -0.0049,-0.02227 -0.01232,-0.04425 -0.01476,-0.06684 -0.0023,-0.0221 0.0069,-0.04508 4.05e-4,-0.0666 -0.01926,-0.06537 -0.115171,-0.100436 -0.106106,-0.176577 -0.01868,-0.02173 -0.04144,-0.04126 -0.05603,-0.0652 -0.02487,-0.0408 -0.0309,-0.106611 -0.06709,-0.144025 -0.01788,-0.01849 -0.05232,-0.02192 -0.06853,-0.04152 -0.197608,-0.238824 0.141115,0.06907 -0.09725,-0.135863 -0.02876,-0.01526 -0.06066,-0.02684 -0.08625,-0.04582 -0.02554,-0.01895 -0.03531,-0.05314 -0.06519,-0.06659 -0.03897,-0.01754 -0.09267,-6.27e-4 -0.129614,-0.02114 -0.01578,-0.0087 -0.100767,-0.165355 -0.102331,-0.173627 -0.0054,-0.02829 0.01071,-0.05656 0.01606,-0.08483 -0.0098,-0.02908 -0.01958,-0.05816 -0.02934,-0.08723 0.01397,-0.0068 0.04356,-0.0066 0.04194,-0.02033 -0.0027,-0.02273 -0.05887,-0.03126 -0.05052,-0.05295 0.0066,-0.01702 0.140684,-0.02277 0.126588,-0.07245 0.01895,-0.0069 0.05115,-0.0036 0.05683,-0.02053 0.0074,-0.02238 -0.02545,-0.04237 -0.02805,-0.06554 -0.0018,-0.01589 0.01061,-0.0306 0.01546,-0.04601 0.006,-0.01904 0.0026,-0.04188 0.01682,-0.05734 0.0176,-0.0192 0.06912,-0.0151 0.07194,-0.03946 0.0044,-0.03898 -0.03664,-0.07168 -0.05495,-0.107524 0.03319,-0.0056 0.07244,7.72e-4 0.09957,-0.01662 0.02241,-0.01434 0.01244,-0.04907 0.031,-0.06699 0.01443,-0.0139 0.04788,-0.0056 0.0603,-0.0209 0.01408,-0.01733 -0.0034,-0.04432 0.0078,-0.0631 0.01416,-0.02345 0.06573,-0.01738 0.07116,-0.0503 0.0095,-0.0063 0.01849,-0.01321 0.02841,-0.01898 0.01084,-0.0063 0.03313,-0.006 0.03376,-0.01721 9.19e-4,-0.01773 -0.02886,-0.02871 -0.0302,-0.04642 -0.0037,-0.04895 0.143477,-0.02261 0.04504,-0.100199 -2.22e-4,-0.01524 0.0042,-0.0312 -0.0012,-0.04577 -0.0067,-0.01853 -0.03463,-0.03108 -0.03367,-0.05046 0.0012,-0.02355 0.0476,-0.0397 0.03922,-0.06214 -0.0094,-0.02514 -0.06812,-0.01691 -0.07809,-0.0419 -0.01881,-0.04713 0.08888,-0.09871 0.01271,-0.149138 0.0032,-0.03265 0.02487,-0.110373 -0.0237,-0.137531 -0.03226,-0.01803 -0.08559,0.0036 -0.113131,-0.01955 -0.02496,-0.02097 0.0518,-0.147352 -0.0512,-0.158124 -6.94e-4,-0.01745 0.01008,-0.03803 -0.0015,-0.05231 -0.0099,-0.01224 -0.03684,-0.002 -0.05031,-0.01141 -0.0297,-0.02081 -0.01526,-0.07977 -0.05231,-0.08804 -0.02891,-0.0064 -0.05752,0.01378 -0.08628,0.02069 -0.01903,-0.0071 -0.03805,-0.01415 -0.05707,-0.02122 -0.01998,-0.1694 0.02899,-0.05124 -0.07828,-0.09783 -0.0191,-0.0083 -0.02111,-0.04319 -0.0424,-0.04149 -0.03605,0.0029 -0.05783,0.06615 -0.09016,0.05213 -0.04902,-0.02126 0.03934,-0.126109 -0.05478,-0.13374 -0.136919,-0.06256 0.05155,0.0064 -0.141673,0.02159 -0.06349,0.0049 -0.09171,-0.09385 -0.126196,-0.107542 -0.03157,-0.01256 -0.07061,0.01561 -0.10398,0.0072 -0.03381,-0.0085 -0.05629,-0.03648 -0.08445,-0.05472 -0.137905,0.02332 -0.08985,0.03375 -0.215172,-0.015 -0.03733,-0.01454 -0.06892,-0.04762 -0.109888,-0.04741 -0.04994,2.61e-4 -0.08894,0.04553 -0.138752,0.04868 -0.07277,0.0046 -0.129044,-0.05842 -0.171966,-0.09447 -0.144693,-0.02823 -0.05203,-0.380691 0.09266,-0.352476 z" />
        </g>
        <path
           style="fill:#5e5c64;stroke-width:0.2851"
           id="path15947"
           d="m 19.757373,69.315798 c 0.05811,-0.0019 0.131392,0.130181 0.161698,0.1435 0.04902,0.02154 0.121872,-0.02669 0.165056,0.0027 0.02464,0.01677 0.02184,0.05073 0.03278,0.07609 0.108871,-0.05421 0.08957,0.105809 0.1246,0.109709 0.03274,0.0037 0.04797,-0.04319 0.07991,-0.05039 0.05074,-0.01143 0.07088,0.0804 0.07495,0.08988 0.213712,0.01918 -0.122148,-0.0026 0.135196,-0.02088 0.02138,-0.0016 0.04114,0.02278 0.06141,0.01669 0.03612,-0.01082 0.05144,-0.06555 0.08944,-0.06188 0.03348,0.0032 0.02958,0.05266 0.05054,0.07537 0.01788,0.01937 0.04298,0.0328 0.06447,0.04921 0.02651,2.6e-4 0.05303,0.0019 0.07951,7.94e-4 0.02799,-0.0011 0.06002,-0.01992 0.08362,-0.0069 0.0786,0.04325 0.03255,0.136774 0.154737,0.0922 0.03739,-0.01365 0.05891,-0.0824 0.09475,-0.06595 0.05405,0.02479 0.05048,0.09612 0.07572,0.144172 0.103501,-0.07019 0.06375,-0.06715 0.178736,-0.07066 0.02777,-7.94e-4 0.05897,-0.01 0.08334,0.0016 0.03268,0.0154 0.03761,0.06408 0.07358,0.07245 6.15e-4,1.16e-4 0.153622,-0.06381 0.160445,-0.06666 0.03126,-0.01688 0.105974,-0.05988 0.143257,-0.07004 0.02313,-0.0063 0.04814,-0.0054 0.07221,-0.0081 0.01032,5.29e-4 0.01244,-0.02453 0.0021,-0.02519 v 0 c -0.01889,-0.04343 -0.0192,-0.09696 -0.05666,-0.130278 -0.01674,-0.0149 -0.04597,0.01236 -0.06896,0.01855 -0.01951,-0.02832 -0.03901,-0.05664 -0.05851,-0.08497 -0.203371,0.170638 0.05472,-0.0031 -0.148409,-0.03573 -0.04139,-0.0066 -0.04903,0.0688 -0.09027,0.07608 -0.0306,0.0054 -0.04526,-0.04542 -0.07646,-0.04663 -0.03311,-0.0013 -0.0585,0.02684 -0.08775,0.04026 -0.02792,-0.0055 -0.05586,-0.01101 -0.08378,-0.01651 -0.02903,-0.01429 -0.05803,-0.0286 -0.08705,-0.0429 -0.02836,0.003 -0.05791,0.01672 -0.08504,0.009 -0.03069,-0.0087 -0.04224,-0.05979 -0.07387,-0.05408 -0.04384,0.0079 -0.05056,0.07016 -0.09234,0.08408 -0.0463,0.01543 -0.08674,-0.07052 -0.136676,-0.05098 -0.05781,-0.130823 -1.63e-4,-0.09628 -0.111642,-0.07807 -0.02144,0.0035 -0.04534,-0.0034 -0.0653,0.0042 -0.03041,0.01159 -0.04695,0.04871 -0.08006,0.05123 -0.03736,0.0029 -0.03793,-0.07347 -0.0867,-0.06178 -0.09222,0.0205 -0.02866,0.02254 -0.06598,-0.05026 -0.0068,-0.01318 -0.01892,-0.03587 -0.0347,-0.03116 -0.04048,0.01209 -0.05748,0.06075 -0.09865,0.07099 -0.03963,0.0099 -0.04518,-0.09084 -0.08191,-0.0799 -0.06081,-0.0226 -0.06448,-0.02768 -0.130031,-0.03725 -0.02402,-0.0035 -0.05129,0.0034 -0.07265,-0.0067 -0.02233,-0.01053 -0.02771,-0.03828 -0.04877,-0.0506 -0.01637,-0.0096 -0.113255,-0.02803 -0.134618,-0.03241 -0.04444,-0.02598 -0.129737,0.08229 -0.08529,0.108265 z" />
        <path
           style="fill:#5e5c64;stroke-width:0.2851"
           id="path15951"
           d="m 28.779495,69.24534 c -0.05611,-0.0026 -0.03582,0.100658 -0.08165,0.0962 -0.05634,-0.0055 -0.08597,-0.09269 -0.141204,-0.08168 -0.04703,0.0094 -0.0025,0.09817 -0.04444,0.1187 -0.362528,0.177271 0.09201,-0.285387 -0.20385,0.05397 -0.0801,-0.02934 -0.137665,-0.06932 -0.22823,-0.03671 -0.03734,0.01344 -0.05548,0.05664 -0.09461,0.06553 -0.03995,0.0091 -0.08223,-0.02413 -0.122505,-0.01619 -0.536401,0.105677 0.312675,0.04059 -0.261457,0.0714 -0.112518,0.03088 -0.224292,-0.03032 -0.335368,-0.01794 -0.06642,0.0074 -0.266628,0.102002 -0.329578,0.114795 -0.05754,0.01169 -0.118179,0.0045 -0.177012,0.0095 -0.05933,0.005 -0.11817,0.01368 -0.177256,0.02053 -0.0918,0.01553 -0.258228,0.04669 -0.351856,0.05049 -0.05697,0.0024 -0.113936,-0.0089 -0.170926,-0.0069 -0.05594,0.0019 -0.110807,0.01416 -0.166534,0.01878 -0.307234,0.02559 -0.03142,-0.01386 -0.342781,0.03817 -0.12742,-0.03931 -0.233296,0.105738 -0.353684,0.08615 -0.07684,-0.01251 -0.119276,-0.09445 -0.194431,-0.113054 -0.306049,-0.07577 -0.101148,0.098 -0.39857,0.09322 -0.07507,-0.0013 -0.135331,-0.05606 -0.202996,-0.08409 -0.06495,0.02674 -0.125509,0.06356 -0.194852,0.08022 -0.06151,0.01476 -0.127233,0.0098 -0.191009,0.01249 -0.135358,0.0057 -0.232137,0.0026 -0.367115,0.0019 -0.05555,-2.65e-4 -0.113144,-0.01336 -0.166656,-5.3e-4 -0.05451,0.0131 -0.09696,0.05029 -0.145447,0.07543 0.0052,-2.59e-4 0.0044,-0.01297 -9.22e-4,-0.0127 v 0 c 0.04891,-0.01881 0.09324,-0.05416 0.146743,-0.05641 0.193992,-0.0081 0.147417,0.103108 0.350815,0.07238 0.06792,-0.01027 0.113666,-0.07852 0.182309,-0.08422 0.0674,-0.0056 0.129045,0.03534 0.193568,0.05301 0.06525,-0.01479 0.130495,-0.02959 0.195742,-0.04439 0.366111,0.07751 0.03578,0.02754 0.402859,0.02686 0.15152,-2.65e-4 0.239148,0.03211 0.390592,0.02146 0.0608,-0.0043 0.118345,-0.02757 0.179083,-0.03252 0.05894,-0.0048 0.118385,0.0024 0.177577,0.0035 0.147724,0.01712 0.207562,0.02437 0.354996,0.04024 0.05875,0.0063 0.11743,0.02365 0.176321,0.01842 0.186708,-0.01659 0.151493,-0.08736 0.345903,-0.09113 0.06351,-0.0013 0.124127,0.02339 0.186192,0.03508 0.05953,-0.006 0.118766,-0.01476 0.178588,-0.01786 0.05943,-0.0031 0.120179,0.0092 0.178622,-5.29e-4 0.0584,-0.0098 0.107851,-0.0452 0.165714,-0.05713 0.05578,-0.01151 0.116357,0.0013 0.171476,-0.01244 0.05691,-0.01413 0.09923,-0.06626 0.158341,-0.0694 0.06049,-0.0032 0.11437,0.03459 0.171553,0.05188 0.02633,-0.0077 0.231262,-0.06977 0.265199,-0.07306 0.04171,-0.004 0.08927,0.02622 0.125559,0.0081 0.0463,-0.02318 0.04447,-0.08938 0.08876,-0.115316 0.03196,-0.01873 0.203362,0.0053 0.23293,0.0085 0.027,-0.03318 0.04007,-0.07954 0.08099,-0.09953 0.375275,-0.18329 -0.117466,0.181176 0.220593,-0.02942 0.027,-0.01683 0.0298,-0.05626 0.0596,-0.06912 0.131595,-0.05684 0.07798,0.0873 0.10488,-0.07019 0.02221,-0.01238 -0.01843,-0.06651 -0.04064,-0.05413 z" />
        <path
           style="fill:#5e5c64;stroke-width:0.2851"
           id="path15953"
           d="m 28.737207,71.49861 c -0.05811,-0.0019 -0.131392,0.130181 -0.161698,0.1435 -0.04902,0.02154 -0.121872,-0.02669 -0.165056,0.0027 -0.02464,0.01677 -0.02184,0.05073 -0.03278,0.07609 -0.108871,-0.05421 -0.08957,0.105809 -0.1246,0.109709 -0.03274,0.0037 -0.04797,-0.04319 -0.07991,-0.05039 -0.05074,-0.01143 -0.07088,0.0804 -0.07495,0.08988 -0.213712,0.01918 0.122148,-0.0026 -0.135196,-0.02088 -0.02138,-0.0016 -0.04114,0.02278 -0.06141,0.01669 -0.03612,-0.01082 -0.05144,-0.06555 -0.08944,-0.06188 -0.03348,0.0032 -0.02958,0.05266 -0.05054,0.07537 -0.01788,0.01937 -0.04298,0.0328 -0.06447,0.04921 -0.02651,2.6e-4 -0.05303,0.0019 -0.07951,7.94e-4 -0.02799,-0.0011 -0.06002,-0.01992 -0.08362,-0.0069 -0.0786,0.04325 -0.03255,0.136774 -0.154737,0.0922 -0.03739,-0.01365 -0.05891,-0.0824 -0.09475,-0.06595 -0.05405,0.02479 -0.05048,0.09612 -0.07572,0.144172 -0.103501,-0.07019 -0.06375,-0.06715 -0.178736,-0.07066 -0.02777,-7.94e-4 -0.05897,-0.01 -0.08334,0.0016 -0.03268,0.0154 -0.03761,0.06408 -0.07358,0.07245 -6.15e-4,1.16e-4 -0.153622,-0.06381 -0.160445,-0.06666 -0.03126,-0.01688 -0.105974,-0.05988 -0.143257,-0.07004 -0.02313,-0.0063 -0.04814,-0.0054 -0.07221,-0.0081 -0.01032,5.29e-4 -0.01244,-0.02453 -0.0021,-0.02519 v 0 c 0.01889,-0.04343 0.0192,-0.09696 0.05666,-0.130278 0.01674,-0.0149 0.04597,0.01236 0.06896,0.01855 0.01951,-0.02832 0.03901,-0.05664 0.05851,-0.08497 0.203371,0.170638 -0.05472,-0.0031 0.148409,-0.03573 0.04139,-0.0066 0.04903,0.0688 0.09027,0.07608 0.0306,0.0054 0.04526,-0.04542 0.07646,-0.04663 0.03311,-0.0013 0.0585,0.02684 0.08775,0.04026 0.02792,-0.0055 0.05586,-0.01101 0.08378,-0.01651 0.02903,-0.01429 0.05803,-0.0286 0.08705,-0.0429 0.02836,0.003 0.05791,0.01672 0.08504,0.009 0.03069,-0.0087 0.04224,-0.05979 0.07387,-0.05408 0.04384,0.0079 0.05056,0.07016 0.09234,0.08408 0.0463,0.01543 0.08674,-0.07052 0.136676,-0.05098 0.05781,-0.130823 1.63e-4,-0.09628 0.111642,-0.07807 0.02144,0.0035 0.04534,-0.0034 0.0653,0.0042 0.03041,0.01159 0.04695,0.04871 0.08006,0.05123 0.03736,0.0029 0.03793,-0.07347 0.0867,-0.06178 0.09222,0.0205 0.02866,0.02254 0.06598,-0.05026 0.0068,-0.01318 0.01892,-0.03587 0.0347,-0.03116 0.04048,0.01209 0.05748,0.06075 0.09865,0.07099 0.03963,0.0099 0.04518,-0.09084 0.08191,-0.0799 0.06081,-0.0226 0.06448,-0.02768 0.130031,-0.03725 0.02402,-0.0035 0.05129,0.0034 0.07265,-0.0067 0.02233,-0.01053 0.02771,-0.03828 0.04877,-0.0506 0.01637,-0.0096 0.113255,-0.02803 0.134618,-0.03241 0.04444,-0.02598 0.129737,0.08229 0.08529,0.108265 z" />
        <path
           style="fill:#5e5c64;stroke-width:0.2851"
           id="path15955"
           d="m 19.715085,71.428152 c 0.05611,-0.0026 0.03582,0.100658 0.08165,0.0962 0.05634,-0.0055 0.08597,-0.09269 0.141204,-0.08168 0.04703,0.0094 0.0025,0.09817 0.04444,0.1187 0.362528,0.177271 -0.09201,-0.285387 0.20385,0.05397 0.0801,-0.02934 0.137665,-0.06932 0.22823,-0.03671 0.03734,0.01344 0.05548,0.05664 0.09461,0.06553 0.03995,0.0091 0.08223,-0.02413 0.122505,-0.01619 0.536401,0.105677 -0.312675,0.04059 0.261457,0.0714 0.112518,0.03088 0.224292,-0.03032 0.335368,-0.01794 0.06642,0.0074 0.266628,0.102002 0.329578,0.114795 0.05754,0.01169 0.118179,0.0045 0.177012,0.0095 0.05933,0.005 0.11817,0.01368 0.177256,0.02053 0.0918,0.01553 0.258228,0.04669 0.351856,0.05049 0.05697,0.0024 0.113936,-0.0089 0.170926,-0.0069 0.05594,0.0019 0.110807,0.01416 0.166534,0.01878 0.307234,0.02559 0.03142,-0.01386 0.342781,0.03817 0.12742,-0.03931 0.233296,0.105738 0.353684,0.08615 0.07684,-0.01251 0.119276,-0.09445 0.194431,-0.113054 0.306049,-0.07577 0.101148,0.098 0.39857,0.09322 0.07507,-0.0013 0.135331,-0.05606 0.202996,-0.08409 0.06495,0.02674 0.125509,0.06356 0.194852,0.08022 0.06151,0.01476 0.127233,0.0098 0.191009,0.01249 0.135358,0.0057 0.232137,0.0026 0.367115,0.0019 0.05555,-2.65e-4 0.113144,-0.01336 0.166656,-5.3e-4 0.05451,0.0131 0.09696,0.05029 0.145447,0.07543 -0.0052,-2.59e-4 -0.0044,-0.01297 9.22e-4,-0.0127 v 0 c -0.04891,-0.01881 -0.09324,-0.05416 -0.146743,-0.05641 -0.193992,-0.0081 -0.147417,0.103108 -0.350815,0.07238 -0.06792,-0.01027 -0.113666,-0.07852 -0.182309,-0.08422 -0.0674,-0.0056 -0.129045,0.03534 -0.193568,0.05301 -0.06525,-0.01479 -0.130495,-0.02959 -0.195742,-0.04439 -0.366111,0.07751 -0.03578,0.02754 -0.402859,0.02686 -0.15152,-2.65e-4 -0.239148,0.03211 -0.390592,0.02146 -0.0608,-0.0043 -0.118345,-0.02757 -0.179083,-0.03252 -0.05894,-0.0048 -0.118385,0.0024 -0.177577,0.0035 -0.147724,0.01712 -0.207562,0.02437 -0.354996,0.04024 -0.05875,0.0063 -0.11743,0.02365 -0.176321,0.01842 -0.186708,-0.01659 -0.151493,-0.08736 -0.345903,-0.09113 -0.06351,-0.0013 -0.124127,0.02339 -0.186192,0.03508 -0.05953,-0.006 -0.118766,-0.01476 -0.178588,-0.01786 -0.05943,-0.0031 -0.120179,0.0092 -0.178622,-5.29e-4 -0.0584,-0.0098 -0.107851,-0.0452 -0.165714,-0.05713 -0.05578,-0.01151 -0.116357,0.0013 -0.171476,-0.01244 -0.05691,-0.01413 -0.09923,-0.06626 -0.158341,-0.0694 -0.06049,-0.0032 -0.11437,0.03459 -0.171553,0.05188 -0.02633,-0.0077 -0.231262,-0.06977 -0.265199,-0.07306 -0.04171,-0.004 -0.08927,0.02622 -0.125559,0.0081 -0.0463,-0.02318 -0.04447,-0.08938 -0.08876,-0.115316 -0.03196,-0.01873 -0.203362,0.0053 -0.23293,0.0085 -0.027,-0.03318 -0.04007,-0.07954 -0.08099,-0.09953 -0.375275,-0.18329 0.117466,0.181176 -0.220593,-0.02942 -0.027,-0.01683 -0.0298,-0.05626 -0.0596,-0.06912 -0.131595,-0.05684 -0.07798,0.0873 -0.10488,-0.07019 -0.02221,-0.01238 0.01843,-0.06651 0.04064,-0.05413 z" />
        <path
           style="fill:#5e5c64;stroke-width:0.2851"
           id="path15957"
           d="m 19.718972,73.979079 c 0.05811,-0.0019 0.131392,0.130181 0.161698,0.1435 0.04902,0.02154 0.121872,-0.02669 0.165056,0.0027 0.02464,0.01677 0.02184,0.05073 0.03278,0.07609 0.108871,-0.05421 0.08957,0.105809 0.1246,0.109709 0.03274,0.0037 0.04797,-0.04319 0.07991,-0.05039 0.05074,-0.01143 0.07088,0.0804 0.07495,0.08988 0.213712,0.01918 -0.122148,-0.0026 0.135196,-0.02088 0.02138,-0.0016 0.04114,0.02278 0.06141,0.01669 0.03612,-0.01082 0.05144,-0.06555 0.08944,-0.06188 0.03348,0.0032 0.02958,0.05266 0.05054,0.07537 0.01788,0.01937 0.04298,0.0328 0.06447,0.04921 0.02651,2.6e-4 0.05303,0.0019 0.07951,7.94e-4 0.02799,-0.0011 0.06002,-0.01992 0.08362,-0.0069 0.0786,0.04325 0.03255,0.136774 0.154737,0.0922 0.03739,-0.01365 0.05891,-0.0824 0.09475,-0.06595 0.05405,0.02479 0.05048,0.09612 0.07572,0.144172 0.103501,-0.07019 0.06375,-0.06715 0.178736,-0.07066 0.02777,-7.94e-4 0.05897,-0.01 0.08334,0.0016 0.03268,0.0154 0.03761,0.06408 0.07358,0.07245 6.15e-4,1.16e-4 0.153622,-0.06381 0.160445,-0.06666 0.03126,-0.01688 0.105974,-0.05988 0.143257,-0.07004 0.02313,-0.0063 0.04814,-0.0054 0.07221,-0.0081 0.01032,5.29e-4 0.01244,-0.02453 0.0021,-0.02519 v 0 c -0.01889,-0.04343 -0.0192,-0.09696 -0.05666,-0.130278 -0.01674,-0.0149 -0.04597,0.01236 -0.06896,0.01855 -0.01951,-0.02832 -0.03901,-0.05664 -0.05851,-0.08497 -0.203371,0.170638 0.05472,-0.0031 -0.148409,-0.03573 -0.04139,-0.0066 -0.04903,0.0688 -0.09027,0.07608 -0.0306,0.0054 -0.04526,-0.04542 -0.07646,-0.04663 -0.03311,-0.0013 -0.0585,0.02684 -0.08775,0.04026 -0.02792,-0.0055 -0.05586,-0.01101 -0.08378,-0.01651 -0.02903,-0.01429 -0.05803,-0.0286 -0.08705,-0.0429 -0.02836,0.003 -0.05791,0.01672 -0.08504,0.009 -0.03069,-0.0087 -0.04224,-0.05979 -0.07387,-0.05408 -0.04384,0.0079 -0.05056,0.07016 -0.09234,0.08408 -0.0463,0.01543 -0.08674,-0.07052 -0.136676,-0.05098 -0.05781,-0.130823 -1.63e-4,-0.09628 -0.111642,-0.07807 -0.02144,0.0035 -0.04534,-0.0034 -0.0653,0.0042 -0.03041,0.01159 -0.04695,0.04871 -0.08006,0.05123 -0.03736,0.0029 -0.03793,-0.07347 -0.0867,-0.06178 -0.09222,0.0205 -0.02866,0.02254 -0.06598,-0.05026 -0.0068,-0.01318 -0.01892,-0.03587 -0.0347,-0.03116 -0.04048,0.01209 -0.05748,0.06075 -0.09865,0.07099 -0.03963,0.0099 -0.04518,-0.09084 -0.08191,-0.0799 -0.06081,-0.0226 -0.06448,-0.02768 -0.130031,-0.03725 -0.02402,-0.0035 -0.05129,0.0034 -0.07265,-0.0067 -0.02233,-0.01053 -0.02771,-0.03828 -0.04877,-0.0506 -0.01637,-0.0096 -0.113255,-0.02803 -0.134618,-0.03241 -0.04444,-0.02598 -0.129737,0.08229 -0.08529,0.108265 z" />
        <path
           style="fill:#5e5c64;stroke-width:0.2851"
           id="path15959"
           d="m 28.741094,73.908621 c -0.05611,-0.0026 -0.03582,0.100658 -0.08165,0.0962 -0.05634,-0.0055 -0.08597,-0.09269 -0.141204,-0.08168 -0.04703,0.0094 -0.0025,0.09817 -0.04444,0.1187 -0.362528,0.177271 0.09201,-0.285387 -0.20385,0.05397 -0.0801,-0.02934 -0.137665,-0.06932 -0.22823,-0.03671 -0.03734,0.01344 -0.05548,0.05664 -0.09461,0.06553 -0.03995,0.0091 -0.08223,-0.02413 -0.122505,-0.01619 -0.536401,0.105677 0.312675,0.04059 -0.261457,0.0714 -0.112518,0.03088 -0.224292,-0.03032 -0.335368,-0.01794 -0.06642,0.0074 -0.266628,0.102002 -0.329578,0.114795 -0.05754,0.01169 -0.118179,0.0045 -0.177012,0.0095 -0.05933,0.005 -0.11817,0.01368 -0.177256,0.02053 -0.0918,0.01553 -0.258228,0.04669 -0.351856,0.05049 -0.05697,0.0024 -0.113936,-0.0089 -0.170926,-0.0069 -0.05594,0.0019 -0.110807,0.01416 -0.166534,0.01878 -0.307234,0.02559 -0.03142,-0.01386 -0.342781,0.03817 -0.12742,-0.03931 -0.233296,0.105738 -0.353684,0.08615 -0.07684,-0.01251 -0.119276,-0.09445 -0.194431,-0.113054 -0.306049,-0.07577 -0.101148,0.098 -0.39857,0.09322 -0.07507,-0.0013 -0.135331,-0.05606 -0.202996,-0.08409 -0.06495,0.02674 -0.125509,0.06356 -0.194852,0.08022 -0.06151,0.01476 -0.127233,0.0098 -0.191009,0.01249 -0.135358,0.0057 -0.232137,0.0026 -0.367115,0.0019 -0.05555,-2.65e-4 -0.113144,-0.01336 -0.166656,-5.3e-4 -0.05451,0.0131 -0.09696,0.05029 -0.145447,0.07543 0.0052,-2.59e-4 0.0044,-0.01297 -9.22e-4,-0.0127 v 0 c 0.04891,-0.01881 0.09324,-0.05416 0.146743,-0.05641 0.193992,-0.0081 0.147417,0.103108 0.350815,0.07238 0.06792,-0.01027 0.113666,-0.07852 0.182309,-0.08422 0.0674,-0.0056 0.129045,0.03534 0.193568,0.05301 0.06525,-0.01479 0.130495,-0.02959 0.195742,-0.04439 0.366111,0.07751 0.03578,0.02754 0.402859,0.02686 0.15152,-2.65e-4 0.239148,0.03211 0.390592,0.02146 0.0608,-0.0043 0.118345,-0.02757 0.179083,-0.03252 0.05894,-0.0048 0.118385,0.0024 0.177577,0.0035 0.147724,0.01712 0.207562,0.02437 0.354996,0.04024 0.05875,0.0063 0.11743,0.02365 0.176321,0.01842 0.186708,-0.01659 0.151493,-0.08736 0.345903,-0.09113 0.06351,-0.0013 0.124127,0.02339 0.186192,0.03508 0.05953,-0.006 0.118766,-0.01476 0.178588,-0.01786 0.05943,-0.0031 0.120179,0.0092 0.178622,-5.29e-4 0.0584,-0.0098 0.107851,-0.0452 0.165714,-0.05713 0.05578,-0.01151 0.116357,0.0013 0.171476,-0.01244 0.05691,-0.01413 0.09923,-0.06626 0.158341,-0.0694 0.06049,-0.0032 0.11437,0.03459 0.171553,0.05188 0.02633,-0.0077 0.231262,-0.06977 0.265199,-0.07306 0.04171,-0.004 0.08927,0.02622 0.125559,0.0081 0.0463,-0.02318 0.04447,-0.08938 0.08876,-0.115316 0.03196,-0.01873 0.203362,0.0053 0.23293,0.0085 0.027,-0.03318 0.04007,-0.07954 0.08099,-0.09953 0.375275,-0.18329 -0.117466,0.181176 0.220593,-0.02942 0.027,-0.01683 0.0298,-0.05626 0.0596,-0.06912 0.131595,-0.05684 0.07798,0.0873 0.10488,-0.07019 0.02221,-0.01238 -0.01843,-0.06651 -0.04064,-0.05413 z" />
      </g>
    </g>
  </g>
</svg>
