<?xml version="1.0" encoding="UTF-8" standalone="no"?>
<!-- Created with Inkscape (http://www.inkscape.org/) -->

<svg
   width="16.68359mm"
   height="23.751402mm"
   viewBox="0 0 16.68359 23.751402"
   version="1.1"
   id="svg5"
   sodipodi:docname="legs.svg"
   xmlns:inkscape="http://www.inkscape.org/namespaces/inkscape"
   xmlns:sodipodi="http://sodipodi.sourceforge.net/DTD/sodipodi-0.dtd"
   xmlns="http://www.w3.org/2000/svg"
   xmlns:svg="http://www.w3.org/2000/svg">
  <sodipodi:namedview
     id="namedview7"
     pagecolor="#ffffff"
     bordercolor="#000000"
     borderopacity="0.25"
     inkscape:showpageshadow="2"
     inkscape:pageopacity="0.0"
     inkscape:pagecheckerboard="0"
     inkscape:deskcolor="#d1d1d1"
     inkscape:document-units="mm"
     showgrid="false"
     inkscape:zoom="11.313709"
     inkscape:cx="326.9485"
     inkscape:cy="229.01421"
     inkscape:window-width="1920"
     inkscape:window-height="1017"
     inkscape:window-x="1912"
     inkscape:window-y="-8"
     inkscape:window-maximized="1"
     inkscape:current-layer="g13744" />
  <defs
     id="defs2" />
  <g
     inkscape:label="Layer 1"
     inkscape:groupmode="layer"
     id="layer1"
     transform="translate(-188.54191,-88.221858)">
    <g
       id="g16747"
       transform="translate(103.97558,24.227215)">
      <g
         id="g13739"
         transform="matrix(1,0,0,-1.1191984,-4.4959884,148.29434)">
        <g
           id="g13744"
           transform="matrix(1,0,0,0.78881032,0,14.687691)">
          <path
             style="fill:#1c71d8;stroke-width:0.281594"
             d="m 93.783747,76.692463 h 1.389062 c 0.186667,0 0.412436,0.04143 0.595313,0 0.699992,-0.158578 1.395402,-0.149848 2.116666,-0.149848 0.299546,0 0.62912,-0.03737 0.926042,0 0.111739,0.01406 0.21899,0.06086 0.330729,0.07492 0.577096,0.07263 1.950821,-0.168855 2.381251,0.07492 0.16715,0.09467 0.88962,-0.03325 1.12448,0 0.20665,0.02926 1.54673,0.247863 1.71979,0.149849 0.13534,-0.07665 0.25991,-0.147204 0.39687,-0.224773 0.0694,-0.0393 0.27794,0.0598 0.33073,0 0.12015,-0.136088 -0.0753,-0.769982 -0.13229,-0.899092 -0.0592,-0.134035 -0.0531,-0.314932 -0.13229,-0.449546 -0.0173,-0.02939 -0.0441,-0.04995 -0.0662,-0.07492 -0.0661,-0.0999 -0.14374,-0.191276 -0.19843,-0.299697 -0.0346,-0.06857 -0.0441,-0.149849 -0.0662,-0.224773 -0.0441,-0.0999 -0.0816,-0.203924 -0.13229,-0.299697 -0.0756,-0.142762 -0.0923,0.0015 -0.13229,-0.224773 -0.013,-0.07347 0.013,-0.151304 0,-0.224773 -0.0193,-0.109522 -0.11608,-0.189527 -0.1323,-0.299698 -0.0145,-0.09854 0.0191,-0.202177 0,-0.299697 -0.0257,-0.131291 -0.109,-0.24274 -0.13228,-0.374622 -0.0216,-0.122448 0.0137,-0.250712 0,-0.374621 -0.022,-0.198904 -0.0975,-0.40232 -0.1323,-0.599395 -0.0173,-0.09796 0.0279,-0.204924 0,-0.299697 -0.0339,-0.115248 -0.16452,-0.259373 -0.19843,-0.374622 -0.0599,-0.203384 -0.0722,-0.470076 -0.13229,-0.674319 -0.0312,-0.105958 -0.10112,-0.193738 -0.1323,-0.299697 -0.069,-0.234374 -0.0959,-0.501888 -0.13229,-0.749243 -0.0155,-0.105218 -0.19047,-0.572319 -0.19844,-0.599395 -0.12987,-0.441345 -0.20107,-0.908032 -0.33072,-1.348637 -0.0882,-0.299698 -0.0635,0.01515 -0.1323,-0.374622 -0.0173,-0.09796 0.0394,-0.210345 0,-0.299697 -0.0279,-0.06318 -0.1002,-0.08928 -0.13229,-0.149849 -0.0348,-0.0658 -0.24274,-0.650275 -0.26458,-0.749243 -0.0325,-0.14729 -0.0397,-0.299989 -0.0661,-0.449546 -0.0402,-0.227744 -0.14746,-0.36844 -0.19843,-0.599394 -0.0331,-0.149849 0.0661,0 0,-0.224773 -0.045,-0.152814 -0.14868,-0.280458 -0.19844,-0.449546 -0.054,-0.183515 0.0497,-0.187075 -0.0661,-0.449546 -0.0279,-0.06318 -0.1044,-0.08667 -0.13229,-0.149849 -0.0314,-0.07114 -0.10506,-0.50686 -0.13229,-0.599395 -0.01,-0.03351 -0.0522,-0.04333 -0.0661,-0.07492 -0.15639,-0.354291 -0.31449,-0.825541 -0.39687,-1.198789 -0.0543,-0.246002 -0.078,-0.503241 -0.1323,-0.749243 -0.0364,-0.165184 -0.14968,-0.283874 -0.19843,-0.449546 -0.0186,-0.06319 0.0261,-0.165605 0,-0.224773 -0.0279,-0.06318 -0.1044,-0.08667 -0.13229,-0.149849 -0.0197,-0.04468 0.0197,-0.105172 0,-0.149848 -0.0554,-0.125599 -0.068,-0.22891 -0.1323,-0.374622 -0.0731,-0.165521 -0.21405,-0.352765 -0.26458,-0.52447 -0.0375,-0.127472 -0.0115,-0.325835 -0.0661,-0.449546 -0.01394,-0.03159 -0.05628,-0.04142 -0.06614,-0.07492 -0.03969,-0.134864 0.03969,-0.314682 0,-0.449546 -0.0099,-0.03351 -0.0522,-0.04333 -0.06615,-0.07493 -0.05526,-0.125185 -0.03647,-0.315087 -0.06615,-0.449545 -0.03189,-0.144473 -0.130035,-0.258402 -0.198437,-0.374622 -0.125309,0.0085 -0.0441,-0.174823 -0.06615,-0.224773 -0.117855,-0.266993 -0.23423,-0.475977 -0.330729,-0.749243 -0.122898,-0.05582 -0.03907,-0.282621 -0.06615,-0.374622 -0.0099,-0.03351 -0.0441,-0.04995 -0.06615,-0.07492 -0.06615,-0.174824 -0.150186,-0.34229 -0.198437,-0.52447 -0.01901,-0.07176 0.01604,-0.152086 0,-0.224775 -0.02082,-0.09434 -0.158519,-0.20926 -0.198438,-0.299697 -0.04008,-0.09079 -0.101482,-0.269925 -0.132291,-0.374622 -0.01984,-0.06743 0.01984,-0.157341 0,-0.224773 -0.01345,-0.04572 -0.118837,-0.179048 -0.132292,-0.224772 -0.05034,-0.171074 -0.0157,-0.353056 -0.06615,-0.524471 -0.0063,-0.02134 -0.128317,-0.295193 -0.132292,-0.299697 -0.01559,-0.01765 -0.05629,0.02233 -0.06615,0 -0.01972,-0.04468 0.01972,-0.10517 0,-0.149849 -0.03969,-0.08991 -0.15875,-0.134863 -0.198438,-0.224773 -0.01972,-0.04468 0.01972,-0.105169 0,-0.149848 -0.02468,-0.05591 -0.110595,-0.275119 -0.132292,-0.299698 -0.01559,-0.01765 -0.05629,0.02233 -0.06614,0 -0.05998,-0.135876 -0.01634,-0.308493 -0.06615,-0.449543 -0.03738,-0.105865 -0.09493,-0.172745 -0.132292,-0.299697 -0.03307,-0.112386 0.06615,-0.07492 0,-0.224773 -0.02205,-0.04995 -0.110243,-0.02497 -0.132292,-0.07492 -0.04222,-0.09565 -0.0902,-0.252022 -0.132291,-0.299697 -0.01559,-0.01765 -0.05055,0.01765 -0.06615,0 -0.01559,-0.01765 0.01559,-0.05727 0,-0.07493 -0.03118,-0.03532 -0.08819,0 -0.132292,0 -0.260393,0 -0.229896,0.2033 -0.330729,0.374622 -0.101708,0.172808 -0.124415,0.206926 -0.198437,0.374622 -0.03554,0.08051 0.02551,0.213009 0,0.299697 -0.04569,0.15527 -0.15692,0.30846 -0.198438,0.449543 -0.02092,0.07108 0.02958,0.15776 0,0.224773 -0.04283,0.09702 -0.08349,0.291701 -0.132291,0.374621 -0.03459,0.05878 -0.0977,0.09108 -0.132292,0.149849 -0.05377,0.09136 -0.0244,0.504816 -0.06615,0.599395 -0.05551,0.125756 -0.157778,0.311382 -0.198437,0.449545 -0.01984,0.06743 0.01984,0.157342 0,0.224773 -0.0489,0.166174 -0.0696,0.307529 -0.132292,0.449546 -0.01972,0.04468 0.01972,0.105173 0,0.149849 -0.02789,0.06318 -0.104402,0.08667 -0.132292,0.149849 -0.03941,0.08927 -0.07256,0.306962 -0.132291,0.374622 -0.03486,0.03949 -0.09743,0.03544 -0.132292,0.07492 -0.03118,0.03532 0.01972,0.105172 0,0.149848 l -0.330729,0.749244 c -0.09192,0.208248 -0.103145,0.458441 -0.198438,0.674319 -0.21536,0.487884 -0.06629,-0.149356 -0.198437,0.299697 -0.01394,0.04739 0.01972,0.105172 0,0.149849 -0.191199,0.433148 -0.211629,1.0039 -0.396875,1.423562 -0.02958,0.06701 0.02092,0.153693 0,0.224773 -0.02982,0.101325 -0.08879,0.201142 -0.132292,0.299697 -0.02646,0.05994 0.02646,0.164833 0,0.224773 -0.06554,0.148477 -0.01606,0.129477 -0.06615,0.299697 -0.0099,0.03351 -0.05629,0.04142 -0.06615,0.07492 -0.01394,0.04739 0.01972,0.105173 0,0.149849 -0.0099,0.02234 -0.05056,-0.01766 -0.06615,0 -0.04488,0.05084 0.03027,0.231128 0,0.299697 -0.09377,0.212423 -0.209666,0.500421 -0.264584,0.749244 -0.127632,0.578283 0.254553,-0.501748 -0.132291,0.374621 -0.01972,0.04468 0.03118,0.114529 0,0.149849 -0.01559,0.01766 -0.05629,-0.02234 -0.06615,0 -0.03528,0.07992 0.03528,0.219778 0,0.299697 -0.02789,0.06318 -0.104402,0.08667 -0.132292,0.149849 -0.115894,0.26255 -0.150128,0.564878 -0.264583,0.824167 -0.02205,0.04995 -0.03128,0.11036 -0.06615,0.149849 -0.01559,0.01766 -0.05629,-0.02234 -0.06615,0 -0.02958,0.06701 0.04677,0.171793 0,0.224773 -0.01559,0.01766 -0.05056,-0.01766 -0.06615,0 -0.02183,0.02472 -0.03879,0.537419 -0.06615,0.599394 -0.02789,0.06318 -0.104403,0.08667 -0.132292,0.149849 -0.06669,0.151073 -0.01125,0.325185 -0.06615,0.449546 -0.06985,0.158248 -0.03441,0.227811 -0.06615,0.299697 -0.17754,0.402204 -0.212754,0.856601 -0.396875,1.273714 -0.01972,0.04468 0.01972,0.105172 0,0.149848 -0.08225,0.186333 -0.08746,0.396287 -0.132291,0.599395 -0.07985,0.361805 -0.03143,-0.0037 -0.132292,0.224773 -0.02958,0.06701 0.02092,0.153693 0,0.224773 -0.0099,0.03351 -0.0522,0.04333 -0.06615,0.07492 -0.09585,0.217136 -0.101178,0.528909 -0.198437,0.749243 -0.01394,0.03159 -0.05629,0.04142 -0.06615,0.07492 -0.02092,0.07108 0.02958,0.157758 0,0.224772 -0.05624,0.127401 -0.144791,0.25309 -0.198438,0.374622 -0.02646,0.05994 0.02646,0.164833 0,0.224773 -0.03281,0.07433 -0.109453,0.147165 -0.132291,0.224773 -0.04698,0.159647 0.06262,0.228763 -0.06615,0.374621 -0.01559,0.01766 -0.05056,-0.01766 -0.06615,0 -0.04677,0.05298 0.02092,0.153694 0,0.224773 -0.0099,0.03351 -0.05629,0.04142 -0.06615,0.07492 -0.02117,0.07195 0.03174,0.227788 0,0.299697 -0.05687,0.128839 -0.07542,0.245783 -0.132291,0.374622 -0.08687,0.196787 -0.05707,0.461315 -0.132292,0.674319 -0.02952,0.08361 -0.107152,0.139346 -0.132292,0.224773 -0.06368,0.216381 0.02835,0.235469 -0.06615,0.449545 -0.02631,0.0596 -0.05751,0.342051 -0.132291,0.299698 -0.886208,3.672595 -2.596495,4.645328 3.439584,4.120858 z"
             id="path902"
             sodipodi:nodetypes="csssscsssscccccccccccccsccccccccccssccscsccscscccccsscsscscccsssssscccsssscsssssssssssssssssssssssccsscsssscccssssscscsssscssccsscsccsscsssssccsccsscc" />
          <path
             style="fill:#000000;stroke-width:0.282669"
             id="path15999"
             d="m 105.74331,76.387306 c -0.13613,-0.549794 -0.14212,-1.107904 -0.28958,-1.65839 -0.0675,-0.251827 -0.17132,-0.488323 -0.2382,-0.740364 -0.75819,-2.856583 0.47499,1.357183 -0.44937,-1.736342 -0.60285,-2.564545 0.17451,0.638205 -0.56257,-2.053268 -0.10457,-0.381859 -0.16178,-0.781744 -0.27834,-1.158598 -0.12222,-0.395103 -0.30219,-0.761501 -0.43611,-1.151135 -0.14338,-0.41714 -0.26354,-0.845173 -0.3953,-1.267758 -0.15003,-0.432631 -0.30005,-0.86526 -0.45007,-1.297888 -0.10938,-0.46506 -0.19576,-0.938756 -0.32814,-1.395177 -0.13144,-0.45321 -0.31037,-0.884676 -0.46189,-1.328817 -0.27475,-0.805338 -0.56667,-1.702364 -0.83429,-2.512873 -0.12586,-0.381177 -0.26439,-0.75666 -0.37848,-1.143109 -0.10969,-0.371534 -0.19491,-0.752775 -0.29236,-1.129165 -0.27304,-1.019084 -0.803088,-1.879069 -1.119466,-2.87541 -0.08994,-0.283246 -0.123391,-0.591158 -0.227927,-0.867139 -0.466603,-0.888319 -0.277172,-0.435087 -0.581175,-1.351879 -0.07251,-0.522784 -0.389263,-0.912699 -0.549403,-1.387422 -0.03361,-0.09965 -0.04139,-0.209243 -0.06636,-0.312472 -0.03553,-0.146849 -0.0703,-0.244545 -0.115696,-0.38211 -0.165121,-0.316289 0.02925,0.08547 -0.06889,-0.204129 -0.0088,-0.02591 -0.03682,-0.0398 -0.04218,-0.06701 -0.0066,-0.03362 0.02347,-0.07342 0.0087,-0.103076 -0.07022,-0.140828 -0.107344,0.0755 -0.05627,-0.108239 -0.301208,-0.230284 -0.491349,-0.295851 -0.673235,0.04549 -0.03709,0.06961 -0.02595,0.165687 -0.0614,0.236506 -0.433981,0.867022 0.137032,-0.832624 -0.358681,0.862931 -0.11316,0.274889 -0.242893,0.540864 -0.33948,0.824662 -0.146906,0.431654 -0.255099,0.88082 -0.38979,1.318143 -0.164476,0.534029 -0.341109,1.062604 -0.507649,1.595718 -0.603215,1.930963 -1.195638,3.866425 -1.804373,5.79498 -0.182351,0.624233 -0.35758,1.251513 -0.547055,1.872698 -0.176768,0.579517 -0.374555,1.14964 -0.551556,1.729051 -0.311987,1.021271 -0.56874,2.066525 -0.897132,3.080404 -0.655507,2.023836 -0.317537,0.464813 -0.654285,2.404249 -0.122029,0.365897 -1.209833,4.621655 -1.304821,5.038963 -0.04401,0.193313 -0.03502,0.401874 -0.08884,0.591596 -0.04076,0.1437 -0.148289,0.250914 -0.190717,0.393925 -0.02772,0.397065 0.01563,0.226783 -0.09861,0.520823 0.07384,0.08077 0.147685,0.161533 0.221527,0.2423 -0.0083,0.02708 0.06402,0.02807 0.06402,0.02807 v 0 c 0,0 0.224301,-0.0041 0.336451,-0.0063 0.03741,-0.430912 -0.02704,-0.02419 0.172556,-0.505835 0.0562,-0.135604 0.09062,-0.282663 0.138268,-0.422875 0.329598,-0.969828 0.891037,-3.558494 1.123496,-4.733684 0.06164,-0.311613 0.133954,-0.620065 0.200931,-0.930098 0.718469,-2.357153 -0.05692,0.274144 0.637395,-2.399255 0.128098,-0.493208 0.286304,-0.974735 0.415908,-1.467431 0.142165,-0.540457 0.254804,-1.091687 0.399206,-1.631295 0.376764,-1.407867 0.650715,-2.201822 1.097108,-3.595135 0.584445,-2.01164 0.547742,-1.965024 1.214584,-3.94114 0.205464,-0.608868 0.432796,-1.20701 0.635525,-1.817189 0.174383,-0.524855 0.316424,-1.064736 0.4956,-1.587271 0.204174,-0.595437 0.565456,-1.468003 0.815436,-2.083421 0.06665,-0.203499 0.12803,-0.409582 0.199952,-0.610492 0.0303,-0.08465 0.06981,-0.164165 0.106368,-0.245197 0.01414,-0.03135 0.0733,-0.07856 0.04567,-0.09181 -0.03339,-0.01601 -0.05506,0.07734 -0.09056,0.07029 -0.583302,-0.116053 -0.522355,-0.122636 -0.341968,-0.199405 -0.04696,0.100858 0.04301,0.09272 0.05288,0.186368 0.0044,0.04131 -0.03939,0.08606 -0.022,0.122134 0.02385,0.04943 0.08204,0.05824 0.12306,0.08737 0.157315,0.418001 -0.04646,-0.15778 0.09587,0.399167 0.02623,0.102642 0.07393,0.19607 0.101522,0.298195 0.03579,0.132444 0.04705,0.273838 0.08822,0.404025 0.05835,0.184546 0.362799,0.866478 0.423933,1.006362 0.09056,0.232403 0.455962,1.16704 0.53184,1.375155 0.100266,0.275016 0.184384,0.558372 0.288828,0.831155 0.114186,0.298223 0.253352,0.582179 0.366682,0.880873 0.249093,0.656508 0.436413,1.345094 0.704188,1.992134 0.408595,1.503585 0.176018,0.754569 0.701395,2.245418 0.12125,0.414798 0.17218,0.85683 0.30258,1.267637 0.13764,0.433648 0.35735,0.82523 0.49883,1.257107 0.29297,0.894306 0.41505,1.86157 0.78045,2.726178 0.1596,0.42785 0.34937,0.841344 0.47878,1.283552 1.10783,3.785627 -0.54166,-1.016926 0.66821,2.485045 0.12755,0.369232 0.26178,0.735151 0.39771,1.10008 0.12685,0.340569 0.30205,0.658778 0.39057,1.016286 0.0819,0.330553 0.0766,0.683398 0.11488,1.025099 0.58143,1.454029 0.16551,0.24605 0.4942,1.681439 0.18207,0.795128 0.22984,0.614005 0.33238,1.392118 0.0241,0.182577 -0.001,0.372756 0.0328,0.553107 0.0267,0.142317 0.0974,0.267412 0.14607,0.401115 0.0497,0.296055 0.74944,0.127747 0.69971,-0.168306 z"
             sodipodi:nodetypes="ccccscscccssscsccsccccccsccssscsscccccccsscccsccsccssscssscccccssccssscccscccscccccccc" />
        </g>
      </g>
      <path
         style="fill:#62a0ea;stroke-width:0.278688"
         id="path16543"
         d="m 100.39176,64.248385 c -0.0268,0.02999 -0.0638,0.05295 -0.0804,0.08995 -0.0204,0.04571 -0.0168,0.09902 -0.0258,0.14843 -0.0104,0.0566 -0.0202,0.113292 -0.0321,0.169563 -0.0131,0.06208 -0.007,0.13349 -0.0428,0.185401 -0.222524,0.323913 -0.222753,-0.05404 -0.14523,0.375779 -0.19336,0.210071 -0.139454,0.50689 -0.232939,0.759 -0.02443,0.0658 -0.06487,0.124064 -0.09741,0.186097 -0.0209,0.06693 -0.04169,0.133875 -0.06259,0.200812 -0.0073,0.07031 -0.0042,0.142843 -0.02235,0.210929 -0.03909,0.142869 -0.141422,0.262714 -0.194361,0.398339 -0.02817,0.07213 -0.03597,0.151229 -0.06113,0.224517 -0.122137,0.293857 -0.06654,0.145109 -0.166821,0.446186 -0.01882,0.07715 -0.02724,0.157729 -0.05635,0.231445 -0.02901,0.07372 -0.08743,0.132735 -0.116253,0.206562 -0.03067,0.07876 -0.03857,0.165013 -0.06051,0.246797 -0.02568,0.09581 -0.05292,0.191229 -0.08244,0.285849 -0.168089,0.53757 -0.04803,0.07605 -0.180367,0.631879 -0.02381,0.111025 -0.02339,0.230593 -0.07132,0.33307 -0.05375,0.114912 -0.165407,0.192641 -0.226465,0.30364 -0.292939,0.53258 0.0021,0.136609 -0.133947,0.710028 -0.201087,0.399148 -0.130963,0.192132 -0.215527,0.619178 -0.13769,0.286487 -0.259016,0.577797 -0.369789,0.875994 -0.03628,0.0977 -0.08255,0.19191 -0.109911,0.29258 -0.13036,0.478527 0.07059,0.128227 -0.219915,0.528437 -0.0368,0.343747 -0.179493,0.658654 -0.295995,0.978614 -0.04689,0.12866 -0.101365,0.310477 -0.141973,0.441567 0.01809,0.540007 0.04429,-0.035 -0.120723,0.451767 -0.02558,0.0753 0.0062,0.16386 -0.02163,0.23829 -0.02786,0.0741 -0.09606,0.124477 -0.139488,0.190137 -0.13403,0.20289 -0.110597,0.18046 -0.188362,0.4074 -0.0031,0.0773 0.02027,0.161307 -0.01071,0.231787 -0.03202,0.0727 -0.11854,0.1049 -0.165458,0.16853 -0.165646,0.224407 -0.06259,0.178797 -0.175013,0.437007 -0.176365,0.404977 -0.123863,0.0107 -0.134155,0.483807 -0.17232,0.22385 -0.153669,0.14905 -0.215881,0.423077 -0.01757,0.0776 -0.0106,0.16181 -0.04044,0.23537 -0.03025,0.0748 -0.104453,0.12473 -0.135673,0.199117 -0.03046,0.0726 -0.02901,0.15517 -0.04543,0.23232 -0.01788,0.0838 -0.03836,0.16686 -0.0576,0.25028 -0.01518,0.101057 -0.06155,0.430637 -0.08827,0.528787 -0.04658,0.171317 -0.140226,0.350257 -0.194225,0.518507 -0.252133,0.785634 0.123457,-0.24362 -0.168796,0.534937 -0.02329,0.0911 -0.05094,0.181187 -0.06986,0.273377 -0.04117,0.20062 -0.0392,0.361337 -0.108445,0.556527 -0.03254,0.0916 -0.08369,0.17497 -0.126794,0.261787 -0.04377,0.0881 -0.109381,0.16728 -0.133854,0.26293 -0.02599,0.1016 -0.0094,0.20993 -0.01403,0.314897 -0.04772,0.0912 -0.09534,0.18245 -0.143023,0.27368 -0.04242,0.0957 -0.08026,0.19367 -0.127325,0.287077 -0.04876,0.0968 -0.120359,0.18157 -0.159594,0.28279 -0.03951,0.10202 -0.03285,0.219137 -0.07423,0.320407 -0.04034,0.099 -0.113611,0.18029 -0.167527,0.27227 -0.05229,0.0892 -0.100741,0.180777 -0.151039,0.271157 -0.02765,0.20341 -0.161518,0.367127 -0.214706,0.560247 -0.02526,0.0918 -0.01622,0.19077 -0.03836,0.2834 0.01352,0.191517 -0.168192,0.296467 -0.212242,0.459987 -0.02079,0.0772 8.21e-4,0.1602 10e-4,0.24029 0.02059,0.079 0.04107,0.15798 0.06165,0.23697 8.32e-4,-0.003 -0.0073,-0.005 -0.0083,-0.002 v 0 c 0.06643,-0.0508 0.132887,-0.1016 0.19933,-0.15241 0.06799,-0.59764 -0.06259,0.1662 0.199174,-0.4135 0.42147,-0.933454 -0.386007,0.43639 0.07725,-0.536987 0.04356,-0.0914 0.139031,-0.14674 0.194174,-0.23135 0.05427,-0.0832 0.08764,-0.178947 0.131493,-0.268417 0.08161,-0.22678 0.122407,-0.358507 0.228045,-0.576427 0.01975,-0.0408 0.291546,-0.534957 0.307327,-0.573957 0.04065,-0.10042 0.0525,-0.21101 0.08962,-0.312767 0.03608,-0.0986 0.08629,-0.19112 0.129373,-0.28668 0.0052,-0.0163 0.179556,-0.560047 0.186657,-0.577237 0.03847,-0.093 0.102924,-0.173827 0.136255,-0.268857 0.03264,-0.093 0.0315,-0.19563 0.05999,-0.29005 0.231122,-0.766084 -0.0021,0.24699 0.166404,-0.542297 0.260887,-0.509327 0.0237,-0.006 0.211224,-0.526437 0.03202,-0.0888 0.08442,-0.169477 0.111657,-0.259977 0.02682,-0.0892 0.03098,-0.18394 0.04928,-0.27537 0.08442,-0.422457 0.04242,-0.1 0.08369,-0.526587 0.0342,-0.0761 0.06186,-0.155637 0.102508,-0.228287 0.03795,-0.0678 0.115088,-0.11497 0.132336,-0.19111 0.01778,-0.0785 -0.04418,-0.15914 -0.03483,-0.239177 0.02849,-0.24373 0.327798,-0.34953 0.260221,-0.623397 0.02547,-0.0773 0.04221,-0.15817 0.07631,-0.23182 0.03472,-0.075 0.0891,-0.13893 0.128946,-0.211277 0.03909,-0.071 0.06737,-0.14783 0.10752,-0.21814 0.03909,-0.0685 0.104567,-0.12237 0.129799,-0.19741 0.02599,-0.0774 -5.51e-4,-0.165377 0.01892,-0.244727 0.01819,-0.0739 0.06165,-0.13883 0.09242,-0.20825 0.02474,-0.072 0.03691,-0.150017 0.07423,-0.216067 0.04034,-0.0713 0.133105,-0.10999 0.154948,-0.1893 0.02308,-0.0836 -0.05219,-0.17433 -0.0316,-0.25859 0.01965,-0.0806 0.115764,-0.122877 0.143876,-0.200797 0.05562,-0.15403 -0.01934,-0.3372 0.0394,-0.491127 0.275702,-0.399647 0.03847,-8.4e-4 0.191616,-0.430447 0.02661,-0.0747 0.08203,-0.13683 0.105752,-0.21258 0.02433,-0.0776 0.01497,-0.16326 0.0366,-0.24174 0.02214,-0.0803 0.06238,-0.154067 0.09357,-0.231107 0.0209,-0.0847 0.04169,-0.16955 0.06259,-0.25432 0.153035,-0.344737 0.08847,-0.164887 0.19121,-0.540447 0.04221,-0.0985 0.122521,-0.176807 0.162568,-0.276217 0.04107,-0.10191 0.04595,-0.21572 0.07808,-0.320957 0.09929,-0.32585 0.102509,-0.28842 0.283645,-0.568577 0.136619,-0.41123 0.07361,-0.20036 0.187759,-0.632972 0.03545,-0.11344 0.0944,-0.219174 0.120733,-0.335207 0.02724,-0.120269 0.0062,-0.249406 0.03878,-0.368299 0.06654,-0.243508 0.213417,-0.415932 0.353207,-0.614808 0.254764,-1.078978 -0.121107,0.419679 0.211151,-0.618422 0.186002,-0.58112 -0.0499,-0.03318 0.07704,-0.567029 0.01809,-0.07599 0.06966,-0.139872 0.09326,-0.214243 0.02308,-0.0729 0.03077,-0.15004 0.04616,-0.225059 0.06508,-0.319331 -0.0073,-0.177197 0.229583,-0.419442 0.02921,-0.08204 -0.03452,-0.174378 -0.02308,-0.260929 0.0104,-0.07512 0.0604,-0.138523 0.08504,-0.209988 0.221625,-0.643674 -0.101676,0.202757 0.136855,-0.408199 0.0169,-0.06798 0.0406,-0.134562 0.051,-0.203927 0.0108,-0.07202 -0.007,-0.148258 0.0122,-0.218229 0.0189,-0.06663 0.0764,-0.115931 0.10074,-0.18068 0.0237,-0.06312 0.0241,-0.133173 0.0415,-0.198402 0.0265,-0.0991 0.0957,-0.279234 0.13091,-0.374338 -10e-4,-0.07049 -0.0237,-0.144238 -0.003,-0.211461 0.0201,-0.06518 0.0864,-0.105169 0.11877,-0.164878 0.097,-0.178769 0.0481,-0.157674 0.0832,-0.345569 0.0518,-0.277749 0.0385,-0.0065 0.0411,-0.256213 0.0322,-0.09483 -0.22911,-0.188291 -0.26129,-0.09346 z" />
    </g>
  </g>
</svg>
