<?xml version="1.0" encoding="UTF-8" standalone="no"?>
<!-- Created with Inkscape (http://www.inkscape.org/) -->

<svg
   width="25.777313mm"
   height="13.165543mm"
   viewBox="0 0 25.777313 13.165543"
   version="1.1"
   id="svg5"
   xmlns:inkscape="http://www.inkscape.org/namespaces/inkscape"
   xmlns:sodipodi="http://sodipodi.sourceforge.net/DTD/sodipodi-0.dtd"
   xmlns="http://www.w3.org/2000/svg"
   xmlns:svg="http://www.w3.org/2000/svg">
  <sodipodi:namedview
     id="namedview7"
     pagecolor="#ffffff"
     bordercolor="#000000"
     borderopacity="0.25"
     inkscape:showpageshadow="2"
     inkscape:pageopacity="0.0"
     inkscape:pagecheckerboard="0"
     inkscape:deskcolor="#d1d1d1"
     inkscape:document-units="mm"
     showgrid="false"
     inkscape:zoom="11.313709"
     inkscape:cx="326.9485"
     inkscape:cy="229.01421"
     inkscape:window-width="1920"
     inkscape:window-height="1017"
     inkscape:window-x="1912"
     inkscape:window-y="-8"
     inkscape:window-maximized="1"
     inkscape:current-layer="g13744" />
  <defs
     id="defs2">
    <inkscape:path-effect
       effect="bspline"
       id="path-effect15496"
       is_visible="true"
       lpeversion="1"
       weight="33.333333"
       steps="2"
       helper_size="0"
       apply_no_weight="true"
       apply_with_weight="true"
       only_selected="false" />
  </defs>
  <g
     inkscape:label="Layer 1"
     inkscape:groupmode="layer"
     id="layer1"
     transform="translate(-176.47579,-64.32791)">
    <g
       id="g15583"
       transform="translate(159.51937,11.585906)">
      <g
         id="g15505"
         transform="matrix(0.84957628,0,0,1,4.7422892,12.501562)">
        <path
           style="fill:#3584e4;stroke-width:0.264583"
           d="m 15.527497,41.365979 c -0.06707,0.03271 -0.202299,0.09866 -0.202299,0.09866 0,0 0.133823,-0.06526 0.124361,0.06044 -0.0095,0.125703 -0.162457,0.440181 -0.223532,1.07032 -0.06107,0.630139 -0.02919,1.564131 0.0018,2.412284 0.03095,0.848154 0.06038,1.594306 0.09551,2.340573 0.03512,0.746268 0.07533,1.479814 0.06818,2.188062 -0.0072,0.708249 -0.06124,1.375211 -0.08296,1.883091 -0.02172,0.50788 -0.0104,0.836704 0.153743,1.037212 0.164141,0.200508 0.4732,0.263108 0.847949,0.306018 0.374749,0.04291 0.802247,0.06455 1.278725,0.03102 0.476479,-0.03353 0.989465,-0.121298 1.481485,-0.132247 0.49202,-0.01095 0.947907,0.05516 1.452654,0.06285 0.504747,0.0077 1.046472,-0.04337 1.799364,-0.06019 0.752892,-0.01682 1.700558,8.15e-4 2.335015,-0.0069 0.634457,-0.0078 0.935098,-0.04062 1.558291,-0.02477 0.623193,0.01584 1.556319,0.08015 2.288616,0.08317 0.732297,0.003 1.247126,-0.05513 1.746514,-0.09944 0.499389,-0.0443 0.9667,-0.07338 1.324514,-0.07847 0.357813,-0.0051 0.586514,0.01396 0.835115,0.0056 0.248601,-0.0084 0.505977,-0.04398 0.981157,-0.0151 0.47518,0.02887 1.154502,0.1214 1.658215,0.143144 0.503713,0.02174 0.815521,-0.02791 1.300216,-0.0035 0.484696,0.02442 1.12702,0.121937 1.544632,0.142079 0.417611,0.02014 0.591849,-0.03716 0.764239,-0.06527 0.172389,-0.02811 0.33027,-0.02494 0.673648,8.88e-4 0.343379,0.02583 0.861469,0.0736 1.469641,0.05653 0.608171,-0.01707 1.295601,-0.09884 1.837269,-0.266614 0.541669,-0.167775 0.932979,-0.420661 1.12113,-0.613405 0.18815,-0.192743 0.174011,-0.323851 0.181309,-0.578004 0.0073,-0.254153 0.03533,-0.609791 0.04619,-1.023323 0.01086,-0.413532 0.0037,-0.865604 0.0312,-1.39563 0.02746,-0.530026 0.08878,-1.121967 0.09963,-1.606155 0.01085,-0.484188 -0.029,-0.848065 -0.05081,-1.163274 -0.02181,-0.315209 -0.02476,-0.56911 -0.04297,-0.919301 -0.01821,-0.350191 -0.05081,-0.779342 -0.06746,-1.258986 -0.01666,-0.479643 -0.01666,-0.992143 -0.119189,-1.452453 -0.102532,-0.46031 -0.304419,-0.854179 -0.478963,-1.055656 -0.174544,-0.201478 -0.313544,-0.202681 -0.445919,-0.215826 -0.132375,-0.01314 -0.245595,-0.03683 -0.587917,-0.03687 -0.342322,-3.8e-5 -0.878182,0.02396 -1.310848,0.0591 -0.432665,0.03513 -0.740145,0.07997 -1.026781,0.08205 -0.286636,0.0021 -0.541246,-0.0385 -0.845791,-0.05733 -0.304544,-0.01883 -0.642443,-0.01486 -1.01614,-0.03867 -0.373697,-0.02381 -0.766826,-0.07451 -1.338889,-0.06822 -0.572063,0.0063 -1.303029,0.0696 -1.988372,0.106742 -0.685343,0.03714 -1.309847,0.04719 -1.758944,0.06525 -0.449097,0.01806 -0.712125,0.04366 -1.139165,0.0184 -0.42704,-0.02526 -1.000955,-0.100369 -1.568209,-0.141642 -0.567254,-0.04127 -1.110472,-0.04729 -1.595235,-0.09318 -0.484764,-0.04589 -0.897385,-0.130327 -1.254608,-0.173383 -0.357224,-0.04306 -0.649824,-0.04317 -0.9708,-0.04784 -0.320977,-0.0047 -0.679777,-0.01411 -1.044078,-0.04162 -0.364301,-0.02751 -0.747547,-0.07406 -1.289282,-0.03003 -0.541734,0.04403 -1.247637,0.178472 -1.733215,0.224797 -0.485578,0.04632 -0.745596,0.0048 -0.981807,-3.86e-4 -0.236212,-0.0052 -0.436447,0.02618 -0.816229,0.02253 -0.379782,-0.0037 -0.920108,-0.04234 -1.226584,-0.04969 -0.306476,-0.0074 -0.366819,0.01672 -0.461416,0.03675 -0.0946,0.02003 -0.21378,0.03406 -0.458775,0.04518 -0.244996,0.01112 -0.594885,0.01823 -0.895231,0.02701 -0.300347,0.0088 -0.535707,0.01882 -0.856233,0.01832 -0.320526,-4.99e-4 -0.713535,-0.01154 -0.920622,0.01234 -0.207086,0.02388 -0.220592,0.08246 -0.227263,0.1114 -0.0067,0.02893 -0.0067,0.02893 -0.07374,0.06164 z"
           id="path15494"
           inkscape:path-effect="#path-effect15496"
           inkscape:original-d="m 15.594567,41.333269 c -0.133984,0.06574 -0.269214,0.131689 -0.405699,0.197858 0.136485,-0.06617 0.270308,-0.131434 0.405699,-0.197858 -0.154152,0.317666 -0.307147,0.632144 -0.461806,0.949235 0.03245,0.943023 0.06433,1.877015 0.09626,2.819861 0.02997,0.75346 0.0594,1.499612 0.08883,2.252022 0.04082,0.740121 0.08103,1.473667 0.121344,2.21367 -0.05458,0.676531 -0.108669,1.343493 -0.164004,2.022282 0.01186,0.336939 0.02318,0.665763 0.03453,1.002644 0.316639,0.06435 0.625699,0.126947 0.940872,0.190574 0.434353,0.02224 0.861851,0.04388 1.294778,0.06555 0.520094,-0.08868 1.033081,-0.176444 1.553734,-0.265835 0.463302,0.06742 0.91919,0.133528 1.381096,0.200287 0.547647,-0.05132 1.089372,-0.102378 1.635736,-0.15416 0.959388,0.01811 1.907054,0.03575 2.870091,0.05341 0.305914,-0.03314 0.606554,-0.06601 0.910662,-0.09954 0.94223,0.06518 1.875356,0.129483 2.818299,0.194217 0.521701,-0.05864 1.03653,-0.116799 1.558049,-0.176009 0.477242,-0.02941 0.944554,-0.05848 1.424258,-0.08861 0.235885,0.0199 0.464585,0.03896 0.69918,0.05826 0.262669,-0.03602 0.520045,-0.07162 0.781182,-0.108032 0.689152,0.09409 1.368473,0.186619 2.058696,0.2804 0.317281,-0.05022 0.62909,-0.09987 0.945187,-0.150516 0.653212,0.0994 1.295537,0.196919 1.9508,0.296179 0.180097,-0.05888 0.354336,-0.116183 0.535166,-0.176008 0.16384,0.0035 0.32172,0.0067 0.48338,0.0097 0.52508,0.04865 1.04317,0.09642 1.56669,0.144449 0.69288,-0.08212 1.38031,-0.163886 2.07164,-0.246414 0.39217,-0.253007 0.78348,-0.505894 1.17393,-0.758659 -0.0141,-0.133055 -0.0282,-0.264167 -0.0432,-0.400571 0.0296,-0.371848 0.0576,-0.727489 0.0863,-1.094896 -0.007,-0.459681 -0.0141,-0.911753 -0.0216,-1.371655 0.0625,-0.600111 0.12378,-1.192056 0.18559,-1.79165 -0.0402,-0.368834 -0.08,-0.732717 -0.12085,-1.103392 -0.003,-0.259716 -0.006,-0.513617 -0.009,-0.774441 -0.0331,-0.43958 -0.0657,-0.868731 -0.0993,-1.307319 2.7e-4,-0.520677 2.7e-4,-1.033177 0,-1.553734 -0.20496,-0.400116 -0.40685,-0.793983 -0.61286,-1.195647 -0.14318,-9.77e-4 -0.28218,-0.0022 -0.42728,-0.0037 -0.11969,-0.02483 -0.23291,-0.04852 -0.3539,-0.07404 -0.5636,0.02552 -1.09946,0.04952 -1.653,0.07404 -0.31176,0.04577 -0.61924,0.09061 -0.93224,0.135953 -0.26035,-0.04127 -0.51496,-0.08185 -0.77687,-0.123814 -0.34714,0.0044 -0.68504,0.0083 -1.031497,0.01214 -0.40097,-0.05147 -0.794098,-0.102167 -1.195512,-0.154159 -0.742658,0.06462 -1.473624,0.127937 -2.21407,0.191788 -0.630261,0.01041 -1.254765,0.02046 -1.886059,0.03035 -0.266876,0.02626 -0.529904,0.05185 -0.798446,0.07769 -0.585596,-0.07641 -1.159511,-0.151526 -1.743636,-0.228206 -0.550356,-0.0058 -1.093574,-0.01184 -1.644367,-0.0182 -0.418773,-0.08548 -0.831393,-0.169919 -1.251619,-0.256122 -0.29418,1.52e-4 -0.58678,4e-5 -0.877539,-3.35e-4 -0.3512,-0.009 -0.710001,-0.01841 -1.06172,-0.02792 -0.376904,-0.04554 -0.76015,-0.09209 -1.139404,-0.13838 -0.704129,0.134422 -1.410032,0.268867 -2.117711,0.403335 -0.263571,-0.0419 -0.523587,-0.08347 -0.789816,-0.12624 -0.206112,0.03256 -0.406349,0.06388 -0.61286,0.09589 -0.553116,-0.03936 -1.093442,-0.07805 -1.644369,-0.117742 -0.06188,0.02506 -0.122224,0.04913 -0.185584,0.07404 -0.125927,0.01512 -0.24511,0.02915 -0.371171,0.0437 -0.363958,0.0077 -0.713848,0.01478 -1.074666,0.02185 -0.239868,0.0105 -0.475228,0.02054 -0.715739,0.03052 -0.40056,-0.011 -0.793569,-0.02204 -1.194132,-0.03355 -0.0133,0.05908 -0.0268,0.117668 -0.04045,0.175467 z"
           sodipodi:nodetypes="cccccccccccccccccccccccccccccccccccccccccccccccccccccccccccccccc" />
        <g
           id="g15488"
           transform="translate(-61.515625,-11.377083)">
          <g
             id="g13411"
             transform="matrix(1,0,0,0.8431985,1.5768713,7.2516563)">
            <path
               style="fill:#000000;stroke-width:0.264583"
               id="path13368"
               d="m 74.62191,61.034749 c 0.02093,0.0902 0.0551,0.178322 0.06278,0.270598 0.01156,0.139043 -0.0064,0.279013 -0.0055,0.418533 0.0011,0.173649 0.0076,0.347221 0.01146,0.52083 -0.009,0.22474 -0.02638,0.449302 -0.02696,0.674222 -5.29e-4,0.250346 0.01963,0.500359 0.02323,0.750681 0.0035,0.247396 -0.0013,0.494845 -0.0019,0.742267 -0.0368,1.412891 0.02127,-0.01198 -0.08626,1.25054 -0.01315,0.154279 -0.01416,0.309356 -0.01976,0.464093 -0.0043,0.119663 0.01251,0.241485 -0.01003,0.359084 -0.117306,0.611857 -0.121106,-0.04148 -0.09872,0.437822 -0.09442,0.417846 0.005,-0.09652 -0.01169,0.19404 -0.0029,0.04966 -0.06266,0.046 -0.0934,0.02979 -0.0088,-0.0047 0.01699,-0.03192 0.0199,-0.02238 0.05459,0.178395 0.09276,0.361408 0.139144,0.542113 0.02278,0.01193 0.05014,0.01762 0.06836,0.03576 0.02744,0.02734 0.03648,0.06994 0.06454,0.09664 0.197657,0.188082 0.496094,0.172299 0.745688,0.20298 0.324501,0.06528 0.643269,-0.06662 0.963803,-0.07157 0.338963,-0.0052 0.568254,0.09527 0.913472,0.05598 0.182978,-0.02082 0.35719,-0.08987 0.535786,-0.134806 0.195168,0.05543 0.383424,0.14822 0.585505,0.166286 0.208163,0.0186 0.415324,-0.05412 0.624279,-0.05814 0.229311,-0.0044 0.457999,0.03875 0.687279,0.03292 0.2491,-0.0063 0.495152,-0.0666 0.744318,-0.06934 0.121023,-0.0013 1.58039,0.112657 1.658217,0.118583 3.501195,-0.0676 -1.739466,0.01884 1.873949,0.0098 0.33946,-7.94e-4 0.67881,-0.01593 1.017868,-0.03248 0.346985,-0.01693 0.692579,-0.06776 1.039976,-0.06797 0.355783,-2.12e-4 0.710171,0.04448 1.065258,0.06672 0.359069,-0.0049 0.718137,-0.0097 1.077206,-0.01461 0.372965,-0.0213 0.745929,-0.0426 1.118894,-0.0639 0.386252,0.02268 0.772398,0.08876 1.158758,0.06799 0.387591,-0.02082 0.760857,-0.17244 1.148514,-0.191985 0.375891,-0.01894 0.750123,0.07229 1.126458,0.07728 0.595797,0.0079 1.521606,-0.08454 2.119554,-0.135186 0.322606,0.03157 0.644167,0.07677 0.967819,0.0947 0.862666,0.04779 0.918062,-0.01794 1.761509,-0.006 0.51681,-0.06149 1.01659,0.111258 1.527161,0.125336 0.227783,0.0063 0.454631,-0.03176 0.681948,-0.04763 0.208837,0.02988 0.415777,0.07998 0.626527,0.08964 0.19188,0.0088 0.38327,-0.04193 0.5752,-0.03455 0.17222,0.0066 0.3398,0.06005 0.51138,0.07634 0.15279,0.0145 0.30689,0.008 0.46016,0.0159 0.60568,0.03132 0.19709,0.04351 0.75867,0.0037 0.19475,-0.03867 0.33805,0.13885 0.51734,0.154143 0.061,0.0052 0.11744,-0.03466 0.17678,-0.04966 0.043,-0.01087 0.0959,2.65e-4 0.13012,-0.02789 0.16147,-0.132972 0.11168,-0.495054 0.11893,-0.618387 0,0 0.0257,-0.281736 0.0257,-0.281736 v 0 c -0.0175,-0.129371 -0.008,-0.405593 -0.14001,-0.524233 -0.14312,-0.128299 -0.40106,0.03235 -0.53176,0.05654 -0.0927,0.01717 -0.18837,0.0073 -0.28256,0.01093 -0.11359,-0.02437 -0.2251,-0.06237 -0.34077,-0.0731 -0.11481,-0.01066 -0.75266,0.01966 -0.84469,0.0204 -0.68048,0.0054 -0.35184,-0.015 -1.07142,-0.04763 -0.20966,-0.0095 -0.41965,-0.0098 -0.629476,-0.01471 -0.931836,-0.04122 -0.454748,-0.03742 -1.431298,-0.0063 -0.271762,-0.01072 -0.539684,-0.07451 -0.811443,-0.08533 -1.089266,-0.0434 -0.666718,0.07152 -1.791282,0.08702 -0.32794,0.0045 -0.655341,-0.02805 -0.983012,-0.04207 -0.347387,-0.01 -0.69469,-0.03663 -1.042156,-0.02999 -0.243018,0.0047 -1.986381,0.138366 -2.21519,0.14913 -0.768379,0.03614 -1.53884,0.01405 -2.307063,0.05332 -0.371589,0.019 -0.741657,0.06086 -1.112483,0.0913 -2.961683,-0.140248 0.806251,-0.0213 -2.126761,0.07611 -0.345596,0.01148 -0.690081,-0.04915 -1.03577,-0.0574 -0.33534,-0.008 -0.671126,0.02268 -1.006271,0.0087 -0.0492,-0.0021 -1.777399,-0.171599 -1.847829,-0.17848 -0.286893,-0.0035 -0.574063,-0.02355 -0.860684,-0.01053 -0.266475,0.01209 -0.528992,0.09318 -0.795639,0.08578 -0.253439,-0.007 -0.497517,-0.101992 -0.749647,-0.128667 -0.234428,-0.02479 -0.471593,-0.0089 -0.706755,-0.02543 -0.951134,-0.06665 -0.328594,-0.137353 -1.231667,0.05997 -0.186941,5.29e-4 -0.373882,7.93e-4 -0.560821,0.0013 -0.16574,-0.0026 -0.331462,-0.0075 -0.497221,-0.0077 -0.148603,-1.88e-4 -0.297955,-0.0089 -0.445759,0.0065 -0.12277,0.01278 -0.239123,0.06677 -0.36208,0.07758 -0.602906,0.05305 -0.02014,-0.111511 -0.510291,0.05258 -0.296289,-0.07268 -0.10051,0.02738 -0.133723,0.09189 0.04428,0.155239 0.06685,0.318384 0.132834,0.465714 0.0096,0.02135 0.05897,-0.01627 0.05796,-0.03966 -0.0013,-0.02837 -0.04881,-0.03319 -0.06217,-0.05825 -0.0096,-0.01804 0.0058,-0.04224 -0.0016,-0.06131 -0.01389,-0.03592 -0.06545,-0.06046 -0.0602,-0.0986 0.007,-0.05106 0.06065,-0.08335 0.09097,-0.125026 0.0067,-0.06535 0.0097,-0.131207 0.02024,-0.196043 0.01495,-0.09154 0.0511,-0.179895 0.05631,-0.272502 0.01233,-0.219218 -0.06448,-0.646412 -0.0572,-0.845945 0.01558,-0.427294 0.163364,-0.843761 0.135228,-1.27558 -0.02643,-0.25274 -0.08789,-0.504245 -0.0793,-0.758219 0.07143,-2.112634 0.214196,0.505235 0.147743,-1.468323 -0.03758,-1.116264 -0.0656,-0.01437 -0.114985,-0.977048 -0.0055,-0.106334 0.01161,-0.212627 0.01744,-0.318942 0,0 -0.956969,0.115165 -0.956969,0.115165 z" />
            <path
               style="fill:#000000;stroke-width:0.391909"
               id="path13406"
               d="m 103.43385,54.287573 c 0.0681,0.941298 -0.0303,-0.621031 -0.017,0.683045 0.002,0.189017 0.0453,0.368834 0.0466,0.557872 0.001,0.203388 -0.0425,0.401079 -0.0386,0.60431 0.0384,2.016777 0.11455,-0.845687 0.0384,1.233244 0.0471,0.187065 0.13457,0.348014 0.14126,0.561212 0.006,0.203346 -0.0824,0.368411 -0.10594,0.565565 -0.0204,0.170478 -0.0167,0.350568 -0.0245,0.525965 -0.008,0.172256 -0.0308,0.344956 -0.0221,0.516985 0.0968,0.675557 0.072,0.337803 0.0807,1.010884 -0.0247,0.146474 -0.0495,0.292954 -0.0742,0.439429 -0.007,0.140508 -0.004,0.28571 -0.022,0.421508 -0.0184,0.138555 -0.0877,0.245904 -0.0855,0.390121 0.002,0.155208 0.0934,0.258535 0.0978,0.413531 0.004,0.130963 -0.0513,0.237064 -0.0757,0.356922 -0.0227,0.111725 -0.0436,0.225151 -0.0654,0.337723 -0.16251,1.224401 0.051,-0.577544 -0.0109,0.671792 -0.006,0.117842 -0.0599,0.207075 -0.0659,0.324864 -0.006,0.112837 0.0245,0.221036 0.032,0.333381 0.007,0.100316 9e-5,0.204661 0.0109,0.303242 0.01,0.09069 0.0338,0.171246 0.0506,0.256858 -0.129,0.251843 -0.0947,0.360736 -0.0578,0.685845 0.008,0.06775 0.044,0.136163 0.03,0.198802 -0.0869,0.388213 -0.17565,-0.05831 -0.0561,0.354479 -0.10527,0.14902 0.0255,0.304368 -0.0854,0.313137 0.14919,0.1506 -0.006,0.02222 0.009,-0.110735 0.0104,-0.09254 0.0969,-0.06708 0.12375,-0.03895 0.01,0.01014 -0.0338,-0.03292 -0.0313,-0.01026 0.008,0.07203 0.0343,0.127781 0.0514,0.191694 -0.0106,0.0077 -0.0319,-0.0012 -0.0319,0.02321 -4e-5,0.03615 0.0221,0.05369 0.0318,0.08297 0.0144,0.04353 0.0252,0.09243 0.0402,0.134955 0.0521,0.147924 0.10724,0.290575 0.16087,0.435859 0,0 0.0757,0.292484 0.0757,0.292484 v 0 c 0.11468,0.201152 0.26075,0.471771 0.41798,0.526976 0.0128,0.0046 0.0135,-0.04854 0.0202,-0.07283 0.0279,-0.268938 -0.0213,0.04452 0.0916,-0.142394 0.0262,-0.04342 0.0339,-0.123392 0.0502,-0.185924 0.0198,-0.07587 0.046,-0.145904 0.0581,-0.229202 0.0104,-0.07195 -0.0207,-0.183423 0.008,-0.225801 0.0398,-0.05928 0.0963,-4.82e-4 0.1444,-5.81e-4 -0.30424,-0.397927 -0.0137,-0.197377 0.007,-0.368641 0.009,-0.07714 -0.0634,-0.09896 -0.0742,-0.175042 -0.011,-0.07723 0.0943,-0.115272 0.037,-0.228652 -0.0312,-0.208742 0.0114,-0.260225 0.0246,-0.469332 0.005,-0.08274 -0.005,-0.167186 -0.002,-0.250513 0.0246,-0.763512 0.0186,0.294824 0.0181,-0.517078 0.0222,-0.09965 0.0594,-0.189171 0.0665,-0.298981 0.006,-0.0999 -0.0247,-0.195577 -0.0284,-0.29614 -0.0149,-0.414183 0.0932,-0.807654 0.0407,-1.22121 0.0936,-0.780961 -0.003,0.108214 0.0547,-0.729777 0.009,-0.131512 0.0449,-0.256742 0.0398,-0.389268 -0.006,-0.151412 -0.0755,-0.276856 -0.0709,-0.42844 0.0101,-0.325838 0.20767,-0.54031 0.16207,-0.912957 -0.0454,-0.65118 -0.0509,-0.48322 -0.0274,-1.147852 0.007,-0.199243 0.0324,-0.396252 0.0297,-0.596007 -0.009,-0.61689 -0.15685,-1.194023 -0.05,-1.817323 -0.0772,-0.439382 -0.13908,-0.658274 -0.13205,-1.142693 0.003,-0.197662 0.0464,-0.385281 0.0506,-0.582833 0.004,-0.179935 -0.0215,-0.35746 -0.0267,-0.537245 -0.0214,-0.742875 0.0375,-0.269595 -0.0689,-0.888773 0,0 -0.99041,0.266882 -0.99041,0.266882 z" />
            <path
               style="fill:#000000;stroke-width:0.391909"
               id="path13720"
               d="m 74.594267,53.493823 c 0.0681,0.941298 -0.0303,-0.621031 -0.017,0.683045 0.002,0.189017 0.0453,0.368834 0.0466,0.557872 10e-4,0.203388 -0.0425,0.401079 -0.0386,0.60431 0.0384,2.016777 0.11455,-0.845687 0.0384,1.233244 0.0471,0.187065 0.13457,0.348014 0.14126,0.561212 0.006,0.203346 -0.0824,0.368411 -0.10594,0.565565 -0.0204,0.170478 -0.0167,0.350568 -0.0245,0.525965 -0.008,0.172256 -0.0308,0.344956 -0.0221,0.516985 0.0968,0.675557 0.072,0.337803 0.0807,1.010884 -0.0247,0.146474 -0.0495,0.292954 -0.0742,0.439429 -0.007,0.140508 -0.004,0.28571 -0.022,0.421508 -0.0184,0.138555 -0.0877,0.245904 -0.0855,0.390121 0.002,0.155208 0.0934,0.258535 0.0978,0.413531 0.004,0.130963 -0.0513,0.237064 -0.0757,0.356922 -0.0227,0.111725 -0.0436,0.225151 -0.0654,0.337723 -0.16251,1.224401 0.051,-0.577544 -0.0109,0.671792 -0.006,0.117842 -0.0599,0.207075 -0.0659,0.324864 -0.006,0.112837 0.0245,0.221036 0.032,0.333381 0.007,0.100316 9e-5,0.204661 0.0109,0.303242 0.01,0.09069 0.0338,0.171246 0.0506,0.256858 -0.129,0.251843 -0.0947,0.360736 -0.0578,0.685845 0.008,0.06775 0.044,0.136163 0.03,0.198802 -0.0869,0.388213 -0.17565,-0.05831 -0.0561,0.354479 -0.10527,0.14902 0.0255,0.304368 -0.0854,0.313137 0.14919,0.1506 -0.006,0.02222 0.009,-0.110735 0.0104,-0.09254 0.0969,-0.06708 0.12375,-0.03895 0.01,0.01014 -0.0338,-0.03292 -0.0313,-0.01026 0.008,0.07203 0.0343,0.127781 0.0514,0.191694 -0.0106,0.0077 -0.0319,-0.0012 -0.0319,0.02321 -4e-5,0.03615 0.0221,0.05369 0.0318,0.08297 0.0144,0.04353 0.0252,0.09243 0.0402,0.134955 0.0521,0.147924 0.10724,0.290575 0.16087,0.435859 0,0 0.0757,0.292484 0.0757,0.292484 v 0 c 0.11468,0.201152 0.26075,0.471771 0.41798,0.526976 0.0128,0.0046 0.0135,-0.04854 0.0202,-0.07283 0.0279,-0.268938 -0.0213,0.04452 0.0916,-0.142394 0.0262,-0.04342 0.0339,-0.123392 0.0502,-0.185924 0.0198,-0.07587 0.046,-0.145904 0.0581,-0.229202 0.0104,-0.07195 -0.0207,-0.183423 0.008,-0.225801 0.0398,-0.05928 0.0963,-4.82e-4 0.1444,-5.81e-4 -0.30424,-0.397927 -0.0137,-0.197377 0.007,-0.368641 0.009,-0.07714 -0.0634,-0.09896 -0.0742,-0.175042 -0.011,-0.07723 0.0943,-0.115272 0.037,-0.228652 -0.0312,-0.208742 0.0114,-0.260225 0.0246,-0.469332 0.005,-0.08274 -0.005,-0.167186 -0.002,-0.250513 0.0246,-0.763512 0.0186,0.294824 0.0181,-0.517078 0.0222,-0.09965 0.0594,-0.189171 0.0665,-0.298981 0.006,-0.0999 -0.0247,-0.195577 -0.0284,-0.29614 -0.0149,-0.414183 0.0932,-0.807654 0.0407,-1.22121 0.0936,-0.780961 -0.003,0.108214 0.0547,-0.729777 0.009,-0.131512 0.0449,-0.256742 0.0398,-0.389268 -0.006,-0.151412 -0.0755,-0.276856 -0.0709,-0.42844 0.0101,-0.325838 0.20767,-0.54031 0.16207,-0.912957 -0.0454,-0.65118 -0.0509,-0.48322 -0.0274,-1.147852 0.007,-0.199243 0.0324,-0.396252 0.0297,-0.596007 -0.009,-0.61689 -0.15685,-1.194023 -0.05,-1.817323 -0.0772,-0.439382 -0.13908,-0.658274 -0.13205,-1.142693 0.003,-0.197662 0.0464,-0.385281 0.0506,-0.582833 0.004,-0.179935 -0.0215,-0.35746 -0.0267,-0.537245 -0.0214,-0.742875 0.0375,-0.269595 -0.0689,-0.888773 0,0 -0.99041,0.266882 -0.99041,0.266882 z" />
          </g>
          <path
             style="fill:#000000;stroke-width:0.264583"
             id="path15481"
             d="m 76.360448,52.322216 c 0.205039,0.200583 -0.0217,0.01109 0.222977,0.124915 0.04449,0.02069 0.0773,0.06133 0.120566,0.08448 0.09434,0.05045 0.208661,0.07317 0.307877,0.109199 0.06441,0.02339 0.127108,0.05128 0.190664,0.07693 0.07533,-0.0085 0.150183,-0.02447 0.225983,-0.02561 0.361119,-0.0055 0.08499,0.04734 0.45866,0.03197 0.08389,-0.0034 0.165802,-0.0297 0.24969,-0.03314 0.08886,-0.0037 0.177695,0.008 0.266542,0.01199 0.09356,-0.0071 0.187126,-0.01426 0.280691,-0.02138 0.09053,-0.01656 0.179559,-0.04949 0.271592,-0.04966 0.0879,-1.69e-4 0.171678,0.04023 0.259173,0.04864 0.05735,0.0055 0.392482,-0.0059 0.452313,-0.01111 0.07753,-0.0068 0.153876,-0.03583 0.231494,-0.03022 0.07671,0.0055 0.147974,0.04198 0.221962,0.06298 0.284115,-0.136565 0.519964,0.09805 0.800092,0.09152 0.108736,-0.0026 0.20923,-0.07956 0.317841,-0.07379 1.210503,0.06426 -0.578596,0.211616 0.723847,0.06607 0.264121,0.02307 0.527109,-0.03566 0.7907,-0.02733 0.149497,0.0047 0.29714,0.05794 0.446286,0.04665 0.154852,-0.01172 0.299661,-0.08236 0.451569,-0.114628 0.412491,-0.08762 0.486008,-0.07921 0.907741,-0.111948 0.156644,-0.0176 0.313287,-0.03519 0.469934,-0.05278 0.15336,0.0087 0.307322,0.04229 0.460084,0.02619 0.762669,-0.08044 0.132585,-0.18896 0.900401,-0.156755 0.946661,0.03971 -0.05634,0.14533 0.853853,0.01042 0.232719,0.02764 0.564314,0.07282 0.800317,0.07826 0.130132,0.003 0.260286,-0.01783 0.390321,-0.01193 0.127114,0.0058 0.251701,0.04193 0.378851,0.04683 0.933233,0.03594 -0.207787,-0.09538 0.728732,0.03101 0.121147,0.01497 0.242292,0.02996 0.363439,0.04493 0.126209,0.0067 0.25295,0.0067 0.378627,0.02008 0.130014,0.01384 0.257881,0.04357 0.387403,0.06144 0.129746,0.01791 0.260551,0.02757 0.390244,0.04587 0.135504,0.01913 0.268447,0.05983 0.405136,0.06638 0.143452,0.0069 0.286694,-0.0176 0.43004,-0.02638 0.145529,-0.01053 0.29169,-0.04878 0.436581,-0.03159 0.149736,0.01775 0.282289,0.11554 0.431864,0.134604 0.807627,0.102931 0.07428,-0.138081 0.892831,-0.09934 1.496803,0.07083 -0.606555,0.217535 0.889209,0.07586 0.326869,-0.08169 0.644231,0.08411 0.966734,0.0662 0.165272,-0.0092 0.318805,-0.102105 0.484114,-0.110553 0.158596,-0.0081 0.313761,0.05447 0.4724,0.06168 0.596948,-0.02598 0.301469,-0.02782 0.886447,0.0038 0.594587,-0.0327 0.243906,-0.03866 0.837322,0.03028 0.137861,0.01601 0.275632,0.05309 0.414088,0.04349 0.141621,-0.0098 0.272328,-0.08862 0.413758,-0.100904 0.109969,-0.0096 0.71831,0.06085 0.828689,0.07267 0.384483,-0.0024 0.768913,-0.05704 1.152403,-7.94e-4 0.121,0.01773 0.23564,0.08274 0.35791,0.08065 0.11914,-0.0021 0.22762,-0.07368 0.34527,-0.09264 0.10503,-0.01693 0.21255,-0.0096 0.31883,-0.01437 0.57952,0.197069 -0.006,0.0563 0.55897,0.02572 0.0858,-0.0047 0.16843,0.03815 0.25424,0.0425 0.0763,0.0039 0.15217,-0.01323 0.22838,-0.01797 0.0694,-0.0043 0.14024,0.0041 0.20852,-0.0093 0.0603,-0.01183 0.11488,-0.04362 0.17233,-0.06543 0.13441,0.07453 0.14534,0.105672 0.29504,0.103396 0.0437,-7.94e-4 0.17493,-0.04299 0.22438,-0.0285 0.15895,0.04659 0.0229,0.116284 0.16135,0.0072 0.02,0.01889 0.0329,0.06176 0.0599,0.05665 0.0652,-0.01233 0.0445,-0.13341 0.13676,-0.08894 0.14164,0.06826 -0.0128,0.267634 0.18638,0.07291 0.0264,-2.64e-4 0.0562,-0.01389 0.0793,-0.0011 0.0976,0.05456 1.3e-4,0.10192 0.12683,0.09164 0.0317,-0.0026 0.062,-0.04321 0.0907,-0.02948 0.0482,0.116382 0.007,0.07918 0.11485,0.120518 0.0562,0.05363 0.12518,-0.0011 0.18445,0.01609 0.0309,0.009 0.0504,0.04148 0.0802,0.0538 0.0242,0.01003 0.0515,0.01005 0.0777,0.01159 0.0219,0.0013 0.0496,-0.01794 0.0658,-0.0031 0.0205,0.01873 0.013,0.05404 0.0195,0.08105 0.13072,-0.02283 0.0553,0.03122 0.092,0.04066 0.007,0.0019 0.0734,-0.04674 0.1191,-0.03635 0.005,0.0095 0.005,0.02437 0.0148,0.02844 0.0159,0.0065 0.0358,-0.0081 0.0515,-0.0013 0.0274,0.01191 0.0224,0.07645 0.0521,0.07302 0.0664,-0.0077 0.0204,-0.08455 0.0521,-0.01614 0.087,-0.215453 0.0349,-0.07635 0.13979,-0.423127 0.0395,0.01056 0.0694,-0.101089 0.0299,-0.111657 v 0 c 0.0606,-0.261691 0.0409,-0.150969 0.0687,-0.330338 -0.0142,-0.01236 -0.0318,-0.05023 -0.0493,-0.05492 -0.0426,-0.01146 -0.0311,0.03874 -0.0457,-0.06231 -0.0127,0.0065 -0.0276,0.0099 -0.0381,0.01963 -0.0234,0.02156 -0.0339,0.08756 -0.0621,0.07261 -0.0616,-0.03277 0.0577,-0.173977 -0.0273,-0.148185 -0.141,0.04281 -0.0166,0.123698 -0.1243,0.02817 -0.0224,-0.01328 -0.044,-0.02787 -0.0671,-0.03987 -0.0154,-0.008 -0.0369,-0.0068 -0.0482,-0.02003 -0.0198,-0.02336 -0.009,-0.08376 -0.0395,-0.08304 -0.0414,0.0011 -0.0506,0.0724 -0.0897,0.08607 -0.0427,0.01492 -0.0811,-0.111974 -0.13494,-0.01572 -0.008,-0.04106 0.009,-0.09613 -0.0231,-0.12318 -0.0252,-0.02138 -0.0653,0.03147 -0.0967,0.02143 -0.0342,-0.0109 -0.0454,-0.05746 -0.0758,-0.07649 -0.0828,-0.05175 -0.22649,-0.0526 -0.31956,-0.07302 -0.0752,0.01125 -0.12808,0.02945 -0.20265,0.0028 -0.0292,-0.01045 -0.0483,-0.04468 -0.079,-0.04915 -0.0349,-0.0051 -0.0683,0.02656 -0.10334,0.02254 -0.19069,-0.02183 0.0228,-0.09525 -0.1715,-0.0026 -0.0284,-0.01005 -0.16095,-0.06506 -0.19941,-0.04925 -0.0475,0.01953 -0.0654,0.09562 -0.11654,0.100787 -0.0478,0.0048 -0.0781,-0.05714 -0.12194,-0.07666 -0.1588,-0.07065 -0.13849,-0.04465 -0.29776,0.01109 -0.57767,0.07192 0.29265,-0.01852 -0.38209,-0.01805 -0.15568,1.14e-4 -0.33807,0.07654 -0.47963,0.124659 -0.1851,0.0083 -0.35953,-0.158523 -0.5537,-0.04885 -0.54812,0.117973 -0.0849,0.06824 -0.65964,-0.02236 -0.65756,-0.103637 -0.0454,0.04591 -0.72424,0.03574 -1.330806,-0.01995 0.58889,-0.148376 -0.780467,-0.0326 -0.937041,0.161449 0.122475,0.03831 -0.82173,-0.04174 -0.137038,-0.01161 -0.273167,0.0517 -0.410387,0.04254 -0.142058,-0.0095 -0.273752,-0.08798 -0.415788,-0.09774 -0.282464,-0.01942 -0.563009,0.104254 -0.847272,0.05994 -0.145183,-0.0029 -0.290471,-0.0024 -0.435547,-0.0086 -0.151791,-0.0065 -0.303085,-0.03693 -0.454832,-0.02949 -0.159149,0.0078 -0.312941,0.06752 -0.472106,0.07497 -0.160489,0.0075 -0.320543,-0.02289 -0.481031,-0.03038 -0.52537,-0.0245 -0.427363,-0.01662 -0.953927,0.0099 -0.03597,-0.0028 -0.840867,-0.06543 -0.878818,-0.06727 -0.291124,-0.01408 -0.582692,-0.01707 -0.874118,-0.02183 -0.144407,-0.0024 -0.28929,0.0096 -0.433273,-0.0016 -0.142635,-0.01119 -0.28279,-0.04369 -0.424183,-0.06553 -0.978577,0.150262 0.11385,0.06014 -0.819285,-0.105563 -0.216723,-0.03848 -0.567161,0.09775 -0.784635,0.0627 -0.131011,-0.02111 -0.236223,-0.132778 -0.367279,-0.153606 -0.12419,-0.01974 -0.250378,0.02368 -0.375568,0.03554 -1.504603,-0.207648 0.760376,0.07081 -0.748644,-5.29e-4 -0.130392,-0.0062 -0.252756,-0.0676 -0.381878,-0.08679 -0.13449,-0.01998 -0.270801,-0.03101 -0.406765,-0.03042 -1.162571,0.0051 0.347654,0.08484 -0.838552,0.0057 -0.292341,0.01045 -0.584988,0.01423 -0.877041,0.03089 -0.155151,0.0089 -0.30939,0.0389 -0.464775,0.03653 -0.1598,-0.0024 -0.317653,-0.06612 -0.476747,-0.0509 -0.315032,0.03014 -0.5895,0.276111 -0.926865,0.205677 -0.222443,-0.0044 -0.691245,-0.02127 -0.916725,0.0038 -0.148477,0.01651 -0.291166,0.07164 -0.439883,0.0858 -0.140814,0.01339 -0.282933,-0.0074 -0.424331,-0.0035 -0.755812,0.02027 -0.01217,0.04369 -0.741892,0.007 -0.368826,0.0019 -0.317053,-0.0066 -0.674632,0.02582 -0.101822,0.0093 -0.202708,0.03344 -0.304948,0.03298 -0.286345,-0.0013 -0.282144,-0.05733 -0.557821,-0.103098 -0.08593,-0.01426 -0.173651,-0.014 -0.260474,-0.02098 -0.08019,0.0072 -0.160819,0.01056 -0.240552,0.02172 -0.08493,0.01191 -0.167814,0.05823 -0.252888,0.04738 -0.0885,-0.0113 -0.155546,-0.09689 -0.24369,-0.110722 -0.08124,-0.01275 -0.162343,0.02783 -0.24434,0.03415 -0.447071,0.03443 -0.07815,-0.04997 -0.52733,0.08451 -0.09375,-0.03196 -0.182208,-0.0954 -0.281255,-0.09588 -0.09222,-5.3e-4 -0.169211,0.07996 -0.260466,0.09327 -0.07901,0.01151 -0.158819,-0.01921 -0.238652,-0.0205 -0.06963,-0.0011 -0.139967,0.02572 -0.208491,0.01331 -0.06566,-0.01188 -0.115189,-0.07882 -0.181716,-0.08396 -0.05781,-0.0045 -0.109511,0.03816 -0.164264,0.05724 -0.0894,0.0038 -0.146021,0.02344 -0.222763,-0.03416 -0.03141,-0.02357 -0.03847,-0.07749 -0.07556,-0.09038 -0.06787,-0.0236 -0.305811,0.08681 -0.387279,0.04174 -0.173702,-0.09742 -0.449255,0.393878 -0.275553,0.4913 z" />
        </g>
      </g>
      <path
         style="fill:#99c1f1;stroke-width:0.264583"
         id="path15572"
         d="m 31.36629,54.106592 c 0.149773,0.05488 0.311108,0.04003 0.460669,-0.01021 0.03818,-0.01283 0.07258,-0.03583 0.111196,-0.04726 0.03827,-0.01132 0.07864,-0.01371 0.117962,-0.02056 0.01082,0.0027 0.218673,0.05889 0.240726,0.05142 0.04268,-0.01445 0.05596,-0.08033 0.09966,-0.09132 0.0342,-0.0086 0.0639,0.03015 0.09719,0.04181 0.106323,0.03725 0.08324,0.02733 0.192829,0.01037 0.12265,-0.0755 0.222893,0.05776 0.337854,0.05297 0.0267,-0.0011 0.04963,-0.01992 0.07495,-0.02846 0.02672,-0.009 0.05406,-0.01609 0.08109,-0.02413 0.04343,0.06564 0.123761,0.01249 0.175786,0.04303 0.03406,0.02 0.03896,0.07772 0.07627,0.09069 0.03012,0.01048 0.05871,-0.02596 0.08981,-0.03297 0.08221,-0.01855 0.114829,-0.0061 0.197649,0.0055 0.185116,-0.03524 0.05584,-0.02869 0.225203,0.0047 0.03702,0.0073 0.07848,-0.0019 0.112194,0.01497 0.04534,0.02278 0.06465,0.09712 0.115335,0.09933 0.133598,-0.112392 0.06136,-0.100118 0.209732,-0.06589 0.228026,-0.06198 -0.01156,-0.02302 0.219766,0.0266 0.03788,0.0081 0.08072,-0.02365 0.115972,-0.0076 0.04439,0.02022 0.0528,0.09665 0.100623,0.106223 0.04105,0.0082 0.06866,-0.04954 0.107765,-0.0645 0.03359,-0.01286 0.07098,-0.01167 0.106477,-0.01749 0.03115,0.0032 0.0623,0.0064 0.09345,0.0096 0.03158,0.0088 0.06222,0.02225 0.09475,0.02635 0.03438,0.0043 0.07002,-0.0083 0.103954,-0.0013 0.03939,0.0082 0.07409,0.03139 0.111596,0.04593 0.09527,0.03693 0.106704,0.03833 0.203581,0.0674 0.100875,-0.03846 0.197816,0.0091 0.29904,0.0058 0.03447,-0.0011 0.06795,-0.01461 0.102442,-0.01447 0.07674,2.64e-4 0.152606,0.01738 0.229256,0.02125 0.03458,0.02148 0.06501,0.05188 0.10373,0.06447 0.0342,0.01111 0.07204,5.29e-4 0.107796,0.0043 0.03134,0.0034 0.06159,0.01423 0.09296,0.01733 0.192405,0.01902 0.02669,-0.01056 0.230015,-0.0091 0.04059,2.65e-4 0.08067,0.009 0.121013,0.01357 0.327176,-0.157514 -0.09909,0.01344 0.255436,-0.01243 0.04549,-0.0033 0.07535,-0.06483 0.120952,-0.06397 0.05475,0.0011 0.09692,0.08579 0.149048,0.06905 0.131389,-0.18828 0.04418,-0.14492 0.242006,-0.163687 0.148204,0.01902 0.13761,0.04211 0.268613,-0.03251 0.03823,-0.02177 0.06489,-0.0624 0.105511,-0.07931 0.217442,-0.09052 0.03254,0.0458 0.241937,-0.0114 0.03371,-0.0092 0.05707,-0.04036 0.0856,-0.06054 0.03489,0.0013 0.07077,0.01236 0.104682,0.004 0.03291,-0.0081 0.05467,-0.04409 0.08779,-0.05127 0.03167,-0.0069 0.06418,0.01 0.09655,0.0113 0.03077,0.0013 0.06161,-0.006 0.09232,-0.0037 0.158591,0.01175 0.03449,0.04117 0.187486,-0.0177 0.02917,-0.0036 0.05859,-0.01595 0.08751,-0.01072 0.02878,0.0052 0.04863,0.03825 0.07778,0.04058 0.07558,0.006 0.0862,-0.07148 0.16892,-0.04056 0.09364,0.09338 0.04046,0.06377 0.154491,0.09733 0.07542,-0.007 0.116183,-0.0154 0.190772,-0.0053 0.03127,0.0042 0.06081,0.02035 0.09236,0.02072 0.03612,5.29e-4 0.07068,-0.01781 0.106804,-0.01836 0.256175,-0.004 -0.07413,0.04663 0.189572,-0.0028 0.234285,0.0019 -0.03493,-0.0173 0.182207,0.0534 0.0268,0.0087 0.05643,1.64e-4 0.08453,0.0024 0.02995,0.0024 0.05948,0.0088 0.08941,0.01125 0.124246,0.01019 0.05846,-0.0258 0.153535,0.0838 0.127929,-0.09858 0.153967,0.02011 0.306261,-0.02323 0.02564,-0.0073 0.04925,-0.04181 0.07365,-0.03109 0.02705,0.01188 0.02529,0.0534 0.03795,0.0801 0.04167,0.01863 0.09307,-0.04698 0.135496,-0.02876 0.01963,0.0084 0.01807,0.03973 0.03309,0.05494 0.0078,0.0079 0.02291,0.0037 0.03167,0.01061 0.01995,0.01564 0.03093,0.04025 0.04804,0.05896 -0.03281,-0.02466 -0.04623,-0.02326 0.01143,-0.07708 0.0081,-0.0076 -0.0013,0.02236 -0.0044,0.03304 -0.0068,0.02413 -0.03286,0.0471 -0.02503,0.07092 0.07144,0.217236 0.130384,-0.08643 0.0304,0.21149 0.02638,0.156969 0.0833,0.29319 0.06708,0.45522 -0.0054,0.05389 -0.02933,0.105432 -0.03059,0.159576 -7.94e-4,0.03228 0.0455,0.2764 0.05128,0.308046 -0.0213,0.102796 -0.04994,0.196753 -0.03458,0.303848 0.0079,0.05518 0.04018,0.104841 0.04916,0.159864 0.01273,0.07814 -0.0036,0.237336 -9.7e-5,0.31665 0.0021,0.04824 0.01101,0.09594 0.01651,0.143915 0.0565,0.089 -0.0016,0.186042 0.01466,0.277098 0.0079,0.04435 0.04382,0.08007 0.0537,0.124021 0.02612,0.11607 -0.01371,0.135549 -0.0096,0.249195 0.0016,0.04253 0.01439,0.08388 0.02156,0.125823 -0.0088,0.133728 0.0606,0.244033 0.03115,0.378428 -0.01013,0.04621 -0.04405,0.08575 -0.05056,0.132601 -0.0155,0.111649 0.04266,0.197869 0.08551,0.294553 -3.7e-5,0.06001 -7.4e-5,0.12002 -1.11e-4,0.180031 0.0053,0.06229 0.01476,0.124362 0.01577,0.186864 0.0011,0.06182 -0.0091,0.123404 -0.0098,0.18523 -0.0021,0.189978 0.01669,0.370694 0.05316,0.556556 -0.128871,0.221734 -0.119677,0.116057 -0.07269,0.345003 0.01064,0.05177 0.03572,0.101929 0.03448,0.154768 -0.0011,0.04982 -0.02968,0.09522 -0.04153,0.143624 -0.0399,0.162888 -0.03067,0.117563 -0.01474,0.28125 -0.02572,0.245327 -0.0061,0.02302 -0.01685,0.263694 -0.0019,0.04087 -0.01767,0.0826 -0.0084,0.122457 0.0098,0.04211 0.05867,0.07028 0.06314,0.113281 0.0037,0.03517 -0.03325,0.0633 -0.04116,0.09776 -0.0067,0.02928 -0.0013,0.06007 -0.0019,0.0901 0.0088,0.02739 0.02633,0.0534 0.02643,0.08217 1.06e-4,0.02653 -0.0172,0.0502 -0.02582,0.0753 -0.0095,0.02498 -0.02862,0.04816 -0.0286,0.07489 1.6e-5,0.03081 0.02376,0.05745 0.02868,0.08787 0.0089,0.05533 5.29e-4,0.112112 0.0027,0.168122 -0.0327,0.02371 -0.08727,0.03221 -0.09809,0.07112 -0.01027,0.03693 0.03718,0.0675 0.04946,0.103812 0.01188,0.03516 0.02625,0.07213 0.02252,0.109059 -0.0035,0.03431 -0.03543,0.06044 -0.04309,0.09406 -0.0702,0.308179 0.07903,-0.100967 -0.03967,0.198332 -0.124185,0.387038 0.04574,-0.214169 0.01241,0.192786 -0.0028,0.03447 -0.04479,0.05411 -0.05787,0.08613 -0.03753,0.09189 5.29e-4,0.07711 0.0088,0.164283 0.0027,0.0283 -0.0037,0.05673 -0.0055,0.0851 0.02647,0.02643 0.07744,0.04195 0.07942,0.07931 0.0021,0.04083 -0.05851,0.06154 -0.06985,0.100819 -0.01365,0.04727 0.03611,0.135202 0.04176,0.178451 0.0053,0.04062 -0.01394,0.11453 -0.02225,0.153374 0.03411,0.01783 0.08955,0.01717 0.102338,0.05348 0.0096,0.02714 -0.05505,0.03166 -0.06258,0.05942 -0.0048,0.01781 0.02753,0.02609 0.03475,0.04307 0.01675,0.03938 0.0046,0.103375 -0.009,0.140398 -0.0062,0.01789 -0.005,0.04057 -0.01876,0.05362 -0.02291,0.0218 -0.08741,0.0127 -0.08399,0.04415 0.0042,0.03841 0.07943,0.03018 0.09588,0.06514 0.0091,0.01929 -0.04903,0.02707 -0.04289,0.04749 0.03545,0.118007 0.144338,-0.0048 0.01624,0.102497 -0.02874,0.123769 0.03493,0.24525 0.02648,0.369993 -0.01289,0.190183 -0.03782,-0.01924 -0.0093,0.152588 -0.06486,0.04235 0.03398,0.07888 0.01778,0.113626 -0.01106,0.02373 -0.06826,0.01035 -0.06954,0.03649 -0.0013,0.02641 0.04157,0.03354 0.06557,0.04462 0.0559,0.02582 0.11517,0.04364 0.172754,0.06546 -0.0026,0.0126 0.03301,0.01998 0.03562,0.0074 v 0 c 0.0099,-0.005 0.150418,-0.07557 0.15023,-0.07737 -0.004,-0.03898 -0.07612,-0.03543 -0.09441,-0.07009 -0.02437,-0.04621 0.09437,-0.103283 0.07513,-0.137557 0.03931,-0.115895 0.04159,-0.225777 -0.0099,-0.340556 -0.01267,-0.02824 -0.04598,-0.04951 -0.04637,-0.08046 -2.64e-4,-0.02357 0.02977,-0.03657 0.04466,-0.05485 -0.09313,-0.09633 -0.02463,0.0045 0.01582,-0.08661 0.01217,-0.02742 -0.06294,-0.09667 -0.06331,-0.107662 -7.93e-4,-0.0204 0.03478,-0.02643 0.04037,-0.04607 0.0054,-0.01889 -0.0072,-0.03863 -0.01077,-0.05795 0.07217,-0.06157 0.06772,-0.03161 0.06694,-0.120774 -1.99e-4,-0.02265 0.0026,-0.04645 -0.0051,-0.06776 -0.0088,-0.02431 -0.05464,-0.04188 -0.04263,-0.06477 0.02172,-0.04136 0.09238,-0.03737 0.117062,-0.07703 0.0127,-0.0204 -0.01849,-0.04434 -0.02775,-0.06651 -0.02463,-0.194479 0.02606,0.06604 -0.09942,-0.145679 -0.01429,-0.02413 0.0043,-0.05678 -0.0021,-0.08409 -0.0066,-0.02837 -0.0349,-0.05051 -0.03603,-0.07962 -7.94e-4,-0.02328 0.05626,-0.128429 0.06638,-0.148108 -0.123717,-0.149225 -0.03245,0.008 -5.29e-4,-0.143722 0.0054,-0.02569 -0.03635,-0.04913 -0.02746,-0.07383 0.01154,-0.03199 0.07444,-0.03213 0.07782,-0.06596 0.0037,-0.03683 -0.04135,-0.06141 -0.06202,-0.09211 0.0076,-0.0282 0.01527,-0.0564 0.02291,-0.08461 0.0019,-0.03058 0.01087,-0.06151 0.0059,-0.09175 -0.0059,-0.03599 -0.05258,-0.06928 -0.03787,-0.102648 0.06537,-0.148336 0.156305,0.0024 0.167235,-0.170754 0.0026,-0.04047 -0.04078,-0.07561 -0.03675,-0.115959 0.0038,-0.03828 0.03882,-0.06642 0.05824,-0.09963 -0.0026,-0.03259 -0.0042,-0.06528 -0.0077,-0.09778 -0.0033,-0.0301 -0.019,-0.06031 -0.01278,-0.08994 0.0067,-0.03207 0.0407,-0.05336 0.04955,-0.08491 0.0079,-0.02819 -0.01606,-0.06264 -0.0011,-0.08781 0.02185,-0.03683 0.09575,-0.03733 0.100661,-0.07988 0.0046,-0.03939 -0.0543,-0.05779 -0.08145,-0.08668 -0.0059,-0.03011 -0.02273,-0.06004 -0.01775,-0.09032 0.01045,-0.06388 0.09855,-0.145037 0.09123,-0.214757 -0.0051,-0.04799 -0.06676,-0.07958 -0.06795,-0.127826 -0.0024,-0.09331 0.140383,-0.160319 0.06998,-0.271113 -0.09114,-0.281252 -0.03113,0.0114 0.02574,-0.280826 0.0092,-0.04739 -0.01466,-0.09591 -0.01384,-0.144182 7.94e-4,-0.05209 0.02442,-0.103341 0.01889,-0.155141 -0.0063,-0.05866 -0.04829,-0.10995 -0.05346,-0.16872 -0.0054,-0.0614 0.01497,-0.122364 0.02246,-0.183546 -0.02177,-0.06356 -0.06006,-0.123696 -0.06534,-0.190675 -0.0052,-0.06588 0.02691,-0.129564 0.03493,-0.195165 0.02993,-0.245059 -0.01442,-0.493143 0.02376,-0.738235 -0.03101,-0.05467 -0.08081,-0.102359 -0.09304,-0.164015 -0.0098,-0.04955 0.02873,-0.09786 0.03109,-0.148325 0.0021,-0.04572 -0.01677,-0.0904 -0.01778,-0.136163 -0.0011,-0.04546 0.02104,-0.09137 0.0118,-0.135895 -0.0096,-0.04621 -0.06113,-0.07832 -0.06597,-0.125262 -0.0049,-0.04776 0.02585,-0.09248 0.03877,-0.138726 -0.0085,-0.04292 -0.0076,-0.08883 -0.02545,-0.128775 -0.02005,-0.04483 -0.08266,-0.07081 -0.08573,-0.11982 -0.0034,-0.05417 0.06951,-0.09321 0.06898,-0.147484 -5.29e-4,-0.04633 -0.05648,-0.07535 -0.0716,-0.119152 -0.0065,-0.01871 -0.01953,-0.234323 -0.02066,-0.251222 -0.007,-0.04422 -0.01868,-0.08794 -0.02111,-0.132654 -0.0027,-0.04909 0.0149,-0.09903 0.0059,-0.147363 -0.0099,-0.05321 -0.0566,-0.09649 -0.06111,-0.150426 -0.0043,-0.05157 0.0378,-0.09933 0.03591,-0.15105 -0.0019,-0.05179 -0.05248,-0.09671 -0.04689,-0.148236 0.0059,-0.0545 0.05243,-0.09629 0.07864,-0.144436 -0.03114,-0.08729 -0.08674,-0.211918 -0.07756,-0.309507 0.0056,-0.05942 0.0482,-0.111291 0.05411,-0.170682 0.0056,-0.05574 -0.01855,-0.110811 -0.02051,-0.166791 -0.0108,-0.308877 0.04608,-0.03492 -0.03631,-0.334648 -0.01204,-0.05056 -0.01968,-0.102367 -0.03613,-0.151672 -0.01376,-0.0413 -0.05181,-0.07542 -0.05406,-0.118901 -0.0024,-0.04421 0.04107,-0.08193 0.04139,-0.126193 0.0011,-0.147424 -0.161613,-0.162039 -0.206349,-0.286499 -0.0217,0.01183 -0.04198,0.04428 -0.06506,0.03547 -0.02418,-0.0092 -0.01254,-0.05248 -0.02987,-0.07171 -0.06479,-0.07185 -0.181464,0.0058 -0.236177,-0.08174 -0.132115,-0.08937 0.02286,-0.0055 -0.148392,-0.02162 -0.119298,-0.01122 -0.02093,-0.07146 -0.161055,-0.04672 -0.177106,0.03128 -0.01119,0.08946 -0.182549,-0.0026 -0.308713,-0.0067 0.173138,0.02747 -0.165571,-0.102531 -0.03324,-0.01275 -0.0663,0.02882 -0.1017,0.03266 -0.03082,0.0033 -0.06144,-0.01476 -0.09229,-0.01162 -0.166952,0.01701 -0.02159,0.07815 -0.187751,-0.03288 -0.03063,-0.004 -0.0612,-0.0154 -0.0919,-0.01196 -0.03242,0.0036 -0.06058,0.03998 -0.09232,0.03247 -0.03707,-0.0088 -0.04846,-0.07746 -0.08646,-0.07474 -0.04387,0.0031 -0.05473,0.0937 -0.09834,0.08797 -0.314251,-0.04129 0.147881,-0.212037 -0.175062,-0.06478 -0.02817,-0.01706 -0.05633,-0.03411 -0.08449,-0.05117 -0.03151,0.01836 -0.05927,0.06445 -0.09452,0.0551 -0.04356,-0.01156 -0.0468,-0.08336 -0.0872,-0.103307 -0.103386,-0.05104 -0.208375,0.162333 -0.306207,0.04147 -0.07985,-0.0083 -0.158576,-0.0318 -0.238861,-0.031 -0.03969,2.65e-4 -0.07734,0.02281 -0.117023,0.02204 -0.03777,-7.94e-4 -0.07318,-0.03411 -0.110198,-0.02653 -0.03909,0.008 -0.06516,0.04605 -0.09774,0.06907 -0.04069,0.0082 -0.08139,0.01635 -0.122084,0.02453 -0.275307,-0.05571 -0.0057,-0.03917 -0.228952,0.06349 -0.04032,0.01855 -0.08962,0.0024 -0.132397,0.01415 -0.04138,0.01146 -0.07587,0.04115 -0.116615,0.05472 -0.06429,0.0214 -0.174715,0.02977 -0.241023,0.03698 -0.214929,0.154839 0.0078,0.02299 -0.227959,0.08418 -0.03943,0.01024 -0.06977,0.04868 -0.110324,0.05256 -0.04103,0.0039 -0.07875,-0.03389 -0.119837,-0.03052 -0.403246,0.03299 0.183181,0.082 -0.209534,0.03655 -0.07783,0.0146 -0.105392,0.02529 -0.18319,0.01976 -0.0523,-0.0037 -0.122219,-0.02633 -0.17403,-0.02782 -0.200972,-0.0058 -0.01479,0.03616 -0.212405,-0.02302 -0.431056,0.07961 0.175226,-0.01241 -0.226467,-0.01402 -0.249026,-0.0011 0.03171,0.06822 -0.215863,0.09785 -0.03523,0.0042 -0.176456,-0.0895 -0.19509,-0.10091 -0.03336,-0.01132 -0.06487,-0.0355 -0.100066,-0.034 -0.284636,0.01217 0.07456,0.08355 -0.212659,0.04792 -0.350977,-0.04353 0.146765,-0.01453 -0.191939,-0.07157 -0.0331,-0.0056 -0.06691,0.0054 -0.10037,0.0081 -0.03964,0.02125 -0.07503,0.05395 -0.118927,0.0637 -0.03609,0.008 -0.07332,-0.0097 -0.110157,-0.01281 -0.05994,-0.005 -0.180343,-0.01058 -0.237987,-0.0016 -0.04071,0.0064 -0.07807,0.04024 -0.118825,0.03413 -0.04275,-0.0064 -0.07343,-0.04564 -0.110148,-0.06846 -0.0569,0.03686 -0.233966,0.144691 -0.309206,0.113467 -0.04188,-0.01738 -0.05129,-0.0809 -0.09257,-0.09968 -0.01452,-0.0066 -0.207796,0.02658 -0.216426,0.02796 -0.03152,-0.01566 -0.06091,-0.03667 -0.09456,-0.04702 -0.03032,-0.0093 -0.06312,-0.0065 -0.09451,-0.01114 -0.03049,-0.0045 -0.06065,-0.02127 -0.09103,-0.01614 -0.03552,0.006 -0.06119,0.043 -0.09689,0.04785 -0.09021,0.01225 -0.124175,-0.04727 -0.180348,-0.100658 -0.180248,-0.05866 0.03843,-0.0098 -0.156628,0.03299 -0.02893,0.0063 -0.05795,-0.01252 -0.0864,-0.02074 -0.118107,-0.03415 -0.188426,-0.05655 -0.28553,0.0443 -0.375354,-0.0523 0.143896,0.0029 -0.201081,0.01953 -0.03294,0.0016 -0.06274,-0.0275 -0.09564,-0.02532 -0.03704,0.0024 -0.06779,0.03284 -0.104466,0.03855 -0.07781,0.01212 -0.158591,-0.02746 -0.236233,0.0016 -0.03978,0.0074 -0.07972,0.01405 -0.119343,0.02228 -0.03852,0.008 -0.07571,0.02569 -0.115049,0.02633 -0.04072,5.29e-4 -0.07936,-0.0218 -0.120073,-0.02252 -0.129648,-0.0024 -0.206962,0.08435 -0.332306,0.09084 -0.05533,0.0054 -0.04005,0.161906 0.01529,0.156504 z" />
    </g>
  </g>
</svg>
