<?xml version="1.0" encoding="UTF-8" standalone="no"?>
<!-- Created with Inkscape (http://www.inkscape.org/) -->

<svg
   width="31.377476mm"
   height="13.692219mm"
   viewBox="0 0 31.377476 13.692219"
   version="1.1"
   id="svg5"
   sodipodi:docname="waist.svg"
   inkscape:version="1.2.2 (732a01da63, 2022-12-09)"
   xmlns:inkscape="http://www.inkscape.org/namespaces/inkscape"
   xmlns:sodipodi="http://sodipodi.sourceforge.net/DTD/sodipodi-0.dtd"
   xmlns="http://www.w3.org/2000/svg"
   xmlns:svg="http://www.w3.org/2000/svg">
  <sodipodi:namedview
     id="namedview7"
     pagecolor="#ffffff"
     bordercolor="#000000"
     borderopacity="0.25"
     inkscape:showpageshadow="2"
     inkscape:pageopacity="0.0"
     inkscape:pagecheckerboard="0"
     inkscape:deskcolor="#d1d1d1"
     inkscape:document-units="mm"
     showgrid="false"
     inkscape:zoom="2.8284273"
     inkscape:cx="129.75409"
     inkscape:cy="107.12667"
     inkscape:window-width="1920"
     inkscape:window-height="1017"
     inkscape:window-x="-8"
     inkscape:window-y="-8"
     inkscape:window-maximized="1"
     inkscape:current-layer="g16747" />
  <defs
     id="defs2">
    <inkscape:path-effect
       effect="bspline"
       id="path-effect16458"
       is_visible="true"
       lpeversion="1"
       weight="33.333333"
       steps="2"
       helper_size="0"
       apply_no_weight="true"
       apply_with_weight="true"
       only_selected="false" />
  </defs>
  <g
     inkscape:label="Layer 1"
     inkscape:groupmode="layer"
     id="layer1"
     transform="translate(-181.60334,-84.164531)">
    <g
       id="g16747"
       transform="translate(103.97558,24.227215)">
      <path
         style="fill:#1c71d8;stroke-width:0.267204"
         d="m 78.394206,61.27789 c 0.05364,-0.02212 0.159601,-0.06582 0.319267,-0.08283 0.159666,-0.01701 0.37159,-0.008 0.734086,-0.04322 0.362497,-0.03525 0.870549,-0.113456 1.379901,-0.132728 0.509352,-0.01927 1.011345,0.02121 1.399369,0.01934 0.388024,-0.0019 0.6621,-0.04557 1.072531,-0.04646 0.41043,-8.85e-4 0.956545,0.04049 1.486782,0.06297 0.530238,0.02248 1.044767,0.02627 1.480714,0.01319 0.435947,-0.01308 0.79357,-0.04279 1.165057,-0.05903 0.371487,-0.01623 0.756622,-0.01917 1.212122,-0.0091 0.455501,0.01011 0.981238,0.03313 1.34348,0.01797 0.362242,-0.01516 0.56194,-0.06789 0.760405,-0.102572 0.198466,-0.03468 0.395106,-0.05158 0.679338,-0.08 0.284232,-0.02843 0.656119,-0.06834 1.510126,-0.06964 0.854007,-0.0013 2.189747,0.03571 3.05826,0.04933 0.868512,0.01362 1.269952,0.004 1.800144,-0.03717 0.530191,-0.04118 1.189403,-0.113724 1.771903,-0.13903 0.582499,-0.0253 1.087859,-0.0037 1.539659,0.0043 0.45179,0.0081 0.85017,0.0028 1.30159,0.008 0.45142,0.0052 0.95576,0.0206 1.3557,0.03769 0.39995,0.01709 0.69542,0.03574 1.23222,0.02743 0.5368,-0.0083 1.31521,-0.04326 1.86858,-0.06956 0.55337,-0.0263 0.87074,-0.04333 1.04263,0.07071 0.17189,0.114045 0.17922,0.348515 0.17563,0.52521 -0.004,0.176695 -0.0183,0.291272 -0.0333,0.459684 -0.0151,0.168413 -0.0304,0.388096 -0.0395,0.639468 -0.009,0.251372 -0.0121,0.534274 0.009,0.876314 0.0211,0.342039 0.0659,0.742929 0.0747,1.028815 0.009,0.285886 -0.0177,0.45749 -0.0512,0.911715 -0.0335,0.454224 -0.0743,1.190749 -0.07,1.848067 0.004,0.657318 0.0532,1.23506 0.0564,1.602673 0.003,0.367612 -0.0386,0.526086 0.026,1.339931 0.0646,0.813845 0.23428,2.278928 -4.66024,3.050129 -4.894532,0.771202 -14.987821,0.855643 -20.006293,0.135558 -5.018472,-0.720086 -5.11581,-2.25248 -5.14252,-3.171256 -0.02671,-0.918776 0.01812,-1.217118 0.02654,-1.576042 0.0084,-0.358923 -0.02011,-0.77905 -0.01772,-1.337569 0.0024,-0.558519 0.03601,-1.255131 0.06019,-2.041595 0.02417,-0.786464 0.03881,-1.662283 0.04649,-2.223553 0.0077,-0.56127 0.0083,-0.797732 0.0034,-0.998415 -0.0049,-0.200684 -0.01458,-0.33783 -0.01982,-0.412275 -0.0052,-0.07444 -0.0053,-0.07442 0.04836,-0.09654 z"
         id="path16456"
         inkscape:path-effect="#path-effect16458"
         inkscape:original-d="m 78.340567,61.300013 c 0.108612,-0.04101 0.214575,-0.08471 0.317887,-0.131108 0.214575,0.01172 0.4265,0.02074 0.635775,0.0271 0.515874,-0.0791 1.023926,-0.157314 1.538404,-0.236823 0.504159,0.04091 1.006152,0.08139 1.505979,0.121454 0.276725,-0.04101 0.550802,-0.08471 0.822227,-0.131107 0.548764,0.04406 1.094878,0.08544 1.638342,0.124115 0.517179,0.0065 1.031708,0.01027 1.543588,0.01136 0.360274,-0.02703 0.717897,-0.05674 1.07287,-0.08915 0.387782,-2.21e-4 0.772916,-0.0032 1.155398,-0.0088 0.528387,0.0257 1.054123,0.04873 1.577211,0.06905 0.202347,-0.05004 0.402045,-0.102773 0.599096,-0.158203 0.199291,-0.0142 0.395931,-0.0311 0.589923,-0.05069 0.374539,-0.03722 0.746426,-0.07714 1.115662,-0.119745 1.33839,0.03969 2.674129,0.0767 4.007217,0.111005 0.404077,-0.0069 0.805516,-0.01655 1.2043,-0.02885 0.661857,-0.06986 1.32107,-0.142396 1.977628,-0.217636 0.508006,0.02425 1.013366,0.04581 1.516076,0.06468 0.40103,-0.0024 0.79941,-0.0077 1.19514,-0.01573 0.50699,0.01814 1.01133,0.03357 1.51302,0.04632 0.29812,0.02134 0.59359,0.03999 0.88642,0.05594 0.78106,-0.03227 1.55947,-0.06723 2.33525,-0.104884 0.33085,-0.01747 0.64822,-0.0345 0.98428,-0.05282 0.008,0.246117 0.0153,0.480588 0.0225,0.719502 -0.0143,0.11453 -0.029,0.229102 -0.044,0.343715 -0.0126,0.222371 -0.028,0.442047 -0.0459,0.65903 -5.3e-4,0.285594 -0.004,0.568492 -0.009,0.848698 0.0475,0.403589 0.0923,0.804483 0.13449,1.202686 -0.0238,0.174297 -0.0503,0.345901 -0.0795,0.514812 -0.0381,0.739223 -0.0788,1.475751 -0.12227,2.209586 0.0516,0.580436 0.10046,1.158182 0.14672,1.73323 -0.0392,0.161189 -0.0809,0.319681 -0.12532,0.475481 0.17065,1.471036 0.34036,2.93612 0.50916,4.395238 -9.95808,0.08358 -20.051369,0.168023 -29.991553,0.250913 -0.09651,-1.523348 -0.193853,-3.055742 -0.292013,-4.597182 0.04748,-0.295647 0.09231,-0.593989 0.13449,-0.895022 -0.02588,-0.41743 -0.05441,-0.837556 -0.08558,-1.260373 0.03628,-0.693921 0.0699,-1.390533 0.100868,-2.089841 0.01487,-0.87375 0.02952,-1.749568 0.04392,-2.62746 9.42e-4,-0.244652 0.0016,-0.481114 0.002,-0.733257 -0.01027,-0.149242 -0.01993,-0.286389 -0.03067,-0.43526 z"
         sodipodi:nodetypes="ccccccccccccccccccccccccccccccccccccccccsc"
         inkscape:export-filename="waist.svg"
         inkscape:export-xdpi="96"
         inkscape:export-ydpi="96" />
      <g
         id="g13739"
         transform="matrix(1,0,0,-1.1191984,2.706925,151.75548)">
        <g
           id="g13744"
           transform="matrix(1,0,0,0.78881032,0,14.687691)">
          <path
             style="fill:#000000;stroke-width:0.276938"
             id="path13419"
             d="m 75.154619,84.549272 c 0.06519,0.0012 0.132285,-0.01292 0.195569,0.0035 0.08969,0.02332 0.165161,0.09152 0.25515,0.113582 0.09838,0.02412 0.202255,0.0085 0.302317,0.02307 0.376468,0.05509 0.248081,0.08384 0.627304,0.118255 0.106033,0.0096 0.212812,0.0056 0.319238,0.0062 0.297414,0.0017 0.651857,0.19395 0.935595,0.222755 0.105842,0.01074 0.212076,-0.02187 0.318406,-0.0206 0.210973,0.0025 0.407386,-0.02473 0.597222,0.07756 0.259038,0.139578 0.683471,-0.07968 0.910187,-0.01272 0.345339,0.102013 -0.02875,0.128002 0.291333,0.07763 0.08447,-0.01329 0.156952,0.07694 0.24126,0.08 0.05323,0.0019 0.10353,-0.03267 0.156786,-0.03218 0.06295,5.86e-4 0.123671,0.0462 0.185776,0.03546 0.07789,-0.01348 0.135938,-0.09889 0.214693,-0.104722 0.09418,-0.007 0.18249,0.05451 0.275624,0.06837 0.110308,0.01641 0.22241,0.03456 0.332996,0.02213 0.129323,-0.01453 0.248144,-0.09166 0.377831,-0.102023 0.147852,-0.01181 0.295288,0.0416 0.443488,0.03637 0.165924,-0.0059 0.327616,-0.07094 0.493623,-0.06931 1.894473,0.01861 -0.857845,0.163104 1.155914,0.03246 1.667523,-0.108182 -0.448791,0.002 1.292413,5.66e-4 0.231651,-1.89e-4 0.462644,-0.03481 0.694275,-0.03198 0.237538,0.0029 0.473748,0.03922 0.71111,0.0492 0.51027,0.02145 1.021193,0.02024 1.531815,0.02768 0.264856,0.0039 0.529936,-0.007 0.79462,0.0035 1.487418,0.05889 0.16576,0.0085 1.653619,0.05759 0.565851,0.0187 1.102274,-0.116368 1.655492,-0.127013 0.260448,-0.005 0.520114,0.03397 0.77857,0.07044 0.950909,0.134192 0.579712,0.130943 1.533721,0.116161 0.255388,-0.004 0.510937,-0.03508 0.765985,-0.0208 0.258615,0.01448 0.513081,0.143303 0.770219,0.106788 0.996795,-0.141552 0.496999,-0.129446 1.487467,-0.10379 0.237561,0.0061 0.475191,-0.02238 0.712736,-0.01541 0.231086,0.0067 0.460543,0.06033 0.691829,0.05664 0.228738,-0.0036 0.453817,-0.0642 0.68216,-0.07874 0.557898,-0.03554 0.732038,0.0105 1.281108,0.01386 0.1946,0.0012 0.3895,0.0017 0.58365,-0.01343 0.188,-0.01466 0.37295,-0.06848 0.56156,-0.076 0.1794,-0.0072 0.35815,0.03194 0.53767,0.03232 0.17041,3.51e-4 0.34023,-0.02156 0.51047,-0.02977 0.47462,-0.0229 0.94944,-0.02808 1.42444,-0.03518 0.0529,-7.92e-4 0.61867,-0.02779 0.70183,-0.01379 0.0894,0.01505 0.16617,0.08175 0.25567,0.09642 0.066,0.01083 0.13255,-0.02221 0.19936,-0.02185 0.0497,2.64e-4 0.0977,0.02897 0.147,0.02369 0.0422,-0.0045 0.0755,-0.0558 0.11704,-0.05198 0.11788,0.01086 0.0451,0.02057 0.14048,0.0219 0.013,1.78e-4 0.0393,0.01579 0.0389,0.0022 -0.002,-0.07884 -0.002,-0.158099 -0.011,-0.236194 -0.002,-0.0209 -0.0132,0.0829 -0.009,0.06236 0.006,-0.03056 0.008,-0.06168 0.0145,-0.09201 0.0547,-0.253408 0.0313,-0.138921 0.0836,-0.337864 0.0118,-0.04485 0.0354,-0.134543 0.0354,-0.134543 v 0 c 0,0 0.0204,-0.04943 0.0289,-0.328035 10e-4,-0.04562 -0.14276,-0.237891 -0.15463,-0.246686 -0.0151,-0.01115 -0.0129,0.05908 -0.029,0.04942 -0.0301,-0.01809 -0.0246,-0.07209 -0.0488,-0.09625 -0.0199,-0.01991 -0.0505,-0.03934 -0.0745,-0.02746 -0.22953,0.113538 0.0185,0.02407 -0.26186,0.0204 -0.0703,-9.2e-4 -0.13782,0.02892 -0.20741,0.03885 -0.0872,0.01244 -0.1746,0.02932 -0.26258,0.02817 -0.64331,-0.0085 0.0156,0.05601 -0.7198,0.05446 -0.7745,-0.0016 -0.13046,-0.09638 -0.93832,0.01448 -0.88249,0.121094 -0.16447,-0.03216 -1.03977,-0.0637 -0.0899,-0.0032 -1.00769,0.123035 -1.08043,0.116956 -1.879558,-0.157095 0.78097,0.0029 -1.19201,0.112866 -0.219596,0.01224 -0.433991,-0.0798 -0.653392,-0.09557 -0.224526,-0.01612 -0.450826,-0.01868 -0.675165,1.19e-4 -1.545142,0.129432 0.192961,0.139212 -1.397282,0.08708 -0.246116,-0.008 -0.492447,0.0017 -0.738627,-0.0022 -0.249186,-0.0041 -0.498188,-0.02732 -0.747349,-0.02195 -0.254479,0.0055 -0.507373,0.04764 -0.761822,0.05451 -0.253778,0.0069 -0.507627,-0.01104 -0.76148,-0.01346 -0.530409,-0.005 -0.999004,0.01177 -1.529514,0.0047 -1.052054,-0.014 -0.519688,-0.01658 -1.59456,0.03199 -0.279838,0.01265 -0.556775,-0.06771 -0.836497,-0.08195 -0.275487,-0.01403 -0.551737,0.0056 -0.827436,-0.0028 -1.374631,-0.04161 -0.270925,-0.0082 -1.613055,0.0095 -0.762126,0.01007 -0.776379,-0.09185 -1.531393,-0.0747 -0.240335,0.0055 -0.480041,0.04769 -0.720256,0.03806 -0.18205,-0.0073 -1.193191,-0.182941 -1.388176,-0.172195 -0.215743,0.0119 -0.417789,0.165147 -0.632256,0.149212 -0.96582,-0.07176 -0.242837,-0.07552 -1.160346,-0.05273 -0.165269,0.0041 -0.331393,-0.02417 -0.4959,-0.0071 -0.149196,0.0155 -0.289373,0.08941 -0.438635,0.104187 -0.228518,0.02264 -0.45801,-0.06619 -0.688416,-0.01748 -0.08452,0.01787 -0.170055,0.03973 -0.255922,0.0345 -0.281675,-0.01714 -0.119436,-0.07951 -0.355149,-0.151411 -0.13482,-0.04112 -0.273952,0.08378 -0.405951,0.05708 -0.05427,-0.01098 -0.08856,-0.09064 -0.145292,-0.09313 -0.06303,-0.0028 -0.115265,0.05375 -0.173514,0.07911 -0.06443,0.02805 -0.125758,0.06838 -0.194471,0.08108 -0.242992,0.04492 -0.461792,0.0273 -0.719433,-0.0035 -0.626646,-0.07499 0.07852,-0.0245 -0.554648,-0.03482 -0.09826,-0.0016 -0.189095,-0.06115 -0.286924,-0.07077 -0.09991,-0.0099 -0.20071,0.02063 -0.300791,0.01298 -0.102049,-0.0078 -0.200286,-0.04712 -0.301728,-0.05906 -0.105453,-0.01241 -0.211782,-0.01769 -0.3177,-0.01374 -0.111873,0.0042 -0.222605,0.04802 -0.334263,0.03791 -0.112225,-0.01017 -0.213957,-0.07674 -0.324846,-0.09746 -0.109365,-0.02043 -0.221631,-0.01649 -0.332404,-0.02536 -0.106945,-0.0086 -0.213552,-0.03052 -0.320754,-0.0268 -0.167185,0.0058 -0.328242,0.07818 -0.497377,0.06983 -0.166806,-0.0082 -0.165449,0.560522 -0.0067,0.696218 1.47e-4,1.25e-4 -0.06467,-0.0014 5.12e-4,-2.1e-4 z"
             sodipodi:nodetypes="sssssssssssssssssssssssssssssssssssssssssssssssssssssssssssssssssssssssssssssssssssssssssssssssssssssssssss" />
          <path
             style="fill:#000000;stroke-width:0.305604"
             id="path15981"
             d="m 75.109465,83.691377 c -0.04384,-0.537793 0.128354,-1.05792 0.06912,-1.595376 -0.01953,-0.177252 -0.06886,-0.351023 -0.09754,-0.527312 -0.03065,-0.188493 -0.05361,-0.377891 -0.08041,-0.566838 0.09755,-1.538305 0.01133,0.368555 -0.03093,-1.193294 -0.0056,-0.204962 0.04129,-0.409314 0.03546,-0.614272 -0.0059,-0.208148 -0.0635,-0.413424 -0.07062,-0.621546 -0.01703,-0.497276 0.05629,-0.859661 0.125054,-1.354826 0.01635,-0.240774 0.0629,-0.481426 0.04905,-0.72232 -0.01346,-0.233946 -0.105518,-0.460081 -0.130458,-0.693296 -0.02775,-0.259499 -0.0058,-0.960999 -0.003,-1.233499 0.0062,-0.60079 0.0112,-0.385564 -0.0311,-0.93879 0.06631,-1.156062 0.0062,0.326401 -0.02311,-0.644718 -0.0023,-0.07864 0.0242,-0.156114 0.02796,-0.234712 0.0028,-0.05967 -0.02641,-0.121515 -0.0081,-0.179032 0.002,-0.006 0.157004,-0.208472 0.183142,-0.242694 0.06152,-0.03408 0.123051,-0.06818 0.184582,-0.102264 -0.0022,-0.0079 0.02341,-0.01348 0.02562,-0.0055 v 0 c 0.02865,0.02305 0.0573,0.04608 0.08597,0.06912 0.186042,0.119874 0.279539,0.211224 0.320109,0.420458 0.0152,0.07844 -3.23e-4,0.160541 0.02013,0.23805 0.174298,0.660733 0.102305,-0.129356 0.131219,0.644911 0.117746,0.887027 0.03413,-0.04357 -0.0165,0.953948 -0.06037,1.189458 0.07551,-0.01335 0.133563,1.243943 0.02188,0.47372 -0.155305,0.94595 -0.04342,1.421814 -0.131178,1.549473 -0.04759,-0.0886 0.03616,1.36794 0.0117,0.204315 -0.01609,0.408908 -0.02383,0.613376 -0.02275,0.602343 -0.03659,1.206249 -0.129615,1.804423 0.03884,0.185257 0.10175,0.367838 0.116513,0.555772 0.02665,0.339198 -0.102822,0.680006 -0.06528,1.018405 0.01705,0.153778 0.130219,0.292981 0.137986,0.447341 0.01207,0.239325 -0.16196,0.465347 -0.15491,0.705636 -0.01399,0.240464 -0.786849,0.205617 -0.77285,-0.03485 z" />
          <path
             style="fill:#000000;stroke-width:0.35104"
             id="path15985"
             d="m 105.19938,83.990806 c -0.0532,-0.101642 -0.15043,-0.196359 -0.15928,-0.30493 -0.009,-0.123116 0.0847,-0.239527 0.10521,-0.361944 0.11562,-0.689349 -0.0567,-0.1908 0.0277,-0.928714 0.12355,-1.081581 0.17132,0.0063 0.0664,-1.083268 -0.053,-0.367666 0.071,-0.731681 0.0637,-1.097953 -0.003,-0.180895 -0.064,-0.359511 -0.0695,-0.540384 -0.005,-0.171179 0.0344,-0.3417 0.0384,-0.512893 0.0124,-0.494597 -0.0155,-0.520455 -0.094,-1.003711 0.0696,-1.410522 -0.0124,0.454566 0.014,-0.875568 0.003,-0.131415 0.0429,-0.263143 0.0244,-0.39388 -0.0179,-0.12676 -0.11049,-0.243492 -0.13225,-0.369935 -0.0199,-0.115449 0.0109,-0.232649 0.009,-0.348994 -0.002,-0.11141 -0.0124,-0.222663 -0.0177,-0.333995 -0.003,-0.115413 -0.0155,-0.230857 -0.0109,-0.346237 0.005,-0.113358 0.0415,-0.225546 0.0406,-0.338958 -0.002,-0.226005 -0.0814,-0.402535 -0.10769,-0.625672 -0.0749,-0.634771 0.0733,0.05161 -0.0695,-0.536848 -0.0109,-0.07773 -0.0384,-0.155171 -0.0325,-0.233179 0.006,-0.08064 0.0749,-0.156514 0.0682,-0.237124 -0.006,-0.07674 0.10598,-0.604605 0.0928,-0.680872 -0.0124,-0.06977 0.0375,-0.13953 0.0316,-0.209728 -0.0389,-0.464783 -0.11127,0.07344 -0.0359,-0.334837 -4.2e-4,-0.0099 -0.0109,-0.209581 -0.0199,-0.226736 -0.0196,-0.0352 -0.0777,-0.05428 -0.096,-0.0898 -0.05,-0.09675 0.0482,-0.179435 0.13552,-0.231247 0.0109,-0.111529 -0.0169,-0.04556 0.26666,-0.07161 0.001,-0.01651 0.0642,0.003 0.0642,0.003 v 0 c 0,0 0.27968,-0.01541 0.44953,0.06585 -0.0252,0.172011 0.0266,-0.0082 0.076,0.149393 0.006,0.02155 -0.11531,0.30734 -0.0407,0.328169 0.0511,0.05122 0.12604,0.09352 0.15323,0.15366 0.0264,0.0587 -0.009,0.123895 -2.3e-4,0.185357 0.0429,0.304933 0.0118,1.068115 -0.0816,1.378071 -0.0162,0.08798 -0.0573,0.175412 -0.0483,0.263928 0.1035,1.021764 0.12075,-0.498193 0.17566,0.58886 0.006,0.108865 -0.0376,0.216588 -0.0401,0.325513 -0.005,0.228547 0.0581,0.456107 0.0483,0.684818 0.0261,0.267527 0.0525,0.427758 0.0348,0.697111 -0.008,0.125081 -0.0491,0.248751 -0.049,0.373977 2.8e-4,0.316768 0.0844,0.511373 0.17774,0.821006 0.005,0.154407 -0.065,0.305262 -0.0974,0.457892 0.0471,0.660878 0.0443,0.326035 0.005,1.00454 0.0109,0.173148 0.0828,0.34215 0.0974,0.515171 0.0155,0.180795 -0.014,0.362289 -0.008,0.543375 0.0292,0.919421 0.0996,0.170252 -0.0429,1.108233 -0.0205,0.183355 -0.0525,0.366224 -0.0617,0.55007 -0.0339,0.67808 0.0407,0.402278 0.0215,1.053994 -0.005,0.152363 -0.0417,0.303719 -0.043,0.456112 -10e-4,0.12721 0.0564,0.254533 0.035,0.38078 -0.0176,0.103147 -0.0996,0.194795 -0.14935,0.292193 -0.03,0.209827 -0.8443,0.147856 -0.81424,-0.06197 z"
             sodipodi:nodetypes="cccccccccccccccccccccccccccssccccccccccccccccccccccccc" />
          <path
             style="fill:#000000;stroke-width:0.276938"
             id="path710"
             d="m 75.154619,84.549272 c 0.06519,0.0012 0.132285,-0.01292 0.195569,0.0035 0.08969,0.02332 0.165161,0.09152 0.25515,0.113582 0.09838,0.02412 0.202255,0.0085 0.302317,0.02307 0.376468,0.05509 0.248081,0.08384 0.627304,0.118255 0.106033,0.0096 0.212812,0.0056 0.319238,0.0062 0.297414,0.0017 0.651857,0.19395 0.935595,0.222755 0.105842,0.01074 0.212076,-0.02187 0.318406,-0.0206 0.210973,0.0025 0.407386,-0.02473 0.597222,0.07756 0.259038,0.139578 0.683471,-0.07968 0.910187,-0.01272 0.345339,0.102013 -0.02875,0.128002 0.291333,0.07763 0.08447,-0.01329 0.156952,0.07694 0.24126,0.08 0.05323,0.0019 0.10353,-0.03267 0.156786,-0.03218 0.06295,5.86e-4 0.123671,0.0462 0.185776,0.03546 0.07789,-0.01348 0.135938,-0.09889 0.214693,-0.104722 0.09418,-0.007 0.18249,0.05451 0.275624,0.06837 0.110308,0.01641 0.22241,0.03456 0.332996,0.02213 0.129323,-0.01453 0.248144,-0.09166 0.377831,-0.102023 0.147852,-0.01181 0.295288,0.0416 0.443488,0.03637 0.165924,-0.0059 0.327616,-0.07094 0.493623,-0.06931 1.894473,0.01861 -0.857845,0.163104 1.155914,0.03246 1.667523,-0.108182 -0.448791,0.002 1.292413,5.66e-4 0.231651,-1.89e-4 0.462644,-0.03481 0.694275,-0.03198 0.237538,0.0029 0.473748,0.03922 0.71111,0.0492 0.51027,0.02145 1.021193,0.02024 1.531815,0.02768 0.264856,0.0039 0.529936,-0.007 0.79462,0.0035 1.487418,0.05889 0.16576,0.0085 1.653619,0.05759 0.565851,0.0187 1.102274,-0.116368 1.655492,-0.127013 0.260448,-0.005 0.520114,0.03397 0.77857,0.07044 0.950909,0.134192 0.579712,0.130943 1.533721,0.116161 0.255388,-0.004 0.510937,-0.03508 0.765985,-0.0208 0.258615,0.01448 0.513081,0.143303 0.770219,0.106788 0.996795,-0.141552 0.496999,-0.129446 1.487467,-0.10379 0.237561,0.0061 0.475191,-0.02238 0.712736,-0.01541 0.231086,0.0067 0.460543,0.06033 0.691829,0.05664 0.228738,-0.0036 0.453817,-0.0642 0.68216,-0.07874 0.557898,-0.03554 0.732038,0.0105 1.281108,0.01386 0.1946,0.0012 0.3895,0.0017 0.58365,-0.01343 0.188,-0.01466 0.37295,-0.06848 0.56156,-0.076 0.1794,-0.0072 0.35815,0.03194 0.53767,0.03232 0.17041,3.51e-4 0.34023,-0.02156 0.51047,-0.02977 0.47462,-0.0229 0.94944,-0.02808 1.42444,-0.03518 0.0529,-7.92e-4 0.61867,-0.02779 0.70183,-0.01379 0.0894,0.01505 0.16617,0.08175 0.25567,0.09642 0.066,0.01083 0.13255,-0.02221 0.19936,-0.02185 0.0497,2.64e-4 0.0977,0.02897 0.147,0.02369 0.0422,-0.0045 0.0755,-0.0558 0.11704,-0.05198 0.11788,0.01086 0.0451,0.02057 0.14048,0.0219 0.013,1.78e-4 0.0393,0.01579 0.0389,0.0022 -0.002,-0.07884 -0.002,-0.158099 -0.011,-0.236194 -0.002,-0.0209 -0.0132,0.0829 -0.009,0.06236 0.006,-0.03056 0.008,-0.06168 0.0145,-0.09201 0.0547,-0.253408 0.0313,-0.138921 0.0836,-0.337864 0.0118,-0.04485 0.0354,-0.134543 0.0354,-0.134543 v 0 c 0,0 0.0204,-0.04943 0.0289,-0.328035 10e-4,-0.04562 -0.14276,-0.237891 -0.15463,-0.246686 -0.0151,-0.01115 -0.0129,0.05908 -0.029,0.04942 -0.0301,-0.01809 -0.0246,-0.07209 -0.0488,-0.09625 -0.0199,-0.01991 -0.0505,-0.03934 -0.0745,-0.02746 -0.22953,0.113538 0.0185,0.02407 -0.26186,0.0204 -0.0703,-9.2e-4 -0.13782,0.02892 -0.20741,0.03885 -0.0872,0.01244 -0.1746,0.02932 -0.26258,0.02817 -0.64331,-0.0085 0.0156,0.05601 -0.7198,0.05446 -0.7745,-0.0016 -0.13046,-0.09638 -0.93832,0.01448 -0.88249,0.121094 -0.16447,-0.03216 -1.03977,-0.0637 -0.0899,-0.0032 -1.00769,0.123035 -1.08043,0.116956 -1.879558,-0.157095 0.78097,0.0029 -1.19201,0.112866 -0.219596,0.01224 -0.433991,-0.0798 -0.653392,-0.09557 -0.224526,-0.01612 -0.450826,-0.01868 -0.675165,1.19e-4 -1.545142,0.129432 0.192961,0.139212 -1.397282,0.08708 -0.246116,-0.008 -0.492447,0.0017 -0.738627,-0.0022 -0.249186,-0.0041 -0.498188,-0.02732 -0.747349,-0.02195 -0.254479,0.0055 -0.507373,0.04764 -0.761822,0.05451 -0.253778,0.0069 -0.507627,-0.01104 -0.76148,-0.01346 -0.530409,-0.005 -0.999004,0.01177 -1.529514,0.0047 -1.052054,-0.014 -0.519688,-0.01658 -1.59456,0.03199 -0.279838,0.01265 -0.556775,-0.06771 -0.836497,-0.08195 -0.275487,-0.01403 -0.551737,0.0056 -0.827436,-0.0028 -1.374631,-0.04161 -0.270925,-0.0082 -1.613055,0.0095 -0.762126,0.01007 -0.776379,-0.09185 -1.531393,-0.0747 -0.240335,0.0055 -0.480041,0.04769 -0.720256,0.03806 -0.18205,-0.0073 -1.193191,-0.182941 -1.388176,-0.172195 -0.215743,0.0119 -0.417789,0.165147 -0.632256,0.149212 -0.96582,-0.07176 -0.242837,-0.07552 -1.160346,-0.05273 -0.165269,0.0041 -0.331393,-0.02417 -0.4959,-0.0071 -0.149196,0.0155 -0.289373,0.08941 -0.438635,0.104187 -0.228518,0.02264 -0.45801,-0.06619 -0.688416,-0.01748 -0.08452,0.01787 -0.170055,0.03973 -0.255922,0.0345 -0.281675,-0.01714 -0.119436,-0.07951 -0.355149,-0.151411 -0.13482,-0.04112 -0.273952,0.08378 -0.405951,0.05708 -0.05427,-0.01098 -0.08856,-0.09064 -0.145292,-0.09313 -0.06303,-0.0028 -0.115265,0.05375 -0.173514,0.07911 -0.06443,0.02805 -0.125758,0.06838 -0.194471,0.08108 -0.242992,0.04492 -0.461792,0.0273 -0.719433,-0.0035 -0.626646,-0.07499 0.07852,-0.0245 -0.554648,-0.03482 -0.09826,-0.0016 -0.189095,-0.06115 -0.286924,-0.07077 -0.09991,-0.0099 -0.20071,0.02063 -0.300791,0.01298 -0.102049,-0.0078 -0.200286,-0.04712 -0.301728,-0.05906 -0.105453,-0.01241 -0.211782,-0.01769 -0.3177,-0.01374 -0.111873,0.0042 -0.222605,0.04802 -0.334263,0.03791 -0.112225,-0.01017 -0.213957,-0.07674 -0.324846,-0.09746 -0.109365,-0.02043 -0.221631,-0.01649 -0.332404,-0.02536 -0.106945,-0.0086 -0.213552,-0.03052 -0.320754,-0.0268 -0.167185,0.0058 -0.328242,0.07818 -0.497377,0.06983 -0.166806,-0.0082 -0.165449,0.560522 -0.0067,0.696218 1.47e-4,1.25e-4 -0.06467,-0.0014 5.12e-4,-2.1e-4 z"
             sodipodi:nodetypes="sssssssssssssssssssssssssssssssssssssssssssssssssssssssssssssssssssssssssssssssssssssssssssssssssssssssssss" />
        </g>
      </g>
      <path
         style="fill:#62a0ea;stroke-width:0.253347"
         id="path16553"
         d="m 107.67184,72.06138 c -0.0533,-0.239053 -0.0118,0.04685 0.0252,-0.172616 0.0222,-0.131847 -0.0716,-0.07438 0.0334,-0.188112 0.1281,-0.138715 0.0726,0.0098 0.11075,-0.142565 -0.0682,-0.137618 -0.0528,-0.03695 0.0152,-0.133616 0.0119,-0.01695 0.005,-0.04278 0.0194,-0.05787 0.0217,-0.02236 0.0774,-0.01826 0.0829,-0.04776 0.038,-0.203132 -0.15355,0.03536 -0.0233,-0.107661 -0.0287,-0.03336 -0.0821,-0.08729 -0.0372,-0.13189 0.0169,-0.01676 -0.056,-0.474369 -0.043,-0.493849 0.007,-0.01123 -0.009,-0.02511 -0.0118,-0.03794 -0.003,-0.01419 -0.005,-0.02868 -0.008,-0.04302 -0.0548,-0.02059 0.0178,-0.0948 -0.004,-0.121682 -0.0164,-0.02006 -0.0603,-0.01623 -0.0696,-0.03983 -0.007,-0.0172 0.0312,-0.02558 0.037,-0.04305 0.004,-0.01273 -0.006,-0.02604 -0.01,-0.03906 0.0121,-0.01147 0.0241,-0.02298 0.0362,-0.03446 -0.009,-0.01285 -0.0369,-0.02643 -0.0268,-0.03855 0.0182,-0.02181 0.0648,-0.0085 0.0837,-0.02978 0.0116,-0.013 -0.0139,-0.03186 -0.014,-0.04863 -9e-5,-0.0163 0.0183,-0.03161 0.0136,-0.04734 -0.007,-0.0222 -0.0297,-0.0371 -0.0446,-0.05564 0.1065,-0.07784 0.0728,-0.02024 0.068,-0.115303 -10e-4,-0.01882 0.004,-0.03764 0.003,-0.05644 -10e-4,-0.0181 -0.0213,-0.03876 -0.01,-0.05359 0.0188,-0.02449 0.0764,-0.01565 0.085,-0.04451 0.008,-0.0262 -0.0347,-0.04403 -0.052,-0.06604 -0.12022,-0.102333 0.0202,-0.153403 0.018,-0.26717 -5.3e-4,-0.03364 -0.0466,-0.06144 -0.039,-0.09437 0.0628,-0.275712 0.13241,0.07377 0.0525,-0.200642 -0.14499,-0.346696 0.0419,0.16168 2.6e-4,-0.182232 -0.004,-0.03133 -0.0498,-0.04722 -0.059,-0.0776 -0.007,-0.02394 0.0146,-0.0487 0.0133,-0.07351 -0.001,-0.02273 -0.0162,-0.0432 -0.0206,-0.06559 -0.004,-0.02004 -0.003,-0.04064 -0.004,-0.06096 0.0158,-0.01803 0.0425,-0.03137 0.0474,-0.05404 0.005,-0.02496 -0.0164,-0.0489 -0.0197,-0.07417 -0.007,-0.05246 0.005,-0.09557 0.004,-0.147656 -2.6e-4,-0.08755 -0.005,-0.07586 -0.0361,-0.164875 -7.9e-4,-0.02654 0.002,-0.0534 -0.002,-0.07962 -0.005,-0.02668 -0.023,-0.05081 -0.0248,-0.07778 -0.002,-0.02896 0.011,-0.05717 0.0143,-0.08602 0.004,-0.03282 0.002,-0.06606 0.007,-0.09882 0.004,-0.03035 0.0252,-0.06024 0.0184,-0.09016 -0.008,-0.03249 -0.0389,-0.05602 -0.0583,-0.08404 0.0277,-0.05725 0.069,-0.123594 0.0646,-0.190044 -0.002,-0.03228 -0.0377,-0.06027 -0.0327,-0.09228 0.006,-0.03528 0.0593,-0.05526 0.0615,-0.09085 -0.0632,-0.125066 -0.056,-0.06285 -0.035,-0.184942 -0.003,-0.02851 -0.01,-0.05693 -0.009,-0.08556 0.001,-0.03526 0.0227,-0.07019 0.0157,-0.10487 -0.0266,-0.130562 -0.10301,-0.06927 -0.0515,-0.206224 0.0753,-0.200146 0.0811,0.003 0.0557,-0.187209 -0.1906,-0.153276 0.0683,-0.140046 0.0441,-0.260745 -0.007,-0.03663 -0.0714,-0.05194 -0.0735,-0.08914 -0.0139,-0.251266 0.17857,0.07696 0.005,-0.168553 -0.0165,-0.08917 0.0569,-0.156768 0.075,-0.237936 0.005,-0.0237 -0.002,-0.04844 1.6e-4,-0.07258 0.002,-0.03217 0.0169,-0.101103 0.023,-0.132245 0.0176,-0.06898 0.0289,-0.08348 0.0146,-0.157246 -0.005,-0.02779 -0.0307,-0.05265 -0.0278,-0.08075 0.003,-0.0268 0.0391,-0.04363 0.0434,-0.07026 0.0307,-0.187934 -0.0871,0.01242 0.0307,-0.153032 -0.005,-0.03105 -0.0263,-0.124065 -0.0166,-0.15984 0.008,-0.02853 0.0461,-0.0497 0.0429,-0.07895 -0.004,-0.03569 -0.0514,-0.05698 -0.0615,-0.09162 -0.007,-0.02536 0.009,-0.05192 0.0118,-0.07802 0.003,-0.02722 0.005,-0.05458 0.007,-0.08187 -0.0145,-0.02351 -0.0381,-0.04396 -0.0435,-0.07051 -0.005,-0.02322 0.0102,-0.04629 0.0151,-0.06946 0.0109,-0.05104 0.0349,-0.137286 0.0171,-0.188921 -0.009,-0.02603 -0.0304,-0.04698 -0.0456,-0.07046 0.0137,-0.04244 0.0386,-0.102324 0.033,-0.14893 -0.003,-0.02723 -0.0295,-0.05135 -0.0262,-0.07858 0.003,-0.02731 0.0442,-0.04432 0.0442,-0.0718 -0.0562,-0.08726 -0.0462,-0.04228 -0.0401,-0.132708 -0.0734,-0.02133 -0.0162,-0.08189 -0.0393,-0.116615 -0.0141,-0.02121 -0.0695,-0.01904 -0.0658,-0.04365 0.005,-0.03104 0.0666,-0.02922 0.0809,-0.05767 0.0102,-0.02018 -0.017,-0.04212 -0.0196,-0.06422 -0.003,-0.02108 0.003,-0.04231 0.004,-0.06348 -0.0251,-0.06098 0.0711,-0.09921 0.0629,-0.153274 -0.009,-0.0606 -0.10905,-0.08328 -0.12638,-0.142366 -0.007,-0.02312 0.0115,-0.04671 0.0172,-0.07005 -0.007,-0.02341 -0.014,-0.04682 -0.0211,-0.07024 0.0363,-0.02367 0.10106,-0.03082 0.10883,-0.07102 0.006,-0.03166 -0.0619,-0.03321 -0.0838,-0.05829 -0.0124,-0.01421 -0.0562,-0.143174 -0.0508,-0.162411 0.007,-0.02404 0.0314,-0.04042 0.0471,-0.06062 0.0439,-0.06834 -0.0822,-0.140251 -0.0379,-0.205776 0.0189,-0.02793 0.074,-0.02626 0.0881,-0.05647 0.01,-0.02069 -0.0288,-0.038 -0.0337,-0.06008 -0.004,-0.01758 0.006,-0.03549 0.009,-0.05323 -0.0188,-0.05032 -0.0292,-0.05896 -0.0227,-0.111317 0.002,-0.01548 0.0153,-0.02967 0.0132,-0.04511 -7.9e-4,-0.006 -0.0508,-0.07478 -0.045,-0.08369 0.0139,-0.02125 0.0476,-0.02355 0.0714,-0.03533 -0.003,-0.0033 -0.0853,-0.08063 -0.0837,-0.09104 0.004,-0.02333 0.0427,-0.02993 0.0526,-0.05169 0.007,-0.01584 -0.008,-0.03402 -0.006,-0.05111 0.002,-0.02696 0.0161,-0.05212 0.0217,-0.07868 -0.0663,-0.144291 0.0102,0.0458 -0.008,-0.07151 -0.002,-0.01123 -0.0275,-0.02011 -0.0197,-0.0289 0.0118,-0.01319 0.0507,0.0064 0.0547,-0.01029 0.004,-0.01567 -0.0315,-0.01397 -0.0473,-0.02096 0.0214,-0.01984 0.0428,-0.03967 0.0642,-0.05951 -0.005,-0.01293 -0.008,-0.02685 -0.0157,-0.03882 -0.029,-0.04649 -0.0448,-0.03631 -0.0511,-0.08774 -0.003,-0.02292 0.009,-0.04766 2e-5,-0.06925 -0.007,-0.01812 -0.0454,-0.0213 -0.0453,-0.04066 1.5e-4,-0.02651 0.0306,-0.04498 0.0459,-0.06746 -0.02,-0.01526 -0.04,-0.03049 -0.06,-0.04575 -0.002,-0.01955 0.009,-0.04426 -0.005,-0.05869 -0.0138,-0.01372 -0.0491,0.0085 -0.0607,-0.0068 -0.0158,-0.02089 0.0244,-0.06912 -0.002,-0.07628 -0.10825,-0.02911 -0.14921,0.152212 -0.0791,-0.03957 -0.20114,0.03714 -0.0196,0.03241 -0.10593,-0.04251 -0.10879,-0.09441 0.0186,0.127463 -0.10581,-2.43e-4 -0.0977,-0.100461 0.0915,-0.06446 -0.0987,-0.0759 -0.19672,-0.158904 0.20079,0.133422 -0.16302,0.06776 -0.0615,-0.01111 -0.0425,-0.119353 -0.0969,-0.147911 -0.0304,-0.01593 -0.0551,0.04599 -0.0899,0.04995 -0.19672,0.02236 -0.009,-0.163485 -0.18684,0.103534 -0.18249,-0.09935 -0.0202,-0.04683 -0.18882,-0.0093 -0.0324,0.0072 -0.068,-0.01172 -0.10008,-0.0034 -0.0313,0.0082 -0.0481,0.04884 -0.0806,0.05044 -0.39626,0.01956 0.14541,-0.103952 -0.17092,-0.0222 -0.18302,0.127653 0.0411,4.85e-4 -0.14681,0.02137 -0.0252,0.0028 -0.035,0.04698 -0.06,0.04296 -0.0327,-0.0052 -0.043,-0.04781 -0.0711,-0.06404 -0.0571,-0.03297 -0.0815,-0.0038 -0.13245,0.02024 -0.0283,0.01109 -0.0547,0.02817 -0.085,0.03323 -0.0263,0.0044 -0.0538,-0.01072 -0.08,-0.0056 -0.0377,0.0073 -0.1038,0.06184 -0.15025,0.05557 -0.0284,-0.0039 -0.0486,-0.02876 -0.0752,-0.0387 -0.022,-0.0082 -0.0461,-0.01014 -0.0692,-0.01518 -0.12465,0.08751 0.004,0.0238 -0.14188,0.013 -0.0271,-0.0019 -0.0523,0.02492 -0.0788,0.01941 -0.0322,-0.0067 -0.0477,-0.05224 -0.0806,-0.05252 -0.37216,-0.0031 0.18189,0.119427 -0.16445,0.02973 -0.0585,-0.06247 -0.10457,0.03153 -0.15567,0.02077 -0.0363,-0.0076 -0.0498,-0.05442 -0.0842,-0.0673 -0.0261,-0.0098 -0.0564,0.0051 -0.0846,0.0042 -0.0287,-10e-4 -0.0568,-0.0112 -0.0855,-0.0098 -0.0276,0.0012 -0.0537,0.01179 -0.0806,0.01769 -0.0851,-0.02542 -0.16299,-0.06592 -0.25519,-0.04388 -0.0273,0.0065 -0.0496,0.03833 -0.077,0.03216 -0.21656,-0.0487 0.0809,-0.110091 -0.16013,-0.03818 -0.0281,0.0046 -0.0566,0.02031 -0.0841,0.01366 -0.0282,-0.0068 -0.041,-0.04034 -0.0681,-0.05038 -0.0223,-0.0083 -0.0482,7.28e-4 -0.072,-0.0017 -0.0217,-0.0022 -0.0428,-0.01614 -0.0641,-0.01186 -0.15463,0.03097 -0.009,0.06954 -0.14985,0.01271 -0.0923,-0.08364 -0.20167,0.05916 -0.2594,0.05085 -0.0393,-0.0057 -0.057,-0.05897 -0.0963,-0.06471 -0.0283,-0.0041 -0.0462,0.03426 -0.0742,0.03982 -0.0281,0.0056 -0.0572,-0.0053 -0.0859,-0.0081 -0.251,0.143277 0.0842,-0.0349 -0.12661,0.04271 -0.0166,0.0061 -0.0243,0.03963 -0.0403,0.0324 -0.0237,-0.01064 -0.0107,-0.05352 -0.0335,-0.06567 -0.0138,-0.0074 -0.0218,0.0238 -0.0371,0.02799 -0.0121,0.0033 -0.0247,-0.0051 -0.037,-0.0077 -0.0981,0.117415 0.007,0.0277 -0.0885,0.02329 -0.0215,-10e-4 -0.0376,0.02968 -0.0585,0.02501 -0.0866,-0.01934 -0.0125,-0.120349 -0.14252,-0.03932 -0.14796,0.08434 0.0634,-0.01456 -0.095,-0.03869 -0.0284,-0.0043 -0.0373,0.04836 -0.0659,0.051 -0.0196,0.0017 -0.024,-0.02888 -0.0382,-0.04143 -0.0186,-0.0164 -0.0347,-0.03939 -0.0597,-0.0451 -0.0205,-0.0047 -0.0403,0.01176 -0.0605,0.01766 -0.0695,0.129181 -0.0727,-0.04589 -0.14824,-0.01378 -0.0231,0.0098 -0.0217,0.0542 -0.0472,0.05509 -0.13864,0.0049 0.068,-0.150349 -0.0946,-0.0027 -0.0116,-0.01749 -0.0142,-0.04457 -0.0348,-0.05251 -0.0204,-0.0079 -0.0425,0.01475 -0.0646,0.01416 -0.0189,-4.85e-4 -0.0349,-0.01441 -0.0536,-0.01717 -0.0153,-0.0022 -0.031,0.004 -0.0464,0.0024 -0.0208,-0.0022 -0.0412,-0.0198 -0.061,-0.01351 -0.0248,0.0079 -0.0373,0.03379 -0.056,0.05068 -0.0782,-0.03245 -0.12552,0.04494 -0.20237,0.0383 -0.0245,-0.0022 -0.0436,-0.02689 -0.0683,-0.02617 -0.0239,7.28e-4 -0.10579,0.05351 -0.12509,0.06519 -0.0219,-0.01225 -0.0862,-0.05921 -0.12191,-0.03809 -0.0225,0.01329 -0.0149,0.05296 -0.0384,0.0646 -0.0201,0.0099 -0.0468,-0.02202 -0.067,-0.01244 -0.0443,0.07372 -0.014,0.05138 -0.0775,0.07975 -0.054,0.04089 -0.0286,0.0189 -0.0763,0.06594 -0.025,0.0072 -0.003,0.07211 0.0223,0.06489 v 0 c 0.0769,0.04379 0.0376,0.02645 0.11709,0.05343 0.11728,-0.101181 -0.0767,0.04787 0.0928,-0.0012 0.0224,-0.0065 0.0143,-0.04773 0.0362,-0.05542 0.0188,-0.0066 0.0347,0.02057 0.0545,0.0236 0.0166,0.0026 0.0332,-0.005 0.0498,-0.0076 0.0175,0.003 0.035,0.0061 0.0524,0.0091 0.17651,0.03312 -0.0644,0.0044 0.11715,-0.03994 0.027,-0.0066 0.10891,0.05552 0.12188,0.06426 0.15382,-0.03477 -0.0353,-0.119967 0.11356,-0.03314 0.079,0.01002 0.0417,-0.0069 0.0955,0.07383 0.0477,0.01189 0.0456,-0.113726 0.0941,-0.105005 0.0291,0.0052 0.0204,0.05122 0.0348,0.07497 0.0102,0.01683 0.0255,0.03056 0.0382,0.04583 0.097,0.03014 0.003,0.01456 0.11124,-0.02127 0.0287,-0.0095 0.0597,0.01742 0.0873,0.01208 0.0902,-0.01749 0.0184,-0.0551 0.0905,0.0017 0.0148,0.005 0.0288,0.01744 0.0444,0.01516 0.0191,-0.0028 0.0339,-0.03997 0.0489,-0.02876 0.0256,0.01909 0.001,0.07032 0.029,0.08684 0.0201,0.01198 0.0392,-0.03602 0.0628,-0.03207 0.13915,0.02332 -0.0497,0.115002 0.11642,0.0076 0.0219,0.0064 0.0431,0.01533 0.0657,0.01922 0.0167,0.0028 0.0348,-0.0041 0.0509,7.28e-4 0.0211,0.0064 0.0349,0.02822 0.0566,0.03208 0.0217,0.0039 0.0443,-0.0044 0.0655,-0.01045 0.0198,-0.0057 0.0379,-0.03333 0.0562,-0.02441 0.0315,0.01539 0.0401,0.05413 0.0602,0.08119 0.017,-0.03065 0.0157,-0.08021 0.0509,-0.09195 0.0272,-0.0091 0.0355,0.05038 0.0642,0.0536 0.0425,0.0048 0.10345,-0.07163 0.11204,-0.06718 0.14206,0.07366 0.002,0.119871 0.1322,0.05446 0.0202,-0.02807 0.0249,-0.0762 0.0605,-0.08423 0.0318,-0.0072 0.0478,0.04636 0.0798,0.05261 0.026,0.005 0.05,-0.01691 0.0759,-0.02227 0.0792,-0.01635 0.14251,0.0029 0.21416,0.03399 0.16295,-0.135925 0.0648,0.02091 0.19266,0.0015 0.0367,-0.0056 0.13428,-0.07963 0.14798,-0.07522 0.0386,0.01242 0.0521,0.0578 0.0782,0.0867 0.0386,-0.0087 0.12831,-0.03557 0.17191,-0.02108 0.0285,0.0095 0.0408,0.05055 0.0711,0.05221 0.0342,0.0019 0.19483,-0.118133 0.24237,-0.107665 0.084,0.0061 0.17289,0.0116 0.25075,0.04485 0.0301,0.01284 0.052,0.04792 0.0852,0.04717 0.0337,-7.28e-4 0.0563,-0.034 0.0844,-0.05099 0.0254,9.2e-5 0.0507,1.87e-4 0.076,2.43e-4 0.0275,0.0069 0.0546,0.01489 0.0824,0.02052 0.0269,0.0055 0.0566,0.0017 0.0813,0.01274 0.0338,0.01511 0.0517,0.06038 0.0892,0.06344 0.0346,0.0028 0.0569,-0.03789 0.0895,-0.04887 0.0599,-0.02016 0.13118,-0.0028 0.18588,-0.0421 0.22166,0.0929 -0.0587,-0.0044 0.16945,0.01024 0.0276,0.0017 0.0483,0.0444 0.0738,0.03464 0.0341,-0.01303 0.0284,-0.06739 0.0595,-0.08564 0.0402,-0.0236 0.10803,0.05073 0.14214,-0.01674 0.0225,0.01661 0.0406,0.04029 0.0676,0.04984 0.055,0.01948 0.0858,-0.02543 0.13028,-0.03902 0.0218,-0.0066 0.046,-0.0027 0.0685,-0.0065 0.13113,-0.02222 0.0376,-0.03465 0.18336,0.01671 0.1934,0.0091 -0.0336,0.01807 0.16462,-0.0751 0.0262,-0.01235 0.0599,0.0063 0.0885,-4.85e-4 0.0323,-0.0076 0.0568,-0.03416 0.0891,-0.04152 0.0375,-0.0085 0.14098,0.0075 0.17722,0.01203 0.0372,0.01329 0.12971,0.05141 0.17564,0.05023 0.075,-0.0019 0.14557,-0.08664 0.19903,-0.0063 0.11712,-0.09869 0.0702,0.04191 0.0885,0.03593 0.0892,-0.02918 0.0829,-0.117598 0.0807,-0.03517 -0.002,0.01458 -0.0172,0.0321 -0.007,0.04376 0.007,0.0083 0.0632,-0.01352 0.0738,-0.0068 0.0357,0.02292 -0.0535,0.07477 0.006,0.0742 -0.009,0.136338 -0.006,-0.07418 0.033,0.0549 0.0102,0.03393 -0.0774,0.01649 0.004,0.05416 0.0229,0.0106 0.056,7.28e-4 0.0746,0.01674 0.009,0.008 -0.0197,0.01483 -0.0295,0.02223 0.0219,-0.0012 0.052,-0.01936 0.0657,-0.0037 0.0134,0.0153 -0.0446,-0.0028 -0.0639,0.0057 -0.0309,0.01356 0.11,0.10448 0.0185,0.141892 -0.01,0.0177 -0.0197,0.03541 -0.0296,0.05312 0.0104,0.0145 0.0361,0.0268 0.0311,0.04351 -0.007,0.0229 -0.0547,0.02353 -0.0584,0.04707 -0.003,0.02171 0.0459,0.03115 0.0427,0.05289 -0.0224,0.154378 -0.10835,-0.05846 -0.031,0.09446 0.0113,0.01395 0.0313,0.02462 0.034,0.04182 0.007,0.04687 -0.0691,0.101795 -0.0588,0.1499 0.004,0.01912 0.0321,0.02983 0.0344,0.0492 0.002,0.01926 -0.0147,0.03632 -0.0221,0.05447 -0.004,0.01667 -0.0155,0.03367 -0.0104,0.04999 0.0133,0.04294 0.0969,0.06443 0.0863,0.107969 -0.007,0.0295 -0.0599,0.03395 -0.0722,0.062 -0.0181,0.04124 0.0546,0.08877 0.0189,0.132174 -0.0728,0.06114 -0.12803,0.06042 -0.0399,0.131418 0.0274,0.02205 0.0896,0.01825 0.0938,0.05142 0.004,0.0324 -0.0659,0.03567 -0.0787,0.06609 -0.01,0.02312 0.0135,0.04804 0.0202,0.07207 -0.0124,0.02227 -0.0249,0.04453 -0.0373,0.0668 0.0536,0.04502 0.10394,0.06113 0.0954,0.135332 -0.003,0.02821 -0.0358,0.05143 -0.0327,0.07966 0.003,0.02776 0.053,0.04279 0.0493,0.07047 -0.0401,0.294035 -0.10632,-0.07514 -0.0552,0.146902 0.009,0.05986 0.0125,0.126648 -0.002,0.186507 -0.004,0.01805 -0.03,0.03419 -0.0227,0.05145 0.0109,0.02587 0.0552,0.03012 0.0677,0.05538 0.0103,0.02077 -0.004,0.04542 -0.007,0.06814 -0.001,0.01999 -0.0102,0.04075 -0.004,0.06 0.007,0.02348 0.0486,0.03815 0.0427,0.062 -0.008,0.03096 -0.0723,0.0348 -0.0743,0.06649 -0.002,0.02946 0.0493,0.03945 0.0659,0.06475 0.0524,0.07979 0.0136,0.07963 -0.0461,0.143524 0.008,0.02046 0.0136,0.04162 0.0234,0.06137 0.0111,0.02261 0.0419,0.04058 0.039,0.06524 -0.003,0.02934 -0.0453,0.04458 -0.0551,0.07269 -0.027,0.07784 0.0881,0.141765 0.01,0.214262 -0.0124,0.02454 -0.038,0.04661 -0.0371,0.07362 7.9e-4,0.02634 0.0344,0.04367 0.0419,0.06912 0.005,0.01846 -0.01,0.182881 -0.0154,0.204983 -0.006,0.02431 -0.0212,0.04594 -0.0318,0.06892 -0.0145,0.106525 0.008,0.05529 -0.0806,0.148039 -0.005,0.03082 0.0456,0.0544 0.0419,0.08544 -0.004,0.02981 -0.051,0.04219 -0.0603,0.07094 -0.005,0.01395 0.021,0.1492 0.0238,0.165126 0.0479,0.264651 -0.004,-0.155097 -0.073,0.138372 -0.008,0.03241 0.0457,0.05514 0.0506,0.08798 0.004,0.02666 -0.0238,0.05036 -0.0258,0.07722 -0.0144,0.191448 0.055,-0.01021 -0.0197,0.166398 0.0515,0.108426 0.0454,0.134261 -0.0183,0.238579 -0.0168,0.02759 -0.0525,0.04922 -0.0541,0.08079 -0.002,0.0359 0.0351,0.06485 0.045,0.09962 0.009,0.03031 0.007,0.06235 0.0101,0.09353 0.002,0.07601 0.0102,0.127817 -0.0165,0.203184 -0.0129,0.03638 -0.0506,0.06489 -0.0555,0.102879 -0.005,0.03565 0.037,0.06922 0.0289,0.104358 -0.0523,0.228821 -0.1264,-0.0076 -0.0381,0.191831 0.01,0.04352 0.037,0.135185 0.0208,0.180032 -0.0125,0.03467 -0.0646,0.05376 -0.0678,0.09014 -0.003,0.0358 0.0501,0.06117 0.051,0.09709 0.0113,0.425669 -0.11906,-0.192279 -0.0208,0.206925 0.17941,0.26635 -0.0102,-0.08122 -0.0169,0.181698 -10e-4,0.03816 0.0588,0.05631 0.0753,0.09137 0.0601,0.127929 -0.0257,0.05518 -0.0381,0.174099 -0.003,0.0262 0.0207,0.04907 0.0311,0.07362 -0.16731,0.180971 -0.0188,0.09607 -0.006,0.221455 0.003,0.02554 -0.0238,0.04709 -0.0286,0.07236 -0.005,0.0258 0.0118,0.10012 0.016,0.122723 -0.10493,0.159001 -0.0256,-0.0061 -0.0193,0.146006 0.001,0.02852 -0.0172,0.05493 -0.0239,0.0828 -0.0204,0.08514 -0.0355,0.171632 -0.0122,0.257751 0.021,0.105373 0.0789,0.285679 0.0647,0.388556 -0.004,0.03134 -0.029,0.05797 -0.0356,0.08897 -0.005,0.0256 -1e-4,0.05217 -1.5e-4,0.07825 0.0103,0.0188 0.0205,0.03762 0.0308,0.05642 -0.0155,0.01424 -0.0521,0.02333 -0.0464,0.04273 0.008,0.02741 0.0609,0.02565 0.0742,0.05132 0.0181,0.03482 -0.0721,0.11609 -0.0745,0.151877 0.0285,0.0164 0.0721,0.02091 0.0855,0.04919 0.008,0.0171 -0.0331,0.02322 -0.0436,0.03918 -0.0276,0.04178 0.004,0.04551 -0.006,0.08983 -0.004,0.01732 -0.029,0.0305 -0.025,0.04775 0.005,0.02127 0.0316,0.03247 0.0473,0.04869 0.002,0.01596 0.005,0.03194 0.008,0.04792 -0.006,0.01439 -0.0196,0.02764 -0.019,0.04314 5.3e-4,0.0162 0.0461,0.05949 0.0291,0.08178 -0.0165,0.02159 -0.0615,0.01897 -0.072,0.04353 -0.007,0.01669 0.0235,0.0286 0.0353,0.0429 -0.10103,0.08628 0.12944,0.494769 0.11224,0.554739 -0.0472,0.168632 -0.0464,-0.08461 -0.0179,0.06365 0.002,0.01053 -0.005,0.02089 -0.008,0.03131 0.12672,0.118318 -0.0541,0.02989 -0.0104,0.124499 0.0104,0.02251 0.0673,0.03738 0.0508,0.05661 -0.086,0.100563 -0.23977,-0.08477 -0.0161,0.112595 -0.1193,0.04628 -0.13383,0.01417 -0.12056,0.13208 0.004,0.03474 0.0345,0.06812 0.0257,0.102083 -0.008,0.03105 -0.0598,0.04016 -0.0707,0.07047 -0.0208,0.05785 0.0443,0.125977 -0.008,0.182592 -0.0463,0.123729 0.33533,0.243929 0.38168,0.120199 z"
         sodipodi:nodetypes="cccccccccccccccccccsccccccccccccccccccccccccccccccccccccccccccccccccccccccccccccccccccscccccccccccccccccccccccccccccsccccccccccscccccccccscccccccccccccccccccccccccccccccccccccccccccccccccssccscccsccccscsccccccccccccccccccccccscccccccccscccccccccccccccccccccccsccccccccccccccccccccccccccccccccccccccccccccccccccccccccccccccccccccccccccccccccccccccccccccccsccccsccc" />
    </g>
  </g>
</svg>
