<?xml version="1.0" encoding="UTF-8" standalone="no"?>
<!-- Created with Inkscape (http://www.inkscape.org/) -->

<svg
   width="67.71608mm"
   height="2.4011765mm"
   viewBox="0 0 67.71608 2.4011765"
   version="1.1"
   id="svg5"
   xmlns:inkscape="http://www.inkscape.org/namespaces/inkscape"
   xmlns:sodipodi="http://sodipodi.sourceforge.net/DTD/sodipodi-0.dtd"
   xmlns="http://www.w3.org/2000/svg"
   xmlns:svg="http://www.w3.org/2000/svg">
  <sodipodi:namedview
     id="namedview7"
     pagecolor="#ffffff"
     bordercolor="#000000"
     borderopacity="0.25"
     inkscape:showpageshadow="2"
     inkscape:pageopacity="0.0"
     inkscape:pagecheckerboard="0"
     inkscape:deskcolor="#d1d1d1"
     inkscape:document-units="mm"
     showgrid="false" />
  <defs
     id="defs2" />
  <g
     inkscape:label="Layer 1"
     inkscape:groupmode="layer"
     id="layer1"
     transform="translate(-54.219884,-93.384481)">
    <path
       style="fill:#ffffff;stroke-width:0.307187"
       id="path3732"
       d="m 54.250452,95.495455 c 0.02812,-0.132185 0.227151,-0.237991 0.402952,-0.267949 0.160497,-0.02734 0.306605,0.0918 0.466919,0.119727 0.190501,0.03319 0.389601,0.09332 0.580907,0.0628 0.250952,-0.04004 0.426665,-0.25009 0.682634,-0.264403 0.261581,-0.01464 0.497769,0.122983 0.746655,0.184475 0.291382,-0.02542 0.58276,-0.05084 0.874141,-0.07625 0.328195,0.01494 0.655946,0.05277 0.984579,0.0448 0.374047,-0.0091 0.741053,-0.09582 1.115301,-0.09575 0.418419,1.02e-4 0.830449,0.08399 1.248545,0.09617 0.458761,0.0134 0.91934,-0.04599 1.377084,-0.0197 3.505017,0.201276 -0.581866,0.258307 3.159356,0.127312 0.598008,-0.07338 1.188011,-0.229279 1.794019,-0.220152 0.641587,0.0097 1.249853,0.232799 1.888971,0.275623 0.688018,0.0461 3.305346,-0.07573 3.975387,-0.05915 4.38484,0.108477 -0.07944,0.289059 4.557987,-0.0055 3.915402,0.562192 1.511297,0.447609 5.543133,0.0745 0.927049,-0.08579 1.861555,-0.122261 2.788738,-0.207228 0.87648,-0.08032 1.73764,-0.281503 2.620734,-0.288495 3.096334,0.321777 1.588462,0.262698 4.52089,0.212087 3.552546,0.384898 0.3317,0.186382 3.674525,-0.01435 0.551626,-0.03312 1.110379,-0.02943 1.660121,0.01792 0.546022,0.04703 1.062731,0.299628 1.61029,0.263745 3.62781,-0.237739 -0.526766,-0.981643 3.10887,-0.0864 0.52477,-0.08384 1.0375,-0.250674 1.5743,-0.251537 0.5636,-9.13e-4 1.09616,0.212206 1.65788,0.246337 3.1355,0.190525 0.25829,-0.242412 3.56619,-0.289466 0.63112,-0.009 1.24713,0.149927 1.87552,0.194325 0.60539,0.04277 1.21477,0.04463 1.82215,0.06693 0.79064,0.07238 2.58747,0.263106 3.40999,0.237903 1.04279,-0.03196 1.95111,-0.33016 3.00764,-0.247094 0.44411,0.03491 0.96114,0.237899 1.38911,0.332623 l -10e-4,-1.640149 v 0 c -1.82147,0.118347 -0.91049,0.221575 -2.7119,-0.398872 -0.58801,0.01108 -1.01904,0.533059 -1.60716,0.540546 -1.16473,0.01484 -2.10107,-1.169095 -3.43516,-0.476615 -4.00462,-0.563563 0.38414,-0.138611 -3.73643,0.08205 -0.62574,0.03351 -1.24564,-0.141751 -1.87298,-0.137364 -0.57649,0.0041 -1.14054,0.132207 -1.71561,0.162466 -1.6744,0.0881 -1.60868,0.02205 -3.22417,-0.19122 -5.149874,-0.26639 2.01946,-0.0046 -3.12648,0.168581 -0.545787,0.01837 -1.0821,-0.163852 -1.627711,-0.142789 -0.567226,0.0219 -1.100949,0.218418 -1.664687,0.269894 -1.560664,0.142503 -2.112744,0.0076 -3.686697,-0.148747 -0.708795,0.08473 -1.410503,0.213947 -2.126391,0.254182 -0.49124,0.02761 -4.637005,-0.02626 -5.008873,-0.02014 -0.925275,0.01524 -1.847166,0.106981 -2.772667,0.108313 -0.939067,0.0014 -1.87705,-0.147424 -2.813963,-0.100263 -0.906275,0.04562 -1.7849,0.251134 -2.677353,0.3767 -4.274542,-0.912598 -0.422343,-0.412995 -4.528421,-0.06249 -1.56876,0.133918 -2.441154,-0.2165 -3.959181,-0.373495 -0.629252,-0.06508 -1.265543,-0.104433 -1.900876,-0.103686 -0.602837,7.24e-4 -1.201753,0.07206 -1.802634,0.108081 -0.550801,-0.03325 -1.101478,-0.06763 -1.652401,-0.09974 -0.503885,-0.02936 -1.010569,-0.0376 -1.51201,-0.08467 -0.462574,-0.04342 -0.910205,-0.171407 -1.376026,-0.186427 -0.420937,-0.01356 -0.837317,0.132601 -1.256563,0.101542 -0.387275,-0.02869 -0.719328,-0.246898 -1.10646,-0.276603 -0.327975,-0.02517 -0.651045,0.07786 -0.976569,0.116775 -0.836507,0.06846 -0.776336,0.09473 -1.582,0.0468 -0.217154,-0.01296 -0.433653,-0.03367 -0.648355,-0.06107 -0.187391,-0.02389 -0.366991,-0.08196 -0.556591,-0.09261 -0.955486,-0.05366 -0.365015,0.184739 -1.039466,0.02512 l -0.0093,2.2167 z"
       inkscape:export-filename="line.svg"
       inkscape:export-xdpi="96"
       inkscape:export-ydpi="96"
       sodipodi:nodetypes="sssssccccccccsccssccssscsssscssccscscscscssscsscscssscssssscccsccs" />
  </g>
</svg>
